<?xml version="1.0" encoding="UTF-8" standalone="no"?>
<svg width="186px" height="35px" viewBox="0 0 186 35" version="1.1" xmlns="http://www.w3.org/2000/svg" xmlns:xlink="http://www.w3.org/1999/xlink" xmlns:sketch="http://www.bohemiancoding.com/sketch/ns">
    <!-- Generator: Sketch 3.0.4 (8053) - http://www.bohemiancoding.com/sketch -->
    <title>h1_handcream_light</title>
    <desc>Created with Sketch.</desc>
    <defs></defs>
    <g id="Page-1" stroke="none" stroke-width="1" fill="none" fill-rule="evenodd" sketch:type="MSPage">
        <g id="h1_handcream_light" sketch:type="MSLayerGroup" transform="translate(1.000000, 1.000000)" fill="#000000">
            <path d="M2.847,0.636 C2.847,-0.138 3.2,-0.412 3.906,-0.184 C5.137,0.477 6.014,0.773 6.538,0.705 C7.472,0.727 8.406,0.705 9.341,0.636 C9.455,0.568 9.626,0.409 9.854,0.158 C10.4,-0.571 11.187,-0.423 12.212,0.602 C12.873,1.172 13.112,1.616 12.93,1.935 C12.679,2.277 12.554,2.722 12.554,3.269 L12.554,8.361 C12.554,8.908 12.61,9.182 12.725,9.182 C12.952,9.136 13.328,9.284 13.853,9.626 C14.468,10.014 14.775,9.956 14.775,9.455 L14.775,2.893 C14.775,2.141 15.128,1.855 15.835,2.038 C16.382,2.197 16.929,2.402 17.476,2.653 C17.772,2.812 18.136,2.893 18.569,2.893 C19.025,2.893 19.253,2.619 19.253,2.072 L19.253,0.705 C19.253,0.021 19.595,-0.321 20.278,-0.321 C20.848,-0.275 21.418,-0.184 21.987,-0.047 L22.808,0.192 C23.172,0.534 23.081,0.83 22.534,1.081 C22.329,1.172 22.227,1.491 22.227,2.038 C22.227,2.607 22.432,2.893 22.842,2.893 C23.274,2.893 23.491,2.619 23.491,2.072 L23.491,0.705 C23.491,0.021 23.833,-0.321 24.517,-0.321 C25.405,-0.252 26.26,-0.082 27.08,0.192 C27.399,0.488 27.308,0.785 26.807,1.081 C26.602,1.195 26.499,1.514 26.499,2.038 C26.499,2.607 26.647,2.893 26.943,2.893 C27.239,2.893 27.536,2.722 27.832,2.38 C28.356,1.696 29.074,1.708 29.985,2.414 C30.441,2.642 30.897,2.915 31.353,3.234 C32.036,3.599 32.139,3.964 31.66,4.328 C31.067,4.556 30.851,5.012 31.011,5.695 L31.011,12.121 C31.011,12.805 30.977,13.237 30.908,13.42 C30.817,13.602 31.09,14.035 31.729,14.719 C32.344,15.471 32.594,16.006 32.481,16.325 C32.344,16.462 31.934,16.53 31.25,16.53 L16.655,16.53 C15.926,16.599 15.197,16.701 14.468,16.838 C14.377,16.769 14.297,16.542 14.229,16.154 C14.137,15.653 14.468,15.425 15.22,15.471 C15.652,15.493 16.12,15.551 16.621,15.642 L27.012,15.642 C27.672,15.824 28.162,15.596 28.481,14.958 C28.755,14.525 28.8,14.309 28.618,14.309 C28.003,14.24 27.718,13.818 27.764,13.044 C27.764,12.634 27.49,12.429 26.943,12.429 L18.877,12.429 C18.33,12.429 18.045,12.6 18.023,12.941 C17.977,13.83 17.441,14.32 16.416,14.411 C15.231,14.616 14.684,14.194 14.775,13.146 C14.775,12.645 14.422,12.622 13.716,13.078 L12.93,13.625 C12.428,13.967 12.326,14.263 12.622,14.514 C13.374,15.015 13.397,15.482 12.69,15.915 C12.189,16.074 12.007,16.508 12.144,17.214 L12.144,29.929 C12.098,31.318 11.369,32.264 9.956,32.766 C9.044,32.879 8.6,32.583 8.623,31.877 C8.6,31.467 8.44,31.102 8.145,30.783 C7.256,30.236 6.823,29.894 6.846,29.758 C6.914,29.575 7.301,29.473 8.008,29.45 C8.805,29.427 9.102,28.96 8.897,28.049 L8.897,25.178 C8.897,24.608 8.623,24.323 8.076,24.323 L6.846,24.323 C6.276,24.323 5.991,24.597 5.991,25.144 L5.991,30.476 C6.265,31.865 5.718,32.674 4.351,32.902 C2.983,32.971 2.448,32.366 2.744,31.091 L2.744,17.282 C2.744,16.735 2.585,16.576 2.266,16.804 C1.058,17.465 0.226,17.168 -0.229,15.915 C-0.344,15.459 -0.093,14.775 0.523,13.864 C1.229,12.793 1.57,11.631 1.548,10.378 C1.48,9.694 1.48,9.296 1.548,9.182 C1.662,9.136 1.856,9.284 2.129,9.626 C2.356,10.036 2.527,10.241 2.642,10.241 C2.778,10.219 2.847,9.934 2.847,9.387 L2.847,0.636 L2.847,0.636 Z M11.528,12.121 C11.733,11.506 11.574,11.198 11.05,11.198 L3.94,11.198 C3.257,11.289 3.018,11.677 3.223,12.36 C3.314,13.066 3.701,13.545 4.385,13.796 C5.479,14.343 6.299,14.582 6.846,14.514 L7.7,14.514 C8.27,14.514 8.76,14.263 9.17,13.762 C9.534,12.964 10.002,12.759 10.571,13.146 C10.89,13.306 11.175,13.066 11.426,12.429 L11.528,12.121 L11.528,12.121 Z M9.58,2.551 C9.58,1.935 9.329,1.628 8.828,1.628 L6.88,1.628 C6.196,1.719 5.855,2.038 5.855,2.585 L5.855,9.421 C5.855,9.968 5.968,10.253 6.196,10.275 C6.47,10.275 6.606,10.002 6.606,9.455 L6.606,4.226 C6.606,3.496 6.96,3.257 7.666,3.508 C8.327,3.896 8.805,4.066 9.102,4.02 C9.42,4.02 9.58,3.747 9.58,3.2 L9.58,2.551 L9.58,2.551 Z M7.017,15.436 C6.333,15.527 5.991,15.847 5.991,16.394 L5.991,18.034 C5.991,18.603 6.265,18.889 6.812,18.889 L8.042,18.889 C8.611,18.889 8.897,18.615 8.897,18.068 L8.897,16.53 C8.805,15.801 8.486,15.436 7.94,15.436 L7.017,15.436 L7.017,15.436 Z M8.897,20.7 C8.897,20.107 8.634,19.811 8.11,19.811 L6.846,19.811 C6.276,19.811 5.991,20.085 5.991,20.632 L5.991,22.546 C5.991,23.115 6.265,23.4 6.812,23.4 L8.042,23.4 C8.611,23.4 8.897,23.127 8.897,22.58 L8.897,20.7 L8.897,20.7 Z M9.58,5.798 C9.58,5.205 9.489,4.909 9.307,4.909 C9.056,4.909 8.931,5.183 8.931,5.729 L8.931,9.421 C8.931,9.968 9.033,10.253 9.238,10.275 C9.466,10.253 9.58,9.968 9.58,9.421 L9.58,5.798 L9.58,5.798 Z M15.527,18.957 C15.527,18.228 15.869,17.943 16.553,18.102 C17.145,18.262 17.737,18.501 18.33,18.82 C18.831,19.071 19.333,19.196 19.834,19.196 L25.747,19.196 C26.294,19.196 26.75,19.003 27.114,18.615 C27.479,17.977 27.935,17.852 28.481,18.239 C29.119,18.467 29.803,18.832 30.532,19.333 C31.717,19.994 31.683,20.563 30.43,21.042 C30.361,22.295 30.338,23.583 30.361,24.904 C30.179,25.52 29.826,25.861 29.302,25.93 C28.367,26.226 27.661,26.123 27.183,25.622 L27.012,25.109 C26.989,24.858 26.704,24.733 26.157,24.733 L19.731,24.733 C19.185,24.733 18.877,24.848 18.809,25.075 L18.569,25.588 C18.455,25.702 18.74,25.895 19.424,26.169 C21.565,27.08 22.386,28.447 21.885,30.27 C21.634,30.726 21.794,30.954 22.363,30.954 L23.218,30.954 C23.765,30.954 24.163,30.612 24.414,29.929 C24.733,28.811 24.972,27.524 25.132,26.066 C25.2,25.976 25.61,25.986 26.362,26.101 C26.818,26.169 27.273,26.271 27.73,26.408 C28.641,26.545 29.199,26.829 29.404,27.263 C29.473,27.468 29.313,27.639 28.926,27.775 C28.629,27.798 28.333,28.003 28.037,28.391 C27.581,29.006 26.955,29.632 26.157,30.27 C25.565,30.726 25.542,30.954 26.089,30.954 C26.704,30.977 27.319,30.954 27.935,30.886 C28.025,30.84 28.162,30.681 28.345,30.407 L29.097,29.279 C29.689,28.618 30.315,28.55 30.977,29.074 C32.116,30.19 32.663,31.033 32.617,31.603 C32.503,31.763 32.105,31.843 31.421,31.843 L15.562,31.843 C15.197,31.865 14.821,31.922 14.434,32.014 C13.659,32.104 13.226,31.945 13.135,31.535 C12.998,30.988 13.34,30.737 14.16,30.783 C15.094,30.965 16.439,31.022 18.193,30.954 C18.763,30.954 18.945,30.76 18.74,30.373 C18.626,30.008 18.569,29.484 18.569,28.801 C18.592,28.276 18.478,27.661 18.228,26.955 C17.84,26.362 17.316,26.089 16.655,26.135 C15.675,26.181 15.299,25.644 15.527,24.528 L15.527,18.957 L15.527,18.957 Z M18.98,3.815 C18.341,3.884 18.023,3.975 18.023,4.089 L18.023,6.413 C18.023,6.982 18.216,7.268 18.604,7.268 C19.036,7.268 19.253,6.994 19.253,6.447 L19.253,4.67 C19.253,4.123 19.162,3.838 18.98,3.815 L18.98,3.815 Z M19.253,9.079 C19.253,8.486 19.059,8.19 18.672,8.19 C18.239,8.19 18.023,8.464 18.023,9.011 L18.023,10.685 C18.023,11.255 18.216,11.54 18.604,11.54 C19.036,11.54 19.253,11.267 19.253,10.72 L19.253,9.079 L19.253,9.079 Z M27.012,20.939 C27.012,20.37 26.715,20.085 26.123,20.085 L19.937,20.085 C19.253,20.176 18.911,20.495 18.911,21.042 L18.911,22.99 C18.911,23.56 19.185,23.845 19.731,23.845 L26.157,23.845 C26.727,23.845 27.012,23.571 27.012,23.024 L27.012,20.939 L27.012,20.939 Z M23.491,4.67 C23.491,4.101 23.286,3.815 22.876,3.815 C22.443,3.815 22.227,4.089 22.227,4.636 L22.227,6.413 C22.227,6.982 22.432,7.268 22.842,7.268 C23.274,7.268 23.491,6.994 23.491,6.447 L23.491,4.67 L23.491,4.67 Z M23.491,9.079 C23.491,8.486 23.297,8.19 22.91,8.19 C22.454,8.19 22.227,8.464 22.227,9.011 L22.227,10.685 C22.227,11.255 22.432,11.54 22.842,11.54 C23.274,11.54 23.491,11.267 23.491,10.72 L23.491,9.079 L23.491,9.079 Z M27.764,4.704 C27.764,4.043 27.559,3.747 27.148,3.815 C26.715,3.815 26.499,4.089 26.499,4.636 L26.499,6.413 C26.499,6.982 26.704,7.268 27.114,7.268 C27.547,7.268 27.764,6.994 27.764,6.447 L27.764,4.704 L27.764,4.704 Z M27.764,9.079 C27.764,8.486 27.57,8.19 27.183,8.19 C26.727,8.19 26.499,8.464 26.499,9.011 L26.499,10.685 C26.499,11.255 26.704,11.54 27.114,11.54 C27.547,11.54 27.764,11.267 27.764,10.72 L27.764,9.079 L27.764,9.079 Z" id="Fill-40" sketch:type="MSShapeGroup"></path>
            <path d="M40.065,1.594 C40.065,0.864 40.43,0.602 41.159,0.807 C41.911,1.081 42.697,1.4 43.518,1.765 C43.95,1.992 44.44,2.106 44.987,2.106 C45.808,2.129 46.662,2.106 47.551,2.038 C47.961,1.742 48.325,1.354 48.645,0.875 C48.963,0.42 49.419,0.374 50.012,0.739 C51.151,1.172 52.063,1.65 52.746,2.175 C53.452,2.812 53.396,3.28 52.575,3.576 C52.074,3.781 51.903,4.169 52.063,4.738 L52.063,22.614 C52.199,23.275 52.063,23.845 51.652,24.323 C50.877,24.893 50.012,25.053 49.055,24.802 C48.599,24.643 48.382,24.267 48.405,23.674 C48.405,23.378 48.132,23.229 47.585,23.229 L44.543,23.229 C43.996,23.229 43.7,23.469 43.654,23.947 C43.518,24.562 43.666,24.938 44.099,25.075 C44.805,25.326 45.511,25.61 46.218,25.93 C46.628,26.181 46.856,26.442 46.901,26.716 C46.856,27.012 46.639,27.171 46.252,27.194 C46.001,27.194 45.591,27.524 45.022,28.185 C43.563,30.008 41.831,31.433 39.826,32.458 C39.006,32.754 38.96,32.424 39.69,31.467 C40.852,29.826 41.66,28.151 42.116,26.442 C42.253,25.895 42.127,25.634 41.74,25.656 C40.35,25.725 39.792,25.075 40.065,23.708 L40.065,1.594 L40.065,1.594 Z M48.405,3.884 C48.405,3.291 48.109,2.995 47.517,2.995 L44.611,2.995 C43.996,2.995 43.689,3.28 43.689,3.85 L43.689,8.054 C43.689,8.623 43.962,8.908 44.509,8.908 L47.551,8.908 C48.12,8.908 48.405,8.635 48.405,8.088 L48.405,3.884 L48.405,3.884 Z M48.405,10.754 C48.405,10.139 48.154,9.831 47.653,9.831 L44.543,9.831 C43.973,9.831 43.689,10.104 43.689,10.651 L43.689,15.06 C43.689,15.63 43.962,15.915 44.509,15.915 L47.551,15.915 C48.12,15.915 48.405,15.642 48.405,15.095 L48.405,10.754 L48.405,10.754 Z M48.405,17.658 C48.405,17.089 48.132,16.804 47.585,16.804 L44.543,16.804 C43.973,16.804 43.689,17.077 43.689,17.624 L43.689,21.486 C43.689,22.056 43.962,22.341 44.509,22.341 L47.551,22.341 C48.12,22.341 48.405,22.067 48.405,21.521 L48.405,17.658 L48.405,17.658 Z M46.696,24.802 C46.81,24.665 47.3,24.745 48.166,25.041 C49.123,25.36 50.034,25.827 50.9,26.442 C52.837,28.174 53.407,29.86 52.609,31.501 C52.381,31.888 52.063,32.139 51.652,32.253 C50.239,32.663 49.419,32.036 49.191,30.373 C49.169,28.914 48.701,27.547 47.79,26.271 C46.992,25.429 46.628,24.938 46.696,24.802 L46.696,24.802 Z M59.104,1.252 C59.081,0.522 59.411,0.169 60.095,0.192 C61.484,0.283 62.692,0.511 63.718,0.875 C64.128,1.423 63.9,1.833 63.034,2.106 C62.966,2.197 62.932,2.517 62.932,3.063 L62.932,8.737 C62.932,9.307 63.285,9.592 63.991,9.592 C64.994,9.865 65.734,9.467 66.213,8.396 L66.76,7.712 C67.17,6.777 67.819,6.755 68.708,7.644 C69.642,8.35 70.394,9.159 70.964,10.07 C70.986,10.253 70.918,10.378 70.759,10.446 C70.645,10.492 70.246,10.515 69.563,10.515 L63.786,10.515 C63.216,10.515 62.932,10.788 62.932,11.335 L62.932,17.932 C62.932,18.501 63.273,18.786 63.957,18.786 C64.641,18.786 65.199,18.569 65.632,18.137 C66.156,17.431 66.6,17.236 66.965,17.556 C67.785,17.897 68.696,18.388 69.699,19.025 C70.61,19.481 70.668,19.982 69.87,20.529 C69.369,20.734 69.187,21.179 69.323,21.862 L69.323,30.578 C69.574,31.603 69.198,32.264 68.195,32.56 C67.557,32.879 66.839,32.891 66.042,32.595 C65.609,32.161 65.449,31.603 65.564,30.92 C65.564,30.35 65.29,30.065 64.743,30.065 L58.728,30.065 C58.158,30.065 57.873,30.281 57.873,30.715 C57.873,32.424 56.882,33.13 54.899,32.834 C54.125,32.651 53.851,32.07 54.079,31.091 L54.079,18.547 C54.079,17.841 54.443,17.578 55.173,17.761 C55.947,17.988 56.722,18.308 57.497,18.718 L58.249,18.786 C58.818,18.786 59.104,18.513 59.104,17.966 L59.104,1.252 L59.104,1.252 Z M58.898,19.675 C58.215,19.766 57.873,20.085 57.873,20.632 L57.873,28.288 C57.873,28.857 58.147,29.143 58.693,29.143 L64.709,29.143 C65.278,29.143 65.564,28.869 65.564,28.322 L65.564,20.598 C65.564,19.982 65.267,19.675 64.675,19.675 L58.898,19.675 L58.898,19.675 Z" id="Fill-41" sketch:type="MSShapeGroup"></path>
            <path d="M83.3,5.046 C83.87,4.043 84.405,3.781 84.907,4.26 C85.704,4.784 86.377,5.353 86.923,5.969 C87.629,6.811 87.937,7.302 87.846,7.438 C87.755,7.575 87.356,7.644 86.65,7.644 L78.105,7.644 L77.011,7.814 C76.282,7.929 75.837,7.769 75.678,7.336 C75.542,6.767 75.883,6.516 76.704,6.584 C77.569,6.721 79.039,6.767 81.113,6.721 C81.682,6.721 82.184,6.447 82.617,5.9 L83.3,5.046 L83.3,5.046 Z M76.191,20.632 C76.191,19.971 76.635,19.766 77.524,20.017 C77.98,20.153 78.435,20.324 78.891,20.529 C79.552,20.825 80.087,20.974 80.498,20.974 L81.181,20.974 C81.728,20.974 82.218,20.757 82.651,20.324 C83.106,19.868 83.676,19.731 84.36,19.914 C85.226,20.278 86.001,20.688 86.684,21.144 C87.436,21.532 87.641,21.965 87.299,22.443 L86.479,23.059 C86.411,23.195 86.377,23.537 86.377,24.084 L86.377,30.544 C86.695,31.819 86.103,32.549 84.599,32.731 C83.209,33.118 82.548,32.56 82.617,31.057 C82.617,30.486 82.343,30.202 81.796,30.202 L80.839,30.202 C80.27,30.202 79.985,30.418 79.985,30.852 C79.962,32.583 78.937,33.278 76.909,32.936 C76.248,32.731 76.008,32.161 76.191,31.227 L76.191,20.632 L76.191,20.632 Z M81.899,14.821 C82.423,13.842 82.959,13.557 83.505,13.967 C84.189,14.399 84.963,15.072 85.83,15.983 C86.308,16.69 86.502,17.1 86.411,17.214 C86.274,17.305 85.864,17.351 85.18,17.351 L79.062,17.351 L77.968,17.521 C77.239,17.658 76.772,17.396 76.567,16.735 L76.464,16.325 C76.51,16.234 76.875,16.223 77.558,16.291 C78.492,16.496 79.483,16.53 80.532,16.394 C80.623,16.348 80.782,16.188 81.01,15.915 L81.899,14.821 L81.899,14.821 Z M81.762,0.568 C82.332,-0.093 82.673,-0.446 82.788,-0.492 C82.924,-0.492 83.323,-0.264 83.984,0.192 C84.531,0.557 85.078,1.047 85.625,1.662 C86.148,2.392 86.388,2.802 86.342,2.893 C86.16,3.144 85.704,3.223 84.975,3.132 L79.062,3.132 L77.968,3.303 C77.239,3.417 76.806,3.257 76.669,2.824 C76.51,2.255 76.84,2.004 77.661,2.072 C78.298,2.163 78.937,2.209 79.575,2.209 C80.258,2.436 80.987,1.89 81.762,0.568 L81.762,0.568 Z M82.172,10.002 C82.696,9.067 83.22,8.783 83.745,9.147 C84.793,9.763 85.807,10.742 86.787,12.087 C86.787,12.224 86.741,12.349 86.65,12.463 C86.536,12.531 86.137,12.565 85.454,12.565 L79.062,12.565 L77.968,12.736 C77.239,12.851 76.806,12.69 76.669,12.258 C76.51,11.688 76.84,11.437 77.661,11.506 C78.435,11.597 79.21,11.643 79.985,11.643 C80.669,11.87 81.398,11.323 82.172,10.002 L82.172,10.002 Z M82.617,22.819 C82.617,22.182 82.332,21.862 81.762,21.862 L80.874,21.862 C80.281,21.862 79.985,22.147 79.985,22.717 L79.985,28.425 C79.985,28.994 80.258,29.279 80.805,29.279 L81.762,29.279 C82.332,29.279 82.617,29.006 82.617,28.459 L82.617,22.819 L82.617,22.819 Z M89.829,6.208 C90.011,5.478 90.466,5.263 91.196,5.559 C92.859,6.22 93.941,6.846 94.443,7.438 C94.534,7.758 94.363,7.939 93.93,7.985 C93.702,8.008 93.474,8.134 93.247,8.361 C93.042,8.635 93.224,8.771 93.794,8.771 L96.46,8.771 C97.006,8.771 97.371,8.407 97.553,7.678 L97.69,6.721 C97.781,6.037 97.883,5.673 97.998,5.627 C98.932,5.854 99.9,6.162 100.903,6.55 C101.746,6.823 101.962,7.199 101.552,7.678 L100.698,7.951 C99.923,8.498 99.889,8.771 100.595,8.771 L101.586,8.771 C102.179,8.771 102.634,8.51 102.954,7.985 C103.159,7.553 103.443,7.119 103.808,6.686 C104.104,6.481 104.503,6.596 105.004,7.028 C105.574,7.416 106.178,7.883 106.816,8.43 C107.477,9.091 107.75,9.477 107.636,9.592 C107.477,9.66 107.055,9.694 106.372,9.694 L101.655,9.694 C101.085,9.694 100.8,9.968 100.8,10.515 L100.8,11.232 C100.8,11.779 100.982,12.064 101.347,12.087 C101.711,11.996 102.076,11.631 102.441,10.993 C102.805,9.922 103.398,9.774 104.218,10.549 C104.674,10.822 105.129,11.176 105.585,11.608 C106.246,12.269 106.577,12.656 106.577,12.77 C106.554,12.907 106.167,12.976 105.415,12.976 L101.655,12.976 C101.085,12.976 100.8,13.249 100.8,13.796 L100.8,14.479 C100.8,15.026 100.857,15.322 100.971,15.368 C101.472,15.368 101.792,15.141 101.928,14.685 C102.133,14.297 102.384,13.898 102.68,13.488 C102.885,13.306 103.398,13.477 104.218,14.001 C105.357,14.844 106.052,15.471 106.303,15.881 C106.326,16.018 106.292,16.12 106.201,16.188 C104.697,16.257 103.181,16.279 101.655,16.257 C101.085,16.257 100.8,16.621 100.8,17.351 C100.8,18.125 101.074,18.513 101.621,18.513 L103.33,18.478 C103.603,18.319 103.877,17.932 104.15,17.316 C104.56,16.269 105.164,16.177 105.961,17.043 C107.26,17.977 108.012,18.695 108.217,19.196 C108.126,19.333 107.739,19.401 107.055,19.401 L93.588,19.401 C93.042,19.401 92.745,19.56 92.7,19.88 C92.267,20.859 91.378,21.213 90.034,20.939 C89.213,20.62 88.906,19.982 89.111,19.025 L89.111,13.933 C89.111,13.363 88.757,13.352 88.051,13.898 C87.39,14.354 87.003,14.594 86.889,14.616 C86.775,14.548 86.889,14.172 87.231,13.488 C88.689,10.868 89.555,8.441 89.829,6.208 L89.829,6.208 Z M100.595,21.657 C101.21,21.84 101.837,21.611 102.475,20.974 C103.159,20.654 103.842,20.803 104.526,21.418 C105.095,21.987 105.574,22.558 105.961,23.127 C106.326,23.674 106.201,23.993 105.585,24.084 C105.266,24.13 105.004,24.255 104.799,24.46 C104.07,25.417 103.125,26.386 101.962,27.365 C101.37,27.912 101.347,28.242 101.894,28.356 C103.671,28.675 105.494,28.811 107.363,28.767 C108.046,28.767 108.434,28.801 108.525,28.869 C108.57,28.982 108.263,29.29 107.602,29.792 C106.827,30.407 106.337,31.079 106.132,31.809 C105.927,32.492 105.779,32.856 105.688,32.902 C103.614,32.697 101.233,31.945 98.544,30.647 C97.998,30.35 97.359,30.35 96.63,30.647 C93.759,31.809 91.025,32.48 88.427,32.663 C87.516,32.708 87.037,32.663 86.992,32.526 C87.014,32.39 87.379,32.195 88.085,31.945 C90.432,31.193 92.643,30.225 94.716,29.04 C95.217,28.743 95.115,28.254 94.409,27.57 C93.201,26.249 92.403,24.848 92.016,23.366 C91.925,22.819 91.606,22.546 91.059,22.546 C90.558,22.568 90.056,22.626 89.555,22.717 C88.849,22.831 88.439,22.66 88.325,22.204 C88.233,21.726 88.53,21.486 89.213,21.486 C89.669,21.509 90.125,21.566 90.581,21.657 L100.595,21.657 L100.595,21.657 Z M91.914,0.67 C91.914,-0.104 92.244,-0.469 92.905,-0.423 C94.409,-0.264 95.502,-0.002 96.186,0.363 C96.254,0.454 96.163,0.682 95.913,1.047 C95.571,1.503 95.4,1.81 95.4,1.97 C95.4,2.221 95.673,2.346 96.22,2.346 L98.134,2.346 C98.704,2.346 98.989,2.072 98.989,1.525 L98.989,0.602 C98.989,-0.127 99.421,-0.458 100.288,-0.389 C101.609,-0.252 102.612,-0.013 103.295,0.329 C103.409,0.488 103.295,0.762 102.954,1.149 C102.634,1.514 102.475,1.776 102.475,1.935 C102.475,2.209 102.589,2.357 102.817,2.38 C103.136,2.311 103.591,1.935 104.184,1.252 C104.913,0.431 105.631,0.249 106.337,0.705 C107.34,1.503 107.978,2.255 108.252,2.961 C108.115,3.28 107.67,3.383 106.919,3.269 L103.33,3.269 C102.76,3.269 102.475,3.508 102.475,3.986 C102.703,5.08 102.11,5.684 100.698,5.798 C99.353,5.707 98.784,5.126 98.989,4.055 C98.989,3.53 98.715,3.269 98.169,3.269 L96.254,3.269 C95.685,3.269 95.4,3.53 95.4,4.055 C95.627,5.217 95.035,5.844 93.623,5.935 C92.278,5.866 91.709,5.263 91.914,4.123 C91.914,3.554 91.64,3.269 91.093,3.269 C90.523,3.269 89.863,3.325 89.111,3.439 C88.381,3.554 87.937,3.394 87.778,2.961 C87.618,2.392 87.937,2.141 88.735,2.209 C89.509,2.3 90.284,2.346 91.059,2.346 C91.628,2.346 91.914,2.072 91.914,1.525 L91.914,0.67 L91.914,0.67 Z M97.177,10.583 C97.177,9.99 96.915,9.694 96.391,9.694 L93.554,9.694 C92.984,9.694 92.7,9.968 92.7,10.515 L92.7,11.232 C92.7,11.802 92.973,12.087 93.52,12.087 L96.323,12.087 C96.892,12.087 97.177,11.813 97.177,11.267 L97.177,10.583 L97.177,10.583 Z M97.177,13.864 C97.177,13.271 96.915,12.976 96.391,12.976 L93.554,12.976 C92.984,12.976 92.7,13.249 92.7,13.796 L92.7,14.479 C92.7,15.049 92.973,15.334 93.52,15.334 L96.323,15.334 C96.892,15.334 97.177,15.06 97.177,14.514 L97.177,13.864 L97.177,13.864 Z M97.177,17.419 C97.177,16.644 96.904,16.257 96.357,16.257 L93.554,16.257 C92.984,16.257 92.7,16.621 92.7,17.351 C92.7,18.125 92.973,18.513 93.52,18.513 L96.323,18.513 C96.892,18.513 97.177,18.148 97.177,17.419 L97.177,17.419 Z M101.313,23.435 C101.7,22.842 101.621,22.546 101.074,22.546 L93.418,22.546 C92.848,22.546 92.836,22.91 93.383,23.64 C94.363,24.848 95.537,25.839 96.904,26.613 C97.496,26.909 98.111,26.795 98.75,26.271 C99.866,25.36 100.72,24.414 101.313,23.435 L101.313,23.435 Z" id="Fill-42" sketch:type="MSShapeGroup"></path>
            <path d="M137.37,0.499 C138.19,0.135 138.942,0.146 139.626,0.534 C140.286,1.013 140.947,1.537 141.608,2.106 C142.223,2.494 142.44,2.893 142.257,3.303 C142.121,3.439 141.722,3.474 141.061,3.405 C140.583,3.383 139.796,3.496 138.703,3.747 L132.824,4.738 C132.277,4.829 132.003,5.148 132.003,5.695 L132.003,10.241 C132.003,10.81 132.277,11.096 132.824,11.096 L136.242,11.096 C136.811,11.096 137.358,10.766 137.882,10.104 L139.181,8.464 C139.591,7.895 140.149,7.963 140.856,8.669 C141.471,9.079 142.189,9.717 143.009,10.583 C143.488,11.198 143.727,11.597 143.727,11.779 C143.613,11.938 143.191,12.019 142.462,12.019 L132.858,12.019 C132.288,12.019 132.003,12.292 132.003,12.839 L132.003,17.658 C132.003,18.228 132.277,18.513 132.824,18.513 L138.669,18.513 C139.238,18.513 139.739,18.251 140.172,17.727 L141.574,15.915 C142.052,15.277 142.622,15.322 143.283,16.052 C143.83,16.416 144.559,17.055 145.47,17.966 C145.971,18.603 146.21,19.003 146.188,19.162 C146.028,19.321 145.595,19.401 144.889,19.401 L132.858,19.401 C132.288,19.401 132.003,19.675 132.003,20.222 L132.003,29.143 C131.958,29.621 131.821,30.1 131.593,30.578 C130.795,31.74 129.497,32.412 127.697,32.595 C126.785,32.64 126.284,32.31 126.193,31.603 C126.147,30.737 125.555,30.02 124.416,29.45 C123.549,29.085 123.094,28.835 123.048,28.698 C123.025,28.561 123.071,28.447 123.185,28.356 C124.666,28.401 126.181,28.391 127.731,28.322 C128.164,28.162 128.323,27.741 128.21,27.058 L128.21,20.256 C128.21,19.686 127.936,19.401 127.389,19.401 L116.178,19.401 L115.085,19.572 C114.355,19.686 113.911,19.526 113.752,19.094 C113.615,18.524 113.957,18.273 114.777,18.342 C115.187,18.364 115.631,18.422 116.11,18.513 L127.355,18.513 C127.924,18.513 128.21,18.239 128.21,17.692 L128.21,12.873 C128.21,12.304 127.936,12.019 127.389,12.019 L118.537,12.019 L117.409,12.19 C116.679,12.304 116.235,12.133 116.076,11.677 C115.939,11.13 116.281,10.891 117.101,10.959 L118.4,11.096 L127.355,11.096 C127.924,11.096 128.21,10.822 128.21,10.275 L128.21,6.105 C128.21,5.559 127.868,5.297 127.184,5.319 C123.151,5.684 119.573,5.832 116.452,5.764 C115.768,5.627 115.426,5.513 115.426,5.422 C115.495,5.263 115.871,5.148 116.554,5.08 C124.21,4.465 131.149,2.938 137.37,0.499" id="Fill-43" sketch:type="MSShapeGroup"></path>
            <path d="M176.469,0.294 C177.061,-0.366 177.779,-0.458 178.622,0.021 C179.374,0.636 180.035,1.264 180.605,1.901 C181.174,2.402 181.288,2.778 180.946,3.029 C180.832,3.098 180.434,3.132 179.75,3.132 L170.385,3.132 C169.815,3.132 169.53,3.405 169.53,3.952 L169.53,4.909 C169.53,5.478 169.804,5.764 170.351,5.764 L177.221,5.764 C177.858,5.878 178.36,5.729 178.725,5.319 C179.454,4.408 180.137,4.191 180.775,4.67 C181.687,5.126 182.598,5.684 183.51,6.345 C183.942,6.641 184.193,6.903 184.262,7.131 C184.193,7.609 183.942,7.814 183.51,7.746 C183.19,7.724 182.69,7.974 182.006,8.498 C180.319,9.638 179.009,10.378 178.075,10.72 C177.574,10.674 177.574,10.229 178.075,9.387 L178.656,7.507 C178.747,6.96 178.52,6.686 177.973,6.686 L170.385,6.686 C169.815,6.686 169.53,6.96 169.53,7.507 L169.53,13.762 C169.257,14.696 168.71,15.141 167.89,15.095 C166.158,15.346 165.349,14.604 165.463,12.873 L165.463,7.541 C165.463,6.972 165.19,6.686 164.643,6.686 L157.362,6.686 L156.815,6.755 C156.269,6.801 155.961,7.165 155.893,7.849 C155.778,8.828 155.573,9.626 155.277,10.241 C154.753,11.289 153.921,11.745 152.782,11.608 C152.03,11.608 151.506,11.118 151.21,10.139 C151.05,8.954 151.677,8.042 153.09,7.404 C154.229,6.584 154.958,5.581 155.277,4.396 C155.573,4.328 155.733,4.579 155.756,5.148 C155.688,5.627 156.211,5.832 157.328,5.764 L164.608,5.764 C165.178,5.764 165.463,5.49 165.463,4.943 L165.463,3.986 C165.463,3.417 165.19,3.132 164.643,3.132 L157.294,3.132 L156.166,3.303 C155.437,3.417 155.004,3.246 154.867,2.79 C154.708,2.243 155.038,2.004 155.858,2.072 L157.157,2.209 L174.076,2.209 C174.646,2.209 175.147,1.947 175.58,1.423 L176.469,0.294 L176.469,0.294 Z M157.567,15.949 C157.567,15.243 157.92,14.912 158.627,14.958 C159.379,15.049 160.165,15.175 160.985,15.334 C161.486,15.334 161.862,15.527 162.113,15.915 C162.227,16.211 162.079,16.462 161.669,16.667 C161.122,16.826 160.905,17.226 161.02,17.863 C161.02,18.342 161.076,18.593 161.19,18.615 C161.304,18.615 161.646,18.296 162.216,17.658 C162.694,16.997 163.127,16.53 163.515,16.257 C164.677,16.804 165.713,17.727 166.625,19.025 C166.648,19.185 166.613,19.31 166.523,19.401 C166.408,19.492 166.01,19.538 165.326,19.538 L161.874,19.538 C161.304,19.538 161.02,19.88 161.02,20.563 C161.02,21.269 161.361,21.714 162.045,21.896 C164.665,22.876 166.01,24.267 166.078,26.066 C166.124,26.841 165.805,27.478 165.121,27.98 C163.731,28.527 162.808,27.991 162.353,26.374 C162.17,25.713 161.931,25.041 161.635,24.357 C161.225,23.742 161.02,23.788 161.02,24.494 L161.02,30.783 C161.338,32.036 160.746,32.754 159.242,32.936 C157.898,32.913 157.339,32.219 157.567,30.852 L157.567,26.613 C157.567,26.044 157.271,26.135 156.679,26.887 C155.425,28.367 154.184,29.45 152.953,30.134 C152.247,30.43 151.836,30.521 151.723,30.407 C151.654,30.27 151.984,29.837 152.714,29.108 C154.719,26.602 156.177,23.685 157.089,20.358 C157.248,19.811 157.055,19.538 156.508,19.538 C155.505,19.492 154.639,19.55 153.91,19.709 C153.181,19.846 152.714,19.584 152.509,18.923 L152.406,18.513 C152.452,18.422 152.816,18.41 153.5,18.478 C154.434,18.661 155.505,18.718 156.713,18.649 C157.282,18.649 157.567,18.376 157.567,17.829 L157.567,15.949 L157.567,15.949 Z M156.85,12.976 C156.85,12.634 157.169,12.463 157.807,12.463 L163.002,12.463 C163.708,12.463 164.062,12.611 164.062,12.907 C164.062,13.227 163.72,13.386 163.036,13.386 L157.909,13.386 C157.203,13.386 156.85,13.249 156.85,12.976 L156.85,12.976 Z M157.123,9.387 C157.123,9.067 157.465,8.908 158.148,8.908 L163.002,8.908 C163.708,8.908 164.062,9.057 164.062,9.352 C164.062,9.672 163.72,9.831 163.036,9.831 L158.148,9.831 C157.465,9.831 157.123,9.683 157.123,9.387 L157.123,9.387 Z M177.597,16.018 C178.029,15.425 178.462,15.288 178.896,15.607 C180.08,16.086 180.992,16.564 181.63,17.043 C182.291,17.59 182.268,18.046 181.562,18.41 C181.197,18.569 181.015,18.923 181.015,19.47 L181.015,30.647 C181.311,31.945 180.741,32.708 179.306,32.936 C178.121,33.186 177.528,32.708 177.528,31.501 C177.528,30.999 177.255,30.749 176.708,30.749 L171.786,30.749 C171.239,30.749 170.92,31.091 170.829,31.774 C170.852,32.185 170.556,32.549 169.94,32.868 C168.14,33.46 167.297,32.868 167.411,31.091 L167.411,16.701 C167.411,15.995 167.867,15.756 168.778,15.983 L170.146,16.53 C170.783,16.963 171.376,17.123 171.923,17.009 L175.819,17.009 C176.389,17.009 176.981,16.679 177.597,16.018 L177.597,16.018 Z M170.658,9.387 C170.658,9.067 171,8.908 171.684,8.908 L176.435,8.908 C177.141,8.908 177.494,9.057 177.494,9.352 C177.494,9.672 177.152,9.831 176.469,9.831 L171.684,9.831 C171,9.831 170.658,9.683 170.658,9.387 L170.658,9.387 Z M170.658,12.976 C170.658,12.634 170.977,12.463 171.615,12.463 L176.947,12.463 C177.653,12.463 178.007,12.611 178.007,12.907 C178.007,13.227 177.665,13.386 176.981,13.386 L171.718,13.386 C171.011,13.386 170.658,13.249 170.658,12.976 L170.658,12.976 Z M177.528,18.854 C177.528,18.217 177.255,17.897 176.708,17.897 L171.957,17.897 C171.273,17.988 170.932,18.308 170.932,18.854 L170.932,20.529 C170.932,21.099 171.205,21.384 171.752,21.384 L176.674,21.384 C177.243,21.384 177.528,21.11 177.528,20.563 L177.528,18.854 L177.528,18.854 Z M177.528,23.127 C177.528,22.558 177.255,22.272 176.708,22.272 L171.786,22.272 C171.216,22.272 170.932,22.546 170.932,23.093 L170.932,24.733 C170.932,25.303 171.205,25.588 171.752,25.588 L176.674,25.588 C177.243,25.588 177.528,25.315 177.528,24.768 L177.528,23.127 L177.528,23.127 Z M177.528,27.365 C177.528,26.795 177.255,26.511 176.708,26.511 L171.786,26.511 C171.216,26.511 170.932,26.784 170.932,27.331 L170.932,28.972 C170.932,29.541 171.205,29.826 171.752,29.826 L176.674,29.826 C177.243,29.826 177.528,29.553 177.528,29.006 L177.528,27.365 L177.528,27.365 Z" id="Fill-44" sketch:type="MSShapeGroup"></path>
        </g>
    </g>
</svg>