<?xml version="1.0" encoding="UTF-8" standalone="no"?>
<svg width="186px" height="35px" viewBox="0 0 186 35" version="1.1" xmlns="http://www.w3.org/2000/svg" xmlns:xlink="http://www.w3.org/1999/xlink" xmlns:sketch="http://www.bohemiancoding.com/sketch/ns">
    <!-- Generator: Sketch 3.0.4 (8053) - http://www.bohemiancoding.com/sketch -->
    <title>h1_handcream_rich</title>
    <desc>Created with Sketch.</desc>
    <defs></defs>
    <g id="Page-1" stroke="none" stroke-width="1" fill="none" fill-rule="evenodd" sketch:type="MSPage">
        <g id="h1_handcream_rich" sketch:type="MSLayerGroup" transform="translate(1.000000, 1.000000)" fill="#000000">
            <path d="M9.443,5.114 C9.831,4.226 10.491,4.214 11.426,5.08 C12.337,5.764 13.078,6.55 13.648,7.439 C13.579,7.917 13.157,8.076 12.383,7.917 L2.368,7.917 L1.274,8.122 C0.523,8.19 0.078,8.019 -0.059,7.609 C-0.195,7.04 0.135,6.789 0.933,6.857 C1.388,6.88 1.844,6.938 2.3,7.028 L6.948,7.028 C7.677,7.302 8.327,6.892 8.897,5.798 C9.124,5.57 9.307,5.342 9.443,5.114 L9.443,5.114 Z M8.213,20.358 C8.669,19.948 9.238,19.857 9.922,20.085 C11.38,20.791 12.303,21.406 12.69,21.931 C12.736,22.227 12.428,22.534 11.768,22.853 C11.676,22.99 11.631,23.332 11.631,23.879 L11.631,25.656 C11.631,26.362 11.87,26.465 12.349,25.964 C13.943,24.916 14.866,23.515 15.117,21.76 C15.254,21.555 15.459,21.942 15.732,22.922 C15.938,23.696 15.96,24.745 15.801,26.066 C15.596,27.41 14.992,28.391 13.989,29.006 C13.351,29.324 12.679,29.245 11.973,28.767 C11.745,28.493 11.631,28.618 11.631,29.143 L11.631,30.578 C11.813,31.968 11.221,32.685 9.854,32.731 C8.577,32.981 7.996,32.412 8.11,31.022 C8.11,30.476 7.837,30.202 7.29,30.202 L5.376,30.202 C4.806,30.202 4.522,30.476 4.522,31.022 C4.635,31.66 4.43,32.207 3.906,32.663 C3.108,33.05 2.322,33.13 1.548,32.902 C1.046,32.742 0.864,32.219 1.001,31.33 L1.001,20.905 C1.001,20.176 1.343,19.892 2.026,20.051 C2.664,20.233 3.302,20.495 3.94,20.837 C4.168,20.928 4.396,20.974 4.624,20.974 L6.846,20.974 C7.393,20.974 7.848,20.769 8.213,20.358 L8.213,20.358 Z M7.529,1.115 C8.053,0.181 8.577,-0.104 9.102,0.261 C10.606,1.264 11.574,2.277 12.007,3.303 C11.756,3.554 11.277,3.633 10.571,3.542 L3.735,3.542 L2.642,3.747 C1.89,3.815 1.445,3.645 1.309,3.234 C1.172,2.665 1.502,2.414 2.3,2.482 C3.189,2.687 4.499,2.722 6.231,2.585 C6.526,2.402 6.96,1.913 7.529,1.115 L7.529,1.115 Z M6.846,10.446 C7.483,9.375 8.076,8.954 8.623,9.182 C9.261,9.569 9.944,10.139 10.674,10.891 C11.335,11.733 11.631,12.224 11.563,12.36 C11.448,12.497 11.027,12.565 10.298,12.565 L3.735,12.565 L2.642,12.771 C1.89,12.839 1.445,12.668 1.309,12.258 C1.172,11.688 1.502,11.438 2.3,11.506 C3.166,11.665 4.351,11.688 5.855,11.574 C6.219,11.369 6.549,10.993 6.846,10.446 L6.846,10.446 Z M7.393,14.445 C7.962,13.42 8.805,13.534 9.922,14.787 C10.788,15.561 11.346,16.257 11.597,16.872 C11.392,17.214 10.924,17.328 10.195,17.214 L3.735,17.214 L2.642,17.419 C1.89,17.487 1.445,17.316 1.309,16.906 C1.172,16.337 1.502,16.086 2.3,16.154 C3.211,16.359 4.396,16.394 5.855,16.257 C6.173,16.052 6.504,15.676 6.846,15.129 L7.393,14.445 L7.393,14.445 Z M8.11,22.819 C8.11,22.182 7.837,21.862 7.29,21.862 C6.424,21.84 5.558,21.851 4.692,21.897 C4.578,21.965 4.522,22.272 4.522,22.819 L4.522,28.425 C4.522,28.994 4.795,29.279 5.342,29.279 L7.256,29.279 C7.825,29.279 8.11,29.006 8.11,28.459 L8.11,22.819 L8.11,22.819 Z M28.003,1.525 C28.618,0.819 29.336,0.648 30.156,1.013 C31.432,1.605 32.252,2.152 32.617,2.653 C32.799,3.132 32.583,3.474 31.968,3.679 C31.466,3.93 31.284,4.408 31.421,5.114 C31.375,8.965 31.102,11.95 30.601,14.069 C30.054,15.664 29.005,16.542 27.456,16.701 C26.773,16.724 26.339,16.371 26.157,15.642 C25.542,14.616 24.425,13.864 22.808,13.386 C22.716,13.295 22.671,13.181 22.671,13.044 C22.693,12.885 23.069,12.805 23.799,12.805 L25.713,12.805 C26.624,12.805 27.228,12.44 27.524,11.711 C28.003,8.977 28.117,6.47 27.866,4.191 C27.752,3.576 27.422,3.269 26.875,3.269 L24.072,3.269 C23.525,3.269 23.229,3.61 23.184,4.294 C23.229,7.507 22.693,10.139 21.577,12.189 C19.891,14.992 17.43,16.713 14.194,17.351 C13.511,17.441 13.123,17.441 13.032,17.351 C13.055,17.236 13.408,16.986 14.092,16.599 C17.327,14.548 19.116,12.007 19.458,8.977 C19.663,7.404 19.743,5.786 19.697,4.123 C19.697,3.554 19.424,3.269 18.877,3.269 C17.19,3.223 15.972,3.28 15.22,3.44 C14.513,3.53 14.08,3.349 13.921,2.893 C13.784,2.414 14.08,2.186 14.81,2.209 C15.151,2.209 15.618,2.255 16.211,2.346 L26.226,2.346 C26.955,2.573 27.547,2.3 28.003,1.525 L28.003,1.525 Z M16.86,6.721 C17.134,5.9 17.407,5.98 17.681,6.96 C17.908,8.327 17.829,9.478 17.441,10.412 C16.826,12.121 15.767,12.611 14.263,11.882 C13.693,11.54 13.499,10.891 13.682,9.934 C14.001,9.341 14.513,8.896 15.22,8.601 C15.994,8.145 16.541,7.519 16.86,6.721 L16.86,6.721 Z M17.134,20.632 C17.111,19.88 17.476,19.504 18.228,19.504 C18.683,19.526 19.139,19.584 19.595,19.675 C20.483,19.697 21.099,19.914 21.44,20.324 C20.757,21.122 20.483,21.794 20.62,22.341 L20.62,27.331 C20.415,28.47 20.95,29.017 22.227,28.972 C23.366,28.994 24.505,28.96 25.645,28.869 C26.191,28.777 26.692,28.391 27.148,27.707 C27.331,27.365 27.467,27.023 27.559,26.682 C27.877,25.976 28.083,25.622 28.174,25.622 C28.561,25.713 28.721,26.169 28.652,26.989 C28.629,27.81 28.982,28.447 29.712,28.903 C30.099,29.245 30.259,29.69 30.19,30.236 C30.076,30.806 29.78,31.238 29.302,31.535 C28.572,31.945 27.661,32.185 26.567,32.253 C23.354,32.549 20.825,32.446 18.98,31.945 C17.863,31.443 17.248,30.589 17.134,29.382 L17.134,20.632 L17.134,20.632 Z M20.176,17.111 C21.497,16.884 22.864,17.077 24.277,17.692 C25.735,18.376 26.374,19.379 26.191,20.7 C26.191,21.338 25.827,21.84 25.098,22.204 C24.368,22.523 23.685,22.307 23.047,21.555 C22.659,20.78 22.306,19.994 21.987,19.196 C21.349,18.376 20.711,17.795 20.073,17.453 C20.05,17.316 20.085,17.202 20.176,17.111 L20.176,17.111 Z M27.593,21.076 C27.73,20.644 28.231,20.678 29.097,21.179 C29.871,21.498 30.691,22.011 31.558,22.717 C33.54,24.653 34.03,26.374 33.027,27.878 C32.275,28.698 31.489,28.892 30.669,28.459 C29.894,28.003 29.575,27.183 29.712,25.998 C29.689,24.221 28.982,22.58 27.593,21.076 L27.593,21.076 Z" id="Fill-45" sketch:type="MSShapeGroup"></path>
            <path d="M48.679,26.545 C49.362,25.839 50.034,25.702 50.695,26.135 C52.153,26.955 52.974,27.695 53.156,28.356 C53.088,28.584 52.871,28.698 52.507,28.698 C52.097,28.606 51.606,28.755 51.037,29.143 C47.072,31.216 43.153,32.298 39.279,32.39 C39.165,32.321 39.108,32.219 39.108,32.082 C39.199,31.945 39.598,31.797 40.305,31.638 C43.403,30.612 46.195,28.914 48.679,26.545 L48.679,26.545 Z M40.886,13.044 C40.886,12.27 41.182,11.894 41.774,11.916 C43.643,12.053 44.885,12.338 45.5,12.771 C45.705,13.249 45.511,13.603 44.919,13.83 C44.623,14.013 44.475,14.389 44.475,14.958 L44.475,23.366 C44.475,23.935 44.748,24.221 45.295,24.221 L63.205,24.221 C63.752,24.221 64.253,23.947 64.709,23.4 L65.632,22.272 C66.019,21.293 66.691,21.27 67.648,22.204 C68.195,22.614 68.742,23.115 69.289,23.708 C69.79,24.414 70.007,24.836 69.939,24.973 C69.824,25.087 69.414,25.144 68.708,25.144 L45.329,25.144 C44.782,25.144 44.509,25.258 44.509,25.485 C44.372,26.579 43.791,27.092 42.766,27.023 C41.216,26.977 40.589,26.294 40.886,24.973 L40.886,13.044 L40.886,13.044 Z M43.586,0.91 C43.586,0.136 43.939,-0.24 44.646,-0.218 C45.488,-0.149 46.332,-0.035 47.175,0.124 C47.722,0.238 48.086,0.454 48.269,0.773 C48.359,0.978 48.223,1.195 47.858,1.423 C47.334,1.628 47.141,1.981 47.277,2.482 C47.277,2.847 47.619,3.007 48.303,2.961 C53.11,2.368 57.098,1.423 60.266,0.124 C61.086,-0.218 61.838,-0.161 62.521,0.295 C63.41,0.933 64.173,1.628 64.812,2.38 C64.925,2.585 64.857,2.79 64.606,2.995 C64.105,2.927 63.592,2.893 63.068,2.893 C57.782,3.69 52.769,4.043 48.029,3.952 C47.482,3.952 47.231,4.135 47.277,4.499 C47.528,5.319 48.154,5.741 49.157,5.764 L52.439,5.9 L59.445,5.9 C61.177,5.9 62.499,5.82 63.41,5.661 C64.253,5.661 65.017,4.978 65.7,3.61 C66.087,2.881 66.338,2.505 66.452,2.482 C66.657,2.46 66.748,2.802 66.726,3.508 C66.657,3.918 66.634,4.328 66.657,4.738 C66.794,5.194 66.976,5.502 67.204,5.661 C67.979,6.367 68.07,7.074 67.478,7.78 C66.338,8.441 64.891,8.874 63.137,9.079 L58.044,9.284 L53.259,9.284 C50.661,9.238 48.701,9.057 47.38,8.737 C46.286,8.532 45.375,8.156 44.646,7.609 C44.144,7.199 43.791,6.527 43.586,5.593 L43.586,0.91 L43.586,0.91 Z M47.722,10.617 C47.722,9.888 48.064,9.592 48.747,9.728 C49.431,9.888 50.205,10.195 51.071,10.651 C51.299,10.788 51.687,10.856 52.233,10.856 L60.129,10.856 C60.676,10.856 61.154,10.651 61.565,10.241 C61.997,9.603 62.43,9.433 62.863,9.728 C64.618,10.39 65.734,11.096 66.213,11.848 C66.235,12.144 65.905,12.497 65.222,12.907 C65.176,12.998 65.153,13.317 65.153,13.864 L65.153,20.974 C65.427,22.25 64.834,22.99 63.376,23.195 C62.351,23.378 61.747,23.07 61.565,22.272 C61.519,21.908 61.223,21.726 60.676,21.726 L52.233,21.726 C51.687,21.726 51.379,21.897 51.311,22.238 C51.196,22.739 50.775,23.104 50.046,23.332 C49.248,23.583 48.553,23.525 47.961,23.161 C47.733,22.842 47.653,22.341 47.722,21.657 L47.722,10.617 L47.722,10.617 Z M61.496,11.916 C61.405,11.802 61.108,11.745 60.607,11.745 L52.507,11.745 C51.96,11.745 51.629,11.768 51.516,11.813 C51.401,11.859 51.345,12.246 51.345,12.976 C51.345,13.75 51.618,14.138 52.165,14.138 L60.676,14.138 C61.245,14.138 61.53,13.784 61.53,13.078 L61.496,11.916 L61.496,11.916 Z M61.53,15.915 C61.53,15.322 61.268,15.026 60.744,15.026 L52.199,15.026 C51.629,15.026 51.345,15.3 51.345,15.847 L51.345,16.667 C51.345,17.236 51.618,17.521 52.165,17.521 L60.676,17.521 C61.245,17.521 61.53,17.248 61.53,16.701 L61.53,15.915 L61.53,15.915 Z M61.53,19.333 C61.53,18.74 61.268,18.444 60.744,18.444 L52.199,18.444 C51.629,18.444 51.345,18.718 51.345,19.265 L51.345,19.982 C51.345,20.552 51.618,20.837 52.165,20.837 L60.676,20.837 C61.245,20.837 61.53,20.564 61.53,20.017 L61.53,19.333 L61.53,19.333 Z M56.677,26.408 C56.699,26.226 57.064,26.146 57.771,26.169 C60.186,26.352 62.795,26.897 65.598,27.81 C67.238,28.379 68.252,29.177 68.64,30.202 C68.845,30.999 68.685,31.706 68.161,32.321 C67.09,33.186 65.894,32.731 64.572,30.954 C62.704,29.45 60.425,28.14 57.736,27.023 C57.053,26.727 56.699,26.522 56.677,26.408 L56.677,26.408 Z" id="Fill-46" sketch:type="MSShapeGroup"></path>
            <path d="M83.3,5.046 C83.87,4.043 84.405,3.781 84.907,4.26 C85.704,4.784 86.377,5.353 86.923,5.969 C87.629,6.811 87.937,7.302 87.846,7.439 C87.755,7.575 87.356,7.644 86.65,7.644 L78.105,7.644 L77.011,7.814 C76.282,7.929 75.837,7.769 75.678,7.336 C75.542,6.767 75.883,6.516 76.704,6.584 C77.569,6.721 79.039,6.767 81.113,6.721 C81.682,6.721 82.184,6.447 82.617,5.9 L83.3,5.046 L83.3,5.046 Z M76.191,20.632 C76.191,19.971 76.635,19.766 77.524,20.017 C77.98,20.153 78.435,20.324 78.891,20.529 C79.552,20.825 80.087,20.974 80.498,20.974 L81.181,20.974 C81.728,20.974 82.218,20.757 82.651,20.324 C83.106,19.868 83.676,19.731 84.36,19.914 C85.226,20.278 86.001,20.688 86.684,21.144 C87.436,21.532 87.641,21.965 87.299,22.443 L86.479,23.059 C86.411,23.195 86.377,23.537 86.377,24.084 L86.377,30.544 C86.695,31.819 86.103,32.549 84.599,32.731 C83.209,33.118 82.548,32.56 82.617,31.057 C82.617,30.486 82.343,30.202 81.796,30.202 L80.839,30.202 C80.27,30.202 79.985,30.418 79.985,30.852 C79.962,32.583 78.937,33.278 76.909,32.936 C76.248,32.731 76.008,32.161 76.191,31.227 L76.191,20.632 L76.191,20.632 Z M81.899,14.821 C82.423,13.842 82.959,13.557 83.505,13.967 C84.189,14.399 84.963,15.072 85.83,15.983 C86.308,16.689 86.502,17.1 86.411,17.214 C86.274,17.305 85.864,17.351 85.18,17.351 L79.062,17.351 L77.968,17.521 C77.239,17.658 76.772,17.397 76.567,16.735 L76.464,16.325 C76.51,16.234 76.875,16.223 77.558,16.291 C78.492,16.496 79.483,16.53 80.532,16.394 C80.623,16.348 80.782,16.188 81.01,15.915 L81.899,14.821 L81.899,14.821 Z M81.762,0.568 C82.332,-0.093 82.673,-0.445 82.788,-0.491 C82.924,-0.491 83.323,-0.264 83.984,0.192 C84.531,0.557 85.078,1.047 85.625,1.662 C86.148,2.392 86.388,2.802 86.342,2.893 C86.16,3.144 85.704,3.223 84.975,3.132 L79.062,3.132 L77.968,3.303 C77.239,3.417 76.806,3.257 76.669,2.824 C76.51,2.255 76.84,2.004 77.661,2.072 C78.298,2.163 78.937,2.209 79.575,2.209 C80.258,2.436 80.987,1.89 81.762,0.568 L81.762,0.568 Z M82.172,10.002 C82.696,9.067 83.22,8.783 83.745,9.147 C84.793,9.763 85.807,10.742 86.787,12.087 C86.787,12.224 86.741,12.349 86.65,12.463 C86.536,12.531 86.137,12.565 85.454,12.565 L79.062,12.565 L77.968,12.736 C77.239,12.851 76.806,12.69 76.669,12.258 C76.51,11.688 76.84,11.438 77.661,11.506 C78.435,11.597 79.21,11.643 79.985,11.643 C80.669,11.87 81.398,11.323 82.172,10.002 L82.172,10.002 Z M82.617,22.819 C82.617,22.182 82.332,21.862 81.762,21.862 L80.874,21.862 C80.281,21.862 79.985,22.147 79.985,22.717 L79.985,28.425 C79.985,28.994 80.258,29.279 80.805,29.279 L81.762,29.279 C82.332,29.279 82.617,29.006 82.617,28.459 L82.617,22.819 L82.617,22.819 Z M89.829,6.208 C90.011,5.478 90.466,5.263 91.196,5.559 C92.859,6.22 93.941,6.846 94.443,7.439 C94.534,7.758 94.363,7.94 93.93,7.985 C93.702,8.008 93.474,8.134 93.247,8.361 C93.042,8.635 93.224,8.772 93.794,8.772 L96.46,8.772 C97.006,8.772 97.371,8.407 97.553,7.678 L97.69,6.721 C97.781,6.037 97.883,5.673 97.998,5.627 C98.932,5.854 99.9,6.162 100.903,6.55 C101.746,6.823 101.962,7.199 101.552,7.678 L100.698,7.951 C99.923,8.498 99.889,8.772 100.595,8.772 L101.586,8.772 C102.179,8.772 102.634,8.51 102.954,7.985 C103.159,7.553 103.443,7.119 103.808,6.686 C104.104,6.481 104.503,6.596 105.004,7.028 C105.574,7.416 106.178,7.883 106.816,8.43 C107.477,9.091 107.75,9.478 107.636,9.592 C107.477,9.66 107.055,9.694 106.372,9.694 L101.655,9.694 C101.085,9.694 100.8,9.968 100.8,10.515 L100.8,11.232 C100.8,11.779 100.982,12.065 101.347,12.087 C101.711,11.996 102.076,11.631 102.441,10.993 C102.805,9.922 103.398,9.774 104.218,10.549 C104.674,10.822 105.129,11.176 105.585,11.608 C106.246,12.27 106.577,12.656 106.577,12.771 C106.554,12.907 106.167,12.976 105.415,12.976 L101.655,12.976 C101.085,12.976 100.8,13.249 100.8,13.796 L100.8,14.479 C100.8,15.026 100.857,15.322 100.971,15.368 C101.472,15.368 101.792,15.141 101.928,14.685 C102.133,14.297 102.384,13.898 102.68,13.488 C102.885,13.306 103.398,13.477 104.218,14.001 C105.357,14.844 106.052,15.471 106.303,15.881 C106.326,16.018 106.292,16.12 106.201,16.188 C104.697,16.257 103.181,16.279 101.655,16.257 C101.085,16.257 100.8,16.621 100.8,17.351 C100.8,18.125 101.074,18.513 101.621,18.513 L103.33,18.478 C103.603,18.319 103.877,17.932 104.15,17.316 C104.56,16.269 105.164,16.177 105.961,17.043 C107.26,17.977 108.012,18.695 108.217,19.196 C108.126,19.333 107.739,19.401 107.055,19.401 L93.588,19.401 C93.042,19.401 92.745,19.56 92.7,19.88 C92.267,20.859 91.378,21.213 90.034,20.939 C89.213,20.62 88.906,19.982 89.111,19.025 L89.111,13.933 C89.111,13.363 88.757,13.352 88.051,13.898 C87.39,14.354 87.003,14.594 86.889,14.616 C86.775,14.548 86.889,14.172 87.231,13.488 C88.689,10.868 89.555,8.441 89.829,6.208 L89.829,6.208 Z M100.595,21.657 C101.21,21.84 101.837,21.611 102.475,20.974 C103.159,20.654 103.842,20.803 104.526,21.418 C105.095,21.987 105.574,22.558 105.961,23.127 C106.326,23.674 106.201,23.993 105.585,24.084 C105.266,24.13 105.004,24.255 104.799,24.46 C104.07,25.417 103.125,26.386 101.962,27.365 C101.37,27.912 101.347,28.242 101.894,28.356 C103.671,28.675 105.494,28.811 107.363,28.767 C108.046,28.767 108.434,28.801 108.525,28.869 C108.57,28.982 108.263,29.29 107.602,29.792 C106.827,30.407 106.337,31.079 106.132,31.809 C105.927,32.492 105.779,32.856 105.688,32.902 C103.614,32.697 101.233,31.945 98.544,30.646 C97.998,30.35 97.359,30.35 96.63,30.646 C93.759,31.809 91.025,32.48 88.427,32.663 C87.516,32.708 87.037,32.663 86.992,32.526 C87.014,32.39 87.379,32.195 88.085,31.945 C90.432,31.193 92.643,30.225 94.716,29.04 C95.217,28.743 95.115,28.254 94.409,27.57 C93.201,26.249 92.403,24.848 92.016,23.366 C91.925,22.819 91.606,22.546 91.059,22.546 C90.558,22.568 90.056,22.626 89.555,22.717 C88.849,22.831 88.439,22.66 88.325,22.204 C88.233,21.726 88.53,21.486 89.213,21.486 C89.669,21.509 90.125,21.566 90.581,21.657 L100.595,21.657 L100.595,21.657 Z M91.914,0.671 C91.914,-0.104 92.244,-0.469 92.905,-0.423 C94.409,-0.264 95.502,-0.001 96.186,0.363 C96.254,0.454 96.163,0.683 95.913,1.047 C95.571,1.503 95.4,1.81 95.4,1.97 C95.4,2.221 95.673,2.346 96.22,2.346 L98.134,2.346 C98.704,2.346 98.989,2.072 98.989,1.525 L98.989,0.602 C98.989,-0.127 99.421,-0.457 100.288,-0.389 C101.609,-0.252 102.612,-0.013 103.295,0.329 C103.409,0.488 103.295,0.762 102.954,1.149 C102.634,1.514 102.475,1.776 102.475,1.935 C102.475,2.209 102.589,2.357 102.817,2.38 C103.136,2.311 103.591,1.935 104.184,1.252 C104.913,0.432 105.631,0.249 106.337,0.705 C107.34,1.503 107.978,2.255 108.252,2.961 C108.115,3.28 107.67,3.383 106.919,3.269 L103.33,3.269 C102.76,3.269 102.475,3.508 102.475,3.986 C102.703,5.08 102.11,5.684 100.698,5.798 C99.353,5.707 98.784,5.126 98.989,4.055 C98.989,3.53 98.715,3.269 98.169,3.269 L96.254,3.269 C95.685,3.269 95.4,3.53 95.4,4.055 C95.627,5.217 95.035,5.844 93.623,5.935 C92.278,5.866 91.709,5.263 91.914,4.123 C91.914,3.554 91.64,3.269 91.093,3.269 C90.523,3.269 89.863,3.325 89.111,3.44 C88.381,3.554 87.937,3.394 87.778,2.961 C87.618,2.392 87.937,2.141 88.735,2.209 C89.509,2.3 90.284,2.346 91.059,2.346 C91.628,2.346 91.914,2.072 91.914,1.525 L91.914,0.671 L91.914,0.671 Z M97.177,10.583 C97.177,9.99 96.915,9.694 96.391,9.694 L93.554,9.694 C92.984,9.694 92.7,9.968 92.7,10.515 L92.7,11.232 C92.7,11.802 92.973,12.087 93.52,12.087 L96.323,12.087 C96.892,12.087 97.177,11.813 97.177,11.267 L97.177,10.583 L97.177,10.583 Z M97.177,13.864 C97.177,13.272 96.915,12.976 96.391,12.976 L93.554,12.976 C92.984,12.976 92.7,13.249 92.7,13.796 L92.7,14.479 C92.7,15.049 92.973,15.334 93.52,15.334 L96.323,15.334 C96.892,15.334 97.177,15.06 97.177,14.514 L97.177,13.864 L97.177,13.864 Z M97.177,17.419 C97.177,16.644 96.904,16.257 96.357,16.257 L93.554,16.257 C92.984,16.257 92.7,16.621 92.7,17.351 C92.7,18.125 92.973,18.513 93.52,18.513 L96.323,18.513 C96.892,18.513 97.177,18.148 97.177,17.419 L97.177,17.419 Z M101.313,23.435 C101.7,22.842 101.621,22.546 101.074,22.546 L93.418,22.546 C92.848,22.546 92.836,22.91 93.383,23.64 C94.363,24.848 95.537,25.839 96.904,26.613 C97.496,26.909 98.111,26.795 98.75,26.271 C99.866,25.36 100.72,24.414 101.313,23.435 L101.313,23.435 Z" id="Fill-47" sketch:type="MSShapeGroup"></path>
            <path d="M137.37,0.5 C138.19,0.136 138.942,0.147 139.626,0.534 C140.286,1.013 140.947,1.537 141.608,2.106 C142.223,2.494 142.44,2.893 142.257,3.303 C142.121,3.44 141.722,3.474 141.061,3.405 C140.583,3.383 139.796,3.496 138.703,3.747 L132.824,4.738 C132.277,4.829 132.003,5.148 132.003,5.695 L132.003,10.241 C132.003,10.81 132.277,11.096 132.824,11.096 L136.242,11.096 C136.811,11.096 137.358,10.766 137.882,10.104 L139.181,8.464 C139.591,7.894 140.149,7.963 140.856,8.669 C141.471,9.079 142.189,9.717 143.009,10.583 C143.488,11.198 143.727,11.597 143.727,11.779 C143.613,11.939 143.191,12.019 142.462,12.019 L132.858,12.019 C132.288,12.019 132.003,12.292 132.003,12.839 L132.003,17.658 C132.003,18.227 132.277,18.513 132.824,18.513 L138.669,18.513 C139.238,18.513 139.739,18.251 140.172,17.727 L141.574,15.915 C142.052,15.277 142.622,15.322 143.283,16.052 C143.83,16.416 144.559,17.055 145.47,17.966 C145.971,18.603 146.21,19.003 146.188,19.162 C146.028,19.321 145.595,19.401 144.889,19.401 L132.858,19.401 C132.288,19.401 132.003,19.675 132.003,20.222 L132.003,29.143 C131.958,29.621 131.821,30.1 131.593,30.578 C130.795,31.74 129.497,32.412 127.697,32.595 C126.785,32.64 126.284,32.31 126.193,31.603 C126.147,30.737 125.555,30.019 124.416,29.45 C123.549,29.085 123.094,28.835 123.048,28.698 C123.025,28.561 123.071,28.447 123.185,28.356 C124.666,28.401 126.181,28.391 127.731,28.322 C128.164,28.162 128.323,27.741 128.21,27.058 L128.21,20.256 C128.21,19.686 127.936,19.401 127.389,19.401 L116.178,19.401 L115.085,19.572 C114.355,19.686 113.911,19.526 113.752,19.094 C113.615,18.524 113.957,18.273 114.777,18.342 C115.187,18.364 115.631,18.422 116.11,18.513 L127.355,18.513 C127.924,18.513 128.21,18.239 128.21,17.692 L128.21,12.873 C128.21,12.304 127.936,12.019 127.389,12.019 L118.537,12.019 L117.409,12.189 C116.679,12.304 116.235,12.133 116.076,11.677 C115.939,11.13 116.281,10.891 117.101,10.959 L118.4,11.096 L127.355,11.096 C127.924,11.096 128.21,10.822 128.21,10.275 L128.21,6.105 C128.21,5.559 127.868,5.297 127.184,5.319 C123.151,5.684 119.573,5.832 116.452,5.764 C115.768,5.627 115.426,5.513 115.426,5.422 C115.495,5.263 115.871,5.148 116.554,5.08 C124.21,4.465 131.149,2.939 137.37,0.5" id="Fill-48" sketch:type="MSShapeGroup"></path>
            <path d="M176.469,0.295 C177.061,-0.366 177.779,-0.457 178.622,0.021 C179.374,0.637 180.035,1.264 180.605,1.901 C181.174,2.402 181.288,2.778 180.946,3.029 C180.832,3.098 180.434,3.132 179.75,3.132 L170.385,3.132 C169.815,3.132 169.53,3.405 169.53,3.952 L169.53,4.909 C169.53,5.478 169.804,5.764 170.351,5.764 L177.221,5.764 C177.858,5.878 178.36,5.729 178.725,5.319 C179.454,4.408 180.137,4.191 180.775,4.67 C181.687,5.126 182.598,5.684 183.51,6.345 C183.942,6.641 184.193,6.903 184.262,7.131 C184.193,7.609 183.942,7.814 183.51,7.746 C183.19,7.724 182.69,7.974 182.006,8.498 C180.319,9.638 179.009,10.378 178.075,10.72 C177.574,10.674 177.574,10.229 178.075,9.387 L178.656,7.507 C178.747,6.96 178.52,6.686 177.973,6.686 L170.385,6.686 C169.815,6.686 169.53,6.96 169.53,7.507 L169.53,13.762 C169.257,14.696 168.71,15.141 167.89,15.095 C166.158,15.346 165.349,14.604 165.463,12.873 L165.463,7.541 C165.463,6.972 165.19,6.686 164.643,6.686 L157.362,6.686 L156.815,6.755 C156.269,6.801 155.961,7.165 155.893,7.849 C155.778,8.828 155.573,9.626 155.277,10.241 C154.753,11.289 153.921,11.745 152.782,11.608 C152.03,11.608 151.506,11.118 151.21,10.139 C151.05,8.954 151.677,8.042 153.09,7.404 C154.229,6.584 154.958,5.581 155.277,4.396 C155.573,4.328 155.733,4.579 155.756,5.148 C155.688,5.627 156.211,5.832 157.328,5.764 L164.608,5.764 C165.178,5.764 165.463,5.49 165.463,4.943 L165.463,3.986 C165.463,3.417 165.19,3.132 164.643,3.132 L157.294,3.132 L156.166,3.303 C155.437,3.417 155.004,3.246 154.867,2.79 C154.708,2.243 155.038,2.004 155.858,2.072 L157.157,2.209 L174.076,2.209 C174.646,2.209 175.147,1.947 175.58,1.423 L176.469,0.295 L176.469,0.295 Z M157.567,15.949 C157.567,15.243 157.92,14.912 158.627,14.958 C159.379,15.049 160.165,15.175 160.985,15.334 C161.486,15.334 161.862,15.527 162.113,15.915 C162.227,16.211 162.079,16.462 161.669,16.667 C161.122,16.826 160.905,17.226 161.02,17.863 C161.02,18.342 161.076,18.593 161.19,18.615 C161.304,18.615 161.646,18.296 162.216,17.658 C162.694,16.997 163.127,16.53 163.515,16.257 C164.677,16.804 165.713,17.727 166.625,19.025 C166.648,19.185 166.613,19.31 166.523,19.401 C166.408,19.492 166.01,19.538 165.326,19.538 L161.874,19.538 C161.304,19.538 161.02,19.88 161.02,20.564 C161.02,21.27 161.361,21.714 162.045,21.897 C164.665,22.876 166.01,24.267 166.078,26.066 C166.124,26.841 165.805,27.478 165.121,27.98 C163.731,28.527 162.808,27.991 162.353,26.374 C162.17,25.713 161.931,25.041 161.635,24.357 C161.225,23.742 161.02,23.788 161.02,24.494 L161.02,30.783 C161.338,32.036 160.746,32.754 159.242,32.936 C157.898,32.913 157.339,32.219 157.567,30.852 L157.567,26.613 C157.567,26.044 157.271,26.135 156.679,26.887 C155.425,28.367 154.184,29.45 152.953,30.134 C152.247,30.43 151.836,30.52 151.723,30.407 C151.654,30.27 151.984,29.837 152.714,29.108 C154.719,26.602 156.177,23.685 157.089,20.358 C157.248,19.811 157.055,19.538 156.508,19.538 C155.505,19.492 154.639,19.55 153.91,19.709 C153.181,19.846 152.714,19.584 152.509,18.923 L152.406,18.513 C152.452,18.422 152.816,18.41 153.5,18.478 C154.434,18.661 155.505,18.718 156.713,18.649 C157.282,18.649 157.567,18.376 157.567,17.829 L157.567,15.949 L157.567,15.949 Z M156.85,12.976 C156.85,12.634 157.169,12.463 157.807,12.463 L163.002,12.463 C163.708,12.463 164.062,12.611 164.062,12.907 C164.062,13.227 163.72,13.386 163.036,13.386 L157.909,13.386 C157.203,13.386 156.85,13.249 156.85,12.976 L156.85,12.976 Z M157.123,9.387 C157.123,9.067 157.465,8.908 158.148,8.908 L163.002,8.908 C163.708,8.908 164.062,9.057 164.062,9.352 C164.062,9.672 163.72,9.831 163.036,9.831 L158.148,9.831 C157.465,9.831 157.123,9.683 157.123,9.387 L157.123,9.387 Z M177.597,16.018 C178.029,15.425 178.462,15.288 178.896,15.607 C180.08,16.086 180.992,16.565 181.63,17.043 C182.291,17.59 182.268,18.046 181.562,18.41 C181.197,18.569 181.015,18.923 181.015,19.47 L181.015,30.646 C181.311,31.945 180.741,32.708 179.306,32.936 C178.121,33.186 177.528,32.708 177.528,31.501 C177.528,30.999 177.255,30.749 176.708,30.749 L171.786,30.749 C171.239,30.749 170.92,31.091 170.829,31.774 C170.852,32.185 170.556,32.549 169.94,32.868 C168.14,33.46 167.297,32.868 167.411,31.091 L167.411,16.701 C167.411,15.995 167.867,15.756 168.778,15.983 L170.146,16.53 C170.783,16.963 171.376,17.123 171.923,17.009 L175.819,17.009 C176.389,17.009 176.981,16.679 177.597,16.018 L177.597,16.018 Z M170.658,9.387 C170.658,9.067 171,8.908 171.684,8.908 L176.435,8.908 C177.141,8.908 177.494,9.057 177.494,9.352 C177.494,9.672 177.152,9.831 176.469,9.831 L171.684,9.831 C171,9.831 170.658,9.683 170.658,9.387 L170.658,9.387 Z M170.658,12.976 C170.658,12.634 170.977,12.463 171.615,12.463 L176.947,12.463 C177.653,12.463 178.007,12.611 178.007,12.907 C178.007,13.227 177.665,13.386 176.981,13.386 L171.718,13.386 C171.011,13.386 170.658,13.249 170.658,12.976 L170.658,12.976 Z M177.528,18.854 C177.528,18.217 177.255,17.897 176.708,17.897 L171.957,17.897 C171.273,17.988 170.932,18.308 170.932,18.854 L170.932,20.529 C170.932,21.099 171.205,21.384 171.752,21.384 L176.674,21.384 C177.243,21.384 177.528,21.11 177.528,20.564 L177.528,18.854 L177.528,18.854 Z M177.528,23.127 C177.528,22.558 177.255,22.272 176.708,22.272 L171.786,22.272 C171.216,22.272 170.932,22.546 170.932,23.093 L170.932,24.733 C170.932,25.303 171.205,25.588 171.752,25.588 L176.674,25.588 C177.243,25.588 177.528,25.314 177.528,24.768 L177.528,23.127 L177.528,23.127 Z M177.528,27.365 C177.528,26.795 177.255,26.511 176.708,26.511 L171.786,26.511 C171.216,26.511 170.932,26.784 170.932,27.331 L170.932,28.972 C170.932,29.541 171.205,29.826 171.752,29.826 L176.674,29.826 C177.243,29.826 177.528,29.553 177.528,29.006 L177.528,27.365 L177.528,27.365 Z" id="Fill-49" sketch:type="MSShapeGroup"></path>
        </g>
    </g>
</svg>