<?xml version="1.0" encoding="utf-8"?>
<!-- Generator: Adobe Illustrator 17.0.2, SVG Export Plug-In . SVG Version: 6.00 Build 0)  -->
<!DOCTYPE svg PUBLIC "-//W3C//DTD SVG 1.1//EN" "http://www.w3.org/Graphics/SVG/1.1/DTD/svg11.dtd">
<svg version="1.1" id="圖層_1" xmlns:sketch="http://www.bohemiancoding.com/sketch/ns"
	 xmlns="http://www.w3.org/2000/svg" xmlns:xlink="http://www.w3.org/1999/xlink" x="0px" y="0px" width="147.667px" height="34px"
	 viewBox="0 0 147.667 34" enable-background="new 0 0 147.667 34" xml:space="preserve">
<title>h1_remover</title>
<desc>Created with Sketch.</desc>
<g>
	<path d="M12.637,1.072c0.068-0.114,0.444-0.125,1.128-0.034c0.752,0.137,1.538,0.308,2.358,0.513
		c0.524,0.091,0.923,0.273,1.196,0.547c0.228,0.433,0.011,0.741-0.649,0.923c-0.433,0.114-0.684,0.376-0.752,0.786l-1.777,6.084
		c-0.16,0.593,0.022,0.889,0.547,0.889h10.425c0.729,0.273,1.378-0.137,1.948-1.23c0.319-0.456,0.672-0.911,1.06-1.367
		c0.479-0.661,1.139-0.547,1.982,0.342c1.413,1.048,2.29,2.017,2.632,2.905c-0.137,0.16-0.57,0.239-1.299,0.239h-5.879
		c-0.547,0-0.877,0.342-0.991,1.025c-0.319,3.145-1.401,6.438-3.247,9.878c-0.365,0.593-0.285,1.014,0.239,1.265
		c1.823,0.82,3.566,1.96,5.229,3.418c1.709,1.686,2.188,3.281,1.436,4.785c-1.003,1.07-2.097,0.877-3.281-0.581
		c-2.074-2.324-3.783-4.011-5.127-5.059c-0.547-0.456-1.151-0.33-1.812,0.376c-2.826,2.598-6.335,4.375-10.527,5.332
		c-1.504,0.318-3.327,0.592-5.469,0.82c-0.684,0.022-1.071-0.023-1.162-0.137c0.045-0.297,0.273-0.456,0.684-0.479
		c3.828-0.912,7.474-2.541,10.938-4.888c1.595-1.162,2.871-2.37,3.828-3.623c-1.299-0.979-2.86-1.96-4.683-2.939
		c-0.729-0.388-1.276-0.239-1.641,0.444l-0.273,0.615c-0.183,0.456-0.319,0.74-0.41,0.854c-0.615,0.479-1.413,0.559-2.393,0.239
		c-0.593-0.205-0.957-0.501-1.094-0.889c-0.023-0.273,0.137-0.764,0.479-1.47c1.23-2.712,2.278-5.412,3.145-8.101
		c0.205-0.592,0.045-0.889-0.479-0.889H2.999l-1.094,0.205c-0.729,0.068-1.174-0.103-1.333-0.513
		c-0.114-0.569,0.216-0.82,0.991-0.752c0.456,0.023,0.911,0.08,1.367,0.171h6.221c0.547,0,0.945-0.342,1.196-1.025
		C11.555,5.949,12.318,3.055,12.637,1.072z M20.772,12.522c0.022-0.569-0.239-0.854-0.786-0.854h-5.537
		c-0.547,0-0.946,0.342-1.196,1.025l-2.153,5.947c-0.228,0.547,0.022,0.945,0.752,1.196c2.347,0.798,4.01,1.424,4.99,1.88
		c0.547,0.228,1.037,0,1.47-0.684C19.632,18.504,20.453,15.667,20.772,12.522z"/>
	<path d="M48.865,1.551c0.729-0.774,1.424-0.957,2.085-0.547C52.203,1.779,53,2.417,53.342,2.918
		c0.228,0.41,0.045,0.638-0.547,0.684c-0.296-0.045-0.581-0.011-0.854,0.103c-1.55,0.729-3.418,1.242-5.605,1.538
		c-0.547,0.091-0.82,0.41-0.82,0.957v3.726c0,0.57,0.148,0.854,0.444,0.854c0.296,0,0.672-0.273,1.128-0.82l0.889-1.128
		c0.547-1.048,1.196-1.173,1.948-0.376c0.569,0.365,1.242,0.969,2.017,1.812c0.479,0.82,0.626,1.265,0.444,1.333
		c-0.091,0.046-0.479,0.068-1.162,0.068H46.37c-0.57,0-0.854,0.273-0.854,0.82v4.136c0,0.57,0.273,0.854,0.82,0.854h15.346
		c0.569,0,0.854-0.273,0.854-0.82v-4.272c0-0.569-0.273-0.854-0.82-0.854h-3.35l-1.06,0.137c-0.706,0.068-1.116-0.103-1.23-0.513
		c-0.137-0.479,0.148-0.706,0.854-0.684c0.935,0.183,2.518,0.239,4.751,0.171c0.569,0,0.854-0.273,0.854-0.82V5.721
		c0-0.547-0.023-0.854-0.068-0.923c-0.092-0.068-0.41-0.103-0.957-0.103c-1.345-0.022-2.689,0-4.033,0.068
		c-0.114,0.046-0.228,0.057-0.342,0.034c-0.684,0.091-1.094-0.068-1.23-0.479c-0.137-0.479,0.159-0.706,0.889-0.684
		c0.889,0.16,2.506,0.194,4.854,0.103c0.364-0.296,0.729-0.684,1.094-1.162c0.296-0.524,0.729-0.638,1.299-0.342
		c0.865,0.365,1.697,0.775,2.495,1.23c1.185,0.684,1.321,1.276,0.41,1.777c-0.615,0.205-0.82,0.638-0.615,1.299v11.758
		c0.296,1.481-0.399,2.29-2.085,2.427c-1.254,0.159-1.823-0.364-1.709-1.572c0-0.524-0.273-0.786-0.82-0.786h-1.538
		c-0.57,0-0.854,0.273-0.854,0.82v8.271c-0.16,1.299,0.421,1.914,1.743,1.846c1.549,0.113,3.247,0.045,5.093-0.205
		c0.523-0.092,0.865-0.444,1.025-1.06c0.318-0.866,0.581-1.731,0.786-2.598c0.25-0.228,0.455-0.273,0.615-0.137
		c0.068,0.091,0.103,0.479,0.103,1.162c-0.251,1.162,0.103,2.051,1.06,2.666c0.433,0.318,0.684,0.729,0.752,1.23
		c0.045,1.07-0.581,1.743-1.88,2.017c-1.777,0.479-4.238,0.684-7.383,0.615c-1.823-0.114-3.19-0.365-4.102-0.752
		c-0.911-0.661-1.447-1.504-1.606-2.529V19.222c0-0.569-0.273-0.854-0.82-0.854h-1.299c-0.547,0-0.854,0.342-0.923,1.025
		c-0.091,2.803-0.866,5.423-2.324,7.861c-1.8,2.415-4.455,4.192-7.964,5.332l-2.085,0.581c-0.684,0.113-1.06,0.125-1.128,0.034
		c0.091-0.297,0.33-0.49,0.718-0.581c2.005-0.866,3.828-2.051,5.469-3.555c2.37-2.825,3.521-6.106,3.452-9.844
		c0-0.569-0.273-0.854-0.82-0.854H46.37c-0.57,0-0.854,0.183-0.854,0.547c0.068,1.253-0.581,1.926-1.948,2.017
		c-1.436,0.183-2.04-0.41-1.812-1.777V3.841c0-0.706,0.364-0.968,1.094-0.786c0.501,0.114,1.037,0.308,1.606,0.581
		c0.615,0.319,1.162,0.331,1.641,0.034C46.962,3.146,47.885,2.439,48.865,1.551z"/>
	<path d="M83.622,9.344c0.455-0.684,0.74-1.025,0.854-1.025c0.113,0.114,0.103,0.513-0.034,1.196
		c-1.14,3.646-2.245,7.292-3.315,10.938c-0.524,1.731-0.273,3.646,0.752,5.742c0.296,1.094,0.364,2.005,0.205,2.734
		c-0.068,1.002-0.684,1.651-1.846,1.948c-1.208,0.091-1.96-0.444-2.256-1.606c-0.205-0.547-0.217-1.596-0.034-3.145
		c0.045-1.276,0.011-2.142-0.103-2.598c0-0.706-0.456-1.311-1.367-1.812c-0.729-0.456-1.071-0.74-1.025-0.854
		c0.091-0.114,0.569-0.205,1.436-0.273c0.523,0,0.957-0.217,1.299-0.649C79.965,16.408,81.776,12.876,83.622,9.344z M76.649,2.85
		c0.113-0.273,0.376-0.319,0.786-0.137c2.256,0.365,3.885,1.561,4.888,3.589c0.342,1.071,0.091,2.097-0.752,3.076
		c-1.025,0.57-1.903,0.501-2.632-0.205c-0.479-0.729-0.673-1.549-0.581-2.461C78.29,5.504,77.72,4.217,76.649,2.85z M93.124,2.371
		c-0.023-0.752,0.318-1.105,1.025-1.06c1.777,0.16,3.008,0.41,3.691,0.752c0.318,0.205,0.33,0.513,0.034,0.923l-0.923,0.581
		c-0.046,0.091-0.068,0.444-0.068,1.06c0,0.638,0.273,0.957,0.82,0.957c1.002,0.023,2.039,0,3.11-0.068
		c0.091-0.045,0.239-0.205,0.444-0.479l1.06-1.367c0.592-1.071,1.241-1.219,1.948-0.444c0.66,0.456,1.333,1.06,2.017,1.812
		c0.501,0.684,0.74,1.094,0.718,1.23c-0.114,0.137-0.536,0.205-1.265,0.205h-7.998c-0.57,0-0.854,0.273-0.854,0.82v1.948
		c0,0.57,0.273,0.854,0.82,0.854h1.948c0.547,0,1.025-0.205,1.436-0.615c0.523-0.706,0.968-0.911,1.333-0.615
		c1.39,0.524,2.552,1.23,3.486,2.119c0.137,0.273-0.034,0.559-0.513,0.854c-0.502,0.205-0.684,0.649-0.547,1.333v7.861
		c-0.023,0.479-0.365,0.832-1.025,1.06c-1.596,0.593-2.507,0.273-2.734-0.957c-0.046-0.388-0.342-0.581-0.889-0.581h-2.393
		c-0.57,0-0.639,0.354-0.205,1.06c1.253,1.823,2.871,3.327,4.854,4.512c1.959,1.253,4.067,2.017,6.323,2.29
		c0.25,0.342,0,0.604-0.752,0.786c-0.798,0.523-1.356,1.15-1.675,1.88c-0.205,0.684-0.365,1.082-0.479,1.196
		c-2.119-0.639-4.147-2.188-6.084-4.648c-0.98-1.321-1.777-2.688-2.393-4.102c-0.342-0.774-0.513-0.809-0.513-0.103v8.784
		c-0.479,1.094-1.276,1.515-2.393,1.265c-1.094-0.137-1.55-0.854-1.367-2.153v-5.947c0-0.569-0.308-0.479-0.923,0.273
		c-1.687,2.164-3.862,3.931-6.528,5.298c-1.664,0.774-3.088,1.241-4.272,1.401c-0.114-0.068-0.148-0.16-0.103-0.273
		c4.854-2.758,8.157-6.323,9.912-10.698c0.159-0.547-0.034-0.82-0.581-0.82h-0.923c-0.547,0-0.866,0.171-0.957,0.513
		c-0.183,0.364-0.319,0.593-0.41,0.684c-1.186,0.661-2.188,0.74-3.008,0.239c-0.273-0.319-0.365-0.82-0.273-1.504V9.583
		c0-0.706,0.364-0.957,1.094-0.752c0.774,0.228,1.549,0.501,2.324,0.82c0.433,0.296,0.923,0.444,1.47,0.444h2.324
		c0.569,0,0.854-0.273,0.854-0.82V7.327c0-0.569-0.273-0.854-0.82-0.854h-5.947l-1.128,0.171c-0.729,0.114-1.174-0.057-1.333-0.513
		c-0.137-0.547,0.205-0.786,1.025-0.718c0.41,0.023,0.854,0.08,1.333,0.171h6.016c0.569,0,0.854-0.273,0.854-0.82V2.371z
		 M93.124,11.839c0-0.569-0.273-0.854-0.82-0.854H89.74c-0.593,0-0.889,0.285-0.889,0.854v2.153c0,0.57,0.273,0.854,0.82,0.854
		h2.598c0.569,0,0.854-0.273,0.854-0.82V11.839z M93.124,16.624c0-0.569-0.273-0.854-0.82-0.854h-2.598
		c-0.57,0-0.854,0.273-0.854,0.82v2.222c0,0.569,0.273,0.854,0.82,0.854h2.598c0.569,0,0.854-0.273,0.854-0.82V16.624z
		 M101.054,11.907c0-0.615-0.285-0.923-0.854-0.923h-2.461c-0.57,0-0.854,0.273-0.854,0.82v2.188c0,0.57,0.273,0.854,0.82,0.854
		h2.495c0.569,0,0.854-0.273,0.854-0.82V11.907z M101.054,16.624c0-0.569-0.273-0.854-0.82-0.854h-2.495
		c-0.57,0-0.854,0.273-0.854,0.82v2.222c0,0.569,0.273,0.854,0.82,0.854h2.495c0.569,0,0.854-0.273,0.854-0.82V16.624z"/>
	<path d="M120.637,1.824c0.592-0.684,0.957-1.025,1.094-1.025c1.572,0.57,2.837,1.379,3.794,2.427
		c0.159,0.365-0.046,0.684-0.615,0.957c-0.798,0.319-1.094,0.832-0.889,1.538v24.746c-0.068,1.572-1.049,2.598-2.939,3.076
		c-0.866,0.068-1.311-0.263-1.333-0.991c-0.068-0.729-0.673-1.401-1.812-2.017l-0.103-0.273c0-0.092,0.342-0.217,1.025-0.376
		c1.367-0.046,1.925-0.639,1.675-1.777v-6.836c0-0.569-0.273-0.854-0.82-0.854h-0.957c-0.547,0-0.854,0.342-0.923,1.025
		c-0.229,4.17-1.401,7.93-3.521,11.279c-0.524,0.706-0.832,1.07-0.923,1.094c-0.114-0.046-0.137-0.41-0.068-1.094
		c0.797-4.74,1.196-10.3,1.196-16.68V1.995c0-0.752,0.444-0.957,1.333-0.615c0.455,0.205,0.911,0.444,1.367,0.718
		c0.501,0.456,1.378,0.593,2.632,0.41C120.056,2.508,120.317,2.28,120.637,1.824z M120.534,13.001c0-0.615-0.251-0.923-0.752-0.923
		h-0.923c-0.57,0-0.854,0.273-0.854,0.82v3.862l-0.034,1.709c-0.023,0.706,0.239,1.06,0.786,1.06h0.923
		c0.569,0,0.854-0.273,0.854-0.82V13.001z M120.432,3.567c-0.092-0.068-0.41-0.103-0.957-0.103h-0.649
		c-0.547,0.114-0.82,0.444-0.82,0.991v5.845c0,0.57,0.273,0.854,0.82,0.854h0.854c0.569,0,0.854-0.273,0.854-0.82V4.524
		C120.534,3.978,120.5,3.659,120.432,3.567z M132.565,21.409c0-0.729,0.364-1.082,1.094-1.06c1.458,0.091,2.461,0.228,3.008,0.41
		c0.615,0.251,0.638,0.593,0.068,1.025c-0.342,0.205-0.547,0.581-0.615,1.128c-0.068,0.569,0.171,0.854,0.718,0.854h1.88
		c0.547,0,1.048-0.273,1.504-0.82c0.25-0.364,0.547-0.74,0.889-1.128c0.547-1.048,1.196-1.174,1.948-0.376
		c0.569,0.364,1.241,0.969,2.017,1.812c0.479,0.82,0.626,1.265,0.444,1.333c-0.092,0.046-0.479,0.068-1.162,0.068h-7.451
		c-0.57,0-0.639,0.354-0.205,1.06c2.461,3.03,5.479,4.295,9.058,3.794c0.41-0.023,0.649,0.103,0.718,0.376
		c-0.023,0.113-0.376,0.318-1.06,0.615c-0.889,0.342-1.687,1.104-2.393,2.29c-0.297,0.684-0.502,1.036-0.615,1.06
		c-3.168-1.117-5.366-3.315-6.597-6.597c-0.16-0.661-0.273-0.969-0.342-0.923c-0.092,0.091-0.194,0.308-0.308,0.649
		c-0.661,2.005-2.085,3.646-4.272,4.922c-1.96,1.025-4.011,1.641-6.152,1.846c-0.889,0.068-1.356,0.034-1.401-0.103
		c0-0.114,0.376-0.308,1.128-0.581c2.142-0.639,4.01-1.777,5.605-3.418c0.934-1.186,1.606-2.541,2.017-4.067
		c0.159-0.615-0.023-0.923-0.547-0.923h-4.17l-1.094,0.171c-0.729,0.114-1.174-0.046-1.333-0.479
		c-0.137-0.569,0.205-0.82,1.025-0.752c0.41,0.022,0.854,0.08,1.333,0.171h4.272c0.547,0,0.865-0.342,0.957-1.025L132.565,21.409z
		 M129.421,1.619c0-0.729,0.353-1.071,1.06-1.025c0.752,0.091,1.538,0.217,2.358,0.376c0.205,0.046,0.421,0.125,0.649,0.239
		c0.205,0.205,0.182,0.49-0.068,0.854c-0.342,0.433-0.513,0.946-0.513,1.538c0,0.661,0.273,0.991,0.82,0.991h1.641
		c0.569,0,0.854-0.273,0.854-0.82V1.722c0-0.729,0.353-1.06,1.06-0.991c1.595,0.137,2.688,0.422,3.281,0.854
		c0.022,0.114-0.114,0.342-0.41,0.684c-0.297,0.388-0.444,0.854-0.444,1.401c0,0.615,0.171,0.923,0.513,0.923
		c0.433,0.16,0.786-0.034,1.06-0.581c0.25-0.456,0.547-0.911,0.889-1.367c0.318-0.364,0.535-0.569,0.649-0.615
		c1.139,0.661,2.051,1.641,2.734,2.939c-0.137,0.547-0.593,0.729-1.367,0.547h-3.623c-0.57,0-0.854,0.342-0.854,1.025
		c0.205,1.777-0.593,2.473-2.393,2.085c-0.957-0.205-1.322-0.866-1.094-1.982c0-0.752-0.273-1.128-0.82-1.128h-1.641
		c-0.57,0-0.854,0.342-0.854,1.025c0.205,1.777-0.593,2.473-2.393,2.085c-0.957-0.205-1.322-0.854-1.094-1.948
		c0-0.774-0.273-1.162-0.82-1.162s-1.55,0.103-3.008,0.308c-0.092-0.068-0.171-0.296-0.239-0.684
		c-0.092-0.501,0.239-0.729,0.991-0.684l2.222,0.137c0.569,0,0.854-0.273,0.854-0.82V1.619z M126.687,9.686
		c0-0.774,0.342-1.071,1.025-0.889c0.569,0.16,1.139,0.365,1.709,0.615c0.501,0.251,1.014,0.376,1.538,0.376h7.383
		c0.547,0,1.036-0.193,1.47-0.581c0.41-0.433,0.957-0.524,1.641-0.273c1.48,0.638,2.415,1.276,2.803,1.914
		c-0.046,0.273-0.365,0.559-0.957,0.854c-0.068,0.137-0.103,0.479-0.103,1.025v5.742c0.228,1.094-0.137,1.777-1.094,2.051
		c-1.14,0.364-1.914,0.193-2.324-0.513c-0.068-0.183-0.376-0.273-0.923-0.273h-7.827c-0.547,0-0.844,0.125-0.889,0.376
		c-0.183,0.684-0.639,1.06-1.367,1.128c-1.436,0.364-2.131-0.034-2.085-1.196V9.686z M139.675,11.6c0-0.592-0.297-0.889-0.889-0.889
		h-7.451c-0.98-0.228-1.367,0.091-1.162,0.957v1.948c0,0.57,0.273,0.854,0.82,0.854h7.827c0.569,0,0.854-0.273,0.854-0.82V11.6z
		 M139.675,16.248c0-0.592-0.263-0.889-0.786-0.889h-7.861c-0.57,0-0.854,0.273-0.854,0.82v1.812c0,0.569,0.273,0.854,0.82,0.854
		h7.827c0.569,0,0.854-0.273,0.854-0.82V16.248z"/>
</g>
</svg>
