<?xml version="1.0" encoding="UTF-8" standalone="no"?>
<svg width="110px" height="35px" viewBox="0 0 110 35" version="1.1" xmlns="http://www.w3.org/2000/svg" xmlns:xlink="http://www.w3.org/1999/xlink" xmlns:sketch="http://www.bohemiancoding.com/sketch/ns">
    <!-- Generator: Sketch 3.0.4 (8053) - http://www.bohemiancoding.com/sketch -->
    <title>h1_lotion_face</title>
    <desc>Created with Sketch.</desc>
    <defs></defs>
    <g id="Page-1" stroke="none" stroke-width="1" fill="none" fill-rule="evenodd" sketch:type="MSPage">
        <g id="h1_lotion_face" sketch:type="MSLayerGroup" transform="translate(1.000000, 0.000000)" fill="#000000">
            <path d="M13.135,11.275 C13.362,10.797 13.636,10.638 13.955,10.797 C14.798,11.481 15.368,12.073 15.664,12.574 C16.074,12.984 16.268,13.394 16.245,13.805 C16.177,14.01 15.789,14.112 15.083,14.112 L5.171,14.112 C4.647,14.112 4.385,14.42 4.385,15.035 C4.453,19.889 4.214,23.705 3.667,26.485 C3.302,28.81 2.437,30.86 1.069,32.638 C0.249,33.344 -0.173,33.617 -0.195,33.458 C0.352,30.108 0.67,25.118 0.762,18.487 L0.762,12.711 C0.784,11.959 1.172,11.72 1.924,11.993 C2.721,12.289 3.553,12.631 4.419,13.019 C4.715,13.155 5.137,13.224 5.684,13.224 L10.845,13.224 C11.414,13.224 11.95,12.894 12.451,12.232 L13.135,11.275 L13.135,11.275 Z M6.538,1.5 C6.538,0.726 6.846,0.35 7.461,0.372 C9.261,0.44 10.525,0.702 11.255,1.158 C11.528,1.637 11.255,2.024 10.435,2.32 C10.366,2.89 10.343,3.46 10.366,4.029 C10.366,4.599 10.525,4.884 10.845,4.884 C11.277,5.043 11.619,4.838 11.87,4.269 C12.234,3.653 12.679,3.026 13.203,2.389 C13.385,2.298 13.807,2.503 14.468,3.004 C15.151,3.665 15.698,4.383 16.108,5.157 C16.108,5.772 15.664,5.977 14.775,5.772 L3.12,5.772 C2.755,5.795 2.379,5.852 1.992,5.943 C1.24,6.034 0.807,5.875 0.693,5.465 C0.579,4.918 0.91,4.667 1.685,4.713 C2.596,4.895 3.929,4.952 5.684,4.884 C6.253,4.884 6.538,4.61 6.538,4.063 L6.538,1.5 L6.538,1.5 Z M9.922,7.174 C10.606,6.422 11.266,6.217 11.904,6.559 C13.044,7.151 13.773,7.652 14.092,8.062 C14.16,8.313 14.012,8.484 13.648,8.575 C13.419,8.553 13.135,8.621 12.793,8.78 L12.349,9.019 C11.824,9.293 11.722,9.635 12.041,10.045 C12.405,10.455 12.542,10.865 12.451,11.275 C11.927,12.87 10.856,12.928 9.238,11.446 C8.669,10.99 8.053,10.865 7.393,11.07 C6.39,11.344 5.387,11.571 4.385,11.754 C3.428,11.868 2.995,11.845 3.086,11.685 C3.177,11.549 3.587,11.332 4.316,11.036 C4.932,10.763 5.547,10.443 6.162,10.079 C6.686,9.76 6.572,9.384 5.82,8.951 C4.954,8.473 4.077,7.948 3.189,7.379 C3.166,7.265 3.496,7.208 4.18,7.208 C5.479,7.413 6.777,7.664 8.076,7.96 C8.577,8.119 9.192,7.857 9.922,7.174 L9.922,7.174 Z M11.87,25.768 C12.28,25.106 12.93,25.004 13.818,25.46 C15.094,26.121 15.926,26.736 16.314,27.306 C16.382,27.784 16.006,28 15.186,27.955 C14.958,28 14.729,28.126 14.502,28.331 C11.699,30.473 8.395,31.942 4.59,32.74 C3.906,32.877 3.507,32.922 3.394,32.877 C3.371,32.763 3.701,32.523 4.385,32.159 C7.415,30.609 9.91,28.479 11.87,25.768 L11.87,25.768 Z M11.357,20.47 C11.676,19.764 12.269,19.581 13.135,19.923 C14.297,20.447 15.106,20.971 15.562,21.495 C15.584,21.974 15.345,22.19 14.844,22.144 C14.524,22.122 14.126,22.327 13.648,22.76 C11.597,24.378 9.102,25.551 6.162,26.28 C5.479,26.44 5.091,26.463 5,26.349 C5.068,26.212 5.444,25.95 6.128,25.562 C7.996,24.537 9.739,22.84 11.357,20.47 L11.357,20.47 Z M10.229,15.685 C10.594,14.979 11.198,14.796 12.041,15.138 C13.362,15.707 14.183,16.231 14.502,16.71 C14.502,17.188 14.274,17.394 13.818,17.325 C13.499,17.371 13.112,17.576 12.656,17.94 C10.833,19.239 8.782,20.14 6.504,20.641 C5.638,20.846 5.193,20.902 5.171,20.812 C5.148,20.721 5.547,20.39 6.367,19.82 C7.917,18.795 9.204,17.416 10.229,15.685 L10.229,15.685 Z M19.971,28.502 C20.472,27.818 21.144,27.727 21.987,28.229 C22.762,28.684 23.445,29.185 24.038,29.732 C24.63,30.348 24.494,30.689 23.628,30.758 C23.081,30.734 22.443,30.997 21.714,31.544 C19.503,32.751 17.202,33.469 14.81,33.697 C14.126,33.766 13.727,33.754 13.613,33.663 C13.567,33.526 14.012,33.241 14.946,32.809 C16.701,32.011 18.376,30.575 19.971,28.502 L19.971,28.502 Z M27.354,2.56 C27.786,1.922 28.367,1.249 29.097,0.543 C30.396,0.953 31.66,2.059 32.891,3.858 C32.708,4.269 32.252,4.405 31.523,4.269 L27.593,4.269 C27.046,4.269 26.544,4.61 26.089,5.294 C25.382,6.365 24.63,7.254 23.833,7.96 C23.218,8.461 23.195,8.712 23.765,8.712 C24.744,8.734 25.724,8.712 26.704,8.644 C26.818,8.621 26.989,8.484 27.217,8.233 C27.923,7.413 28.333,7.003 28.447,7.003 C29.381,7.23 30.281,7.596 31.148,8.097 C32.15,8.666 32.651,9.19 32.651,9.669 C32.56,9.852 32.366,10.011 32.07,10.148 C31.478,10.262 31.261,10.694 31.421,11.446 L31.421,25.152 C31.58,25.927 31.375,26.576 30.806,27.101 C29.985,27.533 29.165,27.647 28.345,27.442 C27.775,27.237 27.536,26.815 27.627,26.178 C27.627,25.79 27.354,25.597 26.807,25.597 L21.885,25.597 C21.338,25.597 20.973,25.938 20.791,26.622 C20.358,27.42 19.617,27.761 18.569,27.647 C17.476,27.557 17.031,26.873 17.236,25.597 L17.236,8.37 C17.236,7.664 17.692,7.435 18.604,7.687 C19.059,7.823 19.515,7.994 19.971,8.199 C20.631,8.587 21.121,8.758 21.44,8.712 C21.759,8.712 21.999,8.37 22.158,7.687 C22.317,6.82 22.42,5.955 22.466,5.089 C22.466,4.542 22.192,4.269 21.646,4.269 C19.845,4.2 18.558,4.269 17.783,4.474 C17.031,4.542 16.587,4.371 16.45,3.961 C16.314,3.392 16.644,3.141 17.441,3.209 C17.852,3.209 18.296,3.255 18.774,3.346 L25.85,3.346 C26.419,3.346 26.92,3.084 27.354,2.56 L27.354,2.56 Z M22.158,9.601 L21.201,9.635 C21.087,9.703 21.03,10.011 21.03,10.558 L21.03,13.189 C21.03,13.759 21.304,14.044 21.851,14.044 L26.773,14.044 C27.342,14.044 27.627,13.77 27.627,13.224 C27.649,12.061 27.627,10.888 27.559,9.703 C27.467,9.635 27.148,9.601 26.602,9.601 L22.158,9.601 L22.158,9.601 Z M27.627,15.855 C27.627,15.24 27.376,14.933 26.875,14.933 L21.885,14.933 C21.315,14.933 21.03,15.206 21.03,15.753 L21.03,18.487 C21.03,19.057 21.304,19.342 21.851,19.342 L26.773,19.342 C27.342,19.342 27.627,19.068 27.627,18.521 L27.627,15.855 L27.627,15.855 Z M27.627,21.153 C27.627,20.56 27.365,20.265 26.841,20.265 L21.885,20.265 C21.315,20.265 21.03,20.538 21.03,21.085 L21.03,23.853 C21.03,24.423 21.304,24.708 21.851,24.708 L26.773,24.708 C27.342,24.708 27.627,24.435 27.627,23.888 L27.627,21.153 L27.627,21.153 Z M26.67,28.058 L27.354,28.023 C29.609,28.092 31.364,28.991 32.617,30.724 C33.164,31.999 33.084,32.968 32.378,33.629 C31.216,34.426 30.236,34.176 29.439,32.877 C28.914,31.395 27.935,30.143 26.499,29.117 C25.793,28.752 25.428,28.513 25.405,28.399 C25.428,28.239 25.85,28.126 26.67,28.058 L26.67,28.058 Z" id="Fill-68" sketch:type="MSShapeGroup"></path>
            <path d="M45.363,3.858 C47.482,3.38 49.602,2.594 51.721,1.5 C52.404,1.181 53.099,1.238 53.806,1.671 C54.694,2.309 55.458,2.992 56.096,3.722 C56.392,4.564 56.107,4.872 55.241,4.644 C54.785,4.554 53.874,4.61 52.507,4.815 C50.068,5.089 47.722,5.237 45.466,5.26 C44.919,5.26 44.475,5.602 44.133,6.285 C42.993,8.951 41.079,11.344 38.391,13.463 C38.026,13.851 37.752,13.93 37.57,13.702 C39.233,10.831 40.396,7.459 41.057,3.585 C41.193,2.901 41.307,2.525 41.398,2.457 C42.173,2.753 42.948,3.129 43.723,3.585 C44.27,3.904 44.816,3.995 45.363,3.858 L45.363,3.858 Z M51.242,12.608 C51.629,12.312 52.108,12.392 52.678,12.848 C53.977,13.69 54.922,14.454 55.515,15.138 C55.742,15.616 55.571,15.867 55.002,15.89 C54.751,15.867 54.489,15.912 54.216,16.026 L51.55,17.257 C50.957,17.553 50.684,17.781 50.729,17.94 C50.684,18.236 50.365,18.487 49.773,18.692 C49.681,18.807 49.636,19.148 49.636,19.718 C49.636,20.31 49.978,20.572 50.661,20.504 C52.256,20.299 53.851,20.037 55.446,19.718 C56.244,19.422 56.677,19.501 56.745,19.957 C56.699,20.071 56.335,20.287 55.651,20.606 C54.261,21.153 52.564,21.712 50.559,22.281 C49.943,22.486 49.636,22.84 49.636,23.341 L49.636,30.894 C49.043,32.694 47.778,33.685 45.842,33.868 C45.112,33.891 44.714,33.685 44.646,33.253 C44.486,32.25 43.836,31.486 42.697,30.963 C42.014,30.644 41.66,30.416 41.638,30.279 C41.66,30.051 42.07,29.96 42.868,30.006 L44.611,30.006 C45.705,30.051 46.127,29.562 45.876,28.536 L45.876,24.503 C45.876,23.956 45.534,23.751 44.851,23.888 L42.458,24.537 C41.592,24.742 41.057,25.038 40.852,25.426 C40.737,25.813 40.498,25.893 40.134,25.665 C39.769,25.141 39.359,24.161 38.903,22.726 C38.721,22.042 38.664,21.654 38.732,21.563 L45.056,21.119 C45.603,21.051 45.876,20.743 45.876,20.196 L45.876,16.949 C45.944,16.812 46.32,16.767 47.004,16.812 C47.3,16.812 47.63,16.847 47.995,16.915 C48.519,17.006 48.986,16.756 49.396,16.163 L49.875,15.343 C50.148,14.796 50.012,14.522 49.465,14.522 L42.731,14.522 L41.638,14.693 C40.908,14.808 40.464,14.522 40.305,13.839 L40.202,13.429 C40.248,13.338 40.612,13.338 41.296,13.429 L42.663,13.634 L48.952,13.634 C49.567,13.839 50.331,13.497 51.242,12.608 L51.242,12.608 Z M45.329,6.388 C45.329,6.092 45.568,6.068 46.047,6.319 C46.936,6.661 47.87,7.333 48.85,8.336 C49.784,9.43 49.943,10.569 49.328,11.754 C48.872,12.597 48.246,12.904 47.448,12.677 C46.377,12.357 45.944,11.629 46.149,10.489 C46.468,9.213 46.195,7.846 45.329,6.388 L45.329,6.388 Z M50.798,6.046 C50.752,5.818 50.98,5.772 51.481,5.909 C52.302,6.023 53.213,6.365 54.216,6.935 C56.494,8.438 57.098,10.091 56.027,11.891 C54.25,12.984 53.202,12.449 52.883,10.284 C52.837,9.168 52.439,8.108 51.687,7.105 C51.071,6.49 50.775,6.137 50.798,6.046 L50.798,6.046 Z M57.736,2.218 C57.805,1.488 58.192,1.146 58.898,1.192 C59.673,1.261 60.448,1.375 61.223,1.534 C61.678,1.512 62.134,1.717 62.59,2.149 C62.612,2.218 62.453,2.457 62.111,2.867 C61.724,3.3 61.53,3.778 61.53,4.303 L61.53,28.536 C61.667,28.991 61.77,29.276 61.838,29.391 C62.544,29.732 63.718,29.812 65.358,29.63 C65.791,29.675 66.224,29.401 66.657,28.81 C67.158,28.126 67.534,27.226 67.785,26.109 C68.013,25.426 68.206,25.084 68.366,25.084 C68.571,25.106 68.708,25.574 68.776,26.485 C68.799,27.921 69.187,28.9 69.939,29.425 C70.645,29.994 70.85,30.7 70.554,31.544 C70.28,32.227 69.597,32.74 68.503,33.082 C64.72,33.834 61.678,33.731 59.377,32.774 C58.42,32.182 57.873,31.236 57.736,29.937 L57.736,2.218 L57.736,2.218 Z" id="Fill-69" sketch:type="MSShapeGroup"></path>
            <path d="M75.439,10.216 C75.507,9.874 75.769,9.817 76.225,10.045 C77.091,10.272 78.002,10.648 78.96,11.173 C80.167,11.856 80.839,12.677 80.976,13.634 C81.158,14.727 80.805,15.594 79.917,16.231 C78.481,16.732 77.604,16.185 77.285,14.591 C77.307,12.95 76.692,11.492 75.439,10.216 L75.439,10.216 Z M84.736,9.43 C85.146,8.724 85.431,8.495 85.59,8.746 C85.613,8.929 85.51,9.361 85.283,10.045 L81.215,23.375 C80.737,25.038 80.942,26.895 81.831,28.946 C82.195,29.948 82.241,31.042 81.967,32.227 C81.739,32.956 81.329,33.458 80.737,33.731 C78.937,34.118 78.002,33.185 77.934,30.929 C78.002,30.04 78.105,29.106 78.242,28.126 C78.287,27.169 78.253,26.451 78.139,25.973 C78.093,25.312 77.604,24.708 76.669,24.161 C76.213,23.956 75.94,23.797 75.849,23.683 C75.803,23.363 76.123,23.238 76.806,23.307 C77.672,23.466 78.276,23.17 78.618,22.418 C80.623,18.089 82.662,13.759 84.736,9.43 L84.736,9.43 Z M76.464,1.295 C76.419,1.136 76.76,1.021 77.49,0.953 C78.333,0.976 79.233,1.146 80.19,1.466 C82.537,2.264 83.471,3.653 82.993,5.636 C82.673,6.297 82.138,6.684 81.386,6.798 C80.383,6.889 79.7,6.263 79.335,4.918 C78.902,3.528 78.116,2.457 76.977,1.705 C76.704,1.546 76.533,1.409 76.464,1.295 L76.464,1.295 Z M93.349,1.876 C93.349,1.146 93.725,0.782 94.477,0.782 C95.525,0.896 96.436,1.056 97.211,1.261 C97.712,1.488 97.906,1.717 97.793,1.944 C97.701,2.195 97.428,2.4 96.972,2.56 C96.904,2.65 96.87,2.97 96.87,3.517 L96.87,4.166 C96.87,4.735 97.143,5.021 97.69,5.021 C98.989,5.043 100.322,5.021 101.689,4.952 C101.78,4.906 101.94,4.747 102.168,4.474 C102.486,4.018 102.839,3.562 103.227,3.106 C103.774,2.56 104.116,2.286 104.252,2.286 C105.21,2.879 106.075,3.573 106.85,4.371 C107.602,5.077 107.818,5.567 107.5,5.841 C107.408,5.887 107.021,5.909 106.337,5.909 L91.196,5.909 C90.671,5.909 90.717,6.046 91.333,6.319 C92.426,6.684 93.019,7.094 93.11,7.55 C93.11,7.869 92.882,8.062 92.426,8.131 C92.198,8.153 91.868,8.529 91.435,9.259 L90.034,12.506 C89.783,13.053 89.84,13.429 90.205,13.634 C90.911,13.93 90.979,14.271 90.41,14.659 C90.113,14.955 89.965,15.377 89.965,15.924 L89.965,32.467 C89.692,33.378 88.883,33.708 87.539,33.458 C86.672,33.116 86.354,32.455 86.582,31.476 L86.582,19.068 C86.582,18.476 86.274,18.521 85.659,19.205 C85.089,19.798 84.519,20.333 83.95,20.812 C83.015,21.336 82.571,21.473 82.617,21.222 L84.428,18.556 C86.593,14.842 87.857,10.899 88.222,6.729 C88.222,6.183 87.949,5.909 87.402,5.909 C86.877,5.887 86.228,5.955 85.454,6.114 C84.724,6.205 84.292,6.058 84.155,5.67 L83.95,4.884 C83.995,4.793 84.36,4.781 85.044,4.85 C85.522,4.872 86.001,4.93 86.479,5.021 L92.495,5.021 C93.064,5.021 93.349,4.747 93.349,4.2 L93.349,1.876 L93.349,1.876 Z M95.092,7.755 C95.183,6.957 95.593,6.604 96.323,6.695 C97.143,6.854 97.963,7.105 98.784,7.447 C99.399,7.698 99.752,7.948 99.843,8.199 C99.98,8.495 99.797,8.712 99.296,8.849 C99.045,8.894 98.704,9.247 98.271,9.908 L97.861,10.763 C97.678,11.31 97.861,11.583 98.408,11.583 L101.074,11.583 C101.621,11.583 102.099,11.355 102.509,10.899 C102.874,10.375 103.478,10.227 104.321,10.455 C104.776,10.638 105.232,10.865 105.688,11.139 C106.349,11.663 106.69,11.981 106.713,12.096 C106.69,12.255 106.531,12.46 106.235,12.711 C105.779,12.938 105.517,13.406 105.449,14.112 C104.719,18.009 103.364,21.552 101.381,24.742 C100.994,25.289 101.108,25.87 101.723,26.485 C103.523,28.012 105.46,29.094 107.534,29.732 C108.217,29.914 108.605,30.062 108.696,30.177 C108.673,30.29 108.32,30.473 107.636,30.724 C106.725,31.271 106.144,31.862 105.893,32.501 C105.483,33.298 104.913,33.48 104.184,33.048 C102.885,32.296 101.416,30.997 99.775,29.151 C99.182,28.422 98.567,28.342 97.929,28.912 C96.038,30.598 93.976,31.84 91.743,32.638 C91.059,32.751 90.694,32.751 90.649,32.638 C90.671,32.501 91.036,32.216 91.743,31.783 C93.839,30.393 95.571,28.786 96.938,26.964 C97.371,26.326 97.382,25.643 96.972,24.913 C95.947,22.977 95.104,20.675 94.443,18.009 C94.306,17.394 93.987,17.337 93.486,17.838 C92.46,18.954 91.617,19.627 90.957,19.854 C90.706,19.649 90.865,19.262 91.435,18.692 C93.372,15.821 94.591,12.176 95.092,7.755 L95.092,7.755 Z M98.1,12.472 C97.417,12.54 96.972,12.768 96.767,13.155 C96.607,13.565 96.881,13.953 97.587,14.317 C99.638,15.548 100.413,16.881 99.912,18.316 C99.797,18.773 99.502,19.091 99.023,19.273 C98.02,19.456 97.428,19.057 97.246,18.077 C97.223,17.12 97.029,16.22 96.665,15.377 C96.323,14.716 95.947,14.682 95.537,15.274 C95.127,15.89 95.046,16.551 95.297,17.257 C95.958,19.034 96.892,20.766 98.1,22.452 C98.647,23.136 99.068,23.136 99.365,22.452 C100.686,19.285 101.598,16.254 102.099,13.36 C102.145,12.768 101.882,12.472 101.313,12.472 L98.1,12.472 L98.1,12.472 Z" id="Fill-70" sketch:type="MSShapeGroup"></path>
        </g>
    </g>
</svg>