<?xml version="1.0" encoding="UTF-8" standalone="no"?>
<svg width="146px" height="34px" viewBox="0 0 146 34" version="1.1" xmlns="http://www.w3.org/2000/svg" xmlns:xlink="http://www.w3.org/1999/xlink" xmlns:sketch="http://www.bohemiancoding.com/sketch/ns">
    <!-- Generator: Sketch 3.0.4 (8053) - http://www.bohemiancoding.com/sketch -->
    <title>h1_lotion_body</title>
    <desc>Created with Sketch.</desc>
    <defs></defs>
    <g id="Page-1" stroke="none" stroke-width="1" fill="none" fill-rule="evenodd" sketch:type="MSPage">
        <g id="h1_lotion_body" sketch:type="MSLayerGroup" transform="translate(0.000000, 1.000000)" fill="#000000">
            <path d="M12.408,0.876 C12.499,-0.059 12.898,-0.445 13.605,-0.286 L16.031,0.261 C16.647,0.42 17,0.637 17.091,0.91 C17.25,1.229 17.091,1.469 16.612,1.628 C16.43,1.674 16.202,1.787 15.929,1.97 C15.404,2.494 14.869,2.973 14.322,3.405 C13.593,3.998 13.57,4.294 14.254,4.294 L18.356,4.294 C18.834,4.226 19.232,3.884 19.552,3.269 C20.099,2.676 20.748,2.517 21.5,2.79 C22.548,3.291 23.46,3.85 24.234,4.465 C24.918,5.217 24.701,5.786 23.585,6.174 C23.084,6.425 22.901,6.903 23.038,7.609 L23.038,14.479 C23.038,15.072 23.312,15.004 23.858,14.274 C24.906,12.839 25.647,11.597 26.08,10.549 C26.444,9.66 26.98,9.364 27.687,9.66 C28.256,9.888 28.86,10.207 29.498,10.617 C30.341,11.21 30.751,11.597 30.729,11.779 C30.683,11.938 30.501,12.075 30.182,12.189 C29.84,12.235 29.475,12.485 29.088,12.941 C27.675,14.765 25.943,16.815 23.893,19.094 C23.323,19.731 23.038,20.324 23.038,20.871 L23.038,29.621 C22.878,30.806 22.366,31.672 21.5,32.219 C21.022,32.469 20.418,32.674 19.689,32.834 C18.937,32.879 18.515,32.708 18.424,32.321 C18.31,31.318 17.604,30.544 16.305,29.997 C15.735,29.837 15.393,29.678 15.279,29.519 C15.233,29.336 15.279,29.199 15.416,29.108 C16.897,29.108 17.98,28.982 18.663,28.732 C19.21,28.413 19.403,27.923 19.244,27.263 L19.244,24.152 C19.244,23.583 18.891,23.549 18.185,24.05 C12.966,27.513 7.293,29.621 1.163,30.373 C0.434,30.396 0.081,30.35 0.104,30.236 C0.194,30.122 0.604,29.963 1.334,29.758 C7.509,28.003 13.183,24.848 18.356,20.29 C18.948,19.789 19.244,19.447 19.244,19.265 C19.198,19.082 18.834,19.094 18.15,19.299 C13.639,20.529 8.808,21.714 3.658,22.853 C3.088,23.059 2.77,23.229 2.701,23.366 C2.131,24.096 1.698,23.879 1.402,22.717 C0.969,21.532 0.685,20.541 0.548,19.743 C0.616,19.606 0.992,19.538 1.676,19.538 L4.991,19.401 C5.538,19.355 5.812,19.06 5.812,18.513 L5.812,3.576 C5.812,2.802 6.233,2.539 7.076,2.79 C8.17,3.246 9.081,3.701 9.811,4.157 C9.97,4.248 10.3,4.294 10.802,4.294 C11.303,4.294 11.668,3.952 11.896,3.269 C12.123,2.471 12.294,1.674 12.408,0.876 L12.408,0.876 Z M10.768,5.183 C9.788,4.955 9.4,5.273 9.606,6.14 L9.606,8.225 C9.606,8.794 9.879,9.079 10.426,9.079 L18.39,9.079 C18.959,9.079 19.244,8.806 19.244,8.259 C19.267,7.279 19.244,6.299 19.176,5.319 C19.085,5.228 18.766,5.183 18.219,5.183 L10.768,5.183 L10.768,5.183 Z M19.244,10.822 C19.244,10.253 18.971,9.968 18.424,9.968 L10.46,9.968 C9.89,9.968 9.606,10.241 9.606,10.788 L9.606,12.976 C9.606,13.545 9.879,13.83 10.426,13.83 L18.39,13.83 C18.959,13.83 19.244,13.557 19.244,13.01 L19.244,10.822 L19.244,10.822 Z M19.244,15.607 C19.244,15.038 18.971,14.753 18.424,14.753 L10.46,14.753 C9.89,14.753 9.606,15.026 9.606,15.573 L9.606,18.171 C9.606,18.718 9.947,18.979 10.631,18.957 C13.707,18.661 16.293,18.33 18.39,17.966 C18.959,17.875 19.244,17.556 19.244,17.009 L19.244,15.607 L19.244,15.607 Z" id="Fill-56" sketch:type="MSShapeGroup"></path>
            <path d="M39.647,0.637 C39.647,-0.138 40,-0.411 40.706,-0.184 C41.937,0.477 42.814,0.773 43.338,0.705 C44.272,0.727 45.206,0.705 46.141,0.637 C46.254,0.568 46.425,0.409 46.653,0.158 C47.2,-0.571 47.986,-0.423 49.012,0.602 C49.672,1.172 49.912,1.616 49.729,1.935 C49.479,2.277 49.354,2.722 49.354,3.269 L49.354,8.361 C49.354,8.908 49.41,9.182 49.524,9.182 C49.752,9.136 50.128,9.284 50.652,9.626 C51.268,10.014 51.575,9.956 51.575,9.455 L51.575,2.893 C51.575,2.141 51.928,1.855 52.635,2.038 C53.182,2.197 53.729,2.402 54.275,2.653 C54.571,2.812 54.936,2.893 55.369,2.893 C55.825,2.893 56.053,2.619 56.053,2.072 L56.053,0.705 C56.053,0.021 56.395,-0.32 57.078,-0.32 C57.648,-0.274 58.217,-0.184 58.787,-0.047 L59.607,0.192 C59.972,0.534 59.881,0.83 59.334,1.081 C59.129,1.172 59.026,1.491 59.026,2.038 C59.026,2.607 59.231,2.893 59.642,2.893 C60.074,2.893 60.291,2.619 60.291,2.072 L60.291,0.705 C60.291,0.021 60.633,-0.32 61.316,-0.32 C62.205,-0.252 63.06,-0.081 63.88,0.192 C64.199,0.488 64.107,0.785 63.606,1.081 C63.401,1.195 63.299,1.514 63.299,2.038 C63.299,2.607 63.447,2.893 63.743,2.893 C64.039,2.893 64.335,2.722 64.632,2.38 C65.156,1.696 65.874,1.708 66.785,2.414 C67.241,2.642 67.696,2.915 68.152,3.234 C68.836,3.599 68.939,3.964 68.46,4.328 C67.867,4.556 67.651,5.012 67.811,5.695 L67.811,12.121 C67.811,12.805 67.776,13.237 67.708,13.42 C67.617,13.602 67.89,14.035 68.528,14.719 C69.144,15.471 69.394,16.006 69.28,16.325 C69.144,16.462 68.733,16.53 68.05,16.53 L53.455,16.53 C52.726,16.599 51.997,16.701 51.268,16.838 C51.176,16.769 51.097,16.542 51.028,16.154 C50.937,15.653 51.268,15.425 52.02,15.471 C52.452,15.493 52.919,15.551 53.421,15.642 L63.812,15.642 C64.472,15.824 64.962,15.596 65.281,14.958 C65.555,14.525 65.6,14.309 65.418,14.309 C64.803,14.24 64.518,13.818 64.564,13.044 C64.564,12.634 64.29,12.429 63.743,12.429 L55.677,12.429 C55.13,12.429 54.845,12.6 54.822,12.941 C54.776,13.83 54.241,14.32 53.216,14.411 C52.031,14.616 51.484,14.194 51.575,13.146 C51.575,12.645 51.222,12.622 50.516,13.078 L49.729,13.625 C49.228,13.967 49.126,14.263 49.422,14.514 C50.174,15.015 50.196,15.482 49.49,15.915 C48.989,16.074 48.807,16.508 48.943,17.214 L48.943,29.929 C48.898,31.318 48.169,32.264 46.756,32.766 C45.844,32.879 45.4,32.583 45.423,31.877 C45.4,31.467 45.24,31.102 44.944,30.783 C44.056,30.236 43.623,29.894 43.646,29.758 C43.714,29.575 44.101,29.473 44.808,29.45 C45.605,29.427 45.901,28.96 45.696,28.049 L45.696,25.178 C45.696,24.608 45.423,24.323 44.876,24.323 L43.646,24.323 C43.076,24.323 42.791,24.597 42.791,25.144 L42.791,30.476 C43.065,31.865 42.518,32.674 41.15,32.902 C39.783,32.971 39.248,32.366 39.544,31.091 L39.544,17.282 C39.544,16.735 39.384,16.576 39.065,16.804 C37.857,17.465 37.026,17.168 36.57,15.915 C36.456,15.459 36.707,14.775 37.322,13.864 C38.028,12.793 38.37,11.631 38.348,10.378 C38.279,9.694 38.279,9.296 38.348,9.182 C38.461,9.136 38.655,9.284 38.929,9.626 C39.156,10.036 39.327,10.241 39.441,10.241 C39.578,10.219 39.647,9.934 39.647,9.387 L39.647,0.637 L39.647,0.637 Z M48.328,12.121 C48.533,11.506 48.374,11.198 47.85,11.198 L40.74,11.198 C40.057,11.289 39.817,11.677 40.023,12.36 C40.113,13.066 40.501,13.545 41.185,13.796 C42.278,14.343 43.099,14.582 43.646,14.514 L44.5,14.514 C45.069,14.514 45.56,14.263 45.97,13.762 C46.334,12.964 46.801,12.759 47.371,13.146 C47.69,13.306 47.975,13.066 48.226,12.429 L48.328,12.121 L48.328,12.121 Z M46.38,2.551 C46.38,1.935 46.129,1.628 45.628,1.628 L43.68,1.628 C42.996,1.719 42.654,2.038 42.654,2.585 L42.654,9.421 C42.654,9.968 42.768,10.253 42.996,10.275 C43.27,10.275 43.406,10.002 43.406,9.455 L43.406,4.226 C43.406,3.496 43.759,3.257 44.466,3.508 C45.127,3.895 45.605,4.066 45.901,4.02 C46.22,4.02 46.38,3.747 46.38,3.2 L46.38,2.551 L46.38,2.551 Z M43.816,15.436 C43.133,15.527 42.791,15.847 42.791,16.394 L42.791,18.034 C42.791,18.603 43.065,18.889 43.611,18.889 L44.842,18.889 C45.411,18.889 45.696,18.615 45.696,18.068 L45.696,16.53 C45.605,15.801 45.286,15.436 44.739,15.436 L43.816,15.436 L43.816,15.436 Z M45.696,20.7 C45.696,20.107 45.434,19.811 44.91,19.811 L43.646,19.811 C43.076,19.811 42.791,20.085 42.791,20.632 L42.791,22.546 C42.791,23.115 43.065,23.4 43.611,23.4 L44.842,23.4 C45.411,23.4 45.696,23.127 45.696,22.58 L45.696,20.7 L45.696,20.7 Z M46.38,5.798 C46.38,5.205 46.289,4.909 46.106,4.909 C45.856,4.909 45.731,5.183 45.731,5.729 L45.731,9.421 C45.731,9.968 45.833,10.253 46.038,10.275 C46.266,10.253 46.38,9.968 46.38,9.421 L46.38,5.798 L46.38,5.798 Z M52.327,18.957 C52.327,18.227 52.669,17.943 53.353,18.102 C53.945,18.262 54.537,18.501 55.13,18.82 C55.631,19.071 56.132,19.196 56.634,19.196 L62.547,19.196 C63.094,19.196 63.549,19.003 63.914,18.615 C64.278,17.977 64.734,17.852 65.281,18.239 C65.919,18.467 66.603,18.832 67.332,19.333 C68.517,19.994 68.482,20.563 67.23,21.042 C67.161,22.295 67.138,23.583 67.161,24.904 C66.979,25.519 66.626,25.861 66.102,25.93 C65.167,26.226 64.461,26.123 63.982,25.622 L63.812,25.109 C63.789,24.858 63.504,24.733 62.957,24.733 L56.531,24.733 C55.984,24.733 55.677,24.848 55.608,25.075 L55.369,25.588 C55.255,25.702 55.54,25.896 56.224,26.169 C58.365,27.08 59.186,28.447 58.685,30.27 C58.434,30.726 58.593,30.954 59.163,30.954 L60.018,30.954 C60.565,30.954 60.963,30.612 61.214,29.929 C61.533,28.811 61.772,27.524 61.932,26.066 C62,25.976 62.41,25.986 63.162,26.101 C63.618,26.169 64.073,26.271 64.529,26.408 C65.44,26.545 65.999,26.829 66.204,27.263 C66.273,27.468 66.113,27.639 65.726,27.775 C65.429,27.798 65.133,28.003 64.837,28.391 C64.381,29.006 63.754,29.632 62.957,30.27 C62.364,30.726 62.342,30.954 62.889,30.954 C63.504,30.977 64.119,30.954 64.734,30.886 C64.825,30.84 64.962,30.681 65.145,30.407 L65.897,29.279 C66.489,28.618 67.115,28.55 67.776,29.074 C68.916,30.19 69.462,31.033 69.417,31.603 C69.303,31.763 68.904,31.843 68.221,31.843 L52.361,31.843 C51.997,31.865 51.621,31.922 51.233,32.014 C50.459,32.104 50.025,31.945 49.935,31.535 C49.798,30.988 50.14,30.737 50.96,30.783 C51.894,30.965 53.238,31.022 54.993,30.954 C55.562,30.954 55.745,30.76 55.54,30.373 C55.426,30.008 55.369,29.484 55.369,28.801 C55.392,28.276 55.278,27.661 55.027,26.955 C54.64,26.362 54.116,26.089 53.455,26.135 C52.475,26.181 52.099,25.644 52.327,24.528 L52.327,18.957 L52.327,18.957 Z M55.779,3.815 C55.141,3.884 54.822,3.975 54.822,4.089 L54.822,6.413 C54.822,6.982 55.016,7.268 55.403,7.268 C55.836,7.268 56.053,6.994 56.053,6.447 L56.053,4.67 C56.053,4.123 55.961,3.838 55.779,3.815 L55.779,3.815 Z M56.053,9.079 C56.053,8.486 55.859,8.19 55.472,8.19 C55.039,8.19 54.822,8.464 54.822,9.011 L54.822,10.685 C54.822,11.255 55.016,11.54 55.403,11.54 C55.836,11.54 56.053,11.267 56.053,10.72 L56.053,9.079 L56.053,9.079 Z M63.812,20.939 C63.812,20.37 63.515,20.085 62.923,20.085 L56.736,20.085 C56.053,20.176 55.711,20.495 55.711,21.042 L55.711,22.99 C55.711,23.56 55.984,23.845 56.531,23.845 L62.957,23.845 C63.526,23.845 63.812,23.571 63.812,23.024 L63.812,20.939 L63.812,20.939 Z M60.291,4.67 C60.291,4.101 60.086,3.815 59.676,3.815 C59.243,3.815 59.026,4.089 59.026,4.636 L59.026,6.413 C59.026,6.982 59.231,7.268 59.642,7.268 C60.074,7.268 60.291,6.994 60.291,6.447 L60.291,4.67 L60.291,4.67 Z M60.291,9.079 C60.291,8.486 60.097,8.19 59.71,8.19 C59.254,8.19 59.026,8.464 59.026,9.011 L59.026,10.685 C59.026,11.255 59.231,11.54 59.642,11.54 C60.074,11.54 60.291,11.267 60.291,10.72 L60.291,9.079 L60.291,9.079 Z M64.564,4.704 C64.564,4.043 64.358,3.747 63.948,3.815 C63.515,3.815 63.299,4.089 63.299,4.636 L63.299,6.413 C63.299,6.982 63.504,7.268 63.914,7.268 C64.347,7.268 64.564,6.994 64.564,6.447 L64.564,4.704 L64.564,4.704 Z M64.564,9.079 C64.564,8.486 64.37,8.19 63.982,8.19 C63.526,8.19 63.299,8.464 63.299,9.011 L63.299,10.685 C63.299,11.255 63.504,11.54 63.914,11.54 C64.347,11.54 64.564,11.267 64.564,10.72 L64.564,9.079 L64.564,9.079 Z" id="Fill-57" sketch:type="MSShapeGroup"></path>
            <path d="M82.164,2.858 C84.283,2.38 86.402,1.594 88.521,0.5 C89.205,0.181 89.899,0.238 90.606,0.671 C91.495,1.309 92.258,1.992 92.896,2.722 C93.192,3.564 92.907,3.872 92.042,3.644 C91.585,3.554 90.674,3.61 89.307,3.815 C86.869,4.089 84.522,4.237 82.266,4.26 C81.719,4.26 81.275,4.602 80.933,5.285 C79.794,7.951 77.879,10.344 75.191,12.463 C74.826,12.851 74.553,12.93 74.371,12.702 C76.034,9.831 77.196,6.459 77.857,2.585 C77.994,1.901 78.107,1.525 78.199,1.457 C78.973,1.753 79.748,2.129 80.523,2.585 C81.07,2.904 81.617,2.995 82.164,2.858 L82.164,2.858 Z M88.043,11.608 C88.43,11.312 88.908,11.392 89.478,11.848 C90.777,12.69 91.722,13.454 92.315,14.138 C92.543,14.616 92.372,14.867 91.802,14.89 C91.551,14.867 91.29,14.912 91.016,15.026 L88.35,16.257 C87.757,16.553 87.484,16.781 87.53,16.94 C87.484,17.236 87.165,17.487 86.573,17.692 C86.481,17.807 86.436,18.148 86.436,18.718 C86.436,19.31 86.778,19.572 87.461,19.504 C89.056,19.299 90.651,19.037 92.247,18.718 C93.044,18.422 93.477,18.501 93.545,18.957 C93.5,19.071 93.135,19.287 92.452,19.606 C91.062,20.153 89.364,20.712 87.359,21.281 C86.744,21.486 86.436,21.84 86.436,22.341 L86.436,29.894 C85.843,31.694 84.579,32.685 82.642,32.868 C81.913,32.891 81.514,32.685 81.446,32.253 C81.286,31.25 80.637,30.486 79.498,29.963 C78.814,29.644 78.46,29.416 78.438,29.279 C78.46,29.051 78.871,28.96 79.669,29.006 L81.412,29.006 C82.505,29.051 82.927,28.561 82.676,27.536 L82.676,23.503 C82.676,22.956 82.335,22.751 81.651,22.888 L79.258,23.537 C78.392,23.742 77.857,24.038 77.652,24.426 C77.538,24.814 77.298,24.893 76.934,24.665 C76.569,24.141 76.159,23.161 75.704,21.726 C75.521,21.042 75.464,20.654 75.533,20.563 L81.856,20.119 C82.403,20.051 82.676,19.743 82.676,19.196 L82.676,15.949 C82.745,15.812 83.121,15.767 83.804,15.812 C84.1,15.812 84.431,15.847 84.795,15.915 C85.319,16.006 85.787,15.756 86.197,15.163 L86.675,14.343 C86.949,13.796 86.812,13.522 86.265,13.522 L79.532,13.522 L78.438,13.693 C77.709,13.808 77.264,13.522 77.105,12.839 L77.002,12.429 C77.048,12.338 77.413,12.338 78.096,12.429 L79.463,12.634 L85.752,12.634 C86.368,12.839 87.131,12.497 88.043,11.608 L88.043,11.608 Z M82.129,5.388 C82.129,5.092 82.369,5.068 82.847,5.319 C83.736,5.661 84.67,6.333 85.65,7.336 C86.584,8.43 86.744,9.569 86.128,10.754 C85.672,11.597 85.046,11.904 84.249,11.677 C83.177,11.357 82.745,10.629 82.95,9.489 C83.269,8.213 82.995,6.846 82.129,5.388 L82.129,5.388 Z M87.598,5.046 C87.552,4.818 87.78,4.772 88.282,4.909 C89.102,5.023 90.013,5.365 91.016,5.935 C93.294,7.438 93.898,9.091 92.828,10.891 C91.05,11.984 90.002,11.449 89.683,9.284 C89.637,8.168 89.239,7.108 88.487,6.105 C87.872,5.49 87.575,5.137 87.598,5.046 L87.598,5.046 Z M94.537,1.218 C94.605,0.488 94.992,0.146 95.699,0.192 C96.473,0.261 97.248,0.375 98.023,0.534 C98.479,0.512 98.934,0.717 99.39,1.149 C99.413,1.218 99.253,1.457 98.912,1.867 C98.524,2.3 98.331,2.778 98.331,3.303 L98.331,27.536 C98.467,27.991 98.57,28.276 98.638,28.391 C99.344,28.732 100.518,28.811 102.159,28.63 C102.591,28.675 103.024,28.401 103.458,27.81 C103.959,27.126 104.335,26.226 104.585,25.109 C104.813,24.426 105.007,24.084 105.167,24.084 C105.372,24.106 105.508,24.574 105.577,25.485 C105.599,26.921 105.987,27.9 106.739,28.425 C107.445,28.994 107.65,29.7 107.354,30.544 C107.081,31.227 106.397,31.74 105.303,32.082 C101.521,32.834 98.479,32.731 96.177,31.774 C95.22,31.182 94.673,30.236 94.537,28.937 L94.537,1.218 L94.537,1.218 Z" id="Fill-58" sketch:type="MSShapeGroup"></path>
            <path d="M112.239,9.216 C112.307,8.874 112.569,8.817 113.025,9.045 C113.891,9.272 114.802,9.648 115.759,10.173 C116.967,10.856 117.639,11.677 117.776,12.634 C117.958,13.727 117.605,14.594 116.716,15.231 C115.281,15.732 114.403,15.185 114.085,13.591 C114.107,11.95 113.492,10.492 112.239,9.216 L112.239,9.216 Z M121.536,8.43 C121.946,7.724 122.231,7.495 122.39,7.746 C122.413,7.929 122.31,8.361 122.083,9.045 L118.015,22.375 C117.537,24.038 117.742,25.896 118.63,27.946 C118.995,28.948 119.041,30.042 118.767,31.227 C118.539,31.956 118.129,32.458 117.537,32.731 C115.736,33.118 114.802,32.185 114.734,29.929 C114.802,29.04 114.905,28.105 115.042,27.126 C115.087,26.169 115.053,25.451 114.939,24.973 C114.893,24.311 114.403,23.708 113.469,23.161 C113.013,22.956 112.74,22.797 112.649,22.683 C112.603,22.363 112.922,22.238 113.606,22.307 C114.472,22.466 115.076,22.17 115.418,21.418 C117.422,17.089 119.462,12.759 121.536,8.43 L121.536,8.43 Z M113.264,0.295 C113.218,0.136 113.56,0.021 114.29,-0.047 C115.132,-0.024 116.033,0.146 116.99,0.466 C119.336,1.264 120.271,2.653 119.793,4.636 C119.473,5.297 118.938,5.684 118.186,5.798 C117.183,5.889 116.5,5.263 116.135,3.918 C115.702,2.528 114.916,1.457 113.777,0.705 C113.503,0.546 113.333,0.409 113.264,0.295 L113.264,0.295 Z M130.149,0.876 C130.149,0.146 130.525,-0.218 131.277,-0.218 C132.325,-0.104 133.236,0.056 134.011,0.261 C134.512,0.488 134.706,0.717 134.592,0.944 C134.501,1.195 134.228,1.4 133.772,1.56 C133.704,1.65 133.669,1.97 133.669,2.517 L133.669,3.166 C133.669,3.735 133.943,4.02 134.49,4.02 C135.789,4.043 137.122,4.02 138.489,3.952 C138.58,3.906 138.739,3.747 138.967,3.474 C139.286,3.018 139.639,2.562 140.027,2.106 C140.574,1.56 140.915,1.286 141.052,1.286 C142.009,1.879 142.875,2.573 143.65,3.371 C144.402,4.077 144.618,4.567 144.299,4.841 C144.208,4.887 143.821,4.909 143.137,4.909 L127.996,4.909 C127.471,4.909 127.517,5.046 128.132,5.319 C129.226,5.684 129.818,6.094 129.91,6.55 C129.91,6.869 129.682,7.062 129.226,7.131 C128.998,7.153 128.668,7.529 128.235,8.259 L126.834,11.506 C126.583,12.053 126.64,12.429 127.004,12.634 C127.71,12.93 127.779,13.271 127.21,13.659 C126.913,13.955 126.765,14.377 126.765,14.924 L126.765,31.467 C126.492,32.378 125.683,32.708 124.338,32.458 C123.472,32.116 123.153,31.455 123.381,30.476 L123.381,18.068 C123.381,17.476 123.074,17.522 122.459,18.205 C121.889,18.798 121.319,19.333 120.75,19.811 C119.815,20.336 119.371,20.473 119.417,20.222 L121.228,17.556 C123.393,13.842 124.657,9.899 125.022,5.729 C125.022,5.183 124.749,4.909 124.202,4.909 C123.677,4.887 123.028,4.955 122.253,5.114 C121.524,5.205 121.091,5.058 120.955,4.67 L120.75,3.884 C120.795,3.793 121.16,3.781 121.843,3.85 C122.322,3.872 122.8,3.93 123.279,4.02 L129.294,4.02 C129.864,4.02 130.149,3.747 130.149,3.2 L130.149,0.876 L130.149,0.876 Z M131.892,6.755 C131.983,5.957 132.393,5.604 133.123,5.695 C133.943,5.854 134.763,6.105 135.584,6.447 C136.199,6.698 136.552,6.948 136.643,7.199 C136.78,7.495 136.597,7.712 136.096,7.849 C135.845,7.894 135.503,8.247 135.071,8.908 L134.661,9.763 C134.478,10.31 134.661,10.583 135.208,10.583 L137.874,10.583 C138.42,10.583 138.899,10.355 139.309,9.899 C139.673,9.375 140.277,9.227 141.121,9.455 C141.576,9.638 142.032,9.865 142.488,10.139 C143.148,10.663 143.49,10.981 143.513,11.096 C143.49,11.255 143.331,11.46 143.035,11.711 C142.579,11.938 142.317,12.406 142.249,13.112 C141.519,17.009 140.164,20.552 138.181,23.742 C137.794,24.289 137.908,24.87 138.523,25.485 C140.323,27.012 142.26,28.094 144.334,28.732 C145.017,28.914 145.404,29.063 145.496,29.177 C145.473,29.29 145.12,29.473 144.436,29.724 C143.524,30.27 142.943,30.862 142.693,31.501 C142.283,32.298 141.713,32.48 140.984,32.048 C139.685,31.296 138.215,29.997 136.575,28.151 C135.982,27.422 135.367,27.342 134.729,27.912 C132.837,29.598 130.775,30.84 128.543,31.638 C127.859,31.751 127.494,31.751 127.449,31.638 C127.471,31.501 127.836,31.216 128.543,30.783 C130.639,29.393 132.371,27.786 133.738,25.964 C134.17,25.326 134.182,24.643 133.772,23.913 C132.747,21.977 131.903,19.675 131.243,17.009 C131.106,16.394 130.787,16.337 130.286,16.838 C129.26,17.954 128.417,18.627 127.756,18.854 C127.505,18.649 127.665,18.262 128.235,17.692 C130.171,14.821 131.391,11.176 131.892,6.755 L131.892,6.755 Z M134.9,11.472 C134.216,11.54 133.772,11.768 133.567,12.155 C133.407,12.565 133.681,12.953 134.387,13.317 C136.438,14.548 137.212,15.881 136.711,17.316 C136.597,17.772 136.301,18.091 135.823,18.273 C134.82,18.456 134.228,18.057 134.045,17.077 C134.023,16.12 133.829,15.22 133.464,14.377 C133.123,13.716 132.747,13.682 132.336,14.274 C131.926,14.89 131.846,15.551 132.097,16.257 C132.758,18.034 133.692,19.766 134.9,21.452 C135.447,22.136 135.868,22.136 136.165,21.452 C137.486,18.285 138.398,15.254 138.899,12.36 C138.944,11.768 138.682,11.472 138.113,11.472 L134.9,11.472 L134.9,11.472 Z" id="Fill-59" sketch:type="MSShapeGroup"></path>
        </g>
    </g>
</svg>