<?xml version="1.0" encoding="UTF-8" standalone="no"?>
<svg width="109px" height="34px" viewBox="0 0 109 34" version="1.1" xmlns="http://www.w3.org/2000/svg" xmlns:xlink="http://www.w3.org/1999/xlink" xmlns:sketch="http://www.bohemiancoding.com/sketch/ns">
    <!-- Generator: Sketch 3.0.4 (8053) - http://www.bohemiancoding.com/sketch -->
    <title>h1_lip</title>
    <desc>Created with Sketch.</desc>
    <defs></defs>
    <g id="Page-1" stroke="none" stroke-width="1" fill="none" fill-rule="evenodd" sketch:type="MSPage">
        <g id="h1_lip" sketch:type="MSLayerGroup" transform="translate(0.000000, 1.000000)" fill="#000000">
            <path d="M7.7,5.045 C8.27,4.042 8.805,3.78 9.307,4.259 C10.104,4.783 10.776,5.352 11.323,5.968 C12.029,6.81 12.337,7.301 12.246,7.437 C12.155,7.574 11.756,7.643 11.05,7.643 L2.505,7.643 L1.411,7.813 C0.682,7.928 0.237,7.768 0.078,7.335 C-0.059,6.766 0.283,6.515 1.104,6.583 C1.969,6.72 3.439,6.766 5.513,6.72 C6.082,6.72 6.583,6.446 7.017,5.899 L7.7,5.045 L7.7,5.045 Z M0.591,20.631 C0.591,19.97 1.035,19.765 1.924,20.016 C2.379,20.152 2.835,20.323 3.291,20.528 C3.952,20.824 4.487,20.973 4.898,20.973 L5.581,20.973 C6.128,20.973 6.618,20.756 7.051,20.323 C7.506,19.867 8.076,19.731 8.76,19.913 C9.626,20.277 10.4,20.687 11.084,21.144 C11.836,21.531 12.041,21.964 11.699,22.442 L10.879,23.058 C10.811,23.194 10.776,23.536 10.776,24.083 L10.776,30.543 C11.095,31.818 10.503,32.548 8.999,32.73 C7.609,33.117 6.948,32.56 7.017,31.056 C7.017,30.485 6.743,30.201 6.196,30.201 L5.239,30.201 C4.669,30.201 4.385,30.417 4.385,30.851 C4.362,32.582 3.336,33.277 1.309,32.935 C0.648,32.73 0.408,32.16 0.591,31.227 L0.591,20.631 L0.591,20.631 Z M6.299,14.82 C6.823,13.841 7.358,13.556 7.905,13.966 C8.589,14.398 9.363,15.071 10.229,15.982 C10.708,16.688 10.901,17.099 10.811,17.213 C10.674,17.304 10.264,17.35 9.58,17.35 L3.462,17.35 L2.368,17.52 C1.639,17.657 1.172,17.396 0.967,16.734 L0.864,16.324 C0.91,16.233 1.274,16.222 1.958,16.29 C2.892,16.495 3.883,16.529 4.932,16.393 C5.023,16.347 5.182,16.187 5.41,15.914 L6.299,14.82 L6.299,14.82 Z M6.162,0.567 C6.731,-0.094 7.073,-0.446 7.188,-0.492 C7.324,-0.492 7.723,-0.265 8.384,0.191 C8.931,0.556 9.478,1.046 10.024,1.661 C10.548,2.391 10.788,2.801 10.742,2.892 C10.56,3.143 10.104,3.222 9.375,3.131 L3.462,3.131 L2.368,3.302 C1.639,3.416 1.206,3.256 1.069,2.823 C0.91,2.254 1.24,2.003 2.061,2.071 C2.698,2.162 3.336,2.208 3.975,2.208 C4.658,2.435 5.387,1.889 6.162,0.567 L6.162,0.567 Z M6.572,10.001 C7.096,9.066 7.62,8.782 8.145,9.146 C9.192,9.762 10.207,10.741 11.187,12.086 C11.187,12.223 11.141,12.348 11.05,12.462 C10.936,12.53 10.537,12.565 9.854,12.565 L3.462,12.565 L2.368,12.735 C1.639,12.85 1.206,12.689 1.069,12.257 C0.91,11.687 1.24,11.437 2.061,11.505 C2.835,11.596 3.61,11.642 4.385,11.642 C5.068,11.869 5.797,11.322 6.572,10.001 L6.572,10.001 Z M7.017,22.818 C7.017,22.181 6.731,21.861 6.162,21.861 L5.273,21.861 C4.681,21.861 4.385,22.146 4.385,22.716 L4.385,28.424 C4.385,28.993 4.658,29.278 5.205,29.278 L6.162,29.278 C6.731,29.278 7.017,29.005 7.017,28.458 L7.017,22.818 L7.017,22.818 Z M14.229,6.207 C14.411,5.477 14.866,5.262 15.596,5.558 C17.259,6.219 18.341,6.845 18.843,7.437 C18.934,7.757 18.763,7.938 18.33,7.984 C18.102,8.007 17.874,8.133 17.647,8.36 C17.441,8.634 17.624,8.771 18.193,8.771 L20.859,8.771 C21.406,8.771 21.771,8.406 21.953,7.677 L22.09,6.72 C22.181,6.036 22.283,5.672 22.398,5.626 C23.332,5.853 24.3,6.161 25.303,6.549 C26.146,6.822 26.362,7.198 25.952,7.677 L25.098,7.95 C24.323,8.497 24.289,8.771 24.995,8.771 L25.986,8.771 C26.579,8.771 27.034,8.509 27.354,7.984 C27.559,7.552 27.843,7.118 28.208,6.685 C28.504,6.48 28.903,6.595 29.404,7.027 C29.974,7.415 30.578,7.882 31.216,8.429 C31.877,9.09 32.15,9.477 32.036,9.591 C31.877,9.659 31.455,9.693 30.772,9.693 L26.055,9.693 C25.485,9.693 25.2,9.967 25.2,10.514 L25.2,11.231 C25.2,11.778 25.382,12.063 25.747,12.086 C26.111,11.995 26.476,11.63 26.841,10.992 C27.205,9.921 27.798,9.773 28.618,10.548 C29.074,10.821 29.529,11.175 29.985,11.607 C30.646,12.269 30.977,12.655 30.977,12.769 C30.954,12.906 30.566,12.975 29.815,12.975 L26.055,12.975 C25.485,12.975 25.2,13.248 25.2,13.795 L25.2,14.478 C25.2,15.025 25.257,15.321 25.371,15.367 C25.872,15.367 26.191,15.14 26.328,14.684 C26.533,14.296 26.784,13.898 27.08,13.487 C27.285,13.305 27.798,13.476 28.618,14 C29.757,14.843 30.452,15.47 30.703,15.88 C30.726,16.017 30.691,16.119 30.601,16.187 C29.097,16.256 27.581,16.278 26.055,16.256 C25.485,16.256 25.2,16.62 25.2,17.35 C25.2,18.124 25.474,18.512 26.021,18.512 L27.73,18.477 C28.003,18.318 28.276,17.931 28.55,17.315 C28.96,16.268 29.564,16.176 30.361,17.042 C31.66,17.977 32.412,18.694 32.617,19.195 C32.526,19.332 32.139,19.4 31.455,19.4 L17.988,19.4 C17.441,19.4 17.145,19.56 17.1,19.879 C16.667,20.858 15.778,21.212 14.434,20.938 C13.613,20.619 13.306,19.981 13.511,19.024 L13.511,13.932 C13.511,13.362 13.157,13.351 12.451,13.898 C11.79,14.354 11.403,14.593 11.289,14.615 C11.175,14.547 11.289,14.171 11.631,13.487 C13.089,10.867 13.955,8.44 14.229,6.207 L14.229,6.207 Z M24.995,21.656 C25.61,21.839 26.237,21.61 26.875,20.973 C27.559,20.653 28.242,20.802 28.926,21.417 C29.495,21.986 29.974,22.557 30.361,23.126 C30.726,23.673 30.601,23.992 29.985,24.083 C29.666,24.129 29.404,24.254 29.199,24.459 C28.47,25.416 27.524,26.385 26.362,27.364 C25.77,27.911 25.747,28.241 26.294,28.356 C28.071,28.674 29.894,28.81 31.763,28.766 C32.446,28.766 32.833,28.8 32.925,28.868 C32.97,28.981 32.663,29.289 32.002,29.791 C31.227,30.406 30.737,31.078 30.532,31.808 C30.327,32.491 30.179,32.856 30.088,32.901 C28.014,32.696 25.633,31.944 22.944,30.645 C22.398,30.349 21.759,30.349 21.03,30.645 C18.159,31.808 15.425,32.479 12.827,32.662 C11.916,32.707 11.437,32.662 11.392,32.525 C11.414,32.389 11.779,32.194 12.485,31.944 C14.832,31.192 17.043,30.224 19.116,29.039 C19.617,28.742 19.515,28.253 18.809,27.569 C17.601,26.248 16.803,24.847 16.416,23.365 C16.325,22.818 16.006,22.545 15.459,22.545 C14.958,22.567 14.456,22.625 13.955,22.716 C13.249,22.83 12.838,22.659 12.725,22.203 C12.633,21.725 12.93,21.485 13.613,21.485 C14.069,21.508 14.524,21.565 14.981,21.656 L24.995,21.656 L24.995,21.656 Z M16.314,0.67 C16.314,-0.105 16.644,-0.47 17.305,-0.424 C18.809,-0.265 19.902,-0.002 20.586,0.362 C20.654,0.453 20.563,0.682 20.313,1.046 C19.971,1.502 19.8,1.81 19.8,1.969 C19.8,2.22 20.073,2.345 20.62,2.345 L22.534,2.345 C23.104,2.345 23.389,2.071 23.389,1.524 L23.389,0.602 C23.389,-0.128 23.821,-0.458 24.687,-0.39 C26.009,-0.253 27.012,-0.014 27.695,0.328 C27.809,0.487 27.695,0.761 27.354,1.148 C27.034,1.513 26.875,1.775 26.875,1.935 C26.875,2.208 26.989,2.356 27.217,2.379 C27.536,2.31 27.991,1.935 28.584,1.251 C29.313,0.431 30.031,0.248 30.737,0.704 C31.74,1.502 32.378,2.254 32.651,2.96 C32.515,3.279 32.07,3.382 31.318,3.268 L27.73,3.268 C27.16,3.268 26.875,3.507 26.875,3.985 C27.103,5.079 26.51,5.683 25.098,5.797 C23.753,5.706 23.184,5.125 23.389,4.054 C23.389,3.529 23.115,3.268 22.568,3.268 L20.654,3.268 C20.085,3.268 19.8,3.529 19.8,4.054 C20.027,5.216 19.435,5.843 18.023,5.934 C16.678,5.865 16.108,5.262 16.314,4.122 C16.314,3.553 16.04,3.268 15.493,3.268 C14.923,3.268 14.263,3.324 13.511,3.438 C12.781,3.553 12.337,3.393 12.178,2.96 C12.018,2.391 12.337,2.14 13.135,2.208 C13.909,2.299 14.684,2.345 15.459,2.345 C16.028,2.345 16.314,2.071 16.314,1.524 L16.314,0.67 L16.314,0.67 Z M21.577,10.582 C21.577,9.989 21.315,9.693 20.791,9.693 L17.954,9.693 C17.384,9.693 17.1,9.967 17.1,10.514 L17.1,11.231 C17.1,11.801 17.373,12.086 17.92,12.086 L20.723,12.086 C21.292,12.086 21.577,11.812 21.577,11.266 L21.577,10.582 L21.577,10.582 Z M21.577,13.863 C21.577,13.271 21.315,12.975 20.791,12.975 L17.954,12.975 C17.384,12.975 17.1,13.248 17.1,13.795 L17.1,14.478 C17.1,15.048 17.373,15.333 17.92,15.333 L20.723,15.333 C21.292,15.333 21.577,15.06 21.577,14.513 L21.577,13.863 L21.577,13.863 Z M21.577,17.418 C21.577,16.644 21.304,16.256 20.757,16.256 L17.954,16.256 C17.384,16.256 17.1,16.62 17.1,17.35 C17.1,18.124 17.373,18.512 17.92,18.512 L20.723,18.512 C21.292,18.512 21.577,18.148 21.577,17.418 L21.577,17.418 Z M25.713,23.434 C26.1,22.841 26.021,22.545 25.474,22.545 L17.817,22.545 C17.248,22.545 17.236,22.909 17.783,23.639 C18.763,24.847 19.937,25.838 21.304,26.612 C21.896,26.908 22.511,26.794 23.149,26.27 C24.266,25.359 25.12,24.413 25.713,23.434 L25.713,23.434 Z" id="Fill-60" sketch:type="MSShapeGroup"></path>
            <path d="M64.88,0.567 C65.381,0.02 65.677,-0.275 65.769,-0.321 C66.589,-0.139 67.637,0.636 68.913,2.003 C69.46,2.55 69.642,2.972 69.46,3.268 C69.346,3.358 68.947,3.404 68.264,3.404 L45.979,3.404 C45.409,3.404 45.124,3.678 45.124,4.225 L45.124,8.121 L45.056,9.215 C45.056,9.762 45.329,10.035 45.876,10.035 L62.487,10.035 C63.103,10.218 63.581,10.035 63.923,9.488 C64.242,9.032 64.595,8.577 64.982,8.121 C65.529,7.574 65.871,7.301 66.008,7.301 C66.987,7.894 67.888,8.634 68.708,9.523 C69.255,10.229 69.46,10.65 69.323,10.787 C69.141,10.878 68.708,10.924 68.024,10.924 L65.905,10.924 C65.153,10.924 65.165,11.141 65.94,11.573 C66.919,12.029 67.534,12.576 67.785,13.214 C67.762,13.419 67.557,13.533 67.17,13.556 C66.919,13.533 66.634,13.624 66.315,13.829 C65.244,14.422 64.173,14.957 63.103,15.435 C62.51,15.663 62.556,15.96 63.239,16.324 C65.244,17.304 67.158,17.748 68.981,17.657 C69.665,17.635 70.052,17.68 70.144,17.794 C70.121,17.908 69.756,18.192 69.05,18.648 C68.389,19.127 67.91,19.833 67.614,20.768 C67.409,21.679 67.261,22.135 67.17,22.135 C64.8,21.861 62.396,20.414 59.958,17.794 C59.548,17.293 58.978,17.167 58.249,17.418 C54.694,18.763 51.413,19.891 48.405,20.802 C47.858,20.984 47.927,21.178 48.61,21.383 C49.18,21.588 49.75,21.839 50.319,22.135 C50.729,22.362 51.208,22.477 51.755,22.477 L59.035,22.477 C59.787,22.704 60.459,22.294 61.052,21.246 C61.416,20.813 61.872,20.756 62.419,21.075 C63.421,21.439 64.333,21.941 65.153,22.579 C65.837,23.194 65.803,23.639 65.051,23.912 C64.436,24.14 64.231,24.562 64.436,25.177 L64.436,30.577 C64.663,31.579 64.299,32.274 63.342,32.662 C61.633,33.231 60.79,32.765 60.813,31.261 C60.813,30.736 60.539,30.475 59.992,30.475 L51.481,30.475 C50.912,30.475 50.627,30.634 50.627,30.953 C50.695,32.229 49.943,32.878 48.371,32.901 C47.186,32.946 46.731,32.399 47.004,31.261 L47.004,22.306 C47.004,21.759 46.947,21.531 46.833,21.622 C46.742,22.078 46.48,22.181 46.047,21.93 C45.272,20.54 44.782,19.286 44.577,18.17 C44.668,18.056 45.056,17.987 45.739,17.965 L48.098,17.794 C48.645,17.726 48.918,17.418 48.918,16.871 L48.918,11.778 C48.918,11.209 48.645,10.924 48.098,10.924 L45.773,10.924 C45.227,10.924 44.907,11.266 44.816,11.949 C44.543,14.706 43.689,17.327 42.253,19.81 C41.182,21.519 39.929,22.648 38.493,23.194 C38.402,23.126 38.527,22.693 38.869,21.896 C39.849,19.935 40.51,17.657 40.852,15.06 C41.102,13.123 41.262,11.049 41.33,8.839 L41.33,1.832 C41.33,1.058 41.763,0.829 42.629,1.148 C43.313,1.422 43.996,1.741 44.68,2.106 C45.227,2.379 45.739,2.516 46.218,2.516 L62.556,2.516 C63.125,2.516 63.615,2.242 64.025,1.695 C64.231,1.331 64.515,0.955 64.88,0.567 L64.88,0.567 Z M60.813,4.942 C61.428,4.259 62.157,4.179 63,4.703 C63.456,5.045 63.9,5.467 64.333,5.968 C64.812,6.606 65.039,7.005 65.017,7.164 C64.902,7.301 64.481,7.369 63.752,7.369 L49.396,7.369 L48.303,7.574 C47.573,7.688 47.129,7.518 46.97,7.062 C46.833,6.492 47.175,6.241 47.995,6.31 C48.405,6.332 48.85,6.39 49.328,6.48 L58.659,6.48 C59.365,6.731 60.083,6.219 60.813,4.942 L60.813,4.942 Z M60.813,24.391 C61.04,23.548 60.732,23.206 59.89,23.365 L51.687,23.365 C50.775,23.138 50.422,23.456 50.627,24.322 L50.627,28.731 C50.627,29.301 50.9,29.586 51.447,29.586 L59.958,29.586 C60.527,29.586 60.813,29.312 60.813,28.766 L60.813,24.391 L60.813,24.391 Z M56.369,12.086 C55.959,11.311 55.503,10.924 55.002,10.924 L53.43,10.924 C52.86,10.924 52.575,11.197 52.575,11.744 L52.575,16.393 C52.575,16.939 52.917,17.179 53.601,17.11 L57.839,16.393 C58.431,16.302 58.534,15.914 58.147,15.231 C57.508,14.183 56.916,13.134 56.369,12.086 L56.369,12.086 Z M63.479,11.812 C63.82,11.22 63.718,10.924 63.171,10.924 L57.668,10.924 C57.121,10.924 57.155,11.288 57.771,12.018 C58.5,12.86 59.309,13.658 60.197,14.41 C60.813,14.843 61.359,14.786 61.838,14.239 C62.385,13.646 62.932,12.838 63.479,11.812 L63.479,11.812 Z" id="Fill-61" sketch:type="MSShapeGroup"></path>
            <path d="M90.17,0.567 C90.17,-0.162 90.489,-0.515 91.127,-0.492 C91.879,-0.47 92.666,-0.367 93.486,-0.185 C93.941,-0.162 94.352,-0.002 94.716,0.294 C94.921,0.727 94.762,1.023 94.238,1.183 C93.987,1.273 93.862,1.581 93.862,2.106 C93.862,2.63 94.135,2.892 94.682,2.892 L100.937,2.892 C101.506,2.892 102.008,2.63 102.441,2.106 C103.17,1.012 103.808,0.34 104.355,0.089 C105.357,0.521 106.326,1.285 107.26,2.379 C107.761,3.04 107.989,3.45 107.944,3.609 C107.807,3.746 107.385,3.814 106.679,3.814 L78.652,3.814 L77.558,4.019 C76.806,4.088 76.362,3.917 76.225,3.507 C76.088,2.937 76.419,2.686 77.216,2.755 C77.627,2.755 78.071,2.801 78.549,2.892 L89.316,2.892 C89.885,2.892 90.17,2.618 90.17,2.071 L90.17,0.567 L90.17,0.567 Z M79.37,11.163 C79.734,10.206 80.03,9.989 80.258,10.514 C80.395,11.015 80.794,11.288 81.455,11.334 L82.002,11.402 L101.416,11.402 C102.008,11.653 102.737,11.311 103.603,10.377 C103.967,9.989 104.423,9.978 104.97,10.343 C106.748,11.322 107.853,12.177 108.286,12.906 C108.263,13.339 108.023,13.544 107.568,13.521 C107.249,13.407 106.702,13.624 105.927,14.171 C104.651,14.969 103.375,15.675 102.099,16.29 C101.734,16.449 101.518,16.381 101.45,16.085 C101.45,15.902 101.541,15.629 101.723,15.265 C102.065,14.604 102.361,13.932 102.612,13.248 C102.817,12.61 102.68,12.291 102.202,12.291 L82.07,12.291 L81.42,12.359 C80.942,12.428 80.703,12.769 80.703,13.385 C80.703,15.687 79.802,16.894 78.002,17.008 C76.772,16.803 76.225,16.097 76.362,14.889 C76.453,14.342 76.692,13.886 77.08,13.521 C78.287,12.86 79.05,12.074 79.37,11.163 L79.37,11.163 Z M83.984,13.692 C83.984,12.963 84.326,12.679 85.009,12.838 C85.784,13.065 86.559,13.373 87.334,13.761 C87.561,13.898 87.949,13.966 88.496,13.966 L95.434,13.966 C96.003,13.966 96.471,13.761 96.835,13.351 C97.291,12.963 97.861,12.894 98.544,13.145 C99.957,13.783 100.869,14.422 101.279,15.06 C101.233,15.174 101.04,15.367 100.698,15.641 C100.356,15.892 100.185,16.358 100.185,17.042 C100.117,17.726 100.424,18.25 101.108,18.614 C102.27,19.252 103.079,19.901 103.535,20.563 C103.648,20.95 103.261,21.337 102.373,21.725 C102.327,21.839 102.304,22.169 102.304,22.716 L102.304,29.757 C102.258,30.622 101.894,31.397 101.21,32.081 C100.344,32.582 99.479,32.81 98.613,32.765 C98.522,32.673 98.408,32.286 98.271,31.602 C97.883,30.645 97.314,30.099 96.562,29.962 C95.878,29.711 95.537,29.528 95.537,29.415 C95.696,29.005 96.14,28.913 96.87,29.142 C97.439,29.255 97.963,29.187 98.442,28.936 C98.692,28.663 98.772,28.219 98.681,27.603 C98.681,26.965 98.408,26.646 97.861,26.646 L86.137,26.646 C85.567,26.646 85.283,26.92 85.283,27.467 L85.283,31.602 C85.26,32.103 84.929,32.468 84.292,32.696 C83.311,33.038 82.525,32.981 81.933,32.525 C81.842,32.365 81.796,31.944 81.796,31.261 L81.796,19.537 C81.796,18.808 82.149,18.534 82.856,18.717 C83.676,18.99 84.451,19.31 85.18,19.674 C85.385,19.788 85.761,19.845 86.308,19.845 L97.314,19.845 C97.975,20.004 98.464,19.81 98.784,19.264 C98.989,18.968 98.704,18.865 97.929,18.956 C97.291,18.978 96.892,18.694 96.733,18.102 C96.687,17.874 96.391,17.76 95.844,17.76 L88.29,17.76 C87.744,17.76 87.413,17.874 87.299,18.102 C86.502,18.944 85.488,19.149 84.257,18.717 C84.075,18.534 83.984,18.102 83.984,17.418 L83.984,13.692 L83.984,13.692 Z M82.685,5.284 C82.685,4.555 83.027,4.259 83.71,4.395 C84.303,4.532 84.895,4.749 85.488,5.045 C86.126,5.364 86.65,5.523 87.06,5.523 L96.46,5.523 C97.006,5.523 97.485,5.318 97.895,4.908 C98.328,4.271 98.761,4.1 99.194,4.395 C100.994,5.102 102.11,5.819 102.544,6.549 C102.498,6.708 102.338,6.902 102.065,7.13 C101.541,7.381 101.347,7.859 101.484,8.565 C101.575,9.158 101.495,9.613 101.245,9.933 C100.606,10.479 99.752,10.707 98.681,10.616 C98.339,10.502 98.088,10.297 97.929,10.001 C97.861,9.796 97.565,9.693 97.041,9.693 L87.06,9.693 C86.513,9.693 86.16,9.808 86.001,10.035 C85.249,10.628 84.451,10.856 83.608,10.719 C82.788,10.65 82.48,10.081 82.685,9.01 L82.685,5.284 L82.685,5.284 Z M98.681,22.066 C98.932,21.087 98.601,20.653 97.69,20.768 L86.445,20.768 L85.454,20.802 C85.339,20.87 85.283,21.224 85.283,21.861 C85.283,22.545 85.556,22.887 86.103,22.887 L97.827,22.887 C98.396,22.887 98.681,22.613 98.681,22.066 L98.681,22.066 Z M98.681,24.801 C98.681,24.117 98.408,23.775 97.861,23.775 L86.137,23.775 C85.567,23.775 85.283,24.095 85.283,24.732 C85.283,25.416 85.556,25.758 86.103,25.758 L97.827,25.758 C98.396,25.758 98.681,25.438 98.681,24.801 L98.681,24.801 Z M97.861,7.643 C97.861,6.822 97.565,6.412 96.972,6.412 L87.334,6.412 C86.65,6.48 86.308,6.879 86.308,7.608 C86.308,8.383 86.582,8.771 87.128,8.771 L97.006,8.771 C97.576,8.771 97.861,8.394 97.861,7.643 L97.861,7.643 Z M88.564,14.889 C87.835,14.957 87.47,15.287 87.47,15.88 C87.47,16.518 87.744,16.837 88.29,16.837 L95.844,16.837 C96.414,16.837 96.699,16.529 96.699,15.914 C96.699,15.231 96.402,14.889 95.81,14.889 L88.564,14.889 L88.564,14.889 Z" id="Fill-62" sketch:type="MSShapeGroup"></path>
        </g>
    </g>
</svg>