<?xml version="1.0" encoding="UTF-8" standalone="no"?>
<svg width="146px" height="34px" viewBox="0 0 146 34" version="1.1" xmlns="http://www.w3.org/2000/svg" xmlns:xlink="http://www.w3.org/1999/xlink" xmlns:sketch="http://www.bohemiancoding.com/sketch/ns">
    <!-- Generator: Sketch 3.0.4 (8053) - http://www.bohemiancoding.com/sketch -->
    <title>h1_mask_green</title>
    <desc>Created with Sketch.</desc>
    <defs></defs>
    <g id="Page-1" stroke="none" stroke-width="1" fill="none" fill-rule="evenodd" sketch:type="MSPage">
        <g id="h1_mask_green" sketch:type="MSLayerGroup" transform="translate(0.000000, 1.000000)" fill="#000000">
            <path d="M13.639,0.773 C13.639,0.09 13.981,-0.24 14.664,-0.218 C16.373,-0.195 17.626,0.102 18.424,0.671 C18.583,1.059 18.298,1.4 17.569,1.696 C17.501,1.765 17.467,2.084 17.467,2.653 C17.467,3.269 17.74,3.576 18.287,3.576 L23.277,3.576 C23.847,3.576 24.348,3.314 24.781,2.79 L25.636,1.662 C26.183,0.546 26.832,0.352 27.584,1.081 C28.632,1.833 29.498,2.642 30.182,3.508 C30.592,3.85 30.648,4.157 30.353,4.431 C30.238,4.477 29.84,4.499 29.156,4.499 L18.321,4.499 C17.752,4.499 17.467,4.772 17.467,5.319 L17.467,7.233 C17.467,7.803 17.74,8.088 18.287,8.088 C19.7,8.111 21.147,8.088 22.628,8.019 C22.856,7.86 23.175,7.473 23.585,6.857 L24.132,6.174 C24.77,5.559 25.431,5.434 26.114,5.798 C27.504,6.846 28.404,7.814 28.815,8.703 C28.564,9.022 28.085,9.125 27.379,9.011 L18.321,9.011 C17.752,9.011 17.467,9.284 17.467,9.831 L17.467,11.779 C17.467,12.349 17.74,12.634 18.287,12.634 L24.371,12.634 C24.94,12.634 25.431,12.372 25.841,11.848 C26.502,10.845 27.162,10.127 27.823,9.694 C28.666,9.991 29.703,10.788 30.934,12.087 C31.412,12.748 31.651,13.146 31.651,13.283 C31.515,13.443 31.093,13.522 30.387,13.522 L2.462,13.522 L1.368,13.693 C0.639,13.808 0.206,13.648 0.069,13.215 C-0.09,12.646 0.24,12.395 1.061,12.463 C1.493,12.486 1.926,12.543 2.359,12.634 L12.784,12.634 C13.354,12.634 13.639,12.36 13.639,11.813 L13.639,9.865 C13.639,9.296 13.365,9.011 12.818,9.011 L4.923,9.011 L3.829,9.216 C3.1,9.33 2.655,9.159 2.496,8.703 C2.359,8.134 2.701,7.883 3.522,7.951 L4.82,8.088 L12.784,8.088 C13.354,8.088 13.639,7.814 13.639,7.268 L13.639,5.354 C13.639,4.784 13.365,4.499 12.818,4.499 L3.146,4.499 L2.052,4.67 C1.322,4.784 0.878,4.625 0.719,4.191 C0.582,3.622 0.912,3.371 1.71,3.439 L3.009,3.576 L12.784,3.576 C13.354,3.576 13.639,3.303 13.639,2.756 L13.639,0.773 L13.639,0.773 Z M22.901,15.266 C23.312,14.468 23.767,14.229 24.269,14.548 C24.998,14.867 25.909,15.38 27.003,16.086 C27.436,16.337 27.732,16.644 27.892,17.009 C28.074,17.465 27.709,17.875 26.798,18.239 C26.41,18.536 26.262,19.014 26.354,19.675 L26.354,29.689 C26.034,31.558 24.906,32.606 22.97,32.834 C22.263,32.856 21.785,32.526 21.534,31.843 C21.056,30.794 20.349,30.168 19.415,29.963 C18.708,29.963 18.424,29.701 18.561,29.177 C18.674,29.085 19.073,29.04 19.757,29.04 C20.964,29.04 21.762,28.915 22.149,28.664 C22.514,28.345 22.65,27.844 22.56,27.16 L22.56,25.314 C22.56,24.745 22.286,24.46 21.739,24.46 L9.435,24.46 C8.865,24.46 8.58,24.733 8.58,25.28 L8.58,31.125 C8.329,32.446 7.395,32.993 5.777,32.766 C4.934,32.56 4.604,31.899 4.786,30.783 L4.786,15.949 C4.786,15.266 4.843,14.901 4.957,14.855 C5.982,15.083 7.065,15.459 8.204,15.983 C8.614,16.211 9.093,16.325 9.64,16.325 L20.885,16.325 C21.773,16.508 22.445,16.154 22.901,15.266 L22.901,15.266 Z M9.64,17.214 C8.933,17.328 8.58,17.647 8.58,18.171 L8.58,19.162 C8.58,19.732 8.854,20.017 9.4,20.017 L21.705,20.017 C22.274,20.017 22.56,19.743 22.56,19.196 C22.582,18.581 22.56,17.966 22.491,17.351 C22.4,17.26 22.081,17.214 21.534,17.214 L9.64,17.214 L9.64,17.214 Z M22.56,21.76 C22.56,21.19 22.286,20.905 21.739,20.905 L9.435,20.905 C8.865,20.905 8.58,21.179 8.58,21.726 L8.58,22.717 C8.58,23.287 8.854,23.571 9.4,23.571 L21.705,23.571 C22.274,23.571 22.56,23.298 22.56,22.751 L22.56,21.76 L22.56,21.76 Z" id="Fill-10" sketch:type="MSShapeGroup"></path>
            <path d="M49.217,0.876 C49.331,0.147 49.741,-0.138 50.447,0.021 C51.45,0.204 52.452,0.42 53.455,0.671 C53.911,0.808 54.184,0.922 54.275,1.013 C54.594,1.354 54.458,1.662 53.865,1.935 C53.501,2.164 53.25,2.574 53.113,3.166 C52.954,3.827 53.125,4.157 53.626,4.157 L61.453,4.157 C62,4.157 62.49,3.884 62.923,3.337 C63.173,2.973 63.47,2.597 63.812,2.209 C64.381,1.617 65.019,1.491 65.726,1.833 C66.386,2.243 67.059,2.836 67.742,3.61 C68.221,4.294 68.448,4.704 68.426,4.841 C68.312,4.977 67.901,5.046 67.195,5.046 L53.489,5.046 C52.942,5.046 52.532,5.388 52.259,6.071 L51.78,7.541 C51.575,8.111 51.757,8.396 52.327,8.396 L58.104,8.396 C58.81,8.669 59.471,8.259 60.086,7.165 C60.701,6.299 61.191,5.798 61.556,5.661 C62.763,6.254 63.925,7.302 65.042,8.806 C65.042,8.942 64.996,9.068 64.905,9.182 C64.746,9.25 64.347,9.284 63.709,9.284 L56.873,9.284 C56.326,9.284 56.19,9.626 56.463,10.31 L57.42,11.984 C57.807,12.6 58.252,12.907 58.753,12.907 L62.068,12.907 C62.638,12.907 63.196,12.577 63.743,11.916 C63.948,11.597 64.188,11.278 64.461,10.959 C65.03,9.888 65.703,9.774 66.478,10.617 C67.571,11.369 68.448,12.258 69.109,13.283 C69.086,13.808 68.653,13.979 67.811,13.796 L59.607,13.796 C59.061,13.796 59.015,14.069 59.471,14.616 C62.433,17.692 65.315,19.595 68.118,20.324 C68.847,20.598 69.212,20.78 69.212,20.871 C69.166,20.962 68.802,21.144 68.118,21.418 C67.115,21.828 66.386,22.432 65.931,23.229 C65.543,23.913 65.293,24.255 65.179,24.255 C63.902,23.776 62.581,22.888 61.214,21.589 C60.667,21.133 60.394,21.179 60.394,21.726 L60.394,31.296 C60.211,32.116 59.585,32.583 58.514,32.697 C57.967,32.697 57.579,32.663 57.352,32.595 C56.736,32.367 56.497,31.956 56.634,31.364 C56.634,30.954 56.36,30.749 55.814,30.749 L49.524,30.749 C48.978,30.749 48.692,30.874 48.67,31.125 C48.67,31.831 48.351,32.321 47.713,32.595 C45.662,33.324 44.716,32.822 44.876,31.091 L44.876,20.427 C44.876,19.88 44.534,19.914 43.851,20.529 C41.731,22.375 39.521,23.674 37.22,24.426 C37.106,24.357 37.049,24.267 37.049,24.152 C40.535,21.327 43.201,18.194 45.047,14.753 C45.389,14.115 45.32,13.796 44.842,13.796 L39.578,13.796 L38.484,13.967 C37.755,14.103 37.276,13.842 37.049,13.181 L36.946,12.771 C36.992,12.68 37.356,12.668 38.04,12.736 C38.519,12.759 38.997,12.816 39.476,12.907 L45.115,12.907 C45.662,12.907 46.095,12.565 46.414,11.882 L47.064,10.207 C47.269,9.592 47.12,9.284 46.619,9.284 L41.902,9.284 L40.809,9.455 C40.079,9.569 39.635,9.41 39.476,8.977 C39.316,8.407 39.647,8.156 40.467,8.225 C40.877,8.248 41.321,8.305 41.8,8.396 L46.79,8.396 C47.337,8.396 47.735,8.054 47.986,7.37 L48.396,5.866 C48.487,5.319 48.26,5.046 47.713,5.046 L40.091,5.046 L38.997,5.251 C38.245,5.319 37.801,5.148 37.664,4.738 C37.527,4.169 37.869,3.918 38.69,3.986 C39.122,4.009 39.555,4.066 39.988,4.157 L47.918,4.157 C48.465,4.157 48.795,3.815 48.909,3.132 L49.217,0.876 L49.217,0.876 Z M56.771,14.685 C56.565,14.092 56.19,13.796 55.643,13.796 L50.003,13.796 C49.456,13.796 48.978,14.138 48.567,14.821 C48.134,15.505 47.645,16.223 47.098,16.975 C46.733,17.476 46.938,17.852 47.713,18.102 C48.51,18.649 49.171,18.877 49.695,18.786 L54.754,18.786 C55.415,18.923 55.904,18.752 56.224,18.273 C56.543,17.841 56.907,17.453 57.317,17.111 L57.625,17.077 C57.762,17.1 57.682,16.769 57.386,16.086 L56.771,14.685 L56.771,14.685 Z M56.634,20.632 C56.634,19.994 56.349,19.675 55.779,19.675 L49.524,19.675 C48.955,19.675 48.67,19.948 48.67,20.495 L48.67,23.366 C48.67,23.936 48.943,24.221 49.49,24.221 L55.779,24.221 C56.349,24.221 56.634,23.947 56.634,23.4 L56.634,20.632 L56.634,20.632 Z M56.634,25.998 C56.634,25.429 56.36,25.144 55.814,25.144 L49.524,25.144 C48.955,25.144 48.67,25.417 48.67,25.964 L48.67,28.972 C48.67,29.541 48.943,29.826 49.49,29.826 L55.779,29.826 C56.349,29.826 56.634,29.553 56.634,29.006 L56.634,25.998 L56.634,25.998 Z M55.403,10.241 C55.289,9.603 54.993,9.284 54.515,9.284 L52.088,9.284 C51.541,9.284 51.119,9.626 50.823,10.31 L50.106,11.984 C49.832,12.6 49.946,12.907 50.447,12.907 L55.267,12.907 C55.814,12.907 55.996,12.565 55.814,11.882 C55.631,11.335 55.494,10.788 55.403,10.241 L55.403,10.241 Z" id="Fill-11" sketch:type="MSShapeGroup"></path>
            <path d="M100.826,1.867 C101.623,0.819 102.193,0.147 102.535,-0.149 C102.945,-0.195 103.583,0.17 104.449,0.944 C105.543,1.833 106.18,2.631 106.363,3.337 C106.272,3.474 105.861,3.542 105.132,3.542 L93.477,3.542 C92.93,3.542 92.452,3.884 92.042,4.567 C91.335,5.866 90.458,7.12 89.41,8.327 C88.863,9.011 88.863,9.352 89.41,9.352 L99.253,9.352 C99.937,9.626 100.621,9.216 101.304,8.122 C101.623,7.667 102.079,7.621 102.671,7.985 C104.335,8.51 105.406,9.262 105.884,10.241 C105.77,10.538 105.428,10.8 104.859,11.027 C104.745,11.142 104.688,11.46 104.688,11.984 L104.688,29.86 C104.688,30.544 104.654,30.988 104.585,31.193 C103.856,32.059 102.899,32.333 101.714,32.014 C101.122,31.786 100.905,31.284 101.065,30.51 C101.065,29.849 100.792,29.519 100.245,29.519 L81.617,29.519 C81.047,29.519 80.762,29.792 80.762,30.339 C80.967,31.638 80.455,32.39 79.224,32.595 C77.697,32.914 77.002,32.275 77.139,30.681 L77.139,9.147 C77.139,8.464 77.185,8.111 77.276,8.088 C77.686,8.111 78.096,8.213 78.506,8.396 L79.874,8.942 C80.489,9.216 81.013,9.352 81.446,9.352 L86.778,9.352 C87.325,9.352 87.667,9.011 87.803,8.327 C88.008,7.006 88.168,5.684 88.282,4.362 C88.327,3.815 88.077,3.542 87.53,3.542 L77.891,3.542 L76.763,3.747 C76.011,3.838 75.578,3.69 75.464,3.303 L75.294,2.517 C75.339,2.426 75.704,2.414 76.387,2.482 C76.82,2.505 77.287,2.563 77.789,2.653 L99.322,2.653 C99.891,2.653 100.393,2.392 100.826,1.867 L100.826,1.867 Z M85.001,11.13 C85.001,10.538 84.738,10.241 84.214,10.241 C83.121,10.219 82.015,10.23 80.899,10.275 C80.808,10.344 80.762,10.651 80.762,11.198 L80.762,27.741 C80.762,28.31 81.036,28.596 81.583,28.596 L84.146,28.596 C84.715,28.596 85.001,28.322 85.001,27.775 L85.001,11.13 L85.001,11.13 Z M93.34,11.13 C93.34,10.538 93.078,10.241 92.554,10.241 L89.341,10.241 C88.772,10.241 88.487,10.515 88.487,11.062 L88.487,14.616 C88.487,15.186 88.76,15.471 89.307,15.471 L92.486,15.471 C93.055,15.471 93.34,15.197 93.34,14.65 L93.34,11.13 L93.34,11.13 Z M93.34,17.282 C93.34,16.69 93.078,16.394 92.554,16.394 L89.341,16.394 C88.772,16.394 88.487,16.667 88.487,17.214 L88.487,21.179 C88.487,21.748 88.76,22.033 89.307,22.033 L92.486,22.033 C93.055,22.033 93.34,21.76 93.34,21.213 L93.34,17.282 L93.34,17.282 Z M93.34,23.81 C93.34,23.241 93.067,22.956 92.52,22.956 L89.341,22.956 C88.772,22.956 88.487,23.229 88.487,23.776 L88.487,27.741 C88.487,28.31 88.76,28.596 89.307,28.596 L92.486,28.596 C93.055,28.596 93.34,28.322 93.34,27.775 L93.34,23.81 L93.34,23.81 Z M100.997,10.378 C100.905,10.287 100.609,10.241 100.108,10.241 L97.681,10.241 C97.111,10.241 96.827,10.515 96.827,11.062 L96.827,27.741 C96.827,28.31 97.1,28.596 97.647,28.596 L100.21,28.596 C100.78,28.596 101.065,28.322 101.065,27.775 L101.065,11.267 C101.065,10.72 101.042,10.424 100.997,10.378 L100.997,10.378 Z" id="Fill-12" sketch:type="MSShapeGroup"></path>
            <path d="M119.656,0.944 C120.248,0.261 120.613,-0.081 120.75,-0.081 C122.322,0.489 123.586,1.298 124.544,2.346 C124.703,2.71 124.498,3.029 123.928,3.303 C123.13,3.622 122.835,4.135 123.04,4.841 L123.04,29.587 C122.971,31.159 121.991,32.185 120.1,32.663 C119.234,32.731 118.79,32.401 118.767,31.672 C118.699,30.942 118.095,30.271 116.956,29.655 L116.853,29.382 C116.853,29.29 117.195,29.165 117.878,29.006 C119.246,28.96 119.804,28.368 119.553,27.228 L119.553,20.393 C119.553,19.823 119.28,19.538 118.733,19.538 L117.776,19.538 C117.229,19.538 116.921,19.88 116.853,20.563 C116.625,24.733 115.452,28.493 113.333,31.843 C112.808,32.549 112.501,32.914 112.41,32.936 C112.295,32.891 112.273,32.526 112.341,31.843 C113.139,27.103 113.538,21.543 113.538,15.163 L113.538,1.115 C113.538,0.363 113.982,0.158 114.871,0.5 C115.326,0.705 115.782,0.944 116.238,1.218 C116.739,1.674 117.616,1.81 118.87,1.628 C119.075,1.628 119.336,1.4 119.656,0.944 L119.656,0.944 Z M119.553,12.121 C119.553,11.506 119.302,11.198 118.801,11.198 L117.878,11.198 C117.309,11.198 117.024,11.472 117.024,12.019 L117.024,15.881 L116.99,17.59 C116.967,18.296 117.229,18.649 117.776,18.649 L118.699,18.649 C119.268,18.649 119.553,18.376 119.553,17.829 L119.553,12.121 L119.553,12.121 Z M119.451,2.688 C119.359,2.619 119.041,2.585 118.494,2.585 L117.844,2.585 C117.297,2.699 117.024,3.029 117.024,3.576 L117.024,9.421 C117.024,9.991 117.297,10.275 117.844,10.275 L118.699,10.275 C119.268,10.275 119.553,10.002 119.553,9.455 L119.553,3.644 C119.553,3.098 119.519,2.779 119.451,2.688 L119.451,2.688 Z M131.585,20.529 C131.585,19.8 131.949,19.447 132.678,19.47 C134.136,19.561 135.139,19.698 135.686,19.88 C136.301,20.131 136.324,20.473 135.754,20.905 C135.413,21.11 135.208,21.486 135.139,22.033 C135.071,22.603 135.31,22.888 135.857,22.888 L137.737,22.888 C138.284,22.888 138.785,22.614 139.241,22.067 C139.491,21.703 139.788,21.327 140.129,20.939 C140.676,19.892 141.326,19.766 142.078,20.563 C142.647,20.928 143.319,21.532 144.094,22.375 C144.573,23.195 144.721,23.64 144.539,23.708 C144.447,23.754 144.06,23.776 143.377,23.776 L135.925,23.776 C135.356,23.776 135.287,24.13 135.72,24.836 C138.181,27.866 141.2,29.131 144.778,28.63 C145.188,28.607 145.427,28.732 145.496,29.006 C145.473,29.12 145.12,29.325 144.436,29.621 C143.547,29.963 142.75,30.726 142.044,31.911 C141.747,32.595 141.542,32.948 141.428,32.971 C138.261,31.854 136.062,29.655 134.832,26.374 C134.672,25.713 134.558,25.406 134.49,25.451 C134.398,25.542 134.296,25.759 134.182,26.101 C133.521,28.105 132.097,29.746 129.91,31.022 C127.95,32.048 125.899,32.663 123.757,32.868 C122.869,32.936 122.401,32.902 122.356,32.766 C122.356,32.651 122.732,32.458 123.484,32.185 C125.626,31.546 127.494,30.407 129.089,28.767 C130.023,27.581 130.696,26.226 131.106,24.699 C131.265,24.084 131.083,23.776 130.559,23.776 L126.389,23.776 L125.295,23.947 C124.566,24.061 124.122,23.902 123.962,23.469 C123.826,22.899 124.168,22.648 124.988,22.717 C125.398,22.74 125.842,22.797 126.321,22.888 L130.593,22.888 C131.14,22.888 131.459,22.546 131.55,21.862 L131.585,20.529 L131.585,20.529 Z M128.44,0.739 C128.44,0.01 128.793,-0.332 129.5,-0.286 C130.252,-0.195 131.038,-0.069 131.858,0.09 C132.063,0.136 132.279,0.215 132.507,0.329 C132.712,0.534 132.69,0.819 132.439,1.184 C132.097,1.617 131.926,2.129 131.926,2.722 C131.926,3.383 132.2,3.713 132.747,3.713 L134.387,3.713 C134.957,3.713 135.242,3.439 135.242,2.893 L135.242,0.842 C135.242,0.113 135.595,-0.218 136.301,-0.149 C137.896,-0.013 138.99,0.272 139.583,0.705 C139.605,0.819 139.468,1.047 139.172,1.389 C138.876,1.776 138.728,2.243 138.728,2.79 C138.728,3.405 138.899,3.713 139.241,3.713 C139.673,3.873 140.027,3.679 140.3,3.132 C140.551,2.676 140.847,2.221 141.189,1.765 C141.508,1.4 141.724,1.195 141.838,1.149 C142.978,1.81 143.889,2.79 144.573,4.089 C144.436,4.636 143.98,4.818 143.206,4.636 L139.583,4.636 C139.013,4.636 138.728,4.977 138.728,5.661 C138.933,7.438 138.135,8.134 136.335,7.746 C135.378,7.541 135.014,6.88 135.242,5.764 C135.242,5.012 134.968,4.636 134.421,4.636 L132.781,4.636 C132.211,4.636 131.926,4.977 131.926,5.661 C132.131,7.438 131.334,8.134 129.534,7.746 C128.577,7.541 128.212,6.892 128.44,5.798 C128.44,5.023 128.167,4.636 127.62,4.636 C127.073,4.636 126.07,4.738 124.612,4.943 C124.521,4.875 124.441,4.647 124.373,4.26 C124.281,3.759 124.612,3.531 125.364,3.576 L127.585,3.713 C128.155,3.713 128.44,3.439 128.44,2.893 L128.44,0.739 L128.44,0.739 Z M125.706,8.806 C125.706,8.031 126.047,7.735 126.731,7.917 C127.3,8.077 127.87,8.282 128.44,8.532 C128.941,8.783 129.454,8.908 129.978,8.908 L137.361,8.908 C137.908,8.908 138.398,8.715 138.831,8.327 C139.241,7.895 139.788,7.803 140.471,8.054 C141.952,8.692 142.886,9.33 143.274,9.968 C143.228,10.241 142.909,10.526 142.317,10.822 C142.249,10.959 142.214,11.301 142.214,11.848 L142.214,17.59 C142.442,18.684 142.078,19.367 141.121,19.641 C139.981,20.005 139.207,19.834 138.796,19.128 C138.728,18.946 138.42,18.854 137.874,18.854 L130.046,18.854 C129.5,18.854 129.203,18.98 129.158,19.23 C128.975,19.914 128.52,20.29 127.791,20.358 C126.355,20.723 125.66,20.324 125.706,19.162 L125.706,8.806 L125.706,8.806 Z M138.694,10.72 C138.694,10.127 138.398,9.831 137.805,9.831 L130.354,9.831 C129.374,9.603 128.987,9.922 129.192,10.788 L129.192,12.736 C129.192,13.306 129.465,13.591 130.012,13.591 L137.839,13.591 C138.409,13.591 138.694,13.317 138.694,12.771 L138.694,10.72 L138.694,10.72 Z M138.694,15.368 C138.694,14.776 138.432,14.479 137.908,14.479 L130.046,14.479 C129.477,14.479 129.192,14.753 129.192,15.3 L129.192,17.111 C129.192,17.681 129.465,17.966 130.012,17.966 L137.839,17.966 C138.409,17.966 138.694,17.692 138.694,17.146 L138.694,15.368 L138.694,15.368 Z" id="Fill-13" sketch:type="MSShapeGroup"></path>
        </g>
    </g>
</svg>