<?xml version="1.0" encoding="UTF-8" standalone="no"?>
<svg width="147px" height="35px" viewBox="0 0 147 35" version="1.1" xmlns="http://www.w3.org/2000/svg" xmlns:xlink="http://www.w3.org/1999/xlink" xmlns:sketch="http://www.bohemiancoding.com/sketch/ns">
    <!-- Generator: Sketch 3.0.4 (8053) - http://www.bohemiancoding.com/sketch -->
    <title>h1_mask_red</title>
    <desc>Created with Sketch.</desc>
    <defs></defs>
    <g id="Page-1" stroke="none" stroke-width="1" fill="none" fill-rule="evenodd" sketch:type="MSPage">
        <g id="h1_mask_red" sketch:type="MSLayerGroup" fill="#000000">
            <path d="M9.341,6.559 C9.591,5.784 10.059,5.545 10.742,5.841 C12.36,6.616 13.431,7.31 13.955,7.926 C13.978,8.268 13.784,8.427 13.374,8.404 C13.101,8.313 12.793,8.541 12.451,9.088 C11.471,10.66 9.91,12.506 7.769,14.625 C7.085,15.263 7.107,15.56 7.837,15.514 L10.879,15.274 C11.448,15.229 11.597,14.864 11.323,14.181 C11.095,13.68 10.811,13.167 10.469,12.643 C10.583,12.415 10.833,12.381 11.221,12.54 C12.178,12.882 13.055,13.372 13.853,14.01 C15.744,15.765 16.143,17.382 15.049,18.863 C14.798,19.228 14.468,19.422 14.058,19.444 C12.827,19.627 12.155,18.955 12.041,17.428 L11.973,16.881 C11.881,16.334 11.528,16.175 10.913,16.402 C10.275,16.653 9.956,17.052 9.956,17.599 L9.956,31.646 C10.207,32.581 9.865,33.287 8.931,33.766 C8.201,33.993 7.518,33.959 6.88,33.663 C6.219,33.275 5.98,32.615 6.162,31.681 L6.162,23.546 C6.162,22.999 6.116,22.714 6.025,22.691 C5.638,22.737 5.398,23.067 5.308,23.683 C4.441,26.189 3.177,28.468 1.514,30.519 C0.579,31.407 0.215,31.453 0.42,30.655 C1.217,28.376 1.741,25.472 1.992,21.939 C2.129,21.256 2.539,20.948 3.223,21.017 C3.929,21.131 4.635,21.29 5.342,21.495 C5.889,21.632 6.162,21.427 6.162,20.88 L6.162,18.863 C6.162,18.316 5.82,18.123 5.137,18.282 C4.567,18.396 3.77,18.658 2.744,19.068 C2.493,19.251 2.345,19.388 2.3,19.478 C2.209,19.798 2.026,19.9 1.753,19.786 C1.252,19.354 0.796,18.385 0.386,16.881 C0.272,16.197 0.272,15.799 0.386,15.685 L3.94,15.685 C4.533,15.685 5.011,15.434 5.376,14.933 C6.971,12.495 8.293,9.703 9.341,6.559 L9.341,6.559 Z M5.615,1.979 C5.843,1.067 6.299,0.68 6.982,0.816 C7.757,1.067 8.532,1.363 9.307,1.705 C10.104,2.07 10.172,2.48 9.512,2.935 C9.124,2.89 8.794,3.164 8.521,3.756 C7.769,4.804 6.971,5.727 6.128,6.524 C5.535,7.026 5.524,7.596 6.094,8.233 C6.846,9.236 7.017,10.25 6.606,11.275 C6.196,12.324 5.513,12.745 4.556,12.54 C3.599,12.244 3.097,11.583 3.052,10.558 C3.006,8.963 2.596,7.596 1.821,6.456 C1.32,5.772 1.092,5.374 1.138,5.26 C1.685,5.146 2.471,5.396 3.496,6.012 C4.043,6.331 4.453,6.126 4.727,5.396 C5.068,4.394 5.364,3.255 5.615,1.979 L5.615,1.979 Z M10.674,21.051 C10.788,20.914 11.187,20.994 11.87,21.29 C13.921,22.43 15.254,23.797 15.869,25.392 C16.165,26.189 16.097,26.998 15.664,27.818 C15.071,28.729 14.297,29.015 13.34,28.673 C12.679,28.376 12.303,27.807 12.212,26.964 C12.326,25.346 12.075,23.865 11.46,22.521 C10.845,21.678 10.583,21.188 10.674,21.051 L10.674,21.051 Z M27.046,3.858 C27.684,3.061 28.094,2.662 28.276,2.662 C28.481,2.708 28.812,2.89 29.268,3.209 C30.315,3.961 31.193,4.77 31.899,5.636 C32.31,6.023 32.366,6.319 32.07,6.524 C31.979,6.57 31.592,6.593 30.908,6.593 L25.064,6.593 C24.494,6.593 24.209,6.866 24.209,7.413 L24.209,29.869 C24.209,30.438 24.517,30.724 25.132,30.724 L26.226,30.689 C26.59,30.438 26.92,30.051 27.217,29.527 C27.536,29.071 27.889,28.616 28.276,28.16 C28.732,27.454 29.29,27.477 29.951,28.229 C30.749,28.798 31.512,29.47 32.241,30.245 C32.72,30.951 32.925,31.361 32.856,31.476 C32.72,31.566 32.31,31.612 31.626,31.612 L13.442,31.612 L12.349,31.817 C11.597,31.886 11.152,31.715 11.016,31.305 C10.879,30.735 11.221,30.484 12.041,30.553 C12.474,30.575 12.907,30.632 13.34,30.724 L19.561,30.724 C20.13,30.724 20.415,30.45 20.415,29.903 L20.415,7.447 C20.415,6.878 20.142,6.593 19.595,6.593 C17.726,6.524 16.404,6.593 15.63,6.798 C14.9,6.889 14.456,6.718 14.297,6.285 C14.16,5.716 14.479,5.465 15.254,5.533 C15.687,5.556 16.154,5.613 16.655,5.704 L24.551,5.704 C25.371,5.955 26.021,5.567 26.499,4.542 L27.046,3.858 L27.046,3.858 Z" id="Fill-14" sketch:type="MSShapeGroup"></path>
            <path d="M50.935,11.275 C51.162,10.797 51.436,10.638 51.755,10.797 C52.598,11.48 53.168,12.073 53.464,12.574 C53.874,12.984 54.067,13.394 54.045,13.805 C53.977,14.01 53.589,14.112 52.883,14.112 L42.971,14.112 C42.446,14.112 42.185,14.42 42.185,15.035 C42.253,19.889 42.014,23.706 41.467,26.485 C41.102,28.81 40.236,30.86 38.869,32.638 C38.049,33.344 37.627,33.617 37.604,33.458 C38.151,30.108 38.47,25.118 38.562,18.487 L38.562,12.711 C38.584,11.959 38.972,11.72 39.724,11.993 C40.521,12.29 41.353,12.631 42.219,13.019 C42.515,13.155 42.937,13.224 43.483,13.224 L48.645,13.224 C49.214,13.224 49.75,12.894 50.251,12.232 L50.935,11.275 L50.935,11.275 Z M44.338,1.5 C44.338,0.726 44.646,0.35 45.261,0.372 C47.061,0.44 48.325,0.703 49.055,1.158 C49.328,1.637 49.055,2.024 48.234,2.32 C48.166,2.89 48.143,3.46 48.166,4.029 C48.166,4.599 48.325,4.884 48.645,4.884 C49.077,5.043 49.419,4.838 49.67,4.269 C50.034,3.653 50.479,3.027 51.003,2.389 C51.185,2.298 51.606,2.503 52.268,3.004 C52.951,3.665 53.498,4.383 53.908,5.157 C53.908,5.772 53.464,5.977 52.575,5.772 L40.92,5.772 C40.555,5.795 40.179,5.852 39.792,5.943 C39.04,6.035 38.607,5.875 38.493,5.465 C38.379,4.918 38.71,4.667 39.484,4.713 C40.396,4.896 41.729,4.952 43.483,4.884 C44.053,4.884 44.338,4.61 44.338,4.063 L44.338,1.5 L44.338,1.5 Z M47.722,7.174 C48.405,6.422 49.066,6.217 49.704,6.559 C50.843,7.151 51.572,7.652 51.892,8.063 C51.96,8.313 51.812,8.484 51.447,8.575 C51.219,8.553 50.935,8.621 50.593,8.78 L50.148,9.019 C49.624,9.293 49.522,9.635 49.841,10.045 C50.205,10.455 50.342,10.865 50.251,11.275 C49.727,12.871 48.656,12.928 47.038,11.446 C46.468,10.991 45.853,10.865 45.192,11.07 C44.19,11.344 43.187,11.572 42.185,11.754 C41.228,11.868 40.794,11.845 40.886,11.685 C40.977,11.549 41.387,11.332 42.116,11.036 C42.731,10.763 43.347,10.444 43.962,10.079 C44.486,9.76 44.372,9.384 43.62,8.951 C42.754,8.473 41.877,7.949 40.988,7.379 C40.965,7.265 41.296,7.208 41.98,7.208 C43.278,7.413 44.577,7.664 45.876,7.96 C46.377,8.12 46.992,7.857 47.722,7.174 L47.722,7.174 Z M49.67,25.768 C50.08,25.107 50.729,25.004 51.618,25.46 C52.894,26.121 53.726,26.736 54.113,27.306 C54.182,27.784 53.806,28 52.985,27.955 C52.757,28 52.529,28.126 52.302,28.331 C49.499,30.473 46.195,31.942 42.39,32.74 C41.706,32.877 41.307,32.922 41.193,32.877 C41.17,32.763 41.501,32.523 42.185,32.159 C45.215,30.609 47.71,28.479 49.67,25.768 L49.67,25.768 Z M49.157,20.47 C49.476,19.764 50.068,19.581 50.935,19.923 C52.097,20.447 52.905,20.971 53.361,21.495 C53.384,21.974 53.145,22.19 52.644,22.144 C52.324,22.122 51.926,22.327 51.447,22.76 C49.396,24.378 46.901,25.551 43.962,26.28 C43.278,26.44 42.891,26.463 42.8,26.349 C42.868,26.212 43.244,25.95 43.928,25.563 C45.796,24.537 47.539,22.84 49.157,20.47 L49.157,20.47 Z M48.029,15.685 C48.394,14.978 48.998,14.796 49.841,15.138 C51.162,15.707 51.982,16.231 52.302,16.71 C52.302,17.188 52.074,17.394 51.618,17.325 C51.299,17.371 50.912,17.576 50.456,17.94 C48.633,19.239 46.582,20.14 44.304,20.641 C43.437,20.846 42.993,20.903 42.971,20.811 C42.948,20.721 43.347,20.39 44.167,19.82 C45.716,18.795 47.004,17.417 48.029,15.685 L48.029,15.685 Z M57.771,28.502 C58.272,27.818 58.944,27.727 59.787,28.229 C60.562,28.684 61.245,29.185 61.838,29.732 C62.43,30.348 62.294,30.689 61.428,30.758 C60.881,30.735 60.243,30.997 59.514,31.544 C57.303,32.751 55.002,33.469 52.609,33.697 C51.926,33.766 51.527,33.754 51.413,33.663 C51.367,33.526 51.812,33.241 52.746,32.809 C54.501,32.011 56.175,30.575 57.771,28.502 L57.771,28.502 Z M65.153,2.56 C65.586,1.922 66.167,1.25 66.897,0.543 C68.195,0.953 69.46,2.059 70.69,3.858 C70.508,4.269 70.052,4.405 69.323,4.269 L65.393,4.269 C64.846,4.269 64.344,4.61 63.889,5.294 C63.182,6.365 62.43,7.254 61.633,7.96 C61.018,8.461 60.995,8.712 61.565,8.712 C62.544,8.735 63.524,8.712 64.504,8.644 C64.618,8.621 64.789,8.484 65.017,8.233 C65.723,7.413 66.133,7.003 66.247,7.003 C67.181,7.231 68.081,7.596 68.947,8.097 C69.95,8.667 70.451,9.19 70.451,9.669 C70.36,9.852 70.166,10.011 69.87,10.147 C69.277,10.262 69.061,10.694 69.221,11.446 L69.221,25.152 C69.38,25.927 69.175,26.577 68.606,27.101 C67.785,27.534 66.965,27.647 66.145,27.442 C65.575,27.237 65.335,26.816 65.427,26.178 C65.427,25.79 65.153,25.597 64.606,25.597 L59.685,25.597 C59.138,25.597 58.773,25.938 58.591,26.622 C58.158,27.42 57.417,27.761 56.369,27.647 C55.275,27.557 54.831,26.873 55.036,25.597 L55.036,8.37 C55.036,7.664 55.492,7.436 56.403,7.686 C56.859,7.823 57.315,7.994 57.771,8.199 C58.431,8.587 58.921,8.758 59.24,8.712 C59.559,8.712 59.798,8.37 59.958,7.686 C60.117,6.821 60.22,5.955 60.266,5.089 C60.266,4.542 59.992,4.269 59.445,4.269 C57.645,4.2 56.357,4.269 55.583,4.474 C54.831,4.542 54.387,4.371 54.25,3.961 C54.113,3.392 54.443,3.141 55.241,3.209 C55.651,3.209 56.096,3.255 56.574,3.346 L63.649,3.346 C64.219,3.346 64.72,3.084 65.153,2.56 L65.153,2.56 Z M59.958,9.601 L59.001,9.635 C58.887,9.703 58.83,10.011 58.83,10.558 L58.83,13.189 C58.83,13.759 59.104,14.044 59.65,14.044 L64.572,14.044 C65.142,14.044 65.427,13.771 65.427,13.224 C65.449,12.061 65.427,10.888 65.358,9.703 C65.267,9.635 64.948,9.601 64.401,9.601 L59.958,9.601 L59.958,9.601 Z M65.427,15.855 C65.427,15.24 65.176,14.933 64.675,14.933 L59.685,14.933 C59.115,14.933 58.83,15.206 58.83,15.753 L58.83,18.487 C58.83,19.057 59.104,19.342 59.65,19.342 L64.572,19.342 C65.142,19.342 65.427,19.068 65.427,18.521 L65.427,15.855 L65.427,15.855 Z M65.427,21.153 C65.427,20.561 65.165,20.265 64.641,20.265 L59.685,20.265 C59.115,20.265 58.83,20.538 58.83,21.085 L58.83,23.854 C58.83,24.423 59.104,24.708 59.65,24.708 L64.572,24.708 C65.142,24.708 65.427,24.435 65.427,23.888 L65.427,21.153 L65.427,21.153 Z M64.47,28.058 L65.153,28.023 C67.409,28.092 69.164,28.992 70.417,30.724 C70.964,32 70.884,32.968 70.178,33.629 C69.016,34.426 68.036,34.176 67.238,32.877 C66.714,31.396 65.734,30.143 64.299,29.117 C63.592,28.752 63.228,28.513 63.205,28.399 C63.228,28.24 63.649,28.126 64.47,28.058 L64.47,28.058 Z" id="Fill-15" sketch:type="MSShapeGroup"></path>
            <path d="M101.826,2.867 C102.623,1.819 103.193,1.147 103.535,0.851 C103.945,0.805 104.583,1.17 105.449,1.944 C106.543,2.833 107.18,3.631 107.363,4.337 C107.272,4.474 106.861,4.542 106.132,4.542 L94.477,4.542 C93.93,4.542 93.452,4.884 93.042,5.567 C92.335,6.866 91.458,8.12 90.41,9.327 C89.863,10.011 89.863,10.352 90.41,10.352 L100.253,10.352 C100.937,10.626 101.621,10.216 102.304,9.122 C102.623,8.667 103.079,8.621 103.671,8.985 C105.335,9.51 106.406,10.262 106.884,11.241 C106.77,11.538 106.428,11.8 105.859,12.027 C105.745,12.142 105.688,12.46 105.688,12.984 L105.688,30.86 C105.688,31.544 105.654,31.988 105.585,32.193 C104.856,33.059 103.899,33.332 102.714,33.014 C102.122,32.786 101.905,32.284 102.065,31.51 C102.065,30.849 101.792,30.519 101.245,30.519 L82.617,30.519 C82.047,30.519 81.762,30.792 81.762,31.339 C81.967,32.638 81.455,33.39 80.224,33.595 C78.697,33.914 78.002,33.275 78.139,31.681 L78.139,10.147 C78.139,9.464 78.185,9.111 78.276,9.088 C78.686,9.111 79.096,9.213 79.506,9.396 L80.874,9.942 C81.489,10.216 82.013,10.352 82.446,10.352 L87.778,10.352 C88.325,10.352 88.667,10.011 88.803,9.327 C89.008,8.006 89.168,6.684 89.282,5.362 C89.327,4.815 89.077,4.542 88.53,4.542 L78.891,4.542 L77.763,4.747 C77.011,4.838 76.578,4.69 76.464,4.303 L76.294,3.517 C76.339,3.426 76.704,3.414 77.387,3.482 C77.82,3.505 78.287,3.563 78.789,3.653 L100.322,3.653 C100.891,3.653 101.393,3.392 101.826,2.867 L101.826,2.867 Z M86.001,12.13 C86.001,11.538 85.738,11.241 85.214,11.241 C84.121,11.219 83.015,11.23 81.899,11.275 C81.808,11.344 81.762,11.651 81.762,12.198 L81.762,28.741 C81.762,29.31 82.036,29.596 82.583,29.596 L85.146,29.596 C85.715,29.596 86.001,29.322 86.001,28.775 L86.001,12.13 L86.001,12.13 Z M94.34,12.13 C94.34,11.538 94.078,11.241 93.554,11.241 L90.341,11.241 C89.772,11.241 89.487,11.515 89.487,12.061 L89.487,15.616 C89.487,16.186 89.76,16.471 90.307,16.471 L93.486,16.471 C94.055,16.471 94.34,16.197 94.34,15.65 L94.34,12.13 L94.34,12.13 Z M94.34,18.282 C94.34,17.69 94.078,17.394 93.554,17.394 L90.341,17.394 C89.772,17.394 89.487,17.667 89.487,18.214 L89.487,22.179 C89.487,22.748 89.76,23.033 90.307,23.033 L93.486,23.033 C94.055,23.033 94.34,22.76 94.34,22.213 L94.34,18.282 L94.34,18.282 Z M94.34,24.81 C94.34,24.241 94.067,23.956 93.52,23.956 L90.341,23.956 C89.772,23.956 89.487,24.229 89.487,24.776 L89.487,28.741 C89.487,29.31 89.76,29.596 90.307,29.596 L93.486,29.596 C94.055,29.596 94.34,29.322 94.34,28.775 L94.34,24.81 L94.34,24.81 Z M101.997,11.378 C101.905,11.287 101.609,11.241 101.108,11.241 L98.681,11.241 C98.111,11.241 97.827,11.515 97.827,12.061 L97.827,28.741 C97.827,29.31 98.1,29.596 98.647,29.596 L101.21,29.596 C101.78,29.596 102.065,29.322 102.065,28.775 L102.065,12.267 C102.065,11.72 102.042,11.424 101.997,11.378 L101.997,11.378 Z" id="Fill-16" sketch:type="MSShapeGroup"></path>
            <path d="M120.656,1.944 C121.248,1.261 121.613,0.919 121.75,0.919 C123.322,1.489 124.586,2.298 125.544,3.346 C125.703,3.71 125.498,4.029 124.928,4.303 C124.13,4.622 123.835,5.135 124.04,5.841 L124.04,30.587 C123.971,32.159 122.991,33.185 121.1,33.663 C120.234,33.731 119.79,33.401 119.767,32.672 C119.699,31.942 119.095,31.271 117.956,30.655 L117.853,30.382 C117.853,30.29 118.195,30.165 118.878,30.006 C120.246,29.96 120.804,29.368 120.553,28.229 L120.553,21.393 C120.553,20.823 120.28,20.538 119.733,20.538 L118.776,20.538 C118.229,20.538 117.921,20.88 117.853,21.563 C117.625,25.733 116.452,29.493 114.333,32.843 C113.808,33.549 113.501,33.914 113.41,33.936 C113.295,33.891 113.273,33.526 113.341,32.843 C114.139,28.103 114.538,22.543 114.538,16.163 L114.538,2.115 C114.538,1.363 114.982,1.158 115.871,1.5 C116.326,1.705 116.782,1.944 117.238,2.218 C117.739,2.674 118.616,2.81 119.87,2.628 C120.075,2.628 120.336,2.4 120.656,1.944 L120.656,1.944 Z M120.553,13.121 C120.553,12.506 120.302,12.198 119.801,12.198 L118.878,12.198 C118.309,12.198 118.024,12.472 118.024,13.019 L118.024,16.881 L117.99,18.59 C117.967,19.296 118.229,19.649 118.776,19.649 L119.699,19.649 C120.268,19.649 120.553,19.376 120.553,18.829 L120.553,13.121 L120.553,13.121 Z M120.451,3.688 C120.359,3.619 120.041,3.585 119.494,3.585 L118.844,3.585 C118.297,3.699 118.024,4.029 118.024,4.576 L118.024,10.421 C118.024,10.991 118.297,11.275 118.844,11.275 L119.699,11.275 C120.268,11.275 120.553,11.002 120.553,10.455 L120.553,4.645 C120.553,4.098 120.519,3.779 120.451,3.688 L120.451,3.688 Z M132.585,21.529 C132.585,20.8 132.949,20.447 133.678,20.47 C135.136,20.561 136.139,20.698 136.686,20.88 C137.301,21.131 137.324,21.473 136.754,21.905 C136.413,22.11 136.208,22.486 136.139,23.033 C136.071,23.603 136.31,23.888 136.857,23.888 L138.737,23.888 C139.284,23.888 139.785,23.614 140.241,23.067 C140.491,22.703 140.788,22.327 141.129,21.939 C141.676,20.892 142.326,20.766 143.078,21.563 C143.647,21.928 144.319,22.532 145.094,23.375 C145.573,24.195 145.721,24.64 145.539,24.708 C145.447,24.754 145.06,24.776 144.377,24.776 L136.925,24.776 C136.356,24.776 136.287,25.13 136.72,25.836 C139.181,28.866 142.2,30.131 145.778,29.63 C146.188,29.607 146.427,29.732 146.496,30.006 C146.473,30.12 146.12,30.325 145.436,30.621 C144.547,30.963 143.75,31.726 143.044,32.911 C142.747,33.595 142.542,33.948 142.428,33.971 C139.261,32.854 137.062,30.655 135.832,27.374 C135.672,26.713 135.558,26.406 135.49,26.451 C135.398,26.542 135.296,26.759 135.182,27.101 C134.521,29.105 133.097,30.746 130.91,32.022 C128.95,33.048 126.899,33.663 124.757,33.868 C123.869,33.936 123.401,33.902 123.356,33.766 C123.356,33.651 123.732,33.458 124.484,33.185 C126.626,32.546 128.494,31.407 130.089,29.767 C131.023,28.581 131.696,27.226 132.106,25.699 C132.265,25.084 132.083,24.776 131.559,24.776 L127.389,24.776 L126.295,24.947 C125.566,25.062 125.122,24.902 124.962,24.469 C124.826,23.899 125.168,23.648 125.988,23.717 C126.398,23.74 126.842,23.797 127.321,23.888 L131.593,23.888 C132.14,23.888 132.459,23.546 132.55,22.862 L132.585,21.529 L132.585,21.529 Z M129.44,1.739 C129.44,1.01 129.793,0.668 130.5,0.714 C131.252,0.805 132.038,0.931 132.858,1.09 C133.063,1.136 133.279,1.215 133.507,1.329 C133.712,1.534 133.69,1.819 133.439,2.184 C133.097,2.617 132.926,3.129 132.926,3.722 C132.926,4.383 133.2,4.713 133.747,4.713 L135.387,4.713 C135.957,4.713 136.242,4.439 136.242,3.893 L136.242,1.842 C136.242,1.113 136.595,0.782 137.301,0.851 C138.896,0.987 139.99,1.272 140.583,1.705 C140.605,1.819 140.468,2.047 140.172,2.389 C139.876,2.776 139.728,3.243 139.728,3.79 C139.728,4.405 139.899,4.713 140.241,4.713 C140.673,4.873 141.027,4.679 141.3,4.132 C141.551,3.676 141.847,3.221 142.189,2.765 C142.508,2.4 142.724,2.195 142.838,2.149 C143.978,2.81 144.889,3.79 145.573,5.089 C145.436,5.636 144.98,5.818 144.206,5.636 L140.583,5.636 C140.013,5.636 139.728,5.977 139.728,6.661 C139.933,8.438 139.135,9.134 137.335,8.746 C136.378,8.541 136.014,7.88 136.242,6.764 C136.242,6.012 135.968,5.636 135.421,5.636 L133.781,5.636 C133.211,5.636 132.926,5.977 132.926,6.661 C133.131,8.438 132.334,9.134 130.534,8.746 C129.577,8.541 129.212,7.892 129.44,6.798 C129.44,6.023 129.167,5.636 128.62,5.636 C128.073,5.636 127.07,5.738 125.612,5.943 C125.521,5.875 125.441,5.647 125.373,5.26 C125.281,4.759 125.612,4.531 126.364,4.576 L128.585,4.713 C129.155,4.713 129.44,4.439 129.44,3.893 L129.44,1.739 L129.44,1.739 Z M126.706,9.806 C126.706,9.031 127.047,8.735 127.731,8.917 C128.3,9.077 128.87,9.282 129.44,9.532 C129.941,9.783 130.454,9.908 130.978,9.908 L138.361,9.908 C138.908,9.908 139.398,9.715 139.831,9.327 C140.241,8.894 140.788,8.803 141.471,9.054 C142.952,9.692 143.886,10.33 144.274,10.968 C144.228,11.241 143.909,11.526 143.317,11.822 C143.249,11.959 143.214,12.301 143.214,12.848 L143.214,18.59 C143.442,19.684 143.078,20.367 142.121,20.641 C140.981,21.005 140.207,20.834 139.796,20.128 C139.728,19.946 139.42,19.854 138.874,19.854 L131.046,19.854 C130.5,19.854 130.203,19.98 130.158,20.23 C129.975,20.914 129.52,21.29 128.791,21.358 C127.355,21.723 126.66,21.324 126.706,20.162 L126.706,9.806 L126.706,9.806 Z M139.694,11.72 C139.694,11.127 139.398,10.831 138.805,10.831 L131.354,10.831 C130.374,10.604 129.987,10.922 130.192,11.788 L130.192,13.736 C130.192,14.306 130.465,14.591 131.012,14.591 L138.839,14.591 C139.409,14.591 139.694,14.317 139.694,13.771 L139.694,11.72 L139.694,11.72 Z M139.694,16.368 C139.694,15.776 139.432,15.479 138.908,15.479 L131.046,15.479 C130.477,15.479 130.192,15.753 130.192,16.3 L130.192,18.111 C130.192,18.681 130.465,18.966 131.012,18.966 L138.839,18.966 C139.409,18.966 139.694,18.692 139.694,18.146 L139.694,16.368 L139.694,16.368 Z" id="Fill-17" sketch:type="MSShapeGroup"></path>
        </g>
    </g>
</svg>