<?xml version="1.0" encoding="UTF-8" standalone="no"?>
<svg width="147px" height="34px" viewBox="0 0 147 34" version="1.1" xmlns="http://www.w3.org/2000/svg" xmlns:xlink="http://www.w3.org/1999/xlink" xmlns:sketch="http://www.bohemiancoding.com/sketch/ns">
    <!-- Generator: Sketch 3.0.4 (8053) - http://www.bohemiancoding.com/sketch -->
    <title>h1_mask_blue</title>
    <desc>Created with Sketch.</desc>
    <defs></defs>
    <g id="Page-1" stroke="none" stroke-width="1" fill="none" fill-rule="evenodd" sketch:type="MSPage">
        <g id="h1_mask_blue" sketch:type="MSLayerGroup" transform="translate(0.000000, 1.000000)" fill="#000000">
            <path d="M6.025,0.705 C6.002,-0.024 6.367,-0.389 7.119,-0.389 C8.03,-0.297 8.942,-0.161 9.854,0.021 C10.423,0.09 10.765,0.341 10.879,0.773 C10.765,1.161 10.469,1.412 9.99,1.525 C9.899,1.64 9.854,1.97 9.854,2.517 L9.854,6.721 C9.854,7.268 9.944,7.553 10.127,7.575 C10.355,7.575 10.753,7.256 11.323,6.618 L12.28,5.49 C12.645,4.807 13.066,4.67 13.545,5.08 C14.365,5.559 15.242,6.356 16.177,7.473 C16.587,7.86 16.644,8.168 16.348,8.396 C16.233,8.441 15.835,8.464 15.151,8.464 L9.409,8.464 C8.862,8.464 8.566,8.806 8.521,9.489 L8.384,13.146 C8.384,13.693 8.714,13.967 9.375,13.967 C10.149,14.103 10.708,13.967 11.05,13.557 L11.392,13.112 C11.916,11.928 12.85,11.894 14.194,13.01 C14.81,13.397 15.311,13.295 15.698,12.702 C17.589,8.669 18.615,4.408 18.774,-0.081 C18.888,-0.218 19.287,-0.263 19.971,-0.218 C21.748,0.079 23.024,0.512 23.799,1.081 C23.936,1.309 23.89,1.548 23.662,1.799 L22.705,2.175 C22.477,2.448 22.295,2.87 22.158,3.439 C21.657,5.035 21.155,6.356 20.654,7.404 C20.381,7.974 20.518,8.259 21.065,8.259 L25.508,8.259 C26.146,8.441 26.613,8.259 26.909,7.712 L27.969,6.345 C28.47,5.274 29.119,5.126 29.917,5.9 C30.578,6.31 31.25,6.903 31.934,7.678 C32.435,8.384 32.674,8.783 32.651,8.874 C32.4,9.147 31.922,9.239 31.216,9.147 L30.566,9.147 C30.02,9.147 29.7,9.489 29.609,10.173 C29.313,15.026 28.025,19.47 25.747,23.503 C25.291,24.209 25.337,24.836 25.884,25.383 C28.071,27.411 30.27,28.709 32.481,29.279 C32.549,29.393 32.241,29.701 31.558,30.202 C31.102,30.589 30.566,31.262 29.951,32.219 C29.723,32.674 29.552,32.948 29.439,33.039 C29.324,33.061 28.926,32.879 28.242,32.492 C26.146,31.193 24.46,29.769 23.184,28.22 C22.773,27.627 22.238,27.616 21.577,28.185 C19.412,30.031 16.803,31.341 13.75,32.116 C12.861,32.23 12.405,32.219 12.383,32.082 C12.405,31.991 12.804,31.728 13.579,31.296 C16.017,29.974 18.239,28.163 20.244,25.861 C20.745,25.246 20.882,24.665 20.654,24.118 C19.241,20.518 18.33,16.838 17.92,13.078 C17.874,12.463 17.532,12.509 16.895,13.215 C16.051,13.876 15.755,14.354 16.006,14.65 C15.938,14.855 15.71,15.106 15.322,15.402 C14.935,15.653 14.718,16.143 14.673,16.872 C14.468,21.498 14.001,25.531 13.272,28.972 C12.52,31.273 10.959,32.401 8.589,32.355 C8.498,32.31 8.395,31.945 8.281,31.262 C7.985,30.282 7.051,29.313 5.479,28.356 C5.364,28.151 5.752,28.049 6.641,28.049 L8.008,28.22 C8.828,28.31 9.478,28.003 9.956,27.297 C10.503,24.79 10.867,21.144 11.05,16.359 C11.164,15.653 11.095,15.175 10.845,14.924 C10.275,14.878 9.705,14.867 9.136,14.89 C8.589,14.89 8.27,15.231 8.179,15.915 C7.882,19.629 6.948,23.161 5.376,26.511 C4.556,28.333 3.336,30.031 1.719,31.604 C1.035,32.196 0.636,32.492 0.523,32.492 C0.34,32.355 0.386,32.082 0.659,31.672 C2.482,28.026 3.621,24.38 4.077,20.734 C4.578,16.884 4.817,13.078 4.795,9.318 C4.795,8.749 4.522,8.464 3.975,8.464 C3.2,8.418 2.437,8.476 1.685,8.635 C0.955,8.749 0.511,8.589 0.352,8.156 C0.215,7.587 0.557,7.336 1.377,7.404 C2.266,7.587 3.53,7.644 5.171,7.575 C5.74,7.575 6.025,7.302 6.025,6.755 L6.025,0.705 L6.025,0.705 Z M25.952,10.07 C25.998,9.455 25.77,9.147 25.269,9.147 L20.654,9.147 C20.107,9.147 19.606,9.489 19.15,10.173 C18.74,10.856 18.592,11.54 18.706,12.224 C19.185,15.163 20.403,18.114 22.363,21.076 C22.751,21.623 23.115,21.555 23.457,20.871 C24.778,17.727 25.61,14.126 25.952,10.07 L25.952,10.07 Z" id="Fill-18" sketch:type="MSShapeGroup"></path>
            <path d="M51.892,1.218 C52.37,0.466 52.678,0.067 52.815,0.021 C52.997,0.021 53.407,0.227 54.045,0.637 C54.501,0.933 54.956,1.275 55.412,1.662 C56.323,2.232 56.654,2.71 56.403,3.098 L53.396,3.132 C52.78,3.132 52.849,3.383 53.601,3.884 C54.33,4.431 54.888,4.977 55.275,5.524 C55.298,5.616 55.264,5.707 55.173,5.798 C54.353,5.866 53.521,5.889 52.678,5.866 C52.063,5.866 52.131,6.117 52.883,6.618 C53.726,7.233 54.295,7.769 54.592,8.225 C54.614,8.361 54.58,8.464 54.489,8.532 C54.466,8.623 54.797,8.908 55.481,9.387 L55.925,9.763 C56.517,10.333 57.155,10.435 57.839,10.07 C59.935,9.022 61.849,7.438 63.581,5.319 C64.105,4.59 64.697,4.362 65.358,4.636 C66.019,4.887 66.714,5.217 67.443,5.627 C67.808,5.878 67.899,6.14 67.717,6.413 C67.443,6.481 67.17,6.584 66.897,6.721 C63.364,9.068 60.015,10.56 56.848,11.198 L48.405,11.198 C47.858,11.198 47.312,11.472 46.765,12.019 C46.149,12.657 45.523,13.238 44.885,13.762 C44.885,13.83 45.227,13.842 45.91,13.796 L50.251,13.352 C50.843,13.283 50.889,12.964 50.388,12.394 C49.818,11.962 49.533,11.7 49.533,11.608 C49.624,11.518 50.012,11.483 50.695,11.506 C52.222,11.711 53.475,12.292 54.455,13.249 C55.184,14.069 55.287,14.981 54.763,15.983 C53.578,17.009 52.666,16.679 52.028,14.992 C51.8,14.445 51.345,14.263 50.661,14.445 L47.585,15.368 C46.719,15.573 46.673,15.733 47.448,15.847 C48.405,15.87 49.089,16.132 49.499,16.633 C49.567,17.021 49.226,17.362 48.474,17.658 C48.428,17.749 48.405,18.125 48.405,18.786 C48.405,19.493 48.553,19.846 48.85,19.846 C49.146,19.846 49.602,19.538 50.217,18.923 C51.037,17.328 52.005,17.613 53.122,19.777 C53.396,20.028 53.407,20.336 53.156,20.7 C51.857,20.769 50.559,20.792 49.26,20.769 C48.69,20.769 48.405,20.974 48.405,21.384 C48.405,21.794 48.747,22.17 49.431,22.512 C50.205,22.808 50.946,23.378 51.652,24.221 C52.108,24.745 52.632,24.665 53.225,23.981 C54.706,22.182 55.776,20.108 56.438,17.761 C56.62,17.032 57.053,16.747 57.736,16.906 C58.511,17.157 59.286,17.487 60.061,17.897 C60.402,18.08 60.527,18.319 60.437,18.615 C60.345,18.706 60.174,18.786 59.924,18.854 C59.673,18.9 59.263,19.276 58.693,19.982 C57.053,22.193 55.287,23.856 53.396,24.973 C52.826,25.292 52.586,25.554 52.678,25.759 C52.883,26.488 52.871,27.08 52.644,27.536 C52.37,28.105 51.96,28.368 51.413,28.322 C50.319,28.254 49.738,27.593 49.67,26.34 C49.442,25.314 49.077,24.483 48.576,23.845 C48.462,23.776 48.405,24.016 48.405,24.563 L48.405,31.74 C48.018,32.856 47.095,33.164 45.637,32.663 C45.112,32.298 44.919,31.706 45.056,30.886 L45.056,25.622 C45.056,25.053 44.759,25.144 44.167,25.895 C42.275,28.037 40.476,29.279 38.767,29.621 C38.675,29.53 38.63,29.438 38.63,29.348 C40.954,27.069 42.64,24.517 43.689,21.691 C43.916,21.076 43.779,20.769 43.278,20.769 C41.888,20.678 40.453,20.78 38.972,21.076 C38.88,21.008 38.801,20.78 38.732,20.393 C38.641,19.892 38.972,19.664 39.724,19.709 C40.612,19.846 42.104,19.892 44.201,19.846 C44.771,19.846 45.056,19.572 45.056,19.025 L45.056,16.975 C45.056,16.428 44.714,16.223 44.03,16.359 C43.232,16.564 42.435,16.804 41.638,17.077 C41.501,17.146 41.307,17.305 41.057,17.556 C40.806,17.807 40.566,17.784 40.339,17.487 C39.997,16.827 39.701,16.04 39.45,15.129 C39.336,14.377 39.632,14.001 40.339,14.001 L42.116,14.001 C42.663,14.001 43.062,13.659 43.313,12.976 L43.62,12.053 C43.825,11.483 43.643,11.198 43.073,11.198 C41.546,11.153 40.396,11.198 39.621,11.335 C38.915,11.403 38.493,11.21 38.356,10.754 C38.265,10.253 38.55,10.036 39.211,10.104 C39.78,10.127 40.35,10.185 40.92,10.275 C41.489,10.275 41.774,10.002 41.774,9.455 L41.774,1.799 C41.774,1.115 41.809,0.728 41.877,0.637 C42.834,0.91 43.928,1.377 45.158,2.038 C45.363,2.152 45.739,2.209 46.286,2.209 L50.354,2.209 C50.9,2.209 51.231,2.175 51.345,2.106 C51.527,1.993 51.709,1.696 51.892,1.218 L51.892,1.218 Z M50.935,3.986 C51.253,3.417 51.128,3.132 50.559,3.132 L46.013,3.132 C45.443,3.132 45.158,3.428 45.158,4.021 C45.158,4.659 45.432,4.977 45.979,4.977 C47.368,5 48.793,4.977 50.251,4.909 C50.479,4.818 50.707,4.511 50.935,3.986 L50.935,3.986 Z M50.217,6.721 C50.581,6.151 50.479,5.866 49.909,5.866 L46.013,5.866 C45.443,5.866 45.158,6.163 45.158,6.755 C45.158,7.393 45.432,7.712 45.979,7.712 C47.141,7.735 48.337,7.712 49.567,7.644 C49.773,7.598 49.989,7.29 50.217,6.721 L50.217,6.721 Z M52.131,9.694 C52.564,8.965 52.495,8.601 51.926,8.601 L46.013,8.601 C45.443,8.601 45.158,8.874 45.158,9.421 C45.158,9.991 45.432,10.275 45.979,10.275 L50.798,10.275 C51.459,10.48 51.903,10.287 52.131,9.694 L52.131,9.694 Z M59.035,22.033 C59.217,21.304 59.422,20.928 59.65,20.905 C60.22,21.065 60.79,21.27 61.359,21.521 C62.271,21.977 62.863,22.398 63.137,22.785 C63.228,23.059 63.045,23.241 62.59,23.332 C62.202,23.195 61.815,23.515 61.428,24.289 C60.721,25.429 59.833,26.568 58.762,27.707 C58.147,28.368 58.181,28.675 58.864,28.63 C60.505,28.47 62.18,28.265 63.889,28.015 C64.436,27.923 64.481,27.536 64.025,26.852 L63.103,25.827 C62.419,25.394 62.088,25.121 62.111,25.007 C62.202,24.848 62.59,24.802 63.273,24.87 C65.278,25.326 67.021,26.329 68.503,27.878 C69.187,28.652 69.426,29.564 69.221,30.612 C69.016,31.523 68.491,31.991 67.648,32.014 C66.874,32.104 66.281,31.694 65.871,30.783 L65.529,29.621 C65.301,29.051 64.846,28.857 64.162,29.04 C61.291,29.974 58.42,30.863 55.549,31.706 C55.093,31.865 54.774,32.048 54.592,32.253 C54.432,32.48 54.307,32.606 54.216,32.629 C54.102,32.629 53.84,32.287 53.43,31.604 L52.951,30.236 C52.769,29.416 53.042,28.983 53.772,28.938 C54.204,28.892 54.671,28.88 55.173,28.903 C55.72,28.88 56.221,28.527 56.677,27.844 C57.725,25.998 58.511,24.061 59.035,22.033 L59.035,22.033 Z M62.214,0.91 C62.738,0.204 63.33,-0.024 63.991,0.227 C64.766,0.455 65.598,0.865 66.486,1.457 C66.782,1.867 66.623,2.141 66.008,2.277 C65.825,2.255 65.552,2.357 65.188,2.585 C62.476,4.636 59.399,6.06 55.959,6.857 C55.275,6.972 54.888,6.983 54.797,6.892 C54.842,6.55 55.036,6.391 55.378,6.413 C58.066,5.114 60.345,3.28 62.214,0.91 L62.214,0.91 Z M65.324,9.216 C65.848,8.578 66.452,8.418 67.136,8.737 C67.865,9.057 68.594,9.455 69.323,9.934 C69.779,10.503 69.653,10.811 68.947,10.856 C68.788,10.856 68.48,10.971 68.024,11.198 C64.697,13.5 61.052,15.072 57.087,15.915 C56.13,16.052 55.731,16.018 55.891,15.812 C56.027,15.676 56.244,15.551 56.54,15.436 C59.867,14.184 62.795,12.11 65.324,9.216 L65.324,9.216 Z M63.308,16.154 C63.763,15.835 64.253,15.767 64.777,15.949 C65.461,16.382 65.814,16.667 65.837,16.804 C65.746,17.282 65.393,17.624 64.777,17.829 C64.731,17.943 64.868,18.342 65.188,19.025 C66.327,20.484 67.648,21.315 69.152,21.521 C69.563,21.543 69.973,21.646 70.383,21.828 C70.428,21.919 70.132,22.284 69.494,22.922 C69.198,23.378 68.947,23.868 68.742,24.392 C68.583,25.144 68.07,25.292 67.204,24.836 C65.29,23.287 64.116,21.054 63.684,18.137 C63.638,17.886 63.581,17.704 63.513,17.59 C63.421,17.431 63.057,17.385 62.419,17.453 C62.351,17.499 62.248,17.51 62.111,17.487 C61.268,17.624 60.778,17.442 60.642,16.94 C60.55,16.485 60.892,16.269 61.667,16.291 C61.804,16.337 61.94,16.348 62.077,16.325 C62.692,16.394 63.103,16.337 63.308,16.154 L63.308,16.154 Z" id="Fill-19" sketch:type="MSShapeGroup"></path>
            <path d="M101.826,1.867 C102.623,0.819 103.193,0.147 103.535,-0.149 C103.945,-0.195 104.583,0.17 105.449,0.944 C106.543,1.833 107.18,2.631 107.363,3.337 C107.272,3.474 106.861,3.542 106.132,3.542 L94.477,3.542 C93.93,3.542 93.452,3.884 93.042,4.567 C92.335,5.866 91.458,7.12 90.41,8.327 C89.863,9.011 89.863,9.352 90.41,9.352 L100.253,9.352 C100.937,9.626 101.621,9.216 102.304,8.122 C102.623,7.667 103.079,7.621 103.671,7.985 C105.335,8.51 106.406,9.262 106.884,10.241 C106.77,10.538 106.428,10.8 105.859,11.027 C105.745,11.142 105.688,11.46 105.688,11.984 L105.688,29.86 C105.688,30.544 105.654,30.988 105.585,31.193 C104.856,32.059 103.899,32.333 102.714,32.014 C102.122,31.786 101.905,31.284 102.065,30.51 C102.065,29.849 101.792,29.519 101.245,29.519 L82.617,29.519 C82.047,29.519 81.762,29.792 81.762,30.339 C81.967,31.638 81.455,32.39 80.224,32.595 C78.697,32.914 78.002,32.275 78.139,30.681 L78.139,9.147 C78.139,8.464 78.185,8.111 78.276,8.088 C78.686,8.111 79.096,8.213 79.506,8.396 L80.874,8.942 C81.489,9.216 82.013,9.352 82.446,9.352 L87.778,9.352 C88.325,9.352 88.667,9.011 88.803,8.327 C89.008,7.006 89.168,5.684 89.282,4.362 C89.327,3.815 89.077,3.542 88.53,3.542 L78.891,3.542 L77.763,3.747 C77.011,3.838 76.578,3.69 76.464,3.303 L76.294,2.517 C76.339,2.426 76.704,2.414 77.387,2.482 C77.82,2.505 78.287,2.563 78.789,2.653 L100.322,2.653 C100.891,2.653 101.393,2.392 101.826,1.867 L101.826,1.867 Z M86.001,11.13 C86.001,10.538 85.738,10.241 85.214,10.241 C84.121,10.219 83.015,10.23 81.899,10.275 C81.808,10.344 81.762,10.651 81.762,11.198 L81.762,27.741 C81.762,28.31 82.036,28.596 82.583,28.596 L85.146,28.596 C85.715,28.596 86.001,28.322 86.001,27.775 L86.001,11.13 L86.001,11.13 Z M94.34,11.13 C94.34,10.538 94.078,10.241 93.554,10.241 L90.341,10.241 C89.772,10.241 89.487,10.515 89.487,11.061 L89.487,14.616 C89.487,15.186 89.76,15.471 90.307,15.471 L93.486,15.471 C94.055,15.471 94.34,15.197 94.34,14.65 L94.34,11.13 L94.34,11.13 Z M94.34,17.282 C94.34,16.69 94.078,16.394 93.554,16.394 L90.341,16.394 C89.772,16.394 89.487,16.667 89.487,17.214 L89.487,21.179 C89.487,21.748 89.76,22.033 90.307,22.033 L93.486,22.033 C94.055,22.033 94.34,21.76 94.34,21.213 L94.34,17.282 L94.34,17.282 Z M94.34,23.81 C94.34,23.241 94.067,22.956 93.52,22.956 L90.341,22.956 C89.772,22.956 89.487,23.229 89.487,23.776 L89.487,27.741 C89.487,28.31 89.76,28.596 90.307,28.596 L93.486,28.596 C94.055,28.596 94.34,28.322 94.34,27.775 L94.34,23.81 L94.34,23.81 Z M101.997,10.378 C101.905,10.287 101.609,10.241 101.108,10.241 L98.681,10.241 C98.111,10.241 97.827,10.515 97.827,11.061 L97.827,27.741 C97.827,28.31 98.1,28.596 98.647,28.596 L101.21,28.596 C101.78,28.596 102.065,28.322 102.065,27.775 L102.065,11.267 C102.065,10.72 102.042,10.424 101.997,10.378 L101.997,10.378 Z" id="Fill-20" sketch:type="MSShapeGroup"></path>
            <path d="M120.656,0.944 C121.248,0.261 121.613,-0.081 121.75,-0.081 C123.322,0.489 124.586,1.298 125.544,2.346 C125.703,2.71 125.498,3.029 124.928,3.303 C124.13,3.622 123.835,4.135 124.04,4.841 L124.04,29.587 C123.971,31.159 122.991,32.185 121.1,32.663 C120.234,32.731 119.79,32.401 119.767,31.672 C119.699,30.942 119.095,30.271 117.956,29.655 L117.853,29.382 C117.853,29.29 118.195,29.165 118.878,29.006 C120.246,28.96 120.804,28.368 120.553,27.228 L120.553,20.393 C120.553,19.823 120.28,19.538 119.733,19.538 L118.776,19.538 C118.229,19.538 117.921,19.88 117.853,20.563 C117.625,24.733 116.452,28.493 114.333,31.843 C113.808,32.549 113.501,32.914 113.41,32.936 C113.295,32.891 113.273,32.526 113.341,31.843 C114.139,27.103 114.538,21.543 114.538,15.163 L114.538,1.115 C114.538,0.363 114.982,0.158 115.871,0.5 C116.326,0.705 116.782,0.944 117.238,1.218 C117.739,1.674 118.616,1.81 119.87,1.628 C120.075,1.628 120.336,1.4 120.656,0.944 L120.656,0.944 Z M120.553,12.121 C120.553,11.506 120.302,11.198 119.801,11.198 L118.878,11.198 C118.309,11.198 118.024,11.472 118.024,12.019 L118.024,15.881 L117.99,17.59 C117.967,18.296 118.229,18.649 118.776,18.649 L119.699,18.649 C120.268,18.649 120.553,18.376 120.553,17.829 L120.553,12.121 L120.553,12.121 Z M120.451,2.688 C120.359,2.619 120.041,2.585 119.494,2.585 L118.844,2.585 C118.297,2.699 118.024,3.029 118.024,3.576 L118.024,9.421 C118.024,9.991 118.297,10.275 118.844,10.275 L119.699,10.275 C120.268,10.275 120.553,10.002 120.553,9.455 L120.553,3.644 C120.553,3.098 120.519,2.779 120.451,2.688 L120.451,2.688 Z M132.585,20.529 C132.585,19.8 132.949,19.447 133.678,19.47 C135.136,19.561 136.139,19.698 136.686,19.88 C137.301,20.131 137.324,20.473 136.754,20.905 C136.413,21.11 136.208,21.486 136.139,22.033 C136.071,22.603 136.31,22.888 136.857,22.888 L138.737,22.888 C139.284,22.888 139.785,22.614 140.241,22.067 C140.491,21.703 140.788,21.327 141.129,20.939 C141.676,19.892 142.326,19.766 143.078,20.563 C143.647,20.928 144.319,21.532 145.094,22.375 C145.573,23.195 145.721,23.64 145.539,23.708 C145.447,23.754 145.06,23.776 144.377,23.776 L136.925,23.776 C136.356,23.776 136.287,24.13 136.72,24.836 C139.181,27.866 142.2,29.131 145.778,28.63 C146.188,28.607 146.427,28.732 146.496,29.006 C146.473,29.12 146.12,29.325 145.436,29.621 C144.547,29.963 143.75,30.726 143.044,31.911 C142.747,32.595 142.542,32.948 142.428,32.971 C139.261,31.854 137.062,29.655 135.832,26.374 C135.672,25.713 135.558,25.406 135.49,25.451 C135.398,25.542 135.296,25.759 135.182,26.101 C134.521,28.105 133.097,29.746 130.91,31.022 C128.95,32.048 126.899,32.663 124.757,32.868 C123.869,32.936 123.401,32.902 123.356,32.766 C123.356,32.651 123.732,32.458 124.484,32.185 C126.626,31.546 128.494,30.407 130.089,28.767 C131.023,27.581 131.696,26.226 132.106,24.699 C132.265,24.084 132.083,23.776 131.559,23.776 L127.389,23.776 L126.295,23.947 C125.566,24.061 125.122,23.902 124.962,23.469 C124.826,22.899 125.168,22.648 125.988,22.717 C126.398,22.74 126.842,22.797 127.321,22.888 L131.593,22.888 C132.14,22.888 132.459,22.546 132.55,21.862 L132.585,20.529 L132.585,20.529 Z M129.44,0.739 C129.44,0.01 129.793,-0.332 130.5,-0.286 C131.252,-0.195 132.038,-0.069 132.858,0.09 C133.063,0.136 133.279,0.215 133.507,0.329 C133.712,0.534 133.69,0.819 133.439,1.184 C133.097,1.617 132.926,2.129 132.926,2.722 C132.926,3.383 133.2,3.713 133.747,3.713 L135.387,3.713 C135.957,3.713 136.242,3.439 136.242,2.893 L136.242,0.842 C136.242,0.113 136.595,-0.218 137.301,-0.149 C138.896,-0.013 139.99,0.272 140.583,0.705 C140.605,0.819 140.468,1.047 140.172,1.389 C139.876,1.776 139.728,2.243 139.728,2.79 C139.728,3.405 139.899,3.713 140.241,3.713 C140.673,3.873 141.027,3.679 141.3,3.132 C141.551,2.676 141.847,2.221 142.189,1.765 C142.508,1.4 142.724,1.195 142.838,1.149 C143.978,1.81 144.889,2.79 145.573,4.089 C145.436,4.636 144.98,4.818 144.206,4.636 L140.583,4.636 C140.013,4.636 139.728,4.977 139.728,5.661 C139.933,7.438 139.135,8.134 137.335,7.746 C136.378,7.541 136.014,6.88 136.242,5.764 C136.242,5.012 135.968,4.636 135.421,4.636 L133.781,4.636 C133.211,4.636 132.926,4.977 132.926,5.661 C133.131,7.438 132.334,8.134 130.534,7.746 C129.577,7.541 129.212,6.892 129.44,5.798 C129.44,5.023 129.167,4.636 128.62,4.636 C128.073,4.636 127.07,4.738 125.612,4.943 C125.521,4.875 125.441,4.647 125.373,4.26 C125.281,3.759 125.612,3.531 126.364,3.576 L128.585,3.713 C129.155,3.713 129.44,3.439 129.44,2.893 L129.44,0.739 L129.44,0.739 Z M126.706,8.806 C126.706,8.031 127.047,7.735 127.731,7.917 C128.3,8.077 128.87,8.282 129.44,8.532 C129.941,8.783 130.454,8.908 130.978,8.908 L138.361,8.908 C138.908,8.908 139.398,8.715 139.831,8.327 C140.241,7.894 140.788,7.803 141.471,8.054 C142.952,8.692 143.886,9.33 144.274,9.968 C144.228,10.241 143.909,10.526 143.317,10.822 C143.249,10.959 143.214,11.301 143.214,11.848 L143.214,17.59 C143.442,18.684 143.078,19.367 142.121,19.641 C140.981,20.005 140.207,19.834 139.796,19.128 C139.728,18.946 139.42,18.854 138.874,18.854 L131.046,18.854 C130.5,18.854 130.203,18.98 130.158,19.23 C129.975,19.914 129.52,20.29 128.791,20.358 C127.355,20.723 126.66,20.324 126.706,19.162 L126.706,8.806 L126.706,8.806 Z M139.694,10.72 C139.694,10.127 139.398,9.831 138.805,9.831 L131.354,9.831 C130.374,9.603 129.987,9.922 130.192,10.788 L130.192,12.736 C130.192,13.306 130.465,13.591 131.012,13.591 L138.839,13.591 C139.409,13.591 139.694,13.317 139.694,12.77 L139.694,10.72 L139.694,10.72 Z M139.694,15.368 C139.694,14.776 139.432,14.479 138.908,14.479 L131.046,14.479 C130.477,14.479 130.192,14.753 130.192,15.3 L130.192,17.111 C130.192,17.681 130.465,17.966 131.012,17.966 L138.839,17.966 C139.409,17.966 139.694,17.692 139.694,17.146 L139.694,15.368 L139.694,15.368 Z" id="Fill-21" sketch:type="MSShapeGroup"></path>
        </g>
    </g>
</svg>