<?xml version="1.0" encoding="UTF-8" standalone="no"?>
<svg width="184px" height="35px" viewBox="0 0 184 35" version="1.1" xmlns="http://www.w3.org/2000/svg" xmlns:xlink="http://www.w3.org/1999/xlink" xmlns:sketch="http://www.bohemiancoding.com/sketch/ns">
    <!-- Generator: Sketch 3.0.4 (8053) - http://www.bohemiancoding.com/sketch -->
    <title>h1_perfume</title>
    <desc>Created with Sketch.</desc>
    <defs></defs>
    <g id="Page-1" stroke="none" stroke-width="1" fill="none" fill-rule="evenodd" sketch:type="MSPage">
        <g id="h1_perfume" sketch:type="MSLayerGroup" transform="translate(1.000000, 1.000000)" fill="#000000">
            <path d="M4.649,0.294 C4.49,-0.412 4.832,-0.617 5.675,-0.321 C6.449,-0.275 7.224,-0.185 7.999,-0.048 C8.455,-0.024 8.865,0.101 9.229,0.328 C9.662,0.83 9.412,1.24 8.478,1.559 C8.409,1.65 8.375,1.969 8.375,2.516 L8.375,7.369 C8.375,7.916 8.432,8.201 8.546,8.224 C8.66,8.179 8.944,7.813 9.4,7.13 C9.719,6.606 10.084,6.116 10.494,5.66 C10.768,5.501 11.178,5.706 11.725,6.275 C12.203,6.663 12.602,7.107 12.921,7.608 C13.422,8.179 13.616,8.577 13.502,8.805 C13.365,9.146 12.921,9.261 12.169,9.146 L9.229,9.146 C8.66,9.146 8.375,9.42 8.375,9.967 L8.375,14.991 C8.375,15.538 8.717,15.675 9.4,15.401 C10.198,15.06 10.995,14.673 11.793,14.239 C12.499,13.897 12.887,13.773 12.955,13.863 C12.955,13.977 12.579,14.444 11.827,15.265 C10.961,16.085 10.095,16.803 9.229,17.418 C8.66,17.852 8.375,18.33 8.375,18.853 L8.375,29.757 C7.874,31.512 6.609,32.503 4.581,32.731 C3.829,32.731 3.373,32.309 3.214,31.466 C2.735,30.463 1.892,29.791 0.685,29.449 C0.593,29.335 0.559,29.198 0.582,29.039 C0.627,28.856 1.015,28.788 1.744,28.834 L3.487,28.868 C4.467,28.868 4.855,28.367 4.649,27.364 L4.649,21.28 C4.649,20.711 4.296,20.631 3.59,21.041 C3.134,21.269 2.815,21.497 2.633,21.725 C2.154,22.568 1.824,22.955 1.642,22.887 C1.3,22.727 1.015,22.34 0.787,21.725 C0.399,21.041 0.092,20.357 -0.136,19.674 C-0.455,18.809 -0.272,18.307 0.411,18.17 L3.829,17.418 C4.376,17.281 4.649,16.94 4.649,16.393 L4.649,10.001 C4.649,9.432 4.376,9.146 3.829,9.146 C2.849,9.102 1.915,9.158 1.026,9.317 C0.343,9.363 -0.045,9.158 -0.136,8.702 C-0.204,8.247 0.104,8.042 0.787,8.087 C1.79,8.269 2.792,8.326 3.795,8.258 C4.364,8.258 4.649,7.984 4.649,7.437 L4.649,0.294 L4.649,0.294 Z M14.083,16.29 C14.083,15.561 14.447,15.299 15.177,15.504 C15.929,15.732 16.715,16.04 17.535,16.427 C18.082,16.7 18.606,16.837 19.107,16.837 L24.576,16.837 C25.282,16.974 25.773,16.803 26.046,16.324 C26.752,15.527 27.47,15.23 28.199,15.435 C29.156,15.823 29.988,16.268 30.694,16.769 C31.72,17.452 31.697,18.011 30.626,18.443 C30.33,18.558 30.182,18.877 30.182,19.4 L30.182,30.304 C30.432,31.215 30.09,31.944 29.156,32.491 C28.564,32.742 27.88,32.776 27.106,32.594 C26.444,32.32 26.205,31.739 26.388,30.851 C26.388,30.144 26.114,29.791 25.567,29.791 L18.697,29.791 C18.127,29.791 17.843,30.065 17.843,30.611 C17.797,32.161 16.942,32.845 15.279,32.662 C14.276,32.525 13.878,31.888 14.083,30.748 L14.083,16.29 L14.083,16.29 Z M14.186,0.909 C14.186,0.135 14.539,-0.253 15.245,-0.253 C16.954,-0.139 18.207,0.157 19.005,0.636 C19.027,0.727 18.879,0.989 18.561,1.422 C18.173,1.878 17.98,2.379 17.98,2.926 L17.98,4.942 C17.98,5.489 18.321,5.649 19.005,5.421 C21.99,4.351 24.382,3.062 26.183,1.559 C27.025,0.762 27.789,0.602 28.473,1.08 L29.669,2.037 C30.626,2.721 30.865,3.233 30.387,3.575 C30.25,3.621 30.045,3.621 29.772,3.575 C29.361,3.575 28.905,3.712 28.404,3.985 C25.51,5.284 22.343,6.139 18.902,6.549 C18.287,6.641 17.98,6.936 17.98,7.437 L17.98,8.805 C17.774,9.922 18.264,10.594 19.449,10.821 C21.454,10.913 23.494,10.947 25.567,10.924 C26.137,10.901 26.741,10.833 27.379,10.719 C28.199,10.696 28.746,10.138 29.02,9.044 L29.669,6.856 C29.76,6.766 29.885,6.72 30.045,6.72 C30.227,6.812 30.33,7.222 30.353,7.95 C30.421,8.885 30.626,9.637 30.968,10.206 C31.264,10.503 31.594,10.787 31.959,11.06 C32.574,12.109 32.244,12.93 30.968,13.521 C29.601,14.137 27.789,14.434 25.533,14.41 L21.432,14.41 C19.016,14.434 17.148,14.102 15.826,13.419 C14.869,12.781 14.322,11.881 14.186,10.719 L14.186,0.909 L14.186,0.909 Z M18.902,17.76 C18.196,17.852 17.843,18.159 17.843,18.683 L17.843,21.861 C17.843,22.432 18.116,22.716 18.663,22.716 L25.533,22.716 C26.103,22.716 26.388,22.442 26.388,21.895 L26.388,18.683 C26.388,18.067 26.091,17.76 25.499,17.76 L18.902,17.76 L18.902,17.76 Z M26.388,24.493 C26.388,23.924 26.114,23.639 25.567,23.639 L18.697,23.639 C18.127,23.639 17.843,23.912 17.843,24.459 L17.843,28.048 C17.843,28.617 18.116,28.902 18.663,28.902 L25.533,28.902 C26.103,28.902 26.388,28.629 26.388,28.082 L26.388,24.493 L26.388,24.493 Z" id="Fill-63" sketch:type="MSShapeGroup"></path>
            <path d="M44.363,6.31 C44.568,5.513 45.104,5.227 45.97,5.455 L47.337,5.968 C48.157,6.424 48.556,6.731 48.533,6.891 C48.465,7.278 48.26,7.449 47.918,7.403 C47.53,7.54 47.246,7.859 47.064,8.36 C46.083,10.411 44.693,12.371 42.894,14.239 C42.369,14.786 42.449,15.049 43.133,15.025 L45.286,14.82 C45.81,14.775 45.878,14.376 45.491,13.624 C45.263,13.328 45.104,13.089 45.013,12.906 C44.99,12.656 45.366,12.644 46.141,12.872 C47.143,13.214 47.975,13.738 48.636,14.444 C49.57,15.493 49.866,16.404 49.524,17.179 C49.479,17.703 49.16,18.102 48.567,18.375 C47.314,18.604 46.619,18.057 46.482,16.734 C46.368,16.187 46.141,15.972 45.799,16.085 C45.411,16.245 45.218,16.598 45.218,17.144 L45.218,31.602 C44.603,32.901 43.577,33.163 42.142,32.389 C41.709,32.093 41.561,31.534 41.697,30.714 L41.697,23.058 C41.697,22.511 41.629,22.261 41.492,22.306 C41.173,22.488 40.957,22.852 40.843,23.399 C40.023,25.884 38.758,28.104 37.049,30.065 C36.821,30.155 36.798,29.745 36.981,28.834 C37.55,26.646 37.949,24.368 38.177,21.998 C38.199,21.109 38.564,20.699 39.271,20.768 C39.794,20.768 40.318,20.848 40.843,21.007 C41.412,21.189 41.697,21.007 41.697,20.46 L41.697,18.58 C41.697,18.033 41.356,17.852 40.672,18.033 C40.33,18.125 39.988,18.25 39.647,18.409 C39.396,18.523 39.19,18.694 39.031,18.922 C38.872,19.173 38.735,19.31 38.621,19.332 C38.439,19.355 38.108,18.956 37.63,18.136 C37.379,17.544 37.163,16.94 36.981,16.324 C36.844,15.55 37.151,15.185 37.903,15.23 C38.45,15.254 38.997,15.242 39.544,15.196 C40.228,15.196 40.786,14.854 41.219,14.171 C42.449,12.144 43.497,9.522 44.363,6.31 L44.363,6.31 Z M41.561,0.772 C41.766,-0.024 41.925,-0.446 42.039,-0.492 C42.654,-0.378 43.736,-0.024 45.286,0.567 C45.719,0.75 45.936,0.977 45.936,1.251 C45.821,1.57 45.628,1.753 45.355,1.798 C45.081,1.775 44.762,2.083 44.398,2.721 C43.736,3.655 43.03,4.498 42.278,5.25 C41.731,5.774 41.64,6.173 42.005,6.446 C42.916,7.335 43.144,8.326 42.689,9.42 C42.301,10.286 41.595,10.571 40.569,10.274 C39.771,9.773 39.339,8.999 39.271,7.95 C39.088,7.176 38.735,6.492 38.211,5.899 C37.55,5.284 37.22,4.932 37.22,4.84 C37.311,4.727 37.698,4.681 38.382,4.703 C38.701,4.749 39.054,4.84 39.441,4.977 C40.057,5.205 40.467,5.091 40.672,4.635 C41.196,3.062 41.492,1.775 41.561,0.772 L41.561,0.772 Z M52.84,1.012 C52.908,0.283 53.295,-0.059 54.002,-0.014 C54.822,0.032 55.643,0.112 56.463,0.226 C57.01,0.317 57.34,0.545 57.454,0.909 C57.431,1.183 57.192,1.377 56.736,1.49 C56.531,1.627 56.349,1.878 56.19,2.242 C56.075,2.676 56.28,2.892 56.805,2.892 L59.505,2.892 C60.189,3.12 60.975,2.676 61.863,1.559 C62.159,1.445 62.558,1.57 63.06,1.935 C63.606,2.254 64.29,2.767 65.11,3.473 C65.634,3.997 65.566,4.385 64.905,4.635 C64.449,4.727 64.188,5.102 64.119,5.763 C63.572,7.358 63.06,8.953 62.581,10.548 C62.33,11.277 62.364,11.642 62.684,11.642 C63.071,11.778 63.424,11.607 63.743,11.129 L64.598,10.001 C65.235,9.317 65.976,9.227 66.819,9.727 C67.913,10.571 68.642,11.414 69.007,12.257 C68.756,12.576 68.277,12.679 67.571,12.564 L62.444,12.564 C61.898,12.564 61.635,12.906 61.658,13.59 C61.84,15.299 62.171,16.974 62.649,18.614 C62.854,19.207 63.208,19.185 63.709,18.546 C64.415,17.544 64.996,16.416 65.452,15.162 C65.748,14.479 66.238,14.263 66.922,14.513 C67.491,14.764 68.061,15.094 68.631,15.504 C69.086,15.823 69.371,16.074 69.485,16.256 C69.668,16.553 69.485,16.758 68.939,16.871 C68.619,16.894 68.335,16.997 68.084,17.179 C66.876,18.25 65.532,19.093 64.051,19.708 C63.436,19.937 63.265,20.357 63.538,20.973 C64.677,23.525 66.5,25.484 69.007,26.852 C69.827,27.284 69.85,27.638 69.075,27.911 C68.187,28.162 67.435,28.731 66.819,29.62 C66.318,30.44 65.999,30.816 65.862,30.748 C64.974,29.95 64.278,29.073 63.777,28.116 C62.228,25.2 61.316,21.554 61.043,17.179 C60.906,15.926 60.849,14.673 60.872,13.419 C60.872,12.872 60.77,12.588 60.565,12.564 C60.382,12.564 59.96,12.918 59.3,13.624 C58.844,14.126 58.388,14.536 57.933,14.854 C57.294,15.356 57.294,15.88 57.933,16.427 C59.437,17.771 60.45,19.446 60.975,21.451 C61.544,23.343 61.624,25.644 61.214,28.355 C61.146,29.769 60.53,31.01 59.368,32.081 C58.662,32.469 57.864,32.719 56.976,32.833 C56.201,32.855 55.814,32.696 55.814,32.354 C55.927,31.488 55.46,30.668 54.412,29.894 C53.751,29.369 53.432,29.061 53.455,28.971 C53.523,28.743 53.785,28.697 54.241,28.834 C54.856,28.902 55.506,28.925 56.19,28.902 C56.85,28.856 57.283,28.629 57.488,28.219 C57.739,27.786 57.91,27.137 58.001,26.271 C58.069,25.655 57.762,25.587 57.078,26.065 C54.116,27.865 51.21,28.982 48.362,29.415 C48.111,29.393 48.089,29.232 48.294,28.937 C51.324,27.478 54.275,25.154 57.147,21.964 C57.716,21.28 57.978,20.757 57.933,20.392 C57.841,19.937 57.534,19.891 57.01,20.255 C55.21,21.44 53.193,22.317 50.96,22.887 C50.413,23.023 50.208,23.274 50.345,23.639 C50.687,24.459 50.481,25.325 49.729,26.236 C48.636,26.761 47.815,26.465 47.269,25.348 C47.177,24.983 47.143,24.346 47.166,23.434 C47.075,22.659 46.893,21.976 46.619,21.383 C46.049,20.562 45.81,20.118 45.901,20.05 C45.97,19.959 46.425,20.061 47.269,20.357 C48.157,20.836 48.773,21.269 49.114,21.656 C49.524,22.227 50.071,22.317 50.755,21.93 C52.601,20.836 54.264,19.424 55.745,17.691 C56.269,17.008 56.497,16.609 56.429,16.495 C56.201,16.085 55.802,16.131 55.232,16.632 C53.478,17.589 51.723,18.136 49.969,18.273 C49.832,18.204 49.775,18.125 49.798,18.033 C49.843,17.92 50.208,17.681 50.892,17.315 C52.441,16.404 53.899,15.174 55.267,13.624 C55.768,12.918 55.745,12.564 55.198,12.564 L50.618,12.564 L49.524,12.769 C48.795,12.884 48.351,12.713 48.191,12.257 C48.055,11.687 48.385,11.436 49.183,11.505 C49.593,11.505 50.037,11.551 50.516,11.642 L57.728,11.642 C58.274,11.642 58.65,11.3 58.856,10.616 L59.197,9.42 C59.334,8.873 59.129,8.6 58.582,8.6 L55.164,8.6 C54.617,8.6 54.15,8.953 53.763,9.659 C53.102,10.389 52.122,10.445 50.823,9.83 C50.459,9.557 50.322,9.249 50.413,8.907 C51.712,5.945 52.521,3.313 52.84,1.012 L52.84,1.012 Z M56.805,3.815 C56.121,3.883 55.677,4.282 55.472,5.011 L54.925,6.754 C54.72,7.393 54.856,7.711 55.335,7.711 L58.856,7.711 C59.402,7.711 59.79,7.369 60.018,6.685 C60.177,6.002 60.371,5.318 60.599,4.635 C60.712,4.088 60.496,3.815 59.949,3.815 L56.805,3.815 L56.805,3.815 Z" id="Fill-64" sketch:type="MSShapeGroup"></path>
            <path d="M80.113,0.567 C80.272,-0.139 80.694,-0.458 81.377,-0.39 C82.129,-0.298 82.916,-0.127 83.736,0.123 C84.419,0.511 84.784,0.762 84.83,0.875 C84.92,1.148 84.75,1.377 84.317,1.559 C83.815,1.695 83.542,2.071 83.497,2.687 C82.904,4.601 82.186,6.424 81.343,8.155 C80.956,8.862 81.104,9.386 81.788,9.727 C82.745,10.093 82.927,10.503 82.335,10.958 C81.97,11.3 81.788,11.733 81.788,12.257 L81.788,31.876 C81.491,32.855 80.694,33.243 79.395,33.038 C78.233,32.901 77.766,32.184 77.994,30.885 L77.994,14.547 C77.994,13.955 77.754,13.932 77.276,14.479 C76.569,15.254 75.852,15.982 75.123,16.666 C75.008,16.666 74.918,16.609 74.849,16.495 C77.743,11.095 79.498,5.786 80.113,0.567 L80.113,0.567 Z M83.36,7.164 C83.36,6.39 83.69,6.025 84.351,6.07 L86.744,6.412 C87.427,6.685 87.815,6.891 87.906,7.027 C88.02,7.324 87.86,7.586 87.427,7.813 C86.903,7.95 86.71,8.372 86.846,9.078 L86.846,26.749 C87.028,28.549 86.117,29.222 84.112,28.766 C83.405,28.401 83.155,27.763 83.36,26.852 L83.36,7.164 L83.36,7.164 Z M91.563,0.636 C91.654,-0.07 92.053,-0.412 92.759,-0.39 C94.422,-0.23 95.642,0.066 96.417,0.499 C96.758,1.046 96.553,1.377 95.801,1.49 C95.55,1.787 95.22,2.356 94.81,3.199 C94.582,3.746 94.742,4.019 95.289,4.019 L99.185,4.019 C99.914,4.293 100.552,3.883 101.099,2.789 L101.646,2.105 C102.238,1.377 102.591,1.001 102.706,0.977 C102.842,0.977 103.104,1.08 103.492,1.285 C104.517,1.969 105.417,2.744 106.192,3.609 C106.807,4.18 106.966,4.578 106.67,4.806 C106.534,4.874 106.124,4.908 105.44,4.908 C104.733,4.908 104.164,5.25 103.731,5.934 C102.637,7.666 101.544,9.124 100.45,10.309 C99.903,10.901 99.971,11.3 100.655,11.505 C102.432,12.007 104.346,12.337 106.397,12.496 C107.286,12.542 107.764,12.622 107.833,12.735 C107.878,12.872 107.547,13.111 106.841,13.453 C105.588,14.114 104.847,14.878 104.62,15.743 C104.62,16.678 104.118,16.883 103.116,16.358 C101.544,15.926 99.846,15.094 98.023,13.863 C97.476,13.431 96.861,13.431 96.177,13.863 C93.557,15.527 91.085,16.644 88.76,17.213 C87.644,17.35 87.507,17.19 88.35,16.734 C90.674,15.572 92.725,14.183 94.502,12.564 C95.163,11.949 95.209,11.289 94.639,10.582 C93.887,9.557 93.329,8.577 92.964,7.643 C92.759,7.096 92.372,7.164 91.802,7.848 C90.936,8.896 89.797,9.853 88.384,10.719 C87.723,11.084 87.416,11.141 87.461,10.89 C88.168,9.888 88.829,8.873 89.444,7.848 C90.606,5.66 91.312,3.257 91.563,0.636 L91.563,0.636 Z M102.706,23.194 L103.628,22.032 C103.742,22.01 104.152,22.227 104.859,22.682 L106.226,23.673 C106.705,23.97 107.058,24.311 107.286,24.698 C107.308,25.223 107.023,25.439 106.431,25.348 C106.089,25.188 105.531,25.439 104.756,26.1 C99.925,29.381 94.457,31.522 88.35,32.525 C87.735,32.776 87.439,32.708 87.461,32.32 C87.598,32.229 87.894,32.127 88.35,32.013 C93.728,30.394 98.513,27.455 102.706,23.194 L102.706,23.194 Z M98.843,19.469 C99.527,18.648 100.279,18.433 101.099,18.819 L102.466,19.64 C103.104,20.118 103.446,20.426 103.492,20.562 C103.446,20.95 103.218,21.121 102.808,21.075 C102.398,20.984 101.942,21.178 101.441,21.656 C97.613,24.163 93.739,25.758 89.82,26.441 C88.885,26.556 88.453,26.521 88.521,26.339 C88.635,26.202 89.045,26.009 89.752,25.758 C92.964,24.482 95.995,22.386 98.843,19.469 L98.843,19.469 Z M95.289,16.153 C95.79,15.47 96.382,15.276 97.066,15.572 C97.795,15.938 98.558,16.382 99.356,16.905 C99.606,17.339 99.401,17.589 98.741,17.657 C98.513,17.703 98.171,17.862 97.715,18.136 C95.368,19.595 92.748,20.552 89.854,21.007 C89.17,21.099 88.76,21.121 88.624,21.075 C88.601,20.938 88.931,20.711 89.615,20.392 C91.779,19.435 93.67,18.022 95.289,16.153 L95.289,16.153 Z M99.8,5.797 C100.074,5.205 99.948,4.908 99.424,4.908 L94.776,4.908 C94.229,4.908 93.853,5.034 93.648,5.284 C93.238,5.603 93.375,6.162 94.058,6.959 C94.582,7.825 95.334,8.611 96.314,9.317 C96.861,9.727 97.396,9.58 97.92,8.873 C98.9,7.529 99.527,6.504 99.8,5.797 L99.8,5.797 Z" id="Fill-65" sketch:type="MSShapeGroup"></path>
            <path d="M120.1,5.045 C120.669,4.043 121.205,3.78 121.707,4.259 C122.504,4.783 123.176,5.352 123.723,5.968 C124.429,6.812 124.737,7.301 124.646,7.437 C124.555,7.574 124.156,7.643 123.45,7.643 L114.905,7.643 L113.811,7.813 C113.082,7.928 112.637,7.769 112.478,7.335 C112.341,6.766 112.683,6.515 113.503,6.583 C114.369,6.72 115.839,6.766 117.913,6.72 C118.482,6.72 118.983,6.446 119.417,5.899 L120.1,5.045 L120.1,5.045 Z M112.991,20.631 C112.991,19.971 113.435,19.766 114.324,20.016 C114.779,20.152 115.235,20.323 115.691,20.528 C116.352,20.825 116.887,20.973 117.297,20.973 L117.981,20.973 C118.528,20.973 119.018,20.757 119.451,20.323 C119.906,19.868 120.476,19.731 121.16,19.913 C122.025,20.278 122.8,20.688 123.484,21.144 C124.236,21.531 124.441,21.964 124.099,22.442 L123.279,23.058 C123.21,23.194 123.176,23.536 123.176,24.083 L123.176,30.543 C123.495,31.819 122.903,32.548 121.399,32.731 C120.009,33.118 119.348,32.56 119.417,31.056 C119.417,30.486 119.143,30.201 118.596,30.201 L117.639,30.201 C117.069,30.201 116.785,30.418 116.785,30.851 C116.762,32.582 115.736,33.277 113.709,32.935 C113.047,32.731 112.808,32.161 112.991,31.227 L112.991,20.631 L112.991,20.631 Z M118.699,14.82 C119.223,13.841 119.758,13.556 120.305,13.966 C120.989,14.399 121.763,15.071 122.629,15.982 C123.108,16.689 123.301,17.1 123.21,17.213 C123.074,17.305 122.664,17.35 121.98,17.35 L115.862,17.35 L114.768,17.52 C114.039,17.657 113.572,17.395 113.367,16.734 L113.264,16.324 C113.31,16.233 113.674,16.222 114.358,16.29 C115.292,16.495 116.283,16.529 117.332,16.393 C117.422,16.348 117.582,16.187 117.81,15.914 L118.699,14.82 L118.699,14.82 Z M118.562,0.567 C119.131,-0.093 119.473,-0.446 119.587,-0.492 C119.724,-0.492 120.123,-0.264 120.784,0.191 C121.331,0.557 121.877,1.046 122.424,1.661 C122.948,2.391 123.188,2.801 123.142,2.892 C122.96,3.143 122.504,3.223 121.775,3.131 L115.862,3.131 L114.768,3.302 C114.039,3.416 113.606,3.257 113.469,2.823 C113.31,2.254 113.64,2.003 114.46,2.071 C115.098,2.163 115.736,2.208 116.375,2.208 C117.058,2.436 117.787,1.89 118.562,0.567 L118.562,0.567 Z M118.972,10.001 C119.496,9.067 120.02,8.782 120.544,9.146 C121.592,9.762 122.606,10.742 123.586,12.086 C123.586,12.223 123.541,12.349 123.45,12.462 C123.335,12.53 122.937,12.564 122.253,12.564 L115.862,12.564 L114.768,12.735 C114.039,12.85 113.606,12.69 113.469,12.257 C113.31,11.687 113.64,11.436 114.46,11.505 C115.235,11.597 116.01,11.642 116.785,11.642 C117.468,11.87 118.197,11.323 118.972,10.001 L118.972,10.001 Z M119.417,22.818 C119.417,22.181 119.131,21.861 118.562,21.861 L117.673,21.861 C117.081,21.861 116.785,22.146 116.785,22.716 L116.785,28.424 C116.785,28.993 117.058,29.278 117.605,29.278 L118.562,29.278 C119.131,29.278 119.417,29.005 119.417,28.458 L119.417,22.818 L119.417,22.818 Z M126.628,6.207 C126.811,5.479 127.266,5.262 127.996,5.558 C129.659,6.219 130.741,6.846 131.243,7.437 C131.334,7.757 131.163,7.94 130.73,7.984 C130.502,8.008 130.274,8.133 130.046,8.36 C129.841,8.634 130.023,8.77 130.593,8.77 L133.259,8.77 C133.806,8.77 134.17,8.406 134.353,7.677 L134.49,6.72 C134.581,6.036 134.683,5.672 134.797,5.626 C135.731,5.854 136.7,6.162 137.703,6.549 C138.545,6.822 138.762,7.198 138.352,7.677 L137.498,7.95 C136.723,8.497 136.689,8.77 137.395,8.77 L138.386,8.77 C138.979,8.77 139.434,8.509 139.753,7.984 C139.959,7.552 140.243,7.119 140.608,6.685 C140.904,6.481 141.303,6.595 141.804,7.027 C142.374,7.415 142.978,7.882 143.616,8.429 C144.276,9.09 144.55,9.477 144.436,9.591 C144.276,9.659 143.855,9.693 143.171,9.693 L138.455,9.693 C137.885,9.693 137.6,9.967 137.6,10.514 L137.6,11.231 C137.6,11.778 137.782,12.063 138.147,12.086 C138.511,11.995 138.876,11.631 139.241,10.992 C139.605,9.922 140.198,9.773 141.018,10.548 C141.474,10.821 141.929,11.175 142.385,11.607 C143.046,12.269 143.377,12.656 143.377,12.769 C143.354,12.906 142.966,12.975 142.214,12.975 L138.455,12.975 C137.885,12.975 137.6,13.248 137.6,13.795 L137.6,14.479 C137.6,15.025 137.657,15.322 137.771,15.367 C138.272,15.367 138.591,15.14 138.728,14.684 C138.933,14.297 139.184,13.897 139.48,13.487 C139.685,13.306 140.198,13.477 141.018,14 C142.157,14.844 142.852,15.47 143.103,15.88 C143.126,16.017 143.091,16.119 143.001,16.187 C141.497,16.256 139.981,16.279 138.455,16.256 C137.885,16.256 137.6,16.621 137.6,17.35 C137.6,18.125 137.874,18.512 138.42,18.512 L140.129,18.477 C140.403,18.318 140.676,17.931 140.95,17.315 C141.36,16.268 141.963,16.177 142.761,17.042 C144.06,17.977 144.812,18.694 145.017,19.195 C144.926,19.332 144.539,19.4 143.855,19.4 L130.388,19.4 C129.841,19.4 129.545,19.56 129.5,19.879 C129.066,20.859 128.178,21.212 126.834,20.938 C126.013,20.62 125.706,19.981 125.911,19.024 L125.911,13.932 C125.911,13.362 125.557,13.351 124.851,13.897 C124.19,14.353 123.803,14.593 123.689,14.615 C123.575,14.547 123.689,14.171 124.031,13.487 C125.489,10.867 126.355,8.44 126.628,6.207 L126.628,6.207 Z M137.395,21.656 C138.01,21.839 138.637,21.611 139.275,20.973 C139.959,20.654 140.642,20.802 141.326,21.417 C141.895,21.987 142.374,22.557 142.761,23.126 C143.126,23.673 143.001,23.992 142.385,24.083 C142.066,24.129 141.804,24.254 141.599,24.459 C140.87,25.416 139.924,26.385 138.762,27.364 C138.169,27.911 138.147,28.241 138.694,28.355 C140.471,28.675 142.294,28.811 144.163,28.766 C144.846,28.766 145.233,28.8 145.325,28.868 C145.37,28.982 145.063,29.29 144.402,29.791 C143.627,30.406 143.137,31.078 142.932,31.808 C142.727,32.491 142.579,32.855 142.488,32.901 C140.414,32.696 138.033,31.944 135.344,30.645 C134.797,30.35 134.159,30.35 133.43,30.645 C130.559,31.808 127.825,32.479 125.227,32.662 C124.315,32.708 123.837,32.662 123.792,32.525 C123.814,32.389 124.179,32.195 124.885,31.944 C127.232,31.192 129.442,30.224 131.516,29.039 C132.017,28.743 131.915,28.253 131.209,27.569 C130.001,26.248 129.203,24.847 128.816,23.365 C128.725,22.818 128.406,22.545 127.859,22.545 C127.357,22.568 126.856,22.625 126.355,22.716 C125.648,22.83 125.238,22.659 125.125,22.203 C125.033,21.725 125.33,21.485 126.013,21.485 C126.469,21.509 126.924,21.565 127.38,21.656 L137.395,21.656 L137.395,21.656 Z M128.713,0.67 C128.713,-0.105 129.044,-0.469 129.705,-0.424 C131.209,-0.264 132.302,-0.002 132.986,0.362 C133.054,0.454 132.963,0.682 132.712,1.046 C132.371,1.502 132.2,1.81 132.2,1.969 C132.2,2.22 132.473,2.345 133.02,2.345 L134.934,2.345 C135.503,2.345 135.789,2.071 135.789,1.524 L135.789,0.602 C135.789,-0.127 136.221,-0.458 137.087,-0.39 C138.409,-0.253 139.412,-0.014 140.095,0.328 C140.209,0.488 140.095,0.762 139.753,1.148 C139.434,1.514 139.275,1.775 139.275,1.935 C139.275,2.208 139.389,2.356 139.617,2.379 C139.936,2.31 140.391,1.935 140.984,1.251 C141.713,0.431 142.431,0.249 143.137,0.704 C144.14,1.502 144.778,2.254 145.051,2.96 C144.915,3.279 144.47,3.382 143.718,3.268 L140.129,3.268 C139.56,3.268 139.275,3.507 139.275,3.985 C139.502,5.079 138.91,5.684 137.498,5.797 C136.153,5.706 135.584,5.125 135.789,4.054 C135.789,3.53 135.515,3.268 134.968,3.268 L133.054,3.268 C132.484,3.268 132.2,3.53 132.2,4.054 C132.427,5.216 131.835,5.843 130.422,5.934 C129.078,5.865 128.508,5.262 128.713,4.122 C128.713,3.553 128.44,3.268 127.893,3.268 C127.323,3.268 126.663,3.325 125.911,3.438 C125.181,3.553 124.737,3.394 124.578,2.96 C124.418,2.391 124.737,2.14 125.535,2.208 C126.309,2.3 127.084,2.345 127.859,2.345 C128.428,2.345 128.713,2.071 128.713,1.524 L128.713,0.67 L128.713,0.67 Z M133.977,10.582 C133.977,9.99 133.715,9.693 133.191,9.693 L130.354,9.693 C129.784,9.693 129.5,9.967 129.5,10.514 L129.5,11.231 C129.5,11.802 129.773,12.086 130.32,12.086 L133.123,12.086 C133.692,12.086 133.977,11.813 133.977,11.266 L133.977,10.582 L133.977,10.582 Z M133.977,13.863 C133.977,13.271 133.715,12.975 133.191,12.975 L130.354,12.975 C129.784,12.975 129.5,13.248 129.5,13.795 L129.5,14.479 C129.5,15.049 129.773,15.333 130.32,15.333 L133.123,15.333 C133.692,15.333 133.977,15.06 133.977,14.513 L133.977,13.863 L133.977,13.863 Z M133.977,17.418 C133.977,16.644 133.704,16.256 133.157,16.256 L130.354,16.256 C129.784,16.256 129.5,16.621 129.5,17.35 C129.5,18.125 129.773,18.512 130.32,18.512 L133.123,18.512 C133.692,18.512 133.977,18.147 133.977,17.418 L133.977,17.418 Z M138.113,23.434 C138.5,22.842 138.42,22.545 137.874,22.545 L130.217,22.545 C129.648,22.545 129.636,22.91 130.183,23.639 C131.163,24.847 132.336,25.838 133.704,26.612 C134.296,26.908 134.911,26.795 135.549,26.271 C136.666,25.359 137.52,24.414 138.113,23.434 L138.113,23.434 Z" id="Fill-66" sketch:type="MSShapeGroup"></path>
            <path d="M164.771,0.567 C164.771,-0.161 165.089,-0.515 165.728,-0.492 C166.48,-0.469 167.266,-0.366 168.086,-0.185 C168.542,-0.161 168.952,-0.002 169.316,0.294 C169.522,0.727 169.362,1.023 168.838,1.183 C168.587,1.274 168.462,1.582 168.462,2.105 C168.462,2.63 168.735,2.892 169.282,2.892 L175.537,2.892 C176.106,2.892 176.608,2.63 177.041,2.105 C177.77,1.012 178.408,0.34 178.955,0.089 C179.958,0.522 180.926,1.285 181.86,2.379 C182.361,3.04 182.589,3.45 182.544,3.609 C182.407,3.746 181.985,3.815 181.279,3.815 L153.252,3.815 L152.158,4.019 C151.406,4.088 150.962,3.917 150.825,3.507 C150.689,2.937 151.019,2.687 151.816,2.755 C152.227,2.755 152.671,2.801 153.149,2.892 L163.916,2.892 C164.485,2.892 164.771,2.618 164.771,2.071 L164.771,0.567 L164.771,0.567 Z M153.97,11.163 C154.334,10.206 154.63,9.99 154.858,10.514 C154.995,11.016 155.394,11.289 156.055,11.334 L156.602,11.402 L176.016,11.402 C176.608,11.653 177.337,11.312 178.203,10.377 C178.567,9.99 179.023,9.979 179.57,10.343 C181.348,11.323 182.453,12.178 182.886,12.906 C182.863,13.34 182.624,13.545 182.168,13.521 C181.849,13.408 181.302,13.624 180.527,14.171 C179.251,14.969 177.975,15.675 176.699,16.29 C176.335,16.45 176.118,16.382 176.05,16.085 C176.05,15.903 176.141,15.63 176.323,15.265 C176.665,14.604 176.961,13.932 177.212,13.248 C177.417,12.61 177.28,12.291 176.802,12.291 L156.67,12.291 L156.021,12.359 C155.542,12.428 155.303,12.769 155.303,13.385 C155.303,15.686 154.402,16.894 152.603,17.008 C151.372,16.803 150.825,16.097 150.962,14.889 C151.053,14.342 151.292,13.887 151.68,13.521 C152.887,12.861 153.65,12.075 153.97,11.163 L153.97,11.163 Z M158.584,13.692 C158.584,12.964 158.926,12.679 159.609,12.838 C160.384,13.066 161.159,13.374 161.934,13.761 C162.161,13.897 162.549,13.966 163.096,13.966 L170.034,13.966 C170.604,13.966 171.071,13.761 171.436,13.351 C171.891,12.964 172.461,12.895 173.145,13.146 C174.557,13.784 175.469,14.422 175.879,15.06 C175.833,15.174 175.64,15.367 175.298,15.641 C174.956,15.892 174.785,16.358 174.785,17.042 C174.717,17.726 175.024,18.25 175.708,18.614 C176.87,19.253 177.679,19.902 178.135,20.562 C178.249,20.95 177.861,21.338 176.973,21.725 C176.927,21.839 176.904,22.169 176.904,22.716 L176.904,29.757 C176.858,30.623 176.494,31.398 175.811,32.081 C174.944,32.582 174.079,32.81 173.213,32.765 C173.122,32.674 173.008,32.286 172.871,31.602 C172.483,30.645 171.914,30.099 171.162,29.962 C170.479,29.711 170.137,29.529 170.137,29.415 C170.296,29.005 170.74,28.914 171.47,29.142 C172.039,29.256 172.564,29.187 173.042,28.937 C173.293,28.663 173.372,28.219 173.281,27.604 C173.281,26.966 173.008,26.646 172.461,26.646 L160.737,26.646 C160.168,26.646 159.883,26.92 159.883,27.467 L159.883,31.602 C159.86,32.104 159.529,32.469 158.892,32.696 C157.912,33.038 157.126,32.981 156.533,32.525 C156.442,32.366 156.397,31.944 156.397,31.261 L156.397,19.537 C156.397,18.809 156.75,18.535 157.456,18.717 C158.276,18.99 159.051,19.31 159.78,19.674 C159.985,19.788 160.361,19.845 160.908,19.845 L171.914,19.845 C172.575,20.005 173.065,19.81 173.384,19.264 C173.589,18.968 173.304,18.865 172.529,18.956 C171.891,18.979 171.492,18.694 171.333,18.102 C171.287,17.874 170.991,17.76 170.444,17.76 L162.891,17.76 C162.344,17.76 162.013,17.874 161.899,18.102 C161.102,18.945 160.088,19.15 158.857,18.717 C158.675,18.535 158.584,18.102 158.584,17.418 L158.584,13.692 L158.584,13.692 Z M157.285,5.284 C157.285,4.556 157.627,4.259 158.311,4.395 C158.903,4.532 159.495,4.749 160.088,5.045 C160.726,5.364 161.25,5.523 161.66,5.523 L171.06,5.523 C171.606,5.523 172.085,5.318 172.495,4.908 C172.928,4.27 173.361,4.1 173.794,4.395 C175.594,5.102 176.71,5.82 177.144,6.549 C177.098,6.709 176.939,6.902 176.665,7.13 C176.141,7.381 175.947,7.859 176.084,8.565 C176.175,9.158 176.095,9.614 175.845,9.933 C175.207,10.479 174.352,10.708 173.281,10.616 C172.94,10.503 172.689,10.298 172.529,10.001 C172.461,9.796 172.165,9.693 171.641,9.693 L161.66,9.693 C161.113,9.693 160.76,9.808 160.601,10.035 C159.849,10.628 159.051,10.855 158.208,10.719 C157.388,10.65 157.08,10.081 157.285,9.01 L157.285,5.284 L157.285,5.284 Z M173.281,22.066 C173.532,21.087 173.201,20.654 172.29,20.768 L161.045,20.768 L160.054,20.802 C159.94,20.87 159.883,21.224 159.883,21.861 C159.883,22.545 160.156,22.887 160.703,22.887 L172.427,22.887 C172.996,22.887 173.281,22.613 173.281,22.066 L173.281,22.066 Z M173.281,24.801 C173.281,24.117 173.008,23.775 172.461,23.775 L160.737,23.775 C160.168,23.775 159.883,24.095 159.883,24.732 C159.883,25.416 160.156,25.758 160.703,25.758 L172.427,25.758 C172.996,25.758 173.281,25.439 173.281,24.801 L173.281,24.801 Z M172.461,7.643 C172.461,6.822 172.165,6.412 171.572,6.412 L161.934,6.412 C161.25,6.481 160.908,6.88 160.908,7.608 C160.908,8.384 161.182,8.77 161.729,8.77 L171.606,8.77 C172.176,8.77 172.461,8.394 172.461,7.643 L172.461,7.643 Z M163.164,14.889 C162.435,14.957 162.07,15.288 162.07,15.88 C162.07,16.519 162.344,16.837 162.891,16.837 L170.444,16.837 C171.014,16.837 171.299,16.529 171.299,15.914 C171.299,15.23 171.002,14.889 170.41,14.889 L163.164,14.889 L163.164,14.889 Z" id="Fill-67" sketch:type="MSShapeGroup"></path>
        </g>
    </g>
</svg>