<?xml version="1.0" encoding="UTF-8" standalone="no"?>
<svg width="147px" height="34px" viewBox="0 0 147 34" version="1.1" xmlns="http://www.w3.org/2000/svg" xmlns:xlink="http://www.w3.org/1999/xlink" xmlns:sketch="http://www.bohemiancoding.com/sketch/ns">
    <!-- Generator: Sketch 3.0.4 (8053) - http://www.bohemiancoding.com/sketch -->
    <title>h1_packet</title>
    <desc>Created with Sketch.</desc>
    <defs></defs>
    <g id="Page-1" stroke="none" stroke-width="1" fill="none" fill-rule="evenodd" sketch:type="MSPage">
        <g id="h1_packet" sketch:type="MSLayerGroup" transform="translate(1.000000, 0.000000)" fill="#000000">
            <path d="M13.331,1.943 C13.331,1.26 13.673,0.918 14.356,0.918 C15.154,0.986 15.951,1.089 16.749,1.226 C17.638,1.523 18.105,1.738 18.15,1.875 C18.264,2.217 18.07,2.479 17.569,2.661 C17.296,2.821 17.159,3.266 17.159,3.994 C17.159,4.769 17.433,5.156 17.98,5.156 C18.982,5.18 19.984,5.156 20.987,5.088 C21.078,5.043 21.238,4.883 21.466,4.609 L22.56,3.242 C22.924,2.65 23.254,2.377 23.551,2.422 C24.872,3.129 26.012,4.211 26.969,5.669 C26.946,5.852 26.57,5.977 25.841,6.045 L18.014,6.045 C17.444,6.045 17.159,6.318 17.159,6.865 L17.159,9.497 C17.159,10.067 17.433,10.352 17.98,10.352 L23.824,10.352 C24.462,10.534 24.929,10.352 25.226,9.805 L26.251,8.437 C26.82,7.777 27.162,7.435 27.276,7.412 C28.256,7.754 29.327,8.552 30.489,9.805 C30.968,10.466 31.207,10.864 31.207,11.001 C31.07,11.161 30.648,11.24 29.942,11.24 L2.291,11.24 L1.197,11.411 C0.468,11.548 0.001,11.286 -0.204,10.625 L-0.307,10.215 C-0.261,10.124 0.104,10.112 0.787,10.181 C1.22,10.204 1.687,10.261 2.189,10.352 L12.477,10.352 C13.046,10.352 13.331,10.078 13.331,9.531 L13.331,6.899 C13.331,6.33 13.058,6.045 12.511,6.045 L5.846,6.045 L4.752,6.216 C4.023,6.352 3.556,6.091 3.351,5.43 L3.248,5.019 C3.294,4.929 3.658,4.917 4.342,4.985 C4.774,5.009 5.242,5.065 5.743,5.156 L12.477,5.156 C13.046,5.156 13.331,4.883 13.331,4.336 L13.331,1.943 L13.331,1.943 Z M19.928,12.129 C20.019,11.947 20.395,11.924 21.056,12.06 C21.876,12.221 22.696,12.414 23.517,12.642 C24.041,12.733 24.382,12.973 24.542,13.359 C24.61,13.701 24.417,13.918 23.961,14.009 C23.528,14.077 23.106,14.419 22.696,15.034 C22.081,15.81 21.375,16.584 20.577,17.358 C19.962,17.883 19.939,18.144 20.509,18.144 L22.56,18.144 C23.129,18.144 23.619,17.883 24.029,17.358 C24.69,16.356 25.351,15.639 26.012,15.205 C27.106,15.707 28.119,16.481 29.054,17.529 C29.578,18.236 29.84,18.646 29.84,18.76 C29.749,18.942 29.35,19.033 28.644,19.033 L18.014,19.033 C17.444,19.033 17.159,19.307 17.159,19.854 L17.159,22.861 C17.159,23.432 17.433,23.716 17.98,23.716 L20.235,23.716 C20.782,23.716 21.329,23.374 21.876,22.69 L22.457,21.973 C23.049,21.244 23.756,21.073 24.576,21.46 C25.92,22.44 26.82,23.374 27.276,24.263 C27.162,24.65 26.684,24.775 25.841,24.639 L18.014,24.639 C17.444,24.639 17.159,24.912 17.159,25.459 L17.159,32.637 C16.726,33.799 15.701,34.141 14.083,33.662 C13.65,33.525 13.399,33.206 13.331,32.705 L13.331,25.493 C13.331,24.924 13.058,24.639 12.511,24.639 L6.393,24.639 L5.299,24.81 C4.569,24.924 4.125,24.765 3.966,24.331 C3.829,23.762 4.171,23.511 4.991,23.579 C5.424,23.579 5.857,23.625 6.29,23.716 L12.477,23.716 C13.046,23.716 13.331,23.442 13.331,22.895 L13.331,19.888 C13.331,19.318 13.058,19.033 12.511,19.033 L3.522,19.033 L2.428,19.204 C1.698,19.318 1.254,19.159 1.095,18.726 C0.958,18.156 1.3,17.905 2.12,17.974 C2.553,17.997 2.986,18.054 3.419,18.144 L17.262,18.144 C17.809,18.144 18.23,17.803 18.526,17.119 C19.164,15.547 19.631,13.884 19.928,12.129 L19.928,12.129 Z M7.452,12.129 C7.429,11.947 7.794,11.89 8.546,11.958 C10.323,12.368 11.656,13.2 12.545,14.453 C13.023,16.435 12.419,17.553 10.733,17.803 C9.685,17.712 9.093,17.028 8.956,15.752 C9.047,14.453 8.546,13.246 7.452,12.129 L7.452,12.129 Z" id="Fill-71" sketch:type="MSShapeGroup"></path>
            <path d="M40.809,1.567 C40.809,0.839 41.127,0.485 41.766,0.508 C42.518,0.531 43.304,0.634 44.124,0.815 C45.127,0.907 45.548,1.271 45.389,1.909 C45.138,2.092 44.887,2.229 44.637,2.319 C44.523,2.411 44.466,2.719 44.466,3.242 L44.466,6.797 C44.466,7.367 44.591,7.641 44.842,7.617 C45.047,7.572 45.366,7.321 45.799,6.865 C46.254,6.41 46.539,6.171 46.653,6.147 C48.021,6.581 49.08,7.435 49.832,8.711 C49.786,9.099 49.559,9.304 49.148,9.326 C48.92,9.304 48.692,9.521 48.465,9.976 C47.462,11.799 46.368,13.542 45.184,15.205 C44.842,15.707 45.035,16.003 45.765,16.094 C47.747,16.322 48.829,17.382 49.012,19.272 C49.057,19.843 48.75,20.366 48.089,20.845 C46.585,21.369 45.628,20.674 45.218,18.76 C44.853,17.985 44.671,17.951 44.671,18.657 L44.671,31.646 C44.785,33.423 43.987,34.163 42.278,33.867 C41.139,33.73 40.683,33.047 40.911,31.816 L40.911,20.605 C40.911,20.036 40.558,20.002 39.852,20.503 C38.598,21.437 37.527,22.007 36.639,22.212 C36.524,22.189 36.468,22.121 36.468,22.007 C39.498,19.022 41.401,16.869 42.176,15.547 C43.292,13.861 44.227,11.821 44.979,9.429 C45.138,8.813 44.956,8.506 44.432,8.506 L39.236,8.506 L38.108,8.677 C37.402,8.813 36.992,8.643 36.878,8.164 C36.764,7.663 37.071,7.424 37.801,7.446 C38.484,7.538 39.202,7.583 39.954,7.583 C40.523,7.583 40.809,7.31 40.809,6.763 L40.809,1.567 L40.809,1.567 Z M64.529,0.644 C64.825,0.166 65.167,0.063 65.555,0.337 C66.443,0.839 67.343,1.579 68.255,2.559 C69.075,3.288 69.303,3.789 68.939,4.063 C68.824,4.108 68.426,4.131 67.742,4.131 L51.712,4.131 L50.584,4.302 C49.855,4.416 49.422,4.245 49.285,3.789 C49.148,3.242 49.49,3.003 50.311,3.071 L51.575,3.208 L61.521,3.208 C62.296,3.481 62.945,3.083 63.47,2.012 C63.789,1.557 64.142,1.101 64.529,0.644 L64.529,0.644 Z M49.456,18.179 C49.456,17.404 49.798,17.108 50.481,17.29 C51.233,17.495 52.031,17.803 52.874,18.213 C53.216,18.418 53.66,18.521 54.207,18.521 L63.777,18.521 C64.324,18.521 64.825,18.315 65.281,17.905 C65.737,17.473 66.307,17.37 66.99,17.598 C67.924,18.031 68.722,18.476 69.383,18.931 C70.066,19.455 70.021,19.899 69.246,20.264 C68.973,20.537 68.836,20.947 68.836,21.494 L68.836,30.996 C69.155,32.273 68.563,33.001 67.059,33.184 C65.691,33.479 65.065,32.91 65.179,31.475 C65.179,30.837 64.905,30.518 64.358,30.518 L53.934,30.518 C53.364,30.518 53.079,30.791 53.079,31.338 C53.353,32.568 52.806,33.309 51.439,33.56 C49.912,33.879 49.251,33.343 49.456,31.953 L49.456,18.179 L49.456,18.179 Z M51.302,7.31 C51.302,6.626 51.757,6.41 52.669,6.66 C53.125,6.797 53.58,6.968 54.036,7.173 C54.651,7.446 55.187,7.583 55.643,7.583 L61.521,7.583 C62.068,7.583 62.547,7.378 62.957,6.968 C63.436,6.171 64.107,6.068 64.974,6.66 C65.429,6.865 65.885,7.104 66.341,7.378 C67.138,7.856 67.617,8.244 67.776,8.54 C67.822,8.95 67.503,9.315 66.819,9.634 C66.751,9.77 66.717,10.112 66.717,10.659 L66.717,14.248 C66.967,15.205 66.626,15.9 65.691,16.333 C64.575,16.767 63.731,16.698 63.162,16.128 C63.094,16.015 63.025,15.786 62.957,15.444 C62.911,15.102 62.615,14.932 62.068,14.932 L55.95,14.932 C55.403,14.932 55.118,15.046 55.096,15.273 C55.141,15.661 54.959,16.06 54.549,16.47 C53.364,17.108 52.315,17.108 51.404,16.47 C51.336,16.356 51.302,15.957 51.302,15.273 L51.302,7.31 L51.302,7.31 Z M57.454,20.332 C57.454,19.74 57.192,19.443 56.668,19.443 L54.105,19.443 C53.421,19.512 53.079,19.819 53.079,20.366 L53.079,23.169 C53.079,23.739 53.353,24.023 53.899,24.023 L56.6,24.023 C57.169,24.023 57.454,23.75 57.454,23.203 L57.454,20.332 L57.454,20.332 Z M57.454,25.801 C57.454,25.209 57.192,24.912 56.668,24.912 L53.934,24.912 C53.364,24.912 53.079,25.185 53.079,25.732 L53.079,28.74 C53.079,29.31 53.353,29.595 53.899,29.595 L56.6,29.595 C57.169,29.595 57.454,29.321 57.454,28.774 L57.454,25.801 L57.454,25.801 Z M62.923,9.463 C62.923,8.825 62.638,8.506 62.068,8.506 L55.95,8.506 C55.38,8.506 55.096,8.779 55.096,9.326 L55.096,13.188 C55.096,13.759 55.369,14.043 55.916,14.043 L62.068,14.043 C62.638,14.043 62.923,13.769 62.923,13.223 L62.923,9.463 L62.923,9.463 Z M65.179,20.4 C65.179,19.763 64.894,19.443 64.324,19.443 L61.795,19.443 C61.225,19.443 60.94,19.717 60.94,20.264 L60.94,23.169 C60.94,23.739 61.214,24.023 61.761,24.023 L64.324,24.023 C64.894,24.023 65.179,23.75 65.179,23.203 L65.179,20.4 L65.179,20.4 Z M65.179,25.801 C65.179,25.209 64.917,24.912 64.393,24.912 L61.795,24.912 C61.225,24.912 60.94,25.185 60.94,25.732 L60.94,28.74 C60.94,29.31 61.214,29.595 61.761,29.595 L64.324,29.595 C64.894,29.595 65.179,29.321 65.179,28.774 L65.179,25.801 L65.179,25.801 Z" id="Fill-72" sketch:type="MSShapeGroup"></path>
            <path d="M81.822,9.839 C81.913,9.748 82.289,9.76 82.95,9.873 C84.454,10.283 85.73,10.888 86.778,11.685 C86.937,12.163 86.732,12.46 86.163,12.573 C85.889,12.597 85.49,12.938 84.966,13.599 C83.713,16.47 82.004,19.204 79.839,21.802 C78.381,23.534 76.877,24.81 75.328,25.63 C74.849,25.38 75.054,24.901 75.943,24.194 C77.059,22.805 78.085,21.096 79.019,19.067 C80.318,16.037 81.252,12.961 81.822,9.839 L81.822,9.839 Z M89.786,2.251 C89.854,1.523 90.218,1.169 90.879,1.191 C91.7,1.283 92.554,1.408 93.443,1.567 C93.944,1.591 94.32,1.75 94.571,2.046 C94.776,2.479 94.48,2.832 93.682,3.105 C93.591,3.197 93.545,3.516 93.545,4.063 L93.545,30.757 C92.953,32.557 91.677,33.548 89.717,33.73 C88.988,33.753 88.544,33.411 88.384,32.705 C87.951,31.771 87.29,31.155 86.402,30.859 C85.559,30.518 85.148,30.267 85.171,30.107 C85.217,29.902 85.593,29.812 86.299,29.834 C87.917,29.925 89,29.88 89.546,29.697 C89.82,29.446 89.911,29.025 89.82,28.433 L89.82,9.907 L89.786,2.251 L89.786,2.251 Z M97.271,11.377 C97.453,10.922 97.92,10.967 98.672,11.514 C103.321,14.111 106.055,17.404 106.876,21.392 C107.012,22.509 106.613,23.397 105.679,24.058 C103.97,24.628 103.002,23.887 102.774,21.836 C102.614,19.968 102.102,18.144 101.236,16.367 C100.643,15 99.641,13.633 98.228,12.266 C97.613,11.787 97.294,11.491 97.271,11.377 L97.271,11.377 Z" id="Fill-73" sketch:type="MSShapeGroup"></path>
            <path d="M119.246,1.807 C119.428,1.055 119.827,0.725 120.442,0.815 C122.219,1.249 123.416,1.784 124.031,2.422 C124.122,2.695 123.985,2.89 123.621,3.003 C123.301,3.095 123.04,3.266 122.835,3.516 C121.855,4.701 121.433,5.578 121.57,6.147 L121.57,15.957 C121.684,16.618 121.581,17.143 121.262,17.529 C120.533,18.122 119.678,18.225 118.699,17.837 C118.038,17.541 117.798,16.926 117.981,15.991 L117.981,10.625 C117.981,10.078 117.639,10.067 116.956,10.591 C115.884,11.435 114.859,12.095 113.879,12.573 C113.15,12.824 112.774,12.904 112.752,12.812 C112.752,12.722 113.184,12.243 114.05,11.377 C116.739,8.369 118.471,5.18 119.246,1.807 L119.246,1.807 Z M127.141,2.046 C127.073,1.294 127.392,0.941 128.098,0.986 C128.896,1.078 129.727,1.203 130.593,1.362 C131.573,1.477 131.79,1.875 131.243,2.559 C130.855,2.787 130.752,3.117 130.935,3.55 C131.094,4.302 131.402,5.202 131.858,6.25 C132.154,6.865 132.553,7.162 133.054,7.139 C134.307,6.979 135.595,6.854 136.917,6.763 C137.19,6.74 137.372,6.694 137.463,6.626 C138.375,5.305 139.07,4.45 139.548,4.063 C140.277,4.223 141.246,4.701 142.454,5.498 C143.274,6.137 143.684,6.523 143.684,6.66 C143.616,7.048 143.24,7.207 142.556,7.139 C139.617,7.39 136.666,7.675 133.704,7.993 C133.088,8.062 132.963,8.358 133.328,8.882 C135.561,11.913 138.079,13.439 140.881,13.462 C141.77,13.234 142.431,12.517 142.864,11.309 C143.206,10.557 143.467,10.192 143.65,10.215 C143.832,10.329 143.935,10.727 143.958,11.411 C143.912,12.665 144.151,13.599 144.675,14.214 C145.518,15.239 145.313,16.049 144.06,16.641 C143.741,16.801 143.24,16.926 142.556,17.017 C142.009,17.062 142.1,17.393 142.83,18.008 C143.08,18.236 143.296,18.464 143.479,18.691 C143.98,19.352 144.219,19.763 144.197,19.922 C144.083,20.059 143.661,20.127 142.932,20.127 L130.662,20.127 C130.092,20.127 130.001,20.492 130.388,21.221 C130.958,22.269 131.892,23.454 133.191,24.775 C133.738,25.3 134.285,25.243 134.832,24.604 C135.356,23.944 135.891,23.112 136.438,22.109 C136.802,21.357 137.383,21.096 138.181,21.323 C139.594,21.916 140.517,22.519 140.95,23.135 C140.927,23.522 140.733,23.693 140.369,23.648 C140.118,23.625 139.765,23.762 139.309,24.058 C138.284,24.833 137.178,25.471 135.994,25.972 C135.424,26.2 135.492,26.519 136.199,26.929 C138.591,28.273 141.086,29.128 143.684,29.492 C144.368,29.56 144.766,29.629 144.88,29.697 C144.926,29.812 144.629,30.051 143.992,30.415 C142.533,31.304 141.668,32.386 141.394,33.662 C141.166,33.958 140.756,33.901 140.164,33.491 C134.604,31.076 130.969,26.894 129.26,20.947 C129.078,20.4 128.827,20.127 128.508,20.127 C128.167,20.127 127.722,20.469 127.175,21.152 L125.979,22.383 C125.432,22.861 125.159,23.374 125.159,23.921 L125.159,28.091 C125.159,28.638 125.501,28.865 126.184,28.774 C127.665,28.569 129.146,28.318 130.627,28.022 C131.083,27.932 131.368,27.897 131.482,27.92 C131.71,27.966 131.721,28.148 131.516,28.467 C128.531,29.925 124.463,31.35 119.314,32.739 C118.607,33.104 118.243,33.332 118.22,33.423 C117.833,34.106 117.445,34.026 117.058,33.184 C116.762,32.5 116.5,31.816 116.272,31.133 C116.021,30.222 116.26,29.766 116.99,29.766 L120.715,29.458 C121.262,29.39 121.536,29.082 121.536,28.535 L121.536,26.245 C121.536,25.676 121.182,25.551 120.476,25.869 C118.174,26.872 116.021,27.567 114.016,27.954 C113.059,28.091 112.649,28.045 112.786,27.817 C112.922,27.612 113.333,27.407 114.016,27.202 C115.748,26.519 117.571,25.573 119.485,24.365 C120.784,23.545 121.991,22.451 123.108,21.084 C123.541,20.446 123.506,20.127 123.005,20.127 L115.999,20.127 L114.905,20.332 C114.153,20.4 113.709,20.229 113.572,19.819 C113.435,19.25 113.777,18.999 114.597,19.067 L115.862,19.204 L125.022,19.204 C125.591,19.204 125.877,18.931 125.877,18.384 L125.877,14.795 C125.877,14.111 126.218,13.769 126.902,13.769 C127.699,13.838 128.497,13.94 129.294,14.077 C129.864,14.214 130.263,14.408 130.491,14.658 C130.582,15.068 130.308,15.388 129.67,15.615 C129.579,15.707 129.534,16.025 129.534,16.572 L129.534,18.35 C129.534,18.92 129.807,19.204 130.354,19.204 L137.532,19.204 C138.352,19.477 139.002,19.079 139.48,18.008 C140.027,17.324 139.959,16.903 139.275,16.743 C134.991,15.854 131.767,13.371 129.602,9.292 C129.329,8.7 128.861,8.427 128.201,8.472 C126.287,8.563 124.839,8.745 123.86,9.019 C123.176,9.133 122.72,9.008 122.493,8.643 C122.31,8.21 122.572,7.982 123.279,7.959 L127.961,7.583 C128.508,7.538 128.645,7.173 128.372,6.489 C127.733,4.872 127.323,3.391 127.141,2.046 L127.141,2.046 Z M133.054,0.986 C134.353,0.736 135.469,0.805 136.404,1.191 C137.953,1.989 138.466,3.117 137.942,4.575 C136.711,5.852 135.572,5.578 134.524,3.755 C134.228,3.026 133.658,2.434 132.815,1.977 C132.359,1.796 132.063,1.625 131.926,1.465 C131.903,1.328 132.279,1.169 133.054,0.986 L133.054,0.986 Z" id="Fill-74" sketch:type="MSShapeGroup"></path>
        </g>
    </g>
</svg>