<?xml version="1.0" encoding="UTF-8" standalone="no"?>
<svg width="109px" height="34px" viewBox="0 0 109 34" version="1.1" xmlns="http://www.w3.org/2000/svg" xmlns:xlink="http://www.w3.org/1999/xlink" xmlns:sketch="http://www.bohemiancoding.com/sketch/ns">
    <!-- Generator: Sketch 3.0.4 (8053) - http://www.bohemiancoding.com/sketch -->
    <title>h1_remover</title>
    <desc>Created with Sketch.</desc>
    <defs></defs>
    <g id="Page-1" stroke="none" stroke-width="1" fill="none" fill-rule="evenodd" sketch:type="MSPage">
        <g id="h1_remover" sketch:type="MSLayerGroup" transform="translate(1.000000, 1.000000)" fill="#000000">
            <path d="M3.727,0.91 C3.795,0.158 4.182,-0.184 4.889,-0.116 C5.846,-0.002 6.848,0.294 7.897,0.773 C8.443,0.887 8.762,1.138 8.854,1.525 C8.876,1.844 8.671,2.072 8.238,2.208 C7.965,2.254 7.623,2.596 7.213,3.234 C7.145,3.439 7.042,3.656 6.905,3.883 C6.632,4.521 6.734,4.84 7.213,4.84 L10.357,4.84 C10.927,4.84 11.428,4.579 11.861,4.054 C12.59,2.96 13.229,2.277 13.775,2.003 C14.823,2.55 15.78,3.291 16.647,4.225 C17.148,4.886 17.387,5.296 17.364,5.456 C17.296,5.638 16.897,5.729 16.168,5.729 L12.272,5.729 C11.702,5.729 11.417,6.002 11.417,6.549 L11.417,12.189 C11.417,12.759 11.542,13.043 11.793,13.043 C12.203,13.112 12.533,12.953 12.784,12.565 C13.103,12.109 13.456,11.654 13.844,11.198 C14.276,10.241 14.938,10.195 15.826,11.061 C16.897,11.904 17.649,12.713 18.082,13.488 C18.105,13.67 18.036,13.795 17.877,13.864 C17.763,13.91 17.364,13.932 16.681,13.932 L12.272,13.932 C11.702,13.932 11.417,14.206 11.417,14.752 L11.417,18.444 C11.417,18.991 11.462,19.287 11.554,19.332 C11.964,19.355 12.328,19.071 12.648,18.478 C13.308,17.612 13.844,17.02 14.254,16.701 C14.96,16.952 15.849,17.623 16.92,18.717 C17.444,19.447 17.694,19.857 17.672,19.948 C17.467,20.221 17,20.312 16.271,20.221 L12.272,20.221 C11.702,20.221 11.417,20.495 11.417,21.041 L11.417,25.28 C11.417,25.827 11.759,26.043 12.442,25.929 L16.544,24.938 C17.296,24.596 17.729,24.63 17.843,25.04 C17.729,25.177 17.444,25.371 16.988,25.622 C14.345,27.057 10.699,28.413 6.051,29.689 C5.139,29.94 4.228,30.236 3.316,30.578 C2.678,30.76 2.268,31.033 2.086,31.398 C1.858,31.876 1.539,31.956 1.129,31.637 C0.719,30.657 0.32,29.233 -0.067,27.365 C-0.022,27.228 0.286,27.16 0.856,27.16 C1.379,27.16 1.642,26.886 1.642,26.339 L1.642,17.077 C1.642,16.371 1.995,16.029 2.701,16.051 C3.453,16.12 4.239,16.234 5.06,16.393 C5.902,16.735 6.313,16.986 6.29,17.145 C6.267,17.305 6.107,17.487 5.812,17.692 C5.492,17.92 5.333,18.307 5.333,18.854 L5.333,26.1 C5.333,26.647 5.675,26.909 6.358,26.886 L6.666,26.852 C7.304,26.761 7.623,26.476 7.623,25.998 L7.623,14.787 C7.623,14.217 7.35,13.932 6.803,13.932 L2.154,13.932 L1.061,14.103 C0.331,14.24 -0.136,13.978 -0.341,13.317 L-0.443,12.907 C-0.398,12.816 -0.033,12.804 0.65,12.873 C1.083,12.895 1.55,12.953 2.052,13.043 L6.769,13.043 C7.338,13.043 7.623,12.77 7.623,12.223 L7.623,6.583 C7.623,6.014 7.372,5.729 6.871,5.729 C6.37,5.729 5.914,6.071 5.504,6.754 C4.638,8.441 3.236,10.138 1.3,11.847 C1.026,12.121 0.753,12.269 0.48,12.292 C0.365,12.246 0.297,12.166 0.274,12.052 C2.143,9.067 3.294,5.353 3.727,0.91 L3.727,0.91 Z M27.242,2.003 C27.379,1.935 27.857,2.095 28.678,2.482 C30.318,3.257 31.287,4.032 31.583,4.806 C31.56,5.102 31.355,5.353 30.968,5.558 C30.079,5.877 29.749,6.435 29.977,7.233 L29.977,26.339 C29.635,28.322 28.529,29.393 26.661,29.552 C25.909,29.598 25.499,29.279 25.431,28.595 C25.203,27.729 24.656,27.057 23.79,26.579 C23.084,26.488 22.833,26.214 23.038,25.758 C23.175,25.667 23.573,25.622 24.234,25.622 L25.26,25.519 C26.034,25.382 26.354,24.835 26.217,23.878 L26.217,5.866 C26.217,5.319 26.183,5 26.114,4.909 C26.023,4.818 25.704,4.772 25.157,4.772 L23.38,4.772 C22.696,4.863 22.354,5.182 22.354,5.729 L22.354,31.261 C22.172,32.355 21.534,32.913 20.44,32.936 C18.937,33.073 18.31,32.4 18.561,30.919 L18.561,3.371 C18.561,2.687 18.606,2.323 18.697,2.277 C19.7,2.482 20.794,2.87 21.979,3.439 C22.571,3.917 23.767,4.043 25.567,3.815 C25.932,3.61 26.49,3.006 27.242,2.003 L27.242,2.003 Z" id="Fill-37" sketch:type="MSShapeGroup"></path>
            <path d="M45.662,0.739 C45.662,0.033 46.015,-0.298 46.722,-0.252 C48.499,-0.07 49.695,0.158 50.311,0.431 C50.88,0.91 50.766,1.343 49.969,1.73 C49.467,1.913 49.296,2.323 49.456,2.96 L49.456,31.432 C49.114,32.457 48.328,32.89 47.098,32.731 C45.89,32.548 45.411,31.831 45.662,30.578 L45.662,19.435 C45.662,18.866 45.389,18.581 44.842,18.581 L44.158,18.581 C43.588,18.581 43.292,18.922 43.27,19.606 C43.247,22.978 42.768,25.77 41.834,27.98 C41.082,30.008 39.566,31.546 37.288,32.594 C37.197,32.503 37.345,32.07 37.732,31.295 C38.963,27.991 39.555,24.061 39.51,19.503 C39.51,18.956 39.168,18.695 38.484,18.717 C37.618,18.74 37.128,18.558 37.015,18.17 C36.9,17.715 37.186,17.498 37.869,17.521 L39.236,17.658 L44.808,17.658 C45.377,17.658 45.662,17.384 45.662,16.837 L45.662,11.779 C45.662,11.209 45.389,10.924 44.842,10.924 L43.475,10.924 C42.905,10.924 42.62,11.186 42.62,11.71 C42.802,12.827 42.313,13.454 41.15,13.59 C40.034,13.705 39.293,13.419 38.929,12.736 C38.883,12.622 38.86,12.223 38.86,11.54 L38.86,1.559 C38.86,0.853 39.305,0.534 40.193,0.602 C41.104,0.716 42.016,0.875 42.928,1.081 C43.315,1.149 43.52,1.366 43.543,1.73 C43.588,1.958 43.326,2.231 42.757,2.55 C42.666,2.687 42.62,3.018 42.62,3.541 L42.62,9.181 C42.62,9.751 42.894,10.036 43.44,10.036 L44.808,10.036 C45.377,10.036 45.662,9.762 45.662,9.215 L45.662,0.739 L45.662,0.739 Z M56.531,1.251 C56.668,0.499 57.089,0.135 57.796,0.158 L60.12,0.431 C60.986,0.705 61.441,0.91 61.487,1.046 C61.601,1.388 61.407,1.65 60.906,1.832 C60.428,2.015 60.189,2.289 60.189,2.653 L58.89,9.318 C58.798,9.865 59.026,10.138 59.573,10.138 L62.171,10.138 C62.74,10.138 63.253,9.876 63.709,9.352 C64.119,8.76 64.575,8.156 65.076,7.54 C65.555,6.948 66.124,7.005 66.785,7.711 C67.788,8.35 68.756,9.318 69.69,10.617 C69.69,10.753 69.633,10.879 69.52,10.993 C68.745,11.061 67.97,11.084 67.195,11.061 C66.648,11.061 66.341,11.403 66.273,12.086 C65.862,16.553 64.917,20.29 63.436,23.297 C63.116,23.867 63.31,24.323 64.017,24.665 C66.021,25.644 67.48,27.045 68.392,28.869 C68.916,30.008 68.676,31.01 67.674,31.876 C66.876,32.241 66.09,32.013 65.315,31.193 C64.244,29.78 63.219,28.561 62.239,27.536 C61.601,26.897 60.963,26.92 60.325,27.604 C57.705,30.247 54.947,31.842 52.054,32.389 C51.37,32.48 50.994,32.48 50.926,32.389 C50.948,32.184 51.165,31.99 51.575,31.808 C54.195,30.395 56.451,28.356 58.343,25.69 C58.798,25.006 58.685,24.38 58.001,23.81 L56.634,22.853 C55.927,22.42 55.438,22.545 55.164,23.229 C54.868,24.414 53.888,24.824 52.225,24.459 C51.176,24.049 50.994,23.229 51.678,21.998 C53.067,17.943 54.093,14.342 54.754,11.198 C54.731,11.107 54.446,11.061 53.899,11.061 C53.261,11.039 52.578,11.107 51.849,11.266 C51.097,11.334 50.652,11.164 50.516,10.753 C50.379,10.184 50.709,9.933 51.507,10.001 C52.35,10.093 53.227,10.138 54.139,10.138 C54.686,10.138 55.039,9.796 55.198,9.113 C55.859,6.037 56.303,3.416 56.531,1.251 L56.531,1.251 Z M62.581,12.018 C62.649,11.38 62.433,11.061 61.932,11.061 L59.368,11.061 C58.821,11.061 58.457,11.403 58.274,12.086 L56.087,20.495 C55.927,21.041 56.19,21.429 56.873,21.657 L59.163,22.477 C59.732,22.728 60.166,22.511 60.462,21.828 C61.578,18.911 62.285,15.641 62.581,12.018 L62.581,12.018 Z" id="Fill-38" sketch:type="MSShapeGroup"></path>
            <path d="M83.462,8.942 C83.873,8.304 84.419,8.099 85.103,8.327 C85.877,8.737 86.652,9.227 87.427,9.796 C88.043,10.161 88.077,10.582 87.53,11.061 C87.028,11.266 86.755,11.665 86.71,12.257 C86.003,16.04 84.305,19.686 81.617,23.195 C79.657,25.815 77.424,27.797 74.918,29.142 C74.781,29.142 74.667,29.085 74.576,28.971 C74.553,28.834 74.895,28.447 75.601,27.809 C77.15,26.373 78.563,24.448 79.839,22.033 C81.502,18.706 82.54,15.288 82.95,11.779 C82.995,11.027 82.733,10.651 82.164,10.651 L77.994,10.651 L76.9,10.822 C76.193,10.913 75.772,10.742 75.635,10.309 C75.521,9.808 75.817,9.569 76.524,9.591 C77.002,9.614 77.481,9.671 77.96,9.762 L82.027,9.762 C82.619,9.762 83.098,9.489 83.462,8.942 L83.462,8.942 Z M89.273,0.158 C89.341,0.044 89.706,0.021 90.367,0.089 L92.725,0.363 C93.317,0.454 93.739,0.636 93.99,0.91 C94.149,1.297 93.956,1.605 93.409,1.832 C93.044,1.901 92.907,2.197 92.999,2.721 C93.477,6.276 94.195,9.432 95.152,12.189 C95.357,12.782 95.79,12.77 96.451,12.155 C98.41,10.241 100.199,7.746 101.817,4.669 C102.25,3.94 102.808,3.724 103.492,4.02 C104.152,4.316 104.813,4.704 105.474,5.182 C106.066,5.478 106.34,5.831 106.294,6.242 C106.18,6.47 105.93,6.572 105.543,6.549 C105.201,6.458 104.768,6.777 104.244,7.506 C101.805,10.15 99.242,12.155 96.553,13.522 C96.075,13.773 96.006,14.274 96.348,15.026 C98.581,20.062 101.965,23.867 106.5,26.442 C107.342,26.943 107.696,27.228 107.559,27.296 C106.648,27.387 105.873,27.536 105.235,27.741 C104.825,27.9 104.369,28.242 103.868,28.766 C103.275,29.427 102.922,29.757 102.808,29.757 C101.008,28.641 99.265,26.943 97.579,24.665 C95.482,21.543 94.035,18.068 93.238,14.24 C93.078,13.716 92.999,13.716 92.999,14.24 L92.999,29.621 C92.474,31.375 91.187,32.366 89.136,32.594 C88.43,32.617 87.985,32.275 87.803,31.569 C87.393,30.657 86.721,30.065 85.787,29.792 C85.08,29.518 84.681,29.313 84.59,29.176 C84.544,29.017 84.909,28.891 85.684,28.8 L87.872,28.8 C89.011,28.869 89.466,28.39 89.239,27.365 L89.239,1.251 L89.273,0.158 L89.273,0.158 Z" id="Fill-39" sketch:type="MSShapeGroup"></path>
        </g>
    </g>
</svg>