<?xml version="1.0" encoding="UTF-8" standalone="no"?>
<svg width="109px" height="35px" viewBox="0 0 109 35" version="1.1" xmlns="http://www.w3.org/2000/svg" xmlns:xlink="http://www.w3.org/1999/xlink" xmlns:sketch="http://www.bohemiancoding.com/sketch/ns">
    <!-- Generator: Sketch 3.0.4 (8053) - http://www.bohemiancoding.com/sketch -->
    <title>h1_soap_face</title>
    <desc>Created with Sketch.</desc>
    <defs></defs>
    <g id="Page-1" stroke="none" stroke-width="1" fill="none" fill-rule="evenodd" sketch:type="MSPage">
        <g id="h1_soap_face" sketch:type="MSLayerGroup" transform="translate(1.000000, 0.000000)" fill="#000000">
            <path d="M11.656,1.191 C11.724,1.078 12.1,1.066 12.784,1.158 C13.536,1.295 14.322,1.465 15.142,1.67 C15.666,1.762 16.065,1.943 16.338,2.217 C16.566,2.65 16.35,2.958 15.689,3.141 C15.256,3.254 15.005,3.516 14.937,3.926 L13.16,10.01 C13,10.603 13.182,10.898 13.707,10.898 L24.131,10.898 C24.86,11.172 25.51,10.762 26.08,9.668 C26.398,9.213 26.752,8.758 27.139,8.301 C27.618,7.641 28.278,7.754 29.122,8.643 C30.534,9.691 31.412,10.66 31.753,11.549 C31.617,11.708 31.184,11.787 30.455,11.787 L24.576,11.787 C24.029,11.787 23.698,12.129 23.585,12.813 C23.265,15.957 22.183,19.25 20.337,22.691 C19.973,23.283 20.052,23.705 20.577,23.955 C22.399,24.775 24.143,25.916 25.806,27.373 C27.515,29.06 27.994,30.654 27.242,32.158 C26.239,33.229 25.145,33.035 23.96,31.578 C21.887,29.254 20.178,27.567 18.834,26.519 C18.287,26.063 17.683,26.19 17.022,26.894 C14.196,29.492 10.687,31.269 6.495,32.227 C4.991,32.546 3.168,32.819 1.026,33.047 C0.342,33.07 -0.045,33.024 -0.136,32.91 C-0.091,32.614 0.137,32.455 0.547,32.432 C4.376,31.52 8.021,29.891 11.485,27.545 C13.08,26.383 14.356,25.175 15.313,23.922 C14.014,22.941 12.453,21.962 10.63,20.982 C9.901,20.595 9.354,20.742 8.99,21.426 L8.716,22.041 C8.534,22.498 8.397,22.782 8.306,22.896 C7.691,23.375 6.893,23.455 5.914,23.135 C5.321,22.93 4.957,22.635 4.82,22.246 C4.797,21.973 4.957,21.483 5.298,20.777 C6.529,18.065 7.577,15.365 8.443,12.676 C8.648,12.084 8.488,11.787 7.964,11.787 L2.017,11.787 L0.923,11.992 C0.194,12.06 -0.25,11.891 -0.41,11.48 C-0.524,10.91 -0.193,10.66 0.582,10.728 C1.037,10.751 1.493,10.809 1.949,10.898 L8.169,10.898 C8.716,10.898 9.115,10.557 9.366,9.873 C10.573,6.068 11.336,3.174 11.656,1.191 L11.656,1.191 Z M19.791,12.643 C19.813,12.072 19.551,11.787 19.004,11.787 L13.467,11.787 C12.92,11.787 12.522,12.129 12.271,12.813 L10.118,18.76 C9.89,19.307 10.14,19.706 10.87,19.957 C13.216,20.754 14.88,21.381 15.86,21.836 C16.407,22.065 16.897,21.836 17.33,21.152 C18.651,18.623 19.471,15.787 19.791,12.643 L19.791,12.643 Z" id="Fill-53" sketch:type="MSShapeGroup"></path>
            <path d="M47.883,1.67 C48.612,0.896 49.307,0.713 49.968,1.123 C51.221,1.898 52.019,2.537 52.361,3.037 C52.588,3.447 52.406,3.676 51.814,3.721 C51.518,3.676 51.233,3.71 50.96,3.824 C49.41,4.553 47.542,5.066 45.354,5.361 C44.807,5.453 44.534,5.771 44.534,6.318 L44.534,10.045 C44.534,10.614 44.682,10.898 44.978,10.898 C45.274,10.898 45.65,10.625 46.106,10.078 L46.995,8.951 C47.542,7.902 48.191,7.777 48.943,8.574 C49.512,8.94 50.185,9.543 50.96,10.387 C51.438,11.207 51.586,11.65 51.404,11.719 C51.313,11.766 50.925,11.787 50.242,11.787 L45.388,11.787 C44.818,11.787 44.534,12.06 44.534,12.607 L44.534,16.744 C44.534,17.313 44.807,17.598 45.354,17.598 L60.701,17.598 C61.27,17.598 61.555,17.324 61.555,16.777 L61.555,12.506 C61.555,11.935 61.282,11.65 60.735,11.65 L57.385,11.65 L56.326,11.787 C55.619,11.855 55.209,11.685 55.095,11.275 C54.959,10.797 55.243,10.568 55.95,10.592 C56.884,10.773 58.467,10.83 60.701,10.762 C61.27,10.762 61.555,10.488 61.555,9.941 L61.555,5.84 C61.555,5.293 61.532,4.986 61.487,4.918 C61.396,4.85 61.077,4.814 60.53,4.814 C59.185,4.793 57.841,4.814 56.497,4.883 C56.382,4.93 56.269,4.94 56.155,4.918 C55.471,5.009 55.061,4.85 54.924,4.439 C54.788,3.961 55.083,3.732 55.813,3.756 C56.702,3.915 58.319,3.949 60.667,3.857 C61.031,3.562 61.396,3.174 61.76,2.695 C62.056,2.172 62.489,2.059 63.059,2.353 C63.925,2.719 64.756,3.129 65.554,3.584 C66.739,4.268 66.876,4.861 65.964,5.361 C65.349,5.566 65.144,6 65.349,6.66 L65.349,18.418 C65.645,19.9 64.95,20.709 63.264,20.846 C62.011,21.005 61.441,20.48 61.555,19.273 C61.555,18.749 61.282,18.486 60.735,18.486 L59.197,18.486 C58.627,18.486 58.342,18.76 58.342,19.307 L58.342,27.578 C58.183,28.877 58.764,29.492 60.085,29.424 C61.635,29.538 63.333,29.47 65.178,29.219 C65.702,29.128 66.044,28.775 66.204,28.16 C66.523,27.294 66.785,26.428 66.99,25.563 C67.24,25.334 67.445,25.289 67.605,25.426 C67.673,25.517 67.708,25.904 67.708,26.588 C67.457,27.75 67.81,28.639 68.767,29.254 C69.2,29.572 69.451,29.982 69.519,30.484 C69.565,31.555 68.938,32.227 67.639,32.5 C65.862,32.978 63.401,33.184 60.256,33.115 C58.433,33.002 57.066,32.751 56.155,32.363 C55.243,31.703 54.708,30.859 54.548,29.834 L54.548,19.342 C54.548,18.771 54.275,18.486 53.728,18.486 L52.429,18.486 C51.882,18.486 51.575,18.828 51.506,19.512 C51.415,22.314 50.64,24.935 49.182,27.373 C47.382,29.789 44.727,31.566 41.218,32.705 L39.133,33.287 C38.45,33.4 38.074,33.412 38.005,33.32 C38.096,33.024 38.335,32.83 38.723,32.74 C40.728,31.873 42.551,30.69 44.192,29.185 C46.562,26.359 47.712,23.078 47.644,19.342 C47.644,18.771 47.371,18.486 46.824,18.486 L45.388,18.486 C44.818,18.486 44.534,18.67 44.534,19.033 C44.602,20.287 43.953,20.959 42.585,21.051 C41.15,21.232 40.546,20.641 40.774,19.273 L40.774,3.961 C40.774,3.254 41.138,2.992 41.868,3.174 C42.369,3.289 42.904,3.482 43.474,3.756 C44.089,4.074 44.636,4.086 45.115,3.789 C45.981,3.266 46.903,2.559 47.883,1.67" id="Fill-54" sketch:type="MSShapeGroup"></path>
            <path d="M87.734,11.275 C87.962,10.797 88.235,10.637 88.555,10.797 C89.398,11.48 89.967,12.072 90.264,12.574 C90.674,12.984 90.867,13.394 90.845,13.805 C90.776,14.01 90.389,14.111 89.683,14.111 L79.771,14.111 C79.246,14.111 78.984,14.42 78.984,15.035 C79.053,19.889 78.814,23.705 78.267,26.484 C77.902,28.809 77.036,30.859 75.669,32.637 C74.849,33.344 74.427,33.617 74.404,33.457 C74.951,30.107 75.27,25.117 75.361,18.486 L75.361,12.711 C75.384,11.959 75.771,11.719 76.523,11.992 C77.321,12.289 78.152,12.631 79.019,13.018 C79.315,13.154 79.736,13.223 80.283,13.223 L85.444,13.223 C86.014,13.223 86.549,12.893 87.051,12.232 L87.734,11.275 L87.734,11.275 Z M81.138,1.5 C81.138,0.725 81.445,0.35 82.061,0.371 C83.86,0.44 85.125,0.702 85.855,1.158 C86.128,1.637 85.855,2.023 85.034,2.32 C84.966,2.89 84.943,3.459 84.966,4.029 C84.966,4.599 85.125,4.883 85.444,4.883 C85.877,5.043 86.219,4.838 86.47,4.268 C86.834,3.652 87.278,3.026 87.803,2.389 C87.985,2.297 88.406,2.502 89.067,3.004 C89.751,3.664 90.298,4.383 90.708,5.156 C90.708,5.771 90.264,5.977 89.375,5.771 L77.72,5.771 C77.355,5.795 76.979,5.852 76.592,5.943 C75.84,6.034 75.407,5.875 75.293,5.465 C75.179,4.918 75.509,4.667 76.284,4.713 C77.195,4.894 78.528,4.951 80.283,4.883 C80.853,4.883 81.138,4.609 81.138,4.062 L81.138,1.5 L81.138,1.5 Z M84.522,7.174 C85.205,6.422 85.866,6.217 86.504,6.559 C87.643,7.15 88.372,7.652 88.691,8.062 C88.76,8.313 88.611,8.484 88.247,8.574 C88.019,8.553 87.734,8.621 87.393,8.779 L86.948,9.019 C86.424,9.293 86.321,9.635 86.641,10.045 C87.005,10.455 87.142,10.865 87.051,11.275 C86.526,12.87 85.456,12.928 83.838,11.445 C83.268,10.99 82.653,10.865 81.992,11.07 C80.989,11.344 79.987,11.571 78.984,11.754 C78.027,11.867 77.594,11.845 77.686,11.685 C77.776,11.549 78.186,11.332 78.916,11.035 C79.531,10.762 80.147,10.443 80.762,10.078 C81.286,9.76 81.172,9.384 80.42,8.951 C79.554,8.473 78.677,7.948 77.788,7.379 C77.765,7.265 78.096,7.207 78.779,7.207 C80.078,7.412 81.377,7.664 82.676,7.959 C83.177,8.119 83.792,7.857 84.522,7.174 L84.522,7.174 Z M86.47,25.768 C86.88,25.106 87.529,25.004 88.418,25.459 C89.694,26.121 90.525,26.736 90.913,27.305 C90.981,27.783 90.606,28 89.785,27.955 C89.557,28 89.329,28.125 89.102,28.33 C86.299,30.473 82.995,31.941 79.19,32.74 C78.506,32.877 78.107,32.922 77.993,32.877 C77.97,32.762 78.301,32.523 78.984,32.158 C82.015,30.609 84.51,28.478 86.47,25.768 L86.47,25.768 Z M85.957,20.469 C86.276,19.764 86.868,19.58 87.734,19.922 C88.897,20.447 89.705,20.971 90.161,21.494 C90.184,21.973 89.944,22.189 89.443,22.144 C89.124,22.121 88.726,22.326 88.247,22.76 C86.196,24.377 83.701,25.551 80.762,26.279 C80.078,26.439 79.69,26.463 79.6,26.348 C79.668,26.211 80.044,25.949 80.728,25.563 C82.596,24.537 84.339,22.84 85.957,20.469 L85.957,20.469 Z M84.829,15.684 C85.193,14.978 85.797,14.795 86.641,15.137 C87.962,15.707 88.782,16.23 89.102,16.709 C89.102,17.187 88.874,17.393 88.418,17.324 C88.099,17.371 87.711,17.576 87.256,17.94 C85.433,19.238 83.382,20.139 81.104,20.641 C80.237,20.846 79.793,20.902 79.771,20.81 C79.748,20.721 80.147,20.39 80.967,19.82 C82.516,18.795 83.804,17.416 84.829,15.684 L84.829,15.684 Z M94.57,28.502 C95.071,27.818 95.744,27.727 96.587,28.228 C97.361,28.684 98.045,29.185 98.638,29.732 C99.23,30.348 99.093,30.69 98.228,30.758 C97.681,30.734 97.043,30.996 96.314,31.543 C94.103,32.751 91.802,33.469 89.409,33.697 C88.726,33.766 88.327,33.754 88.213,33.662 C88.167,33.525 88.611,33.24 89.546,32.809 C91.3,32.01 92.975,30.574 94.57,28.502 L94.57,28.502 Z M101.953,2.559 C102.386,1.922 102.967,1.249 103.696,0.543 C104.995,0.953 106.26,2.059 107.49,3.857 C107.308,4.268 106.852,4.404 106.123,4.268 L102.192,4.268 C101.646,4.268 101.144,4.609 100.689,5.293 C99.982,6.365 99.23,7.254 98.433,7.959 C97.817,8.461 97.794,8.711 98.364,8.711 C99.344,8.734 100.324,8.711 101.304,8.643 C101.418,8.621 101.588,8.484 101.816,8.232 C102.523,7.412 102.933,7.002 103.047,7.002 C103.981,7.23 104.881,7.596 105.747,8.096 C106.75,8.666 107.251,9.189 107.251,9.668 C107.16,9.852 106.966,10.01 106.67,10.146 C106.077,10.262 105.861,10.693 106.021,11.445 L106.021,25.152 C106.18,25.927 105.975,26.576 105.405,27.1 C104.585,27.533 103.765,27.646 102.944,27.441 C102.375,27.236 102.135,26.815 102.227,26.178 C102.227,25.79 101.953,25.596 101.406,25.596 L96.484,25.596 C95.938,25.596 95.573,25.938 95.391,26.621 C94.958,27.42 94.217,27.761 93.169,27.646 C92.075,27.557 91.631,26.873 91.836,25.596 L91.836,8.369 C91.836,7.664 92.292,7.435 93.203,7.685 C93.659,7.822 94.114,7.994 94.57,8.199 C95.231,8.586 95.721,8.758 96.04,8.711 C96.359,8.711 96.598,8.369 96.758,7.685 C96.917,6.82 97.02,5.955 97.065,5.088 C97.065,4.541 96.792,4.268 96.245,4.268 C94.445,4.199 93.157,4.268 92.383,4.473 C91.631,4.541 91.187,4.371 91.05,3.961 C90.913,3.391 91.243,3.141 92.041,3.209 C92.451,3.209 92.896,3.254 93.374,3.346 L100.449,3.346 C101.019,3.346 101.52,3.084 101.953,2.559 L101.953,2.559 Z M96.758,9.6 L95.801,9.635 C95.687,9.703 95.63,10.01 95.63,10.557 L95.63,13.19 C95.63,13.759 95.903,14.043 96.45,14.043 L101.372,14.043 C101.941,14.043 102.227,13.769 102.227,13.223 C102.249,12.06 102.227,10.888 102.158,9.703 C102.067,9.635 101.748,9.6 101.201,9.6 L96.758,9.6 L96.758,9.6 Z M102.227,15.855 C102.227,15.24 101.976,14.932 101.475,14.932 L96.484,14.932 C95.915,14.932 95.63,15.205 95.63,15.752 L95.63,18.486 C95.63,19.057 95.903,19.342 96.45,19.342 L101.372,19.342 C101.941,19.342 102.227,19.068 102.227,18.521 L102.227,15.855 L102.227,15.855 Z M102.227,21.152 C102.227,20.56 101.964,20.264 101.44,20.264 L96.484,20.264 C95.915,20.264 95.63,20.537 95.63,21.084 L95.63,23.853 C95.63,24.423 95.903,24.707 96.45,24.707 L101.372,24.707 C101.941,24.707 102.227,24.434 102.227,23.887 L102.227,21.152 L102.227,21.152 Z M101.27,28.057 L101.953,28.023 C104.209,28.092 105.963,28.991 107.217,30.723 C107.764,31.999 107.684,32.967 106.978,33.629 C105.815,34.426 104.835,34.176 104.038,32.877 C103.514,31.394 102.534,30.143 101.099,29.117 C100.392,28.752 100.027,28.513 100.005,28.398 C100.027,28.239 100.449,28.125 101.27,28.057 L101.27,28.057 Z" id="Fill-55" sketch:type="MSShapeGroup"></path>
        </g>
    </g>
</svg>