<?xml version="1.0" encoding="UTF-8" standalone="no"?>
<svg width="107px" height="34px" viewBox="0 0 107 34" version="1.1" xmlns="http://www.w3.org/2000/svg" xmlns:xlink="http://www.w3.org/1999/xlink" xmlns:sketch="http://www.bohemiancoding.com/sketch/ns">
    <!-- Generator: Sketch 3.0.4 (8053) - http://www.bohemiancoding.com/sketch -->
    <title>h1_soap_body</title>
    <desc>Created with Sketch.</desc>
    <defs></defs>
    <g id="Page-1" stroke="none" stroke-width="1" fill="none" fill-rule="evenodd" sketch:type="MSPage">
        <g id="h1_soap_body" sketch:type="MSLayerGroup" transform="translate(1.000000, 1.000000)" fill="#000000">
            <path d="M11.656,0.192 C11.724,0.078 12.1,0.067 12.784,0.158 C13.536,0.295 14.322,0.466 15.142,0.671 C15.666,0.762 16.065,0.944 16.338,1.218 C16.566,1.65 16.35,1.958 15.689,2.141 C15.256,2.255 15.005,2.517 14.937,2.927 L13.16,9.011 C13,9.603 13.182,9.899 13.707,9.899 L24.131,9.899 C24.86,10.173 25.51,9.763 26.08,8.669 C26.398,8.213 26.752,7.758 27.139,7.302 C27.618,6.641 28.278,6.755 29.122,7.644 C30.534,8.691 31.412,9.66 31.753,10.549 C31.617,10.708 31.184,10.788 30.455,10.788 L24.576,10.788 C24.029,10.788 23.698,11.13 23.585,11.814 C23.265,14.958 22.183,18.251 20.337,21.691 C19.973,22.284 20.052,22.705 20.577,22.956 C22.399,23.776 24.143,24.916 25.806,26.374 C27.515,28.06 27.994,29.655 27.242,31.159 C26.239,32.229 25.145,32.036 23.96,30.578 C21.887,28.254 20.178,26.567 18.834,25.519 C18.287,25.063 17.683,25.189 17.022,25.895 C14.196,28.493 10.687,30.27 6.495,31.227 C4.991,31.546 3.168,31.819 1.026,32.048 C0.342,32.07 -0.045,32.024 -0.136,31.911 C-0.091,31.614 0.137,31.455 0.547,31.433 C4.376,30.521 8.021,28.892 11.485,26.545 C13.08,25.383 14.356,24.175 15.313,22.922 C14.014,21.942 12.453,20.962 10.63,19.982 C9.901,19.595 9.354,19.743 8.99,20.427 L8.716,21.042 C8.534,21.498 8.397,21.782 8.306,21.896 C7.691,22.375 6.893,22.455 5.914,22.136 C5.321,21.931 4.957,21.635 4.82,21.247 C4.797,20.974 4.957,20.483 5.298,19.777 C6.529,17.065 7.577,14.365 8.443,11.677 C8.648,11.084 8.488,10.788 7.964,10.788 L2.017,10.788 L0.923,10.993 C0.194,11.061 -0.25,10.891 -0.41,10.48 C-0.524,9.911 -0.193,9.66 0.582,9.728 C1.037,9.751 1.493,9.809 1.949,9.899 L8.169,9.899 C8.716,9.899 9.115,9.558 9.366,8.874 C10.573,5.068 11.336,2.175 11.656,0.192 L11.656,0.192 Z M19.791,11.643 C19.813,11.073 19.551,10.788 19.004,10.788 L13.467,10.788 C12.92,10.788 12.522,11.13 12.271,11.814 L10.118,17.761 C9.89,18.308 10.14,18.706 10.87,18.957 C13.216,19.755 14.88,20.381 15.86,20.837 C16.407,21.064 16.897,20.837 17.33,20.153 C18.651,17.624 19.471,14.787 19.791,11.643 L19.791,11.643 Z" id="Fill-50" sketch:type="MSShapeGroup"></path>
            <path d="M47.883,0.671 C48.612,-0.104 49.307,-0.286 49.968,0.124 C51.221,0.898 52.019,1.537 52.361,2.038 C52.588,2.448 52.406,2.676 51.814,2.722 C51.518,2.676 51.233,2.71 50.96,2.824 C49.41,3.554 47.542,4.066 45.354,4.362 C44.807,4.453 44.534,4.772 44.534,5.319 L44.534,9.045 C44.534,9.614 44.682,9.899 44.978,9.899 C45.274,9.899 45.65,9.626 46.106,9.079 L46.995,7.951 C47.542,6.903 48.191,6.777 48.943,7.575 C49.512,7.939 50.185,8.544 50.96,9.387 C51.438,10.207 51.586,10.651 51.404,10.72 C51.313,10.766 50.925,10.788 50.242,10.788 L45.388,10.788 C44.818,10.788 44.534,11.061 44.534,11.608 L44.534,15.744 C44.534,16.314 44.807,16.599 45.354,16.599 L60.701,16.599 C61.27,16.599 61.555,16.325 61.555,15.778 L61.555,11.506 C61.555,10.936 61.282,10.651 60.735,10.651 L57.385,10.651 L56.326,10.788 C55.619,10.856 55.209,10.685 55.095,10.275 C54.959,9.797 55.243,9.569 55.95,9.592 C56.884,9.774 58.467,9.831 60.701,9.763 C61.27,9.763 61.555,9.489 61.555,8.942 L61.555,4.841 C61.555,4.294 61.532,3.986 61.487,3.918 C61.396,3.85 61.077,3.815 60.53,3.815 C59.185,3.793 57.841,3.815 56.497,3.884 C56.382,3.93 56.269,3.94 56.155,3.918 C55.471,4.009 55.061,3.85 54.924,3.439 C54.788,2.961 55.083,2.733 55.813,2.756 C56.702,2.915 58.319,2.949 60.667,2.858 C61.031,2.562 61.396,2.175 61.76,1.696 C62.056,1.172 62.489,1.059 63.059,1.354 C63.925,1.719 64.756,2.129 65.554,2.585 C66.739,3.269 66.876,3.861 65.964,4.362 C65.349,4.567 65.144,5 65.349,5.661 L65.349,17.419 C65.645,18.9 64.95,19.709 63.264,19.846 C62.011,20.005 61.441,19.481 61.555,18.273 C61.555,17.749 61.282,17.487 60.735,17.487 L59.197,17.487 C58.627,17.487 58.342,17.761 58.342,18.308 L58.342,26.579 C58.183,27.878 58.764,28.493 60.085,28.425 C61.635,28.538 63.333,28.47 65.178,28.22 C65.702,28.128 66.044,27.775 66.204,27.16 C66.523,26.294 66.785,25.429 66.99,24.562 C67.24,24.335 67.445,24.289 67.605,24.426 C67.673,24.517 67.708,24.904 67.708,25.588 C67.457,26.75 67.81,27.639 68.767,28.254 C69.2,28.572 69.451,28.982 69.519,29.484 C69.565,30.555 68.938,31.227 67.639,31.501 C65.862,31.979 63.401,32.185 60.256,32.116 C58.433,32.002 57.066,31.751 56.155,31.364 C55.243,30.703 54.708,29.86 54.548,28.835 L54.548,18.342 C54.548,17.772 54.275,17.487 53.728,17.487 L52.429,17.487 C51.882,17.487 51.575,17.829 51.506,18.513 C51.415,21.315 50.64,23.935 49.182,26.374 C47.382,28.789 44.727,30.566 41.218,31.706 L39.133,32.287 C38.45,32.4 38.074,32.412 38.005,32.321 C38.096,32.024 38.335,31.831 38.723,31.74 C40.728,30.874 42.551,29.689 44.192,28.185 C46.562,25.36 47.712,22.079 47.644,18.342 C47.644,17.772 47.371,17.487 46.824,17.487 L45.388,17.487 C44.818,17.487 44.534,17.67 44.534,18.034 C44.602,19.287 43.953,19.96 42.585,20.051 C41.15,20.233 40.546,19.641 40.774,18.273 L40.774,2.961 C40.774,2.255 41.138,1.992 41.868,2.175 C42.369,2.289 42.904,2.482 43.474,2.756 C44.089,3.075 44.636,3.086 45.115,2.79 C45.981,2.266 46.903,1.56 47.883,0.671" id="Fill-51" sketch:type="MSShapeGroup"></path>
            <path d="M87.905,0.739 C88.065,-0.104 88.498,-0.457 89.204,-0.32 C90.389,-0.069 91.437,0.272 92.349,0.705 C92.781,1.184 92.679,1.537 92.041,1.765 C91.608,1.765 91.004,2.221 90.23,3.132 L88.965,4.123 C88.395,4.511 88.156,4.738 88.247,4.807 L89.17,4.841 L98.159,4.841 C98.729,5 99.207,4.852 99.595,4.396 C100.119,3.234 100.689,2.847 101.304,3.234 C102.033,3.462 102.944,3.918 104.038,4.602 C104.972,5.263 104.961,5.786 104.004,6.174 C103.685,6.47 103.525,6.892 103.525,7.438 L103.525,16.052 C103.662,17.647 102.842,18.422 101.065,18.376 C100.085,18.33 99.651,17.829 99.766,16.872 C99.766,16.371 99.492,16.12 98.945,16.12 L83.77,16.12 C83.223,16.12 82.926,16.279 82.881,16.599 C82.653,17.465 82.026,17.932 81.001,18 C79.634,18.251 79.007,17.681 79.121,16.291 L79.121,4.499 C79.121,3.769 79.474,3.508 80.181,3.713 C80.955,3.918 81.741,4.214 82.539,4.602 C82.813,4.761 83.223,4.841 83.77,4.841 L85.82,4.841 C86.367,4.841 86.777,4.499 87.051,3.815 C87.393,2.79 87.677,1.765 87.905,0.739 L87.905,0.739 Z M79.497,19.777 C79.565,19.071 79.964,18.74 80.693,18.786 C81.491,18.877 82.322,19.003 83.189,19.162 C83.644,19.276 83.963,19.401 84.146,19.538 C84.328,19.721 84.236,20.028 83.872,20.461 C83.507,20.894 83.325,21.384 83.325,21.931 L83.325,23.229 C83.325,23.776 83.667,23.981 84.351,23.845 C86.06,23.435 87.769,22.978 89.478,22.477 C92.85,21.475 95.584,20.336 97.681,19.06 C98,18.809 98.318,18.752 98.638,18.889 C100.142,19.663 101.326,20.529 102.192,21.486 C102.306,21.691 102.204,21.896 101.885,22.102 C101.383,22.033 100.871,22.045 100.347,22.136 C95.447,23.412 90.047,24.369 84.146,25.007 C83.599,25.098 83.325,25.451 83.325,26.066 C83.052,27.273 83.655,27.935 85.137,28.049 C86.96,28.185 88.748,28.276 90.503,28.322 L95.972,28.322 C98.455,28.299 100.313,28.094 101.543,27.707 C102.181,27.16 102.773,26.203 103.32,24.836 C103.434,24.016 103.731,23.651 104.209,23.742 C104.3,23.856 104.312,24.255 104.243,24.939 C104.015,26.42 104.243,27.444 104.927,28.015 C105.314,28.196 105.565,28.516 105.679,28.972 C105.884,30.019 105.189,30.76 103.594,31.193 C101.247,31.785 98.501,32.059 95.356,32.014 L88.555,32.014 C85.866,31.922 83.542,31.512 81.582,30.783 C80.374,30.305 79.679,29.416 79.497,28.117 L79.497,19.777 L79.497,19.777 Z M99.629,5.729 L83.77,5.729 C83.2,5.729 82.915,6.003 82.915,6.55 L82.915,9.182 C82.915,9.751 83.189,10.036 83.735,10.036 L98.911,10.036 C99.481,10.036 99.766,9.763 99.766,9.216 L99.766,6.721 C99.766,6.174 99.72,5.844 99.629,5.729 L99.629,5.729 Z M99.766,11.814 C99.766,11.221 99.503,10.925 98.98,10.925 L83.77,10.925 C83.2,10.925 82.915,11.198 82.915,11.745 L82.915,14.377 C82.915,14.946 83.189,15.231 83.735,15.231 L98.911,15.231 C99.481,15.231 99.766,14.958 99.766,14.411 L99.766,11.814 L99.766,11.814 Z" id="Fill-52" sketch:type="MSShapeGroup"></path>
        </g>
    </g>
</svg>