<?xml version="1.0" encoding="UTF-8" standalone="no"?>
<svg width="109px" height="34px" viewBox="0 0 109 34" version="1.1" xmlns="http://www.w3.org/2000/svg" xmlns:xlink="http://www.w3.org/1999/xlink" xmlns:sketch="http://www.bohemiancoding.com/sketch/ns">
    <!-- Generator: Sketch 3.0.4 (8053) - http://www.bohemiancoding.com/sketch -->
    <title>h1_toner</title>
    <desc>Created with Sketch.</desc>
    <defs></defs>
    <g id="Page-1" stroke="none" stroke-width="1" fill="none" fill-rule="evenodd" sketch:type="MSPage">
        <g id="h1_toner" sketch:type="MSLayerGroup" transform="translate(0.000000, 1.000000)" fill="#000000">
            <path d="M7.837,0.705 C7.996,-0.001 8.429,-0.309 9.136,-0.218 C10.548,0.147 11.779,0.614 12.827,1.184 C13.648,1.64 13.704,2.106 12.998,2.585 C12.292,2.471 11.824,2.824 11.597,3.644 L9.238,8.43 C8.874,9.113 9.033,9.638 9.717,10.002 C10.172,10.275 10.457,10.48 10.571,10.617 C10.617,10.754 10.491,10.993 10.195,11.335 C9.808,11.677 9.614,12.099 9.614,12.6 L9.614,31.672 C9.409,32.492 8.851,32.914 7.94,32.936 C6.731,33.119 5.945,32.72 5.581,31.74 L5.581,14.89 C5.581,14.297 5.216,14.366 4.487,15.095 C3.143,16.53 1.798,17.567 0.454,18.205 C0.158,18.023 0.272,17.658 0.796,17.111 C1.502,16.2 2.151,15.289 2.744,14.377 C5.433,10.139 7.13,5.581 7.837,0.705 L7.837,0.705 Z M15.562,1.354 C15.607,0.625 15.983,0.272 16.69,0.295 C18.33,0.477 19.515,0.671 20.244,0.876 C20.95,1.4 20.939,1.845 20.21,2.209 C19.686,2.369 19.492,2.802 19.629,3.508 L19.629,13.83 C19.629,14.4 19.982,14.4 20.689,13.83 C23.514,11.438 25.667,8.954 27.148,6.379 C27.604,5.581 28.196,5.411 28.926,5.866 C30.11,6.596 30.988,7.279 31.558,7.917 C31.877,8.464 31.648,8.737 30.874,8.737 C30.486,8.737 29.985,9.045 29.37,9.66 C26.385,12.394 23.445,14.354 20.552,15.539 C19.937,15.79 19.629,16.166 19.629,16.667 L19.629,26.237 C19.469,27.217 19.822,27.844 20.689,28.117 C24.334,28.391 26.841,28.356 28.208,28.015 C28.869,27.969 29.404,27.434 29.815,26.408 C30.156,25.451 30.452,24.483 30.703,23.503 C30.84,23.275 31.033,23.195 31.284,23.264 C31.535,23.515 31.614,23.993 31.523,24.699 C31.364,25.884 31.614,26.898 32.275,27.741 C32.776,27.923 33.152,28.299 33.403,28.869 C33.814,29.78 33.403,30.612 32.173,31.364 C30.418,32.093 27.034,32.424 22.022,32.355 C20.563,32.287 19.196,32.036 17.92,31.603 C16.393,30.874 15.607,29.735 15.562,28.185 L15.562,1.354 L15.562,1.354 Z" id="Fill-34" sketch:type="MSShapeGroup"></path>
            <path d="M46.662,0.739 C46.662,0.033 47.015,-0.297 47.722,-0.252 C49.499,-0.069 50.695,0.158 51.311,0.432 C51.88,0.91 51.766,1.343 50.969,1.73 C50.467,1.913 50.296,2.323 50.456,2.961 L50.456,31.433 C50.114,32.458 49.328,32.891 48.098,32.731 C46.89,32.549 46.411,31.831 46.662,30.578 L46.662,19.435 C46.662,18.866 46.389,18.581 45.842,18.581 L45.158,18.581 C44.588,18.581 44.292,18.923 44.27,19.606 C44.247,22.979 43.768,25.77 42.834,27.98 C42.082,30.008 40.566,31.546 38.288,32.595 C38.197,32.503 38.345,32.07 38.732,31.296 C39.963,27.992 40.555,24.061 40.51,19.504 C40.51,18.957 40.168,18.695 39.484,18.718 C38.618,18.741 38.128,18.559 38.015,18.171 C37.9,17.715 38.186,17.499 38.869,17.521 L40.236,17.658 L45.808,17.658 C46.377,17.658 46.662,17.385 46.662,16.838 L46.662,11.779 C46.662,11.21 46.389,10.925 45.842,10.925 L44.475,10.925 C43.905,10.925 43.62,11.187 43.62,11.711 C43.802,12.828 43.313,13.454 42.15,13.591 C41.034,13.705 40.293,13.42 39.929,12.736 C39.883,12.623 39.86,12.224 39.86,11.54 L39.86,1.56 C39.86,0.853 40.305,0.534 41.193,0.602 C42.104,0.717 43.016,0.876 43.928,1.081 C44.315,1.149 44.52,1.366 44.543,1.73 C44.588,1.958 44.326,2.232 43.757,2.551 C43.666,2.688 43.62,3.018 43.62,3.542 L43.62,9.182 C43.62,9.751 43.894,10.036 44.44,10.036 L45.808,10.036 C46.377,10.036 46.662,9.763 46.662,9.216 L46.662,0.739 L46.662,0.739 Z M57.531,1.252 C57.668,0.5 58.089,0.136 58.796,0.158 L61.12,0.432 C61.986,0.705 62.441,0.91 62.487,1.047 C62.601,1.389 62.407,1.651 61.906,1.833 C61.428,2.016 61.189,2.289 61.189,2.653 L59.89,9.318 C59.798,9.865 60.026,10.139 60.573,10.139 L63.171,10.139 C63.74,10.139 64.253,9.877 64.709,9.352 C65.119,8.76 65.575,8.156 66.076,7.541 C66.555,6.949 67.124,7.006 67.785,7.712 C68.788,8.35 69.756,9.318 70.69,10.617 C70.69,10.754 70.633,10.879 70.52,10.993 C69.745,11.061 68.97,11.084 68.195,11.061 C67.648,11.061 67.341,11.403 67.273,12.087 C66.862,16.553 65.917,20.29 64.436,23.298 C64.116,23.868 64.31,24.323 65.017,24.665 C67.021,25.645 68.48,27.046 69.392,28.869 C69.916,30.008 69.676,31.011 68.674,31.877 C67.876,32.241 67.09,32.014 66.315,31.193 C65.244,29.78 64.219,28.561 63.239,27.536 C62.601,26.898 61.963,26.921 61.325,27.604 C58.705,30.248 55.947,31.843 53.054,32.39 C52.37,32.48 51.994,32.48 51.926,32.39 C51.948,32.185 52.165,31.991 52.575,31.809 C55.195,30.395 57.451,28.356 59.343,25.69 C59.798,25.007 59.685,24.38 59.001,23.81 L57.634,22.854 C56.927,22.421 56.438,22.546 56.164,23.229 C55.868,24.415 54.888,24.825 53.225,24.46 C52.176,24.05 51.994,23.229 52.678,21.999 C54.067,17.943 55.093,14.343 55.754,11.198 C55.731,11.107 55.446,11.061 54.899,11.061 C54.261,11.039 53.578,11.107 52.849,11.267 C52.097,11.335 51.652,11.164 51.516,10.754 C51.379,10.185 51.709,9.934 52.507,10.002 C53.35,10.093 54.227,10.139 55.139,10.139 C55.686,10.139 56.039,9.797 56.198,9.113 C56.859,6.037 57.303,3.417 57.531,1.252 L57.531,1.252 Z M63.581,12.019 C63.649,11.381 63.433,11.061 62.932,11.061 L60.368,11.061 C59.821,11.061 59.457,11.403 59.274,12.087 L57.087,20.495 C56.927,21.042 57.19,21.43 57.873,21.657 L60.163,22.477 C60.732,22.728 61.166,22.512 61.462,21.828 C62.578,18.912 63.285,15.642 63.581,12.019 L63.581,12.019 Z" id="Fill-35" sketch:type="MSShapeGroup"></path>
            <path d="M84.462,8.942 C84.873,8.305 85.419,8.1 86.103,8.327 C86.877,8.737 87.652,9.227 88.427,9.797 C89.043,10.162 89.077,10.583 88.53,11.061 C88.028,11.267 87.755,11.665 87.71,12.258 C87.003,16.04 85.305,19.686 82.617,23.195 C80.657,25.816 78.424,27.798 75.918,29.143 C75.781,29.143 75.667,29.085 75.576,28.972 C75.553,28.835 75.895,28.447 76.601,27.81 C78.15,26.374 79.563,24.449 80.839,22.033 C82.502,18.706 83.54,15.289 83.95,11.779 C83.995,11.027 83.733,10.651 83.164,10.651 L78.994,10.651 L77.9,10.822 C77.193,10.914 76.772,10.743 76.635,10.31 C76.521,9.809 76.817,9.569 77.524,9.592 C78.002,9.615 78.481,9.672 78.96,9.763 L83.027,9.763 C83.619,9.763 84.098,9.489 84.462,8.942 L84.462,8.942 Z M90.273,0.158 C90.341,0.044 90.706,0.021 91.367,0.09 L93.725,0.363 C94.317,0.455 94.739,0.637 94.99,0.91 C95.149,1.298 94.956,1.605 94.409,1.833 C94.044,1.901 93.907,2.198 93.999,2.722 C94.477,6.276 95.195,9.433 96.152,12.189 C96.357,12.782 96.79,12.77 97.451,12.155 C99.41,10.241 101.199,7.746 102.817,4.67 C103.25,3.941 103.808,3.725 104.492,4.02 C105.152,4.317 105.813,4.704 106.474,5.183 C107.066,5.479 107.34,5.832 107.294,6.242 C107.18,6.47 106.93,6.573 106.543,6.55 C106.201,6.459 105.768,6.778 105.244,7.507 C102.805,10.15 100.242,12.155 97.553,13.522 C97.075,13.773 97.006,14.274 97.348,15.026 C99.581,20.063 102.965,23.868 107.5,26.442 C108.342,26.943 108.696,27.228 108.559,27.297 C107.648,27.388 106.873,27.536 106.235,27.741 C105.825,27.9 105.369,28.242 104.868,28.767 C104.275,29.427 103.922,29.758 103.808,29.758 C102.008,28.641 100.265,26.943 98.579,24.665 C96.482,21.543 95.035,18.068 94.238,14.24 C94.078,13.716 93.999,13.716 93.999,14.24 L93.999,29.621 C93.474,31.375 92.187,32.367 90.136,32.595 C89.43,32.617 88.985,32.275 88.803,31.569 C88.393,30.658 87.721,30.065 86.787,29.792 C86.08,29.519 85.681,29.313 85.59,29.177 C85.544,29.017 85.909,28.892 86.684,28.801 L88.872,28.801 C90.011,28.869 90.466,28.391 90.239,27.365 L90.239,1.252 L90.273,0.158 L90.273,0.158 Z" id="Fill-36" sketch:type="MSShapeGroup"></path>
        </g>
    </g>
</svg>