<?xml version="1.0" encoding="UTF-8" standalone="no"?>
<svg width="135px" height="26px" viewBox="0 0 135 26" version="1.1" xmlns="http://www.w3.org/2000/svg" xmlns:xlink="http://www.w3.org/1999/xlink" xmlns:sketch="http://www.bohemiancoding.com/sketch/ns">
    <!-- Generator: Sketch 3.0.4 (8053) - http://www.bohemiancoding.com/sketch -->
    <title>h3_about</title>
    <desc>Created with Sketch.</desc>
    <defs></defs>
    <g id="Page-1" stroke="none" stroke-width="1" fill="none" fill-rule="evenodd" sketch:type="MSPage">
        <g id="h1_about" sketch:type="MSLayerGroup" transform="translate(0.473061, 0.728697)" fill="#000000">
            <path d="M0.291478795,1.46322355 C0.291478795,0.932003446 0.532677497,0.666029046 1.01434621,0.666029046 L7.7139863,0.666029046 C8.22844637,0.666029046 8.48640511,0.915243415 8.48640511,1.41294346 L8.48640511,1.63738213 C8.48640511,2.1525709 8.23719074,2.40980093 7.738762,2.40980093 L2.6830623,2.40980093 C2.26770502,2.40980093 2.06002638,2.60873521 2.06002638,3.00733246 L2.06002638,21.5628725 C2.06002638,22.0773326 1.81081201,22.3345626 1.31311197,22.3345626 L1.0391219,22.3345626 C0.540693164,22.3345626 0.291478795,22.086077 0.291478795,21.5876482 L0.291478795,1.46322355" id="Fill-75" sketch:type="MSShapeGroup"></path>
            <path d="M20.3393903,0.940019113 C20.3226303,0.408799009 20.5550846,0.15958464 21.0367533,0.193104701 C21.6014935,0.242656097 22.1662336,0.325727553 22.7302451,0.441590374 C23.5609597,0.441590374 23.9588282,0.715580441 23.9260369,1.26356057 C23.8764855,1.34736073 23.7598939,1.45520788 23.5777197,1.58783073 C23.1456024,1.68693352 22.9874751,1.98642799 23.1040667,2.48412803 L23.1040667,22.3345626 C23.1536181,23.6301859 22.5728466,24.1941973 21.3610235,24.0287831 C20.5135489,23.8786716 20.1732474,23.3722271 20.3393903,22.5094499 L20.3393903,16.6062756 C20.3393903,16.2076784 20.0901759,16.1829027 19.5924759,16.5312198 C18.6954499,17.2293116 17.6330097,17.9594659 16.4044266,18.7231404 C15.9562779,19.0889463 15.7318392,19.3294163 15.7318392,19.4452791 C15.7981507,19.7112535 15.7070635,19.8854121 15.4578492,19.9684835 C15.2589149,19.9852436 15.0672676,19.8693807 14.8850933,19.6201664 C14.3699046,18.6240376 13.9632917,17.6607002 13.6645259,16.7308828 C13.7140773,16.6645714 13.9713073,16.5814999 14.4369447,16.4816684 C14.9178847,16.398597 15.1590834,16.158127 15.1590834,15.7595297 L15.1590834,4.80065575 C15.1590834,4.25267561 15.4578492,3.98742991 16.0553807,4.00346124 C17.2839638,4.12005276 18.1139497,4.30222701 18.546067,4.55144138 C18.7952814,4.9340073 18.6211228,5.21601303 18.0228626,5.39818728 C17.9733112,5.44846737 17.9485355,5.67217734 17.9485355,6.0707746 L17.9485355,15.1364938 C17.9485355,15.5350911 18.1977498,15.6596982 18.6954499,15.5103154 L19.7418588,15.1117181 C20.140456,14.9127838 20.3393903,14.6140181 20.3393903,14.2154208 L20.3393903,0.940019113 L20.3393903,0.940019113 Z M27.0645348,0.217880399 C27.1803976,0.0684975167 27.3713162,0.0182174247 27.6372906,0.0684975167 C28.7995623,0.184360338 29.7956911,0.441590374 30.625677,0.840187626 C31.1241057,1.27230494 31.0322899,1.5710707 30.3516869,1.73721362 C30.0361611,1.83631641 29.8620025,2.04472374 29.8292111,2.35952084 C29.5136854,3.37240965 29.1646395,4.41080286 28.7828023,5.47324307 C28.6494507,5.87184032 28.7828023,6.0707746 29.1813995,6.0707746 C30.2270797,6.08753463 31.2734886,6.0707746 32.3198974,6.0212232 C32.4190002,5.95491177 32.5268474,5.84633592 32.6434389,5.69695304 C32.9917561,5.199253 33.3735933,4.70082426 33.7889506,4.20312422 C34.1044764,3.70469548 34.5861451,3.77902257 35.2339567,4.42683419 C35.6981367,4.79264008 36.1630454,5.21601303 36.6286827,5.69695304 C36.9937599,6.17862175 37.1599028,6.47811621 37.1263828,6.59397903 C37.02728,6.69308182 36.7197699,6.74336191 36.2053098,6.74336191 L35.5327225,6.74336191 C35.1341252,6.74336191 34.9016709,6.99257628 34.8353594,7.49027633 C34.6021764,11.3428973 33.7393992,14.6970895 32.2448417,17.552853 C32.0123873,17.9346902 32.1617702,18.3413032 32.6929903,18.7734205 C33.9215734,19.7695492 35.1836766,20.4669123 36.4792998,20.8655095 C37.1599028,21.0476838 37.4754286,21.1970666 37.4251485,21.3136582 C37.3588371,21.4134896 37.0768314,21.5213368 36.5784026,21.6371996 C36.0136625,21.8528939 35.5574982,22.2434755 35.2084523,22.8082157 C34.9432066,23.3059157 34.7683193,23.5631458 34.6859766,23.5799058 C33.191419,22.9823743 31.8965245,22.0190368 30.8005642,20.6906222 C30.5010698,20.308785 30.1607683,20.325545 29.7789311,20.7409023 C28.0854393,22.3513227 26.2258045,23.3314201 24.2000269,23.6797373 C24.1169555,23.6301859 24.0754197,23.5631458 24.0754197,23.480803 C24.1249711,23.3809715 24.3989612,23.1813085 24.8973899,22.8825428 C26.5078103,21.7530624 27.7946892,20.4581679 28.7580266,18.9971304 C29.0567923,18.5161904 29.0735524,18.0177617 28.807578,17.5025729 C27.7116177,15.261101 27.0477747,12.8287104 26.8153204,10.2054013 C26.7818003,9.74049262 26.5741217,9.75725265 26.1922845,10.2549527 C25.4453701,11.3181216 24.6401599,12.1568518 23.776654,12.7704147 C23.4276081,12.6210318 23.5106796,12.2807303 24.0258683,11.7495102 C25.868743,8.66129238 26.8816318,4.81741578 27.0645348,0.217880399 L27.0645348,0.217880399 Z M32.1952903,7.39117354 C32.2280816,6.95905622 32.053923,6.74336191 31.6720858,6.74336191 L28.8826338,6.74336191 C28.4840365,6.74336191 28.1517507,6.99257628 27.886505,7.49027633 C27.3217648,8.30423086 27.1301175,8.88500236 27.3130205,9.23404821 C27.5957549,11.1767544 28.4505164,13.3183948 29.8787625,15.6596982 C30.1775283,16.0918156 30.4267427,16.0422642 30.625677,15.5103154 C31.4396315,13.2360521 31.9621072,10.5289428 32.1952903,7.39117354 L32.1952903,7.39117354 Z" id="Fill-76" sketch:type="MSShapeGroup"></path>
            <path d="M44.4476014,-0.0808853655 C44.4971528,-0.163956822 44.7543828,-0.18873252 45.2192915,-0.155941155 C45.7672716,-0.10638976 46.3400275,-0.0313339704 46.9382877,0.0684975167 C47.4695078,0.284191825 47.7515135,0.42555904 47.7850336,0.491870466 C47.851345,0.757844866 47.6852021,0.96479481 47.2866049,1.11417769 C47.137222,1.14769775 47.0628949,1.37213643 47.0628949,1.78676501 L47.0628949,5.74723313 C47.0628949,6.14583039 47.0956862,6.36152469 47.1619977,6.39431606 C47.4607634,6.27845324 47.7682736,5.93815174 48.0837994,5.37341158 C48.4656366,4.87498284 48.6893466,4.6177528 48.7563867,4.60099277 C48.8226981,4.60099277 49.1047038,4.80940011 49.6031326,5.2240287 C49.8523469,5.47324307 50.0680413,5.72172874 50.2509442,5.97094311 C50.5161899,6.46937185 50.6320527,6.76813761 50.5992614,6.8679691 C50.5329499,6.98383192 50.2421998,7.04212768 49.7277398,7.04212768 L47.6852021,7.04212768 C47.2698448,7.04212768 47.0628949,7.24179065 47.0628949,7.63965921 L47.0628949,10.7781571 C47.0628949,11.1767544 47.3113806,11.2846015 47.8098093,11.1016986 L49.5528525,10.3300085 C50.0680413,10.0975541 50.3580627,10.0144827 50.4251028,10.0807941 C50.4411341,10.1638656 50.1919197,10.4626313 49.6774597,10.9770914 C49.0631681,11.5418316 48.4153565,12.0730517 47.7347535,12.5714804 C47.2866049,12.9037662 47.0628949,13.2440677 47.0628949,13.5923849 L47.0628949,21.9111897 C46.7634004,23.1732929 45.8671031,23.9121916 44.3725456,24.1278859 C43.8245655,24.144646 43.5257997,23.8954316 43.4762483,23.3809715 C43.3428968,22.6996398 42.786901,22.126884 41.8075322,21.6619753 C41.7907722,21.2801381 42.0815223,21.1642753 42.6790538,21.3136582 L43.6256312,21.3136582 C44.2559541,21.3799696 44.5219285,21.0476838 44.422097,20.3175294 L44.422097,15.3113811 C44.422097,14.8792638 44.164867,14.8216967 43.6504069,15.1364938 C43.301361,15.3361568 43.1519782,15.5766268 43.2022582,15.8593612 C43.1519782,16.1246069 43.0025953,16.2244384 42.7533809,16.158127 C42.5209266,16.0750555 42.330008,15.8258412 42.1806251,15.4104839 C41.8986193,14.8129523 41.6413893,14.2154208 41.408935,13.6171606 C41.2595521,13.0859405 41.4417263,12.7791591 41.9569151,12.6960876 C42.5544466,12.6297762 43.1767539,12.5299447 43.8245655,12.3973218 C44.2231627,12.2974903 44.422097,12.048276 44.422097,11.6496787 L44.422097,7.6651636 C44.422097,7.24980632 44.2231627,7.04212768 43.8245655,7.04212768 C43.5090397,7.04212768 43.1935139,7.06690338 42.8779881,7.11718347 L41.7820278,7.29134205 C41.7157164,7.24179065 41.649405,7.08366341 41.5830935,6.81768901 L41.4832621,6.31998896 C41.5167821,6.25367754 41.7820278,6.23691751 42.2804566,6.26970887 L43.7997898,6.39431606 C44.2144184,6.39431606 44.422097,6.19538178 44.422097,5.79678453 L44.422097,0.715580441 L44.4476014,-0.0808853655 L44.4476014,-0.0808853655 Z M55.7052411,0.666029046 C55.7052411,0.0852575474 55.9289511,-0.197476883 56.3778285,-0.180716853 C57.5561315,-0.131165458 58.4699175,0.051737486 59.1170004,0.367263281 C59.3494548,0.699549107 59.1505205,0.998314872 58.5194689,1.26356057 C58.4859488,1.67891786 58.4779332,2.11905084 58.4946932,2.58395951 C58.4946932,2.9993168 58.6936275,3.20626674 59.0922247,3.20626674 L59.8150921,3.20626674 C60.2297207,3.20626674 60.5947979,3.01607683 60.9103237,2.63351091 C61.4750639,1.80352504 61.9479882,1.305825 62.3305541,1.13895339 C63.0607085,1.50475928 63.7580715,2.06949944 64.4226432,2.83317388 C64.7709604,3.28132253 64.9458476,3.56405696 64.9458476,3.67991978 C64.8460161,3.7957826 64.538506,3.85407836 64.0240459,3.85407836 L59.1170004,3.85407836 C58.7023718,3.85407836 58.4946932,4.05374134 58.4946932,4.45160989 L58.4946932,5.87184032 C58.4946932,6.2864689 58.6936275,6.49414754 59.0922247,6.49414754 L59.8894192,6.49414754 C60.2880165,6.49414754 60.645078,6.336749 60.9606038,6.0212232 C61.342441,5.50676313 61.6659825,5.36539591 61.9319569,5.59785025 C62.5294884,5.84633592 63.1933314,6.20412614 63.9242145,6.66830612 C64.5880574,7.00059195 64.6295931,7.36566914 64.0488216,7.76426639 C63.7165358,7.91364927 63.5919286,8.23791943 63.6750001,8.73561948 L63.6750001,14.4391308 C63.6582401,14.6052737 63.5758973,14.7714166 63.4265144,14.9375595 C63.0774686,15.2530853 62.4959684,15.4104839 61.6827425,15.4104839 C61.1843138,15.3609325 60.9190681,15.054151 60.885548,14.4894109 C60.885548,14.3065079 60.6866137,14.2154208 60.2880165,14.2154208 L59.2918877,14.2154208 C58.8765304,14.2154208 58.6688518,14.4143551 58.6688518,14.8129523 L58.6688518,17.0296486 C58.6688518,17.4450059 58.8685148,17.6526845 59.267112,17.6526845 C59.8311235,17.6694445 60.4206393,17.6526845 61.0349309,17.6024044 C61.1012423,17.569613 61.2098182,17.4530215 61.3592011,17.2540872 L62.1308912,16.2572298 C62.5294884,15.460764 63.0031415,15.3609325 63.5503929,15.958464 C64.0655817,16.3410299 64.5472504,16.7644029 64.995399,17.2293116 C65.3604762,17.7437716 65.5346348,18.0505531 65.5186035,18.1503845 C65.4515633,18.250216 65.1527976,18.2997674 64.6215775,18.2997674 L59.2918877,18.2997674 C58.8765304,18.2997674 58.6688518,18.4994304 58.6688518,18.8980277 L58.6688518,22.4343941 C58.8845461,23.3970028 58.4699175,23.9369673 57.4235086,24.0535588 C56.1781655,24.0032787 55.6717211,23.4888187 55.9041754,22.5094499 L55.9041754,18.9228033 C55.9041754,18.5074461 55.7052411,18.2997674 55.3066439,18.2997674 L50.4498785,18.2997674 L49.652684,18.4243746 C49.1214639,18.5242061 48.7971937,18.4163589 48.6813309,18.1008331 C48.5654681,17.6854759 48.7971937,17.4945573 49.3786939,17.5280773 C49.7109797,17.5448373 50.0425369,17.5863731 50.3748227,17.6526845 L55.2818682,17.6526845 C55.6964968,17.6526845 55.9041754,17.4530215 55.9041754,17.0544243 L55.9041754,14.837728 C55.9041754,14.4230995 55.7052411,14.2154208 55.3066439,14.2154208 L54.4103466,14.2154208 C53.9949893,14.2154208 53.7873107,14.3312836 53.7873107,14.563738 C53.8871422,15.277861 53.4885449,15.734754 52.5915189,15.9336883 C51.4795273,16.1829027 50.9643385,15.8010655 51.04741,14.7881766 L51.04741,6.0459989 C51.04741,5.51477879 51.30464,5.32386018 51.8198288,5.47324307 C52.2847375,5.57234586 52.848749,5.78075319 53.5133206,6.09555029 C53.9614693,6.36152469 54.4183623,6.49414754 54.8832709,6.49414754 C55.4312511,6.49414754 55.7052411,6.29521327 55.7052411,5.89661602 L55.7052411,0.666029046 L55.7052411,0.666029046 Z M60.9103237,7.83932218 C60.9103237,7.3744135 60.7026451,7.14195917 60.2880165,7.14195917 L54.4103466,7.14195917 C53.9949893,7.14195917 53.7873107,7.34089344 53.7873107,7.73949069 L53.7873107,9.45775819 C53.7873107,9.87311547 53.9862449,10.0807941 54.3848422,10.0807941 L60.2880165,10.0807941 C60.7026451,10.0807941 60.9103237,9.88113114 60.9103237,9.48326258 L60.9103237,7.83932218 L60.9103237,7.83932218 Z M60.9103237,11.3756887 C60.9103237,10.9443 60.7194051,10.7286057 60.3375679,10.7286057 L54.4103466,10.7286057 C53.9949893,10.7286057 53.7873107,10.92754 53.7873107,11.3261373 L53.7873107,12.9197976 C53.7873107,13.3351549 53.9862449,13.5428335 54.3848422,13.5428335 L60.2880165,13.5428335 C60.7026451,13.5428335 60.9103237,13.3431705 60.9103237,12.945302 L60.9103237,11.3756887 L60.9103237,11.3756887 Z" id="Fill-77" sketch:type="MSShapeGroup"></path>
            <path d="M73.934325,2.83317388 C74.2833708,2.28519375 74.665208,2.11030647 75.0805653,2.30996945 C75.8777598,2.64225527 76.5408741,2.98255677 77.0735516,3.33087393 C77.7709146,3.86282273 77.6710831,4.29421134 76.7740571,4.62649717 C76.7077457,4.70956862 76.6749543,4.95003863 76.6749543,5.34863588 L76.6749543,15.8841369 C76.8396398,16.8307143 76.4082512,17.3786944 75.3793311,17.5280773 C74.3336509,17.7109803 73.8847736,17.2708473 74.0341564,16.2076784 L74.0341564,15.4359883 C74.0341564,15.020631 73.8352222,14.8129523 73.4366249,14.8129523 L72.6394304,14.8129523 C72.2240731,14.8129523 72.0171232,15.0126153 72.0171232,15.4104839 L72.0171232,17.0792 C71.8677403,17.9099145 71.3525515,18.3165275 70.4722856,18.2997674 C69.5264369,18.2669761 69.1526153,17.7772917 69.3515496,16.8307143 L69.3515496,3.25654683 C69.3515496,2.75811809 69.3850697,2.50088806 69.4513811,2.48412803 C70.1152241,2.61747958 70.7462756,2.82442952 71.3445359,3.10716395 C71.7431331,3.29006689 72.1745217,3.38115402 72.6394304,3.38115402 C73.1538905,3.38115402 73.5860078,3.19825107 73.934325,2.83317388 L73.934325,2.83317388 Z M72.1665061,4.07851703 C72.0666746,4.1120371 72.0171232,4.31898704 72.0171232,4.70082426 L72.0171232,13.5428335 C72.0171232,13.9581908 72.2160575,14.1651407 72.6146547,14.1651407 L73.4118492,14.1651407 C73.8264778,14.1651407 74.0341564,13.9662064 74.0341564,13.5676092 L74.0341564,4.72559996 C74.0341564,4.27745131 73.8184621,4.05374134 73.3870735,4.05374134 C72.9884763,4.03698131 72.5811347,4.04499697 72.1665061,4.07851703 L72.1665061,4.07851703 Z M89.0526013,0.167600307 C89.4679586,0.102017578 90.1900973,0.367263281 91.2204749,0.96479481 C91.9331405,1.29708064 92.2166037,1.67090219 92.0672208,2.08553078 C91.3698578,2.35150518 91.111899,2.75811809 91.2940733,3.30609823 L91.2940733,11.7247345 C91.4609449,12.6880719 91.0368432,13.2520834 90.0246831,13.4182263 C89.26028,13.6171606 88.7625799,13.3934506 88.5301256,12.745639 L88.5301256,11.7495102 C88.5301256,11.3348816 88.3311913,11.1264743 87.9325941,11.1264743 L81.7554297,11.1264743 C81.3400724,11.1264743 81.1323938,11.3261373 81.1323938,11.7247345 L81.1323938,20.1433708 C81.1491538,20.491688 81.2402409,20.7817094 81.4071126,21.0148924 C81.6060468,21.1803066 81.9791397,21.2553624 82.5271198,21.2386024 C84.7358004,21.3384339 86.6442578,21.3136582 88.2554068,21.1642753 C89.48399,21.0476838 90.3802872,20.1681465 90.9457561,18.5242061 C91.2117305,18.009746 91.3771447,17.7437716 91.4434562,17.7270116 C91.6598792,17.7772917 91.7509663,17.9594659 91.7181749,18.2749917 C91.6686235,18.7399004 91.6511348,19.2048091 91.6686235,19.6697178 C91.5848234,20.1681465 91.8748448,20.6323265 92.5394164,21.0644438 C93.2367794,22.0773326 93.0465895,22.8329914 91.9673893,23.3314201 C90.7876289,23.7956001 89.2107286,24.0287831 87.2352311,24.0287831 L83.3993701,24.0287831 C82.2691611,23.9952631 81.2147366,23.8954316 80.2353678,23.7292887 C79.5380048,23.5966658 79.0075134,23.0734614 78.6417075,22.1604041 C78.4923246,21.7450468 78.4012375,21.3216738 78.3684461,20.8902852 L78.3684461,1.26356057 C78.3684461,0.732340472 78.6249475,0.508630497 79.1401362,0.590973256 C79.5380048,0.707564774 79.936602,0.856947656 80.3351993,1.0398506 C80.8008367,1.27230494 81.1149051,1.39691212 81.2817767,1.41294346 L87.3846139,1.41294346 C87.9981768,1.5958464 88.4550698,1.31384067 88.7538356,0.566197559 C88.8704271,0.384023312 88.9702586,0.25140046 89.0526013,0.167600307 L89.0526013,0.167600307 Z M81.9550927,2.06075508 C81.4071126,2.1270665 81.1323938,2.33474515 81.1323938,2.683791 L81.1323938,9.85635544 C81.1323938,10.2717127 81.3313281,10.4793914 81.7299253,10.4793914 L82.7763342,10.4793914 C83.1916915,10.4793914 83.3993701,10.2797284 83.3993701,9.88113114 L83.3993701,2.683791 C83.3993701,2.26843372 83.2004358,2.06075508 82.8018386,2.06075508 L81.9550927,2.06075508 L81.9550927,2.06075508 Z M88.5301256,2.7333424 C88.5301256,2.28519375 88.322447,2.06075508 87.9070897,2.06075508 L86.6872509,2.06075508 C86.2718936,2.06075508 86.0634863,2.26041805 86.0634863,2.65828661 L86.0634863,9.85635544 C86.0634863,10.2717127 86.2631493,10.4793914 86.6617465,10.4793914 L87.9070897,10.4793914 C88.322447,10.4793914 88.5301256,10.2797284 88.5301256,9.88113114 L88.5301256,2.7333424 L88.5301256,2.7333424 Z" id="Fill-78" sketch:type="MSShapeGroup"></path>
            <path d="M107.656235,8.96005815 C108.38639,8.81067527 109.050961,8.86897102 109.649222,9.13421673 C111.309193,10.1143142 111.906725,11.3261373 111.442545,12.7704147 C110.794733,14.3983238 109.690029,15.1700139 108.129888,15.0869424 C106.501979,14.7051052 105.580906,13.7672722 105.365212,12.2727146 C105.265381,10.7286057 106.029055,9.6239011 107.656235,8.96005815 L107.656235,8.96005815 Z M109.076466,9.85635544 C108.379103,9.64066113 107.68174,9.79878838 106.983648,10.3300085 C106.386117,10.92754 106.153662,11.5921117 106.286285,12.322266 C106.369357,13.0691805 106.82625,13.6506807 107.656235,14.0660379 C108.619573,14.4143551 109.449559,14.2074051 110.146922,13.443002 C111.209362,11.9484445 110.8523,10.7533814 109.076466,9.85635544 L109.076466,9.85635544 Z" id="Fill-79" sketch:type="MSShapeGroup"></path>
            <path d="M132.062484,2.93227667 C132.062484,2.40105657 132.294938,2.13581087 132.760575,2.13581087 L133.059341,2.13581087 C133.573801,2.13581087 133.831031,2.38429654 133.831031,2.88272528 L133.831031,22.1851798 C133.831031,22.6996398 133.581817,22.9575986 133.084117,22.9575986 L126.409252,22.9575986 C125.894064,22.9575986 125.636834,22.7083842 125.636834,22.2099555 L125.636834,21.9862455 C125.636834,21.4710567 125.886048,21.2138267 126.384477,21.2138267 L131.440176,21.2138267 C131.854805,21.2138267 132.062484,21.0148924 132.062484,20.6162951 L132.062484,2.93227667" id="Fill-80" sketch:type="MSShapeGroup"></path>
        </g>
    </g>
</svg>