<?xml version="1.0" encoding="UTF-8" standalone="no"?>
<svg width="438px" height="26px" viewBox="0 0 438 26" version="1.1" xmlns="http://www.w3.org/2000/svg" xmlns:xlink="http://www.w3.org/1999/xlink" xmlns:sketch="http://www.bohemiancoding.com/sketch/ns">
    <!-- Generator: Sketch 3.0.4 (8053) - http://www.bohemiancoding.com/sketch -->
    <title>h3_home</title>
    <desc>Created with Sketch.</desc>
    <defs></defs>
    <g id="Page-1" stroke="none" stroke-width="1" fill="none" fill-rule="evenodd" sketch:type="MSPage">
        <g id="h1_home" sketch:type="MSLayerGroup" transform="translate(0.473061, 1.033245)" fill="#000000">
            <path d="M0.291478795,1.46322355 C0.291478795,0.932003446 0.532677497,0.666029046 1.01434621,0.666029046 L7.7139863,0.666029046 C8.22844637,0.666029046 8.48640511,0.915243415 8.48640511,1.41294346 L8.48640511,1.63738213 C8.48640511,2.1525709 8.23719074,2.40980093 7.738762,2.40980093 L2.6830623,2.40980093 C2.26697633,2.40980093 2.06002638,2.60873521 2.06002638,3.00733246 L2.06002638,21.5628725 C2.06002638,22.0773326 1.81081201,22.3345626 1.31311197,22.3345626 L1.0391219,22.3345626 C0.540693164,22.3345626 0.291478795,22.086077 0.291478795,21.5876482 L0.291478795,1.46322355" id="Fill-144" sketch:type="MSShapeGroup"></path>
            <path d="M15.2836906,1.33861636 C15.2836906,0.807396261 15.5321763,0.590973256 16.030605,0.690804743 C16.7607594,0.890467718 17.5003868,1.18923348 18.2473012,1.58783073 C18.4790269,1.72045359 18.7952814,1.78676501 19.1938786,1.78676501 L32.3446731,1.78676501 C32.5100874,1.73721362 32.6682146,1.62936646 32.8175975,1.46322355 C33.2985375,0.633237681 33.7554305,0.367263281 34.1875478,0.666029046 C34.8849108,0.932003446 35.5487538,1.26356057 36.1798054,1.66215783 C37.0433113,2.30996945 36.9850156,2.76686246 36.0056468,3.03210816 C35.9225753,3.13193965 35.8810396,3.38115402 35.8810396,3.77902257 L35.8810396,22.2602355 C35.8810396,22.7579356 35.8642796,23.0574301 35.8314882,23.1565328 C35.6150652,23.5718901 35.3745952,23.7956001 35.1093495,23.8291202 C34.3449464,24.0783345 33.7802062,24.0695902 33.415129,23.8043445 C33.1491546,23.5879215 33.0500518,23.24762 33.1163633,22.78344 C33.1163633,22.3848427 32.917429,22.1851798 32.5188317,22.1851798 L18.6706742,22.1851798 C18.2553169,22.1851798 18.0396226,22.4343941 18.0228626,22.9328229 C17.8902397,23.6797373 17.4333467,24.0608458 16.6536409,24.0783345 C15.9227579,24.2109574 15.4658648,23.9537273 15.2836906,23.3059157 L15.2836906,1.33861636 L15.2836906,1.33861636 Z M33.1163633,3.13193965 C33.1163633,2.683791 32.8999402,2.45935233 32.4692803,2.45935233 L18.6706742,2.45935233 C18.2553169,2.45935233 18.048367,2.65828661 18.048367,3.05688386 L18.048367,20.8902852 C18.048367,21.3049138 18.2473012,21.5125924 18.6458985,21.5125924 L32.494056,21.5125924 C32.9086846,21.5125924 33.1163633,21.3136582 33.1163633,20.9150609 L33.1163633,3.13193965 L33.1163633,3.13193965 Z M23.8014297,3.92913415 C23.8014297,3.39791405 24.050644,3.14869968 24.5490728,3.18149104 C25.1130842,3.2150111 25.6770957,3.27330686 26.2425646,3.35564962 C26.8400961,3.60486399 27.0973261,3.80452697 27.0142547,3.95390985 C26.9479433,4.12005276 26.7570247,4.25267561 26.4414989,4.3525071 C26.3744587,4.45160989 26.3416674,4.70082426 26.3416674,5.09942151 L26.2673403,7.88887358 C26.2673403,8.28747083 26.4414989,8.4871338 26.7905447,8.4871338 C27.189142,8.58623659 27.5206991,8.45434244 27.7866735,8.08853655 C28.0183991,7.75697942 28.2763579,7.4239649 28.5583636,7.09167907 C28.7908179,6.69308182 29.0320166,6.49414754 29.281231,6.49414754 C30.2103197,7.00933631 31.0410342,7.76426639 31.7719173,8.76039517 C31.7879486,8.86022666 31.7631729,8.95204248 31.6968615,9.03438524 C31.59703,9.10142536 31.2982643,9.13421673 30.8005642,9.13421673 L26.9151519,9.13421673 C26.5165546,9.13421673 26.349683,9.3834311 26.4167232,9.88113114 C26.7818003,11.9236688 27.6125149,13.8335836 28.9074095,15.6101468 C29.6871152,16.655827 30.6336926,17.5113173 31.7464129,18.1751602 C32.4109846,18.473926 32.7505574,18.6655733 32.7680461,18.7479161 C32.7680461,18.8477476 32.5188317,18.9395634 32.020403,19.0219061 C31.5722543,19.1057063 31.0570656,19.4292478 30.4762941,19.9939879 C30.1104882,20.491688 29.8787625,20.732158 29.7789311,20.7161266 C27.670082,18.8229719 26.3919475,16.3410299 25.9437988,13.2688434 C25.8767587,12.7879034 25.7689115,12.8542148 25.6195287,13.4677777 C25.4205944,14.780161 24.8973899,16.0582955 24.050644,17.3036386 C22.7557495,19.113722 21.261192,20.2009379 19.5677002,20.5667437 C18.9023998,20.6986379 18.5708427,20.7161266 18.5708427,20.6162951 C18.5708427,20.549255 18.8615928,20.3000407 19.443093,19.8693807 C20.7540189,18.9060433 21.7341163,17.6198931 22.3819279,16.0087441 C23.1288424,13.9166551 23.5441996,11.824566 23.6272711,9.73174826 C23.6433024,9.3338797 23.4531125,9.13421673 23.0545153,9.13421673 L20.563829,9.13421673 L19.7666345,9.28359961 C19.2354144,9.3338797 18.9111442,9.20927252 18.7952814,8.90977806 C18.7122099,8.49514947 18.9526799,8.31224653 19.5174201,8.36252662 C19.8489772,8.37928665 20.181263,8.42082238 20.5135489,8.4871338 L23.079291,8.4871338 C23.4778882,8.4871338 23.6935825,8.28747083 23.7271026,7.88887358 C23.7926853,6.577219 23.8181897,5.25754876 23.8014297,3.92913415 L23.8014297,3.92913415 Z" id="Fill-145" sketch:type="MSShapeGroup"></path>
            <path d="M58.7679546,-0.131165458 C59.1497918,-0.429931222 59.5651491,-0.330099735 60.0132977,0.167600307 C60.6778694,0.666029046 61.2506252,1.16445778 61.7322939,1.66215783 C62.047091,2.02796371 61.9727639,2.26041805 61.5078552,2.35952084 C61.2258495,2.30996945 60.9350994,2.29320942 60.6363336,2.30996945 C58.2782702,2.65828661 56.061574,2.88272528 53.9862449,2.98255677 C53.5876477,3.03210816 53.6291834,3.24853117 54.1108521,3.62963969 C54.8410065,4.39404283 54.9488537,5.2240287 54.4343936,6.12032599 C54.2514907,6.43658048 53.9366936,6.59397903 53.4878162,6.59397903 C52.3750959,6.52766761 51.8941559,5.93815174 52.0435388,4.82543145 C51.9939874,4.49387432 51.9101872,4.16158849 51.7943244,3.82930266 C51.52835,3.33087393 51.1967929,3.08165956 50.7981956,3.08165956 L48.4073408,3.08165956 C48.0087436,3.08165956 47.634922,3.33087393 47.2866049,3.82930266 L45.9909816,5.49801876 C45.6251757,5.91337605 45.6922158,6.21214181 46.1906446,6.39431606 C47.2530848,6.90950483 47.9912548,7.1339435 48.4073408,7.06690338 L54.9823737,7.06690338 C55.380971,7.06690338 55.7547925,6.87598477 56.1031097,6.49414754 C56.5017069,6.14583039 56.742177,5.97094311 56.8252484,5.97094311 C57.2741258,6.13781472 57.8876886,6.56920333 58.6688518,7.26656635 C59.0834804,7.73147503 59.291159,8.01348076 59.291159,8.11331225 C59.2416076,8.32973525 59.0251846,8.4871338 58.6440761,8.58623659 C58.577036,8.65327672 58.5107245,8.88500236 58.4444131,9.28359961 L58.3445816,10.1551212 C58.3117903,10.5537185 58.3445816,10.7533814 58.4444131,10.7533814 C58.5442446,10.7366214 58.8262503,10.4793914 59.291159,9.98096263 C59.5899248,9.54957401 59.9965377,9.58236537 60.5117265,10.0807941 C61.3417123,10.6287742 61.9144682,11.1519787 62.229994,11.6496787 C62.2963054,11.8988931 62.1636825,12.081796 61.8321254,12.1976589 C61.6652538,12.2807303 61.5406466,12.5714804 61.4583039,13.0691805 L61.3584724,13.8911507 C61.308921,14.2737166 61.349728,14.4646352 61.4830795,14.4646352 C61.5989424,14.4478752 61.7322939,14.3735481 61.8816768,14.2401965 C62.4456883,13.642665 62.7859898,13.3431705 62.9025813,13.3431705 C63.3179386,13.4765221 63.8994388,13.8088079 64.6463532,14.340028 C65.1440532,14.7881766 65.3101961,15.1364938 65.1440532,15.3857082 C64.9451189,15.6349225 64.8372718,15.9759527 64.8205117,16.4073414 C64.7534716,17.8683788 64.5632817,19.1967934 64.2477559,20.3918565 C63.8491587,22.2682512 62.6540956,23.48809 60.6611093,24.0535588 C60.1634093,24.0863502 59.8639148,23.8458802 59.7648121,23.3314201 C59.3159347,22.5167369 58.8094903,22.0357969 58.2454788,21.886414 C57.8133615,21.7865825 57.7470501,21.5628725 58.0458159,21.2138267 C58.377373,21.1803066 58.7351632,21.205811 59.1170004,21.2888825 C60.0132977,21.4382653 60.7186764,21.0972352 61.2338652,20.2672493 C61.7322939,19.1887777 61.9727639,17.6774602 61.9560039,15.734754 C61.9560039,15.3193967 61.7570696,15.1117181 61.3584724,15.1117181 L48.0830707,15.1117181 C47.618162,15.1117181 47.3609319,15.2946211 47.3113806,15.6596982 C46.7459117,19.2303135 45.0276442,21.8033425 42.1558494,23.3809715 C41.4912777,23.6301859 41.1844963,23.6709929 41.2340477,23.5055787 C42.7446365,21.8281182 43.7910454,19.851892 44.3725456,17.5776287 C44.8367256,14.4070681 45.0363886,11.0106115 44.9700771,7.39117354 C44.9533171,6.8927448 44.6960871,6.8679691 44.1976583,7.31611775 C43.1016981,8.21241504 42.1718807,8.78589957 41.4082063,9.03438524 C41.3251348,8.96880251 41.4832621,8.67805241 41.8818593,8.16286364 C43.5578624,6.05474326 44.6713114,3.95390985 45.2192915,1.8618208 C45.3511857,1.29708064 45.7169915,1.13895339 46.3152518,1.38816776 L47.3113806,1.93614789 C47.7595292,2.20212229 48.1829021,2.30996945 48.5814994,2.26041805 C51.1384971,1.99444365 53.7035105,1.50475928 56.277997,0.79063623 C57.1742943,0.541421861 58.0042801,0.23464043 58.7679546,-0.131165458 L58.7679546,-0.131165458 Z M48.3825651,18.8980277 C48.6310508,18.233456 48.8467451,18.233456 49.029648,18.8980277 C49.229311,20.5412394 48.9050409,21.9862455 48.058295,23.2315886 C47.2611005,24.1278859 46.439859,24.1941973 45.5923844,23.4305229 C45.0771956,22.4176341 45.35993,21.669991 46.439859,21.189051 C47.3857076,20.5915194 48.0335193,19.8271163 48.3825651,18.8980277 L48.3825651,18.8980277 Z M58.8182347,12.048276 C58.8677861,11.6336474 58.6936275,11.4259688 58.2950302,11.4259688 L48.2827336,11.4259688 C47.8673764,11.4259688 47.6429377,11.6831988 47.6101463,12.1976589 L47.4607634,13.8415993 C47.4272434,14.2569565 47.6101463,14.4646352 48.0087436,14.4646352 L57.8716573,14.4646352 C58.2702545,14.4646352 58.5107245,14.2154208 58.593796,13.7169921 L58.8182347,12.048276 L58.8182347,12.048276 Z M55.8291196,8.38730232 C55.8954311,7.9559137 55.7300168,7.73949069 55.3314196,7.73949069 L48.332285,7.73949069 C47.9169277,7.73949069 47.7099778,7.93842497 47.7099778,8.33702222 L47.6852021,10.1303455 C47.6852021,10.5464315 47.8841364,10.7533814 48.2827336,10.7533814 L54.9080466,10.7533814 C55.3066439,10.7533814 55.5471139,10.5041671 55.6301854,10.0057383 L55.8291196,8.38730232 L55.8291196,8.38730232 Z M50.8980271,17.6024044 C50.9475785,17.5025729 51.28788,17.7109803 51.9189316,18.2254403 C52.682606,19.0219061 53.1147234,19.9517235 53.2138261,21.0148924 C53.346449,21.8441496 53.0148919,22.5422413 52.2176974,23.1069814 C51.985243,23.2891557 51.6529572,23.3139314 51.2215686,23.1813085 C50.5402369,22.8329914 50.2582312,22.3921297 50.3748227,21.8616383 C50.6240371,21.1970666 50.8397314,20.5332237 51.0226343,19.8693807 C51.1217371,19.6201664 51.1297528,19.1465133 51.04741,18.4491503 C50.9140585,17.9514503 50.8645071,17.6694445 50.8980271,17.6024044 L50.8980271,17.6024044 Z M53.8616378,17.0048729 C53.9111892,16.9050414 54.1931949,16.9473058 54.7083837,17.1294801 C56.4018755,18.0432661 57.2318613,19.1217376 57.19907,20.3670808 C56.9498556,21.6124239 56.335564,22.0933639 55.3561953,21.8120869 C54.940838,21.6619753 54.6916236,21.388714 54.6085522,20.9901167 C54.5757608,20.308785 54.5757608,19.628182 54.6085522,18.947579 C54.5590008,18.6160219 54.467185,18.2837361 54.3352908,17.9514503 C54.0022763,17.3867101 53.8448777,17.071913 53.8616378,17.0048729 L53.8616378,17.0048729 Z M56.9250799,16.5312198 C56.9250799,16.3993257 57.1903256,16.3410299 57.7222744,16.3570613 C58.9676176,16.4073414 59.9469863,16.9553215 60.6611093,18.0010017 C60.9598751,18.930819 60.7361651,19.6369264 59.988522,20.1178664 C58.9923932,20.3998721 58.3948617,19.9189321 58.1951987,18.673589 C58.1288873,17.9266746 57.7055144,17.2125515 56.9250799,16.5312198 L56.9250799,16.5312198 Z M59.0171689,3.45548111 C59.067449,3.32285826 59.3487261,3.30609823 59.8639148,3.40592972 C61.2258495,3.58883266 62.3961369,4.34449143 63.3762343,5.67217734 C63.7077914,6.20412614 63.7165358,6.8679691 63.40101,7.6651636 C62.9353726,8.32973525 62.3801055,8.5366852 61.7322939,8.28747083 C61.1668251,8.02222513 60.8768037,7.6651636 60.8607723,7.21628626 C60.7274208,6.0212232 60.3375679,5.02436572 59.6897563,4.22789992 C59.2416076,3.81254263 59.0171689,3.5553126 59.0171689,3.45548111 L59.0171689,3.45548111 Z" id="Fill-146" sketch:type="MSShapeGroup"></path>
            <path d="M73.013252,0.267431794 C73.0635321,0.201120368 73.3375221,0.185089035 73.8352222,0.217880399 C74.9311824,0.350503251 75.8282084,0.583686286 76.5255714,0.915243415 C77.0065115,1.31384067 76.9314557,1.6213508 76.3011328,1.8370451 C75.9528156,1.93614789 75.7699127,2.14382653 75.7531526,2.45935233 C75.4208668,3.60486399 75.0470453,4.75110435 74.6324167,5.89661602 C74.4655451,6.32873333 74.5493452,6.64353043 74.881631,6.8431934 C75.2467082,7.12519914 75.3130197,7.3744135 75.0805653,7.59010781 C74.848111,7.82256215 74.7322482,8.13808795 74.7322482,8.5366852 L74.7322482,22.583777 C74.881631,23.3474515 74.6324167,23.8538959 73.9846051,24.1031102 C73.0212676,24.385116 72.3909447,24.144646 72.092179,23.3809715 L72.092179,11.5753516 C72.092179,11.1599943 71.9005317,11.1935144 71.5194231,11.6744544 C71.0873058,12.2064032 70.5888771,12.7631277 70.0248656,13.3431705 C69.4929168,13.7417678 69.2109111,13.866375 69.1781197,13.7169921 C69.1781197,13.6171606 69.3435339,13.3111079 69.6758198,12.7959191 C71.0537858,10.7031013 72.0003632,8.04700082 72.5155519,4.82543145 C72.7144862,3.56405696 72.8806291,2.04472374 73.013252,0.267431794 L73.013252,0.267431794 Z M79.6881164,0.0437218192 C80.4182707,0.0109304548 81.3896238,0.284920522 82.6021756,0.86569202 C83.1173644,1.18121782 83.3658501,1.41294346 83.3498187,1.56232634 C83.3002673,1.87858083 83.1173644,2.03597938 82.8018386,2.03597938 C82.4527927,1.98642799 82.2043071,2.21013796 82.0549242,2.7085667 L81.3320568,4.15284413 C81.0996024,4.58496144 81.1746582,4.80065575 81.5564954,4.80065575 L87.6338283,4.80065575 C88.0324256,4.80065575 88.4222784,4.60973714 88.8041157,4.22789992 C89.2194729,3.91237412 89.493463,3.75424687 89.6260859,3.75424687 C90.0079231,3.87156709 90.414536,4.05301264 90.8466533,4.30222701 C91.7932307,4.81741578 92.3820179,5.26629312 92.6152009,5.64740165 C92.5816808,5.91337605 92.4235536,6.05474326 92.1415479,6.0707746 C91.9090935,6.12032599 91.5768077,6.336749 91.1454191,6.71858622 C90.3314646,7.53254075 89.2194729,8.47911814 87.8079869,9.55758968 C87.4093896,9.6246298 87.3758696,9.3338797 87.7081554,8.68606808 C88.0572013,7.9063623 88.3719984,7.02609634 88.6547328,6.0459989 C88.7370755,5.64740165 88.5804057,5.44846737 88.1818084,5.44846737 L86.1392708,5.44846737 C85.7239135,5.44846737 85.5169636,5.64740165 85.5169636,6.0459989 L85.5169636,21.6874797 C85.4331634,22.3848427 85.0848462,22.9575986 84.4705547,23.4057472 C83.5742574,23.8371358 82.8098543,23.978503 82.1788027,23.8291202 C82.1124912,23.7795688 81.9798684,23.480803 81.7809341,22.9328229 C81.4151282,22.3345626 80.9589639,21.9775011 80.4109838,21.8616383 C79.9621064,21.8120869 79.8455149,21.6036796 80.0619379,21.2386024 C80.6594694,21.2218423 81.2577297,21.2305867 81.8552612,21.2641068 C82.5854156,21.463041 82.9177014,21.1307552 82.85139,20.2672493 L82.85139,6.0707746 C82.85139,5.65614601 82.6524557,5.44846737 82.2538585,5.44846737 L81.3575612,5.44846737 C80.8591324,5.49801876 80.4437751,5.78075319 80.112218,6.29521327 C79.3150235,7.59010781 78.1607675,8.81869093 76.6501786,9.98096263 C76.1182298,10.3132485 75.8107197,10.4626313 75.7283769,10.42984 C75.6285455,10.3300085 75.8194641,9.97294696 76.3011328,9.3586554 C77.9275844,7.01735198 78.9907533,4.18636419 79.4891821,0.86569202 C79.5715248,0.367263281 79.638565,0.0932732143 79.6881164,0.0437218192 L79.6881164,0.0437218192 Z M78.6176605,10.4793914 C78.7000033,9.96493129 78.7670434,9.69094122 78.8165948,9.65742116 C79.6137893,9.75725265 80.5851424,9.99845135 81.730654,10.3795599 C82.0622111,10.4961514 82.2043071,10.6455343 82.154027,10.8277085 C82.0549242,11.0944116 81.8217411,11.2350501 81.456664,11.2510815 C80.4933265,14.2737166 79.1321206,16.8052099 77.3723173,18.8477476 C76.7412658,19.4452791 76.3922199,19.7112535 76.3259085,19.6449421 C76.3091484,19.5625993 76.4337556,19.2550892 76.69973,18.7231404 C77.7286502,16.2994942 78.3684461,13.5515779 78.6176605,10.4793914 L78.6176605,10.4793914 Z M86.8861852,10.2797284 C86.9364653,10.1303455 87.1769353,10.2549527 87.6090526,10.6535499 C89.2194729,12.1976589 90.5303988,13.7505121 91.5440163,15.3113811 C92.2741707,16.3905813 92.5066251,17.5025729 92.2413794,18.6488133 C91.9251249,19.6449421 91.3450821,20.0100193 90.4976075,19.7447735 C89.9000759,19.3133849 89.6093258,18.7231404 89.6260859,17.976226 C89.3433514,15.5350911 88.4310228,12.9700777 86.8861852,10.2797284 L86.8861852,10.2797284 Z" id="Fill-147" sketch:type="MSShapeGroup"></path>
            <path d="M106.710387,0.840187626 C106.710387,0.309696219 106.958872,0.0604818499 107.457301,0.0932732143 C108.619573,0.193104701 109.491094,0.359247614 110.072595,0.590973256 C110.487223,0.973539174 110.412896,1.28906497 109.848156,1.53755064 C109.449559,1.65414216 109.316936,1.94489226 109.449559,2.40980093 L109.449559,6.8679691 C109.449559,7.28332638 109.706789,7.39117354 110.221977,7.19151056 L112.264515,6.44459615 C112.662384,6.29521327 113.01143,5.96365614 113.310195,5.44846737 C113.741584,4.8837272 114.272804,4.67604856 114.904584,4.82543145 C115.70105,5.04185445 116.365622,5.29106882 116.896842,5.57234586 C117.327502,5.77200883 117.361022,6.03798323 116.996673,6.36954036 C116.79701,6.51892324 116.697908,6.77688198 116.697908,7.14195917 L116.722683,8.23791943 L116.722683,10.8029328 L116.622852,13.5676092 C116.589332,14.4318438 116.498245,15.0956868 116.348862,15.5598668 C116.116407,16.7396272 115.360749,17.5200616 114.082614,17.9011702 C113.467594,17.9849703 113.102517,17.7605317 112.986654,17.2293116 C112.654368,16.6645714 112.255771,16.2994942 111.790862,16.1333513 C111.193331,15.8338568 110.919341,15.6349225 110.968892,15.5350911 C111.035203,15.4359883 111.317938,15.3776925 111.815638,15.3609325 C112.529761,15.3609325 113.01143,15.2946211 113.260644,15.1619982 C113.392538,15.0621667 113.501114,14.7634009 113.584185,14.2649722 C113.8334,12.3557861 113.915743,9.98970699 113.8334,7.16673486 C113.815911,6.75210628 113.550665,6.63551476 113.036205,6.81768901 L110.047819,7.93842497 C109.649222,8.10529658 109.449559,8.38730232 109.449559,8.78589957 L109.449559,17.5776287 C109.53263,18.8564919 108.951859,19.4132164 107.706515,19.2463448 C106.875801,19.0969619 106.543515,18.6240376 106.710387,17.8268431 L106.710387,9.80680405 C106.710387,9.39217546 106.452428,9.27558394 105.937968,9.45775819 C105.207085,9.70697256 104.468186,9.98970699 103.721272,10.3052328 C103.189323,10.5216558 102.924077,10.8277085 102.924077,11.2263058 L102.924077,19.7447735 C103.023909,20.491688 103.430522,20.8815408 104.144645,20.9150609 L109.126017,20.9150609 C111.881949,20.8655095 113.949263,20.7817094 115.327957,20.6658465 C115.9918,20.7984694 116.564556,20.3750964 117.046225,19.3957277 C117.245888,19.0641706 117.402558,18.7318847 117.519149,18.3995989 C117.784395,17.735756 117.975313,17.3867101 118.091905,17.35319 C118.207768,17.3706788 118.298855,17.4202302 118.365895,17.5025729 C118.415446,18.0512818 118.432206,18.6240376 118.415446,19.2215691 C118.481758,19.6536864 118.615109,19.9852436 118.814044,20.2176979 C119.063258,20.3838408 119.312472,20.5827751 119.561687,20.8152294 C120.042627,21.6787354 119.760621,22.3513227 118.714941,22.8329914 C117.585461,23.2979001 116.199479,23.5718901 114.555538,23.6549616 L110.894565,23.7795688 L107.033928,23.7795688 C104.643073,23.7795688 102.890557,23.5135944 101.778566,22.9823743 C100.533222,22.1021083 99.9932579,20.965341 100.159401,19.5698863 L100.159401,12.247939 C100.159401,11.8325817 99.9021708,11.7247345 99.3877107,11.9236688 C98.8725219,12.1233318 98.3580619,12.3470417 97.8436018,12.5962561 C97.311653,12.8454705 96.9298158,12.8374548 96.6973614,12.5714804 C96.4809384,12.2559546 96.3985957,12.0730517 96.4481471,12.0235003 L98.3660775,11.5250715 C98.6976347,11.4427288 99.0299205,11.3261373 99.3622063,11.1767544 C99.8934264,10.9770914 100.159401,10.6783256 100.159401,10.2797284 L100.159401,4.55144138 C100.209681,4.48512995 100.483671,4.46909862 100.981371,4.50188998 C101.629183,4.51865001 102.309057,4.60973714 103.023909,4.77588005 C103.58792,4.87498284 103.754063,5.14897291 103.522337,5.59785025 C102.990389,5.71444177 102.791454,6.0707746 102.924077,6.66830612 L102.924077,9.25882391 C102.924077,9.67418119 103.181307,9.78202835 103.696496,9.58236537 L105.913192,8.78589957 C106.443684,8.57020526 106.710387,8.26269513 106.710387,7.86409788 L106.710387,0.840187626" id="Fill-148" sketch:type="MSShapeGroup"></path>
            <path d="M143.768272,9.88113114 C144.034246,9.50002261 144.266701,9.25080824 144.465635,9.13421673 C145.195789,9.3834311 145.960193,9.94015559 146.758116,10.8029328 C147.155256,11.3348816 147.346174,11.6423918 147.330872,11.7247345 C147.296623,11.8573574 147.014617,11.9236688 146.484126,11.9236688 L138.015209,11.9236688 C137.599852,11.9236688 137.392173,12.1233318 137.392173,12.521929 L137.392173,15.2363253 C137.392173,15.6516826 137.591108,15.8593612 137.989705,15.8593612 L139.633645,15.8593612 C140.032243,15.8593612 140.39732,15.6596982 140.729606,15.261101 C141.061891,14.7634009 141.452473,14.2897479 141.899893,13.8415993 C141.982964,13.8088079 142.273714,13.9166551 142.772143,14.1658694 C143.850615,14.9127838 144.507171,15.6269069 144.739625,16.3075099 C144.606274,16.5064441 144.273988,16.5734843 143.743496,16.5064441 L138.015209,16.5064441 C137.599852,16.5064441 137.392173,16.7061071 137.392173,17.1047044 L137.392173,20.4173609 C137.392173,20.8319895 137.641388,21.0476838 138.139088,21.0644438 C140.480391,21.1642753 142.995853,21.006148 145.686202,20.5915194 C146.484126,20.4246478 147.022633,20.3590651 147.304638,20.3918565 C147.40447,20.4581679 147.45475,20.5244793 147.45475,20.5915194 C147.421959,20.6738622 147.155256,20.9063165 146.657556,21.2888825 C146.29175,21.6539597 146.03452,22.1516597 145.885865,22.78344 C145.901897,23.4137629 145.661427,23.76208 145.162998,23.8291202 C142.041989,24.178166 139.151977,24.0695902 136.495876,23.5055787 C133.93815,22.9575986 131.920388,21.2888825 130.444048,18.4994304 C130.243656,18.1008331 129.99517,18.1678733 129.696404,18.6983647 C128.151567,21.0724595 126.275172,22.583777 124.067949,23.2315886 C124.0337,23.1485172 124.266155,22.8993028 124.764583,22.4839455 C126.192829,21.3712252 127.197702,19.9939879 127.778474,18.3500475 C128.226623,17.1214644 128.451061,15.6932183 128.451061,14.0660379 C128.451061,13.5180578 128.765858,13.2608278 129.39691,13.2936191 C130.060753,13.3606592 130.726053,13.4517464 131.389896,13.5676092 C132.020219,13.7009607 132.128795,13.9749508 131.713438,14.3895794 C131.613606,14.4230995 131.530535,14.5061709 131.464223,14.6387938 C131.231769,15.1364938 131.032835,15.6349225 130.866692,16.1333513 C130.667029,16.6485401 130.726053,17.1462401 131.041579,17.6271801 C131.904356,18.9060433 132.909958,19.7943249 134.054741,20.2927537 C134.453338,20.4086165 134.652273,20.2672493 134.652273,19.8693807 L134.652273,12.5467047 C134.652273,12.1313474 134.453338,11.9236688 134.054741,11.9236688 L126.184085,11.9236688 L125.362115,12.0730517 C124.830895,12.1568518 124.515369,12.048276 124.416266,11.7495102 L124.29093,11.1767544 C124.323722,11.110443 124.590425,11.1016986 125.088125,11.1519787 C125.403651,11.1687387 125.743952,11.2102744 126.110487,11.2765859 L141.974949,11.2765859 C142.407066,11.4092087 142.747367,11.2765859 142.995853,10.8779886 C143.229036,10.5464315 143.485538,10.2141457 143.768272,9.88113114 L143.768272,9.88113114 Z M128.874434,0.86569202 C128.874434,0.316983189 129.12292,0.118048912 129.621349,0.267431794 C130.368263,0.483854799 130.949035,0.708293471 131.364392,0.940019113 C131.779749,1.17247345 132.161586,1.28906497 132.510632,1.28906497 L138.488134,1.28906497 C138.969074,1.37213643 139.318848,1.2562736 139.533814,0.940019113 C139.850068,0.160313337 140.263968,-0.11367673 140.779157,0.118048912 C141.676183,0.499886133 142.340026,0.848931989 142.772143,1.16445778 C143.419226,1.62936646 143.41121,2.00318802 142.747367,2.28519375 C142.514184,2.43457663 142.398322,2.7085667 142.398322,3.10716395 L142.398322,8.38730232 C142.580496,9.0679053 142.331282,9.59110974 141.651407,9.95618693 C141.152978,10.1886413 140.655278,10.230177 140.15685,10.0807941 C139.807804,9.94817126 139.633645,9.68219686 139.633645,9.28359961 C139.616885,9.05187397 139.409935,8.93528245 139.012067,8.93528245 L132.236642,8.93528245 C131.838045,8.93528245 131.631095,9.01835391 131.613606,9.18376812 C131.515232,9.96493129 131.09113,10.3547842 130.343487,10.3547842 C129.247527,10.5537185 128.757114,10.1551212 128.874434,9.15899242 L128.874434,0.86569202 L128.874434,0.86569202 Z M139.633645,2.63351091 C139.633645,2.1525709 139.377144,1.92886092 138.862684,1.96092359 L132.236642,1.96092359 C131.821285,1.96092359 131.613606,2.16058657 131.613606,2.55918382 L131.613606,4.27745131 C131.613606,4.69280859 131.813269,4.90048723 132.211866,4.90048723 L139.012067,4.90048723 C139.425967,4.90048723 139.633645,4.70082426 139.633645,4.30222701 L139.633645,2.63351091 L139.633645,2.63351091 Z M139.633645,6.17060608 C139.633645,5.7552488 139.434711,5.54757016 139.036842,5.54757016 L132.236642,5.54757016 C131.821285,5.54757016 131.613606,5.74723313 131.613606,6.14583039 L131.613606,7.63965921 C131.613606,8.05574519 131.813269,8.26269513 132.211866,8.26269513 L139.012067,8.26269513 C139.425967,8.26269513 139.633645,8.06303216 139.633645,7.6651636 L139.633645,6.17060608 L139.633645,6.17060608 Z" id="Fill-149" sketch:type="MSShapeGroup"></path>
            <path d="M160.628134,0.316983189 C160.677686,0.23464043 160.951676,0.225896066 161.450104,0.292207492 C161.998813,0.392038979 162.57084,0.516646164 163.168372,0.666029046 C163.54948,0.733069169 163.841688,0.86569202 164.039893,1.0646263 C164.206036,1.38015209 164.047909,1.60459076 163.566969,1.73721362 C163.250715,1.82028507 163.06854,2.01120368 163.018989,2.30996945 L161.723366,6.74336191 C161.606774,7.17547923 161.740854,7.39117354 162.121963,7.39117354 L169.719358,7.39117354 C170.249849,7.59010781 170.722774,7.29134205 171.138859,6.49414754 C171.370585,6.16259042 171.627815,5.83030459 171.91055,5.49801876 C172.260324,5.01707875 172.741264,5.09942151 173.355556,5.74723313 C174.384476,6.51090758 175.025001,7.21628626 175.272757,7.86409788 C175.173655,7.9806894 174.8574,8.03825646 174.326909,8.03825646 L170.042899,8.03825646 C169.644302,8.03825646 169.403103,8.28747083 169.320032,8.78589957 C169.087577,11.0769229 168.299127,13.4765221 166.953953,15.9839684 C166.687978,16.415357 166.746274,16.7228671 167.129569,16.9050414 C168.457255,17.5025729 169.726645,18.3332875 170.939197,19.3957277 C172.18454,20.6243108 172.533586,21.7865825 171.985605,22.8825428 C171.254722,23.6629772 170.458257,23.52161 169.594022,22.4591698 C168.082704,20.765678 166.837361,19.5370949 165.857992,18.7734205 C165.460853,18.4418633 165.019991,18.5329505 164.538322,19.0474105 C162.479753,20.9398366 159.922027,22.2354598 156.868058,22.9328229 C155.772097,23.1645485 154.442225,23.3634828 152.882085,23.5303544 C152.383656,23.5463857 152.101651,23.5135944 152.035339,23.4305229 C152.068131,23.2140999 152.235002,23.0982371 152.533039,23.0822057 C155.322491,22.4176341 157.979321,21.2305867 160.503527,19.5203349 C161.665799,18.673589 162.595616,17.7940517 163.292979,16.8802657 C162.346402,16.1661426 161.208906,15.4527483 159.880491,14.7386253 C159.349271,14.4566195 158.951402,14.563738 158.685428,15.0621667 L158.485765,15.5103154 C158.353142,15.8426012 158.253311,16.0502798 158.186999,16.1333513 C157.738851,16.4816684 157.15735,16.5399642 156.443956,16.3075099 C156.012567,16.158127 155.745864,15.9424327 155.646762,15.6596982 C155.629273,15.460764 155.745864,15.1037024 155.995079,14.5885137 C156.892105,12.6137448 157.656508,10.6455343 158.286831,8.68606808 C158.436214,8.25467946 158.319622,8.03825646 157.937785,8.03825646 L153.604224,8.03825646 L152.807029,8.18763934 C152.276538,8.23791943 151.951539,8.11331225 151.836405,7.81454648 C151.752605,7.3991892 151.993075,7.21628626 152.557815,7.26656635 C152.89083,7.28332638 153.223115,7.32486211 153.554673,7.39117354 L158.087168,7.39117354 C158.485765,7.39117354 158.776515,7.14195917 158.960147,6.64353043 C159.838955,3.87156709 160.39568,1.76198931 160.628134,0.316983189 L160.628134,0.316983189 Z M166.555355,8.66129238 C166.572115,8.2459351 166.381197,8.03825646 165.9826,8.03825646 L161.947804,8.03825646 C161.549936,8.03825646 161.258457,8.28747083 161.076283,8.78589957 L159.508127,13.1194605 C159.340527,13.5180578 159.52343,13.8088079 160.056107,13.9909821 C161.764901,14.5724823 162.976725,15.0293753 163.691576,15.3609325 C164.090902,15.5278041 164.446506,15.3609325 164.762761,14.8625037 C165.72537,13.0196291 166.322901,10.9523157 166.555355,8.66129238 L166.555355,8.66129238 Z" id="Fill-150" sketch:type="MSShapeGroup"></path>
            <path d="M187.027369,0.666029046 C187.558589,0.102017578 188.065033,-0.0313339704 188.545973,0.267431794 C189.45903,0.832900656 190.040531,1.29708064 190.289745,1.66215783 C190.455159,1.96092359 190.322536,2.1277952 189.891148,2.16058657 C189.674725,2.1277952 189.468503,2.1525709 189.268112,2.23491366 C188.13936,2.76686246 186.778154,3.14068401 185.184494,3.35564962 C184.785897,3.42268975 184.586234,3.65514408 184.586234,4.05301264 L184.586234,6.76813761 C184.586234,7.18349489 184.693352,7.39117354 184.909775,7.39117354 C185.126198,7.39117354 185.39946,7.19151056 185.731745,6.79291331 L186.380286,5.97094311 C186.778154,5.20799736 187.251079,5.11618154 187.799059,5.69695304 C188.214416,5.96365614 188.703372,6.40306042 189.268112,7.01735198 C189.617158,7.61488351 189.724276,7.93842497 189.592382,7.98870506 C189.525342,8.02222513 189.243336,8.03825646 188.745636,8.03825646 L185.208541,8.03825646 C184.793184,8.03825646 184.586234,8.23791943 184.586234,8.63651669 L184.586234,11.6496787 C184.586234,12.0657647 184.785897,12.2727146 185.184494,12.2727146 L196.367078,12.2727146 C196.782435,12.2727146 196.989385,12.0730517 196.989385,11.6744544 L196.989385,8.5614609 C196.989385,8.14683231 196.79118,7.93842497 196.391854,7.93842497 L193.950719,7.93842497 L193.179029,8.03825646 C192.66384,8.08853655 192.364345,7.96392937 192.282003,7.6651636 C192.182171,7.31611775 192.390578,7.15070353 192.905767,7.16673486 C193.585641,7.30008641 194.739169,7.34089344 196.367078,7.29134205 C196.782435,7.29134205 196.989385,7.09167907 196.989385,6.69308182 L196.989385,3.70469548 C196.989385,3.30609823 196.973354,3.08165956 196.940562,3.03210816 C196.873522,2.98255677 196.641797,2.95778107 196.242471,2.95778107 C195.262373,2.94102104 194.283004,2.95778107 193.303636,3.00733246 C193.219836,3.04085253 193.136764,3.04959689 193.054421,3.03210816 C192.555993,3.09914828 192.257956,2.98255677 192.158124,2.683791 C192.057564,2.33474515 192.273258,2.16933093 192.805207,2.18536226 C193.453747,2.30195378 194.63205,2.32672948 196.342302,2.26041805 C196.607548,2.04472374 196.873522,1.76198931 197.138768,1.41294346 C197.354462,1.03183493 197.669988,0.948763477 198.085345,1.16445778 C198.716397,1.43043218 199.322673,1.72919795 199.903444,2.06075508 C200.76695,2.55918382 200.866053,2.99057243 200.20221,3.35564962 C199.754061,3.50503251 199.604679,3.821287 199.754061,4.30222701 L199.754061,12.8702462 C199.970484,13.9501751 199.46404,14.5389623 198.234728,14.6387938 C197.320942,14.7553853 196.906314,14.3735481 196.989385,13.4932821 C196.989385,13.1114449 196.79118,12.9197976 196.391854,12.9197976 L195.271118,12.9197976 C194.855032,12.9197976 194.648082,13.1194605 194.648082,13.5180578 L194.648082,19.5451106 C194.532219,20.491688 194.954863,20.9398366 195.918201,20.8902852 C197.046952,20.972628 198.285008,20.9230766 199.630183,20.7409023 C200.01202,20.6738622 200.259777,20.4173609 200.377826,19.9684835 C200.608823,19.3381606 200.799742,18.707109 200.949853,18.0760574 C201.132027,17.9099145 201.28141,17.8763945 201.398002,17.976226 C201.447553,18.0432661 201.473058,18.3245431 201.473058,18.8229719 C201.289426,19.6697178 201.547385,20.3175294 202.244748,20.765678 C202.561002,20.9974037 202.743176,21.2968981 202.792728,21.6619753 C202.825519,22.4424098 202.369355,22.9328229 201.422778,23.1317571 C200.128612,23.480803 198.33456,23.6301859 196.043536,23.5799058 C194.714393,23.4968343 193.718264,23.3139314 193.054421,23.0319257 C192.390578,22.5502569 191.999997,21.9359654 191.883405,21.189051 L191.883405,13.5428335 C191.883405,13.1282049 191.684471,12.9197976 191.285874,12.9197976 L190.339296,12.9197976 C189.940699,12.9197976 189.717718,13.1690119 189.667438,13.6674407 C189.599669,15.7099783 189.035657,17.6198931 187.973946,19.3957277 C186.661563,21.1555309 184.726872,22.4511542 182.169874,23.28114 L180.65127,23.704513 C180.15357,23.7875844 179.878851,23.7956001 179.828571,23.7300174 C179.894882,23.5135944 180.069041,23.3722271 180.352504,23.3059157 C181.812813,22.6748641 183.141228,21.8120869 184.337019,20.7161266 C186.064031,18.6568289 186.902033,16.2659741 186.852481,13.5428335 C186.852481,13.1282049 186.654276,12.9197976 186.25495,12.9197976 L185.208541,12.9197976 C184.793184,12.9197976 184.586234,13.0531491 184.586234,13.3183948 C184.635785,14.2321808 184.162861,14.7218652 183.166003,14.7881766 C182.120323,14.9215282 181.68019,14.4894109 181.847062,13.4932821 L181.847062,2.33474515 C181.847062,1.82028507 182.111579,1.62936646 182.644256,1.76198931 C183.007876,1.84506077 183.398458,1.98642799 183.813815,2.18536226 C184.261964,2.4178166 184.660561,2.42656097 185.009607,2.21013796 C185.63993,1.82902944 186.313246,1.31384067 187.027369,0.666029046" id="Fill-151" sketch:type="MSShapeGroup"></path>
            <path d="M217.261735,8.33702222 C218.558087,7.70669933 219.760437,7.97194503 220.873158,9.13421673 C221.354826,9.88113114 221.545745,10.7286057 221.447371,11.6744544 C221.29653,13.3519149 220.292386,14.8304411 218.432751,16.1078469 C217.951811,16.4401327 217.593292,16.5151885 217.362295,16.3322856 C217.129112,16.1501113 217.269751,15.8841369 217.78494,15.5350911 C218.582134,14.9710796 219.155619,14.2489409 219.504665,13.3686749 C219.603039,12.8870062 219.519967,12.704832 219.254722,12.8206948 C218.274624,13.0866692 217.427878,12.8542148 216.714484,12.1233318 C215.933321,11.2437945 215.825473,10.2636971 216.390214,9.18376812 C216.639428,8.76913954 216.929449,8.4871338 217.261735,8.33702222" id="Fill-152" sketch:type="MSShapeGroup"></path>
            <path d="M239.253082,2.683791 C240.747639,1.96966795 241.974765,1.22275354 242.93956,0.441590374 C243.021174,0.408799009 243.311924,0.508630497 243.810353,0.741084835 C244.724139,1.23878488 245.37195,1.67090219 245.753059,2.03597938 C246.002273,2.33474515 245.993529,2.56719948 245.729012,2.7333424 C245.645212,2.76686246 245.30491,2.78289379 244.707379,2.78289379 C242.963607,3.2150111 241.195788,3.52252123 239.402464,3.70469548 C239.003867,3.7717356 238.804204,4.00346124 238.804204,4.4020585 L238.804204,7.04212768 C238.804204,7.45748496 239.003867,7.6651636 239.402464,7.6651636 L241.195788,7.6651636 C241.577625,7.86409788 242.125605,7.54055642 242.838999,6.69308182 C244.367077,7.24106196 245.337701,7.79778645 245.753059,8.36252662 C245.80261,8.49514947 245.711523,8.66129238 245.479797,8.86022666 C245.031649,9.0431296 244.856761,9.39217546 244.955864,9.90663553 L244.955864,14.8625037 C245.188319,15.7930498 244.75693,16.3242699 243.66097,16.4568927 C242.681601,16.655827 242.199204,16.3322856 242.217421,15.4855397 C242.217421,15.1037024 242.017029,14.9127838 241.618432,14.9127838 L239.003867,14.9127838 C238.604541,14.9127838 238.363343,15.1619982 238.281,15.6596982 C237.915194,18.4826704 236.919065,20.9063165 235.292613,22.9328229 C234.810945,23.4137629 234.495419,23.6797373 234.346036,23.7300174 C234.213413,23.7300174 234.229445,23.4633143 234.395588,22.9328229 C235.441996,19.6121507 235.989977,15.2946211 236.039528,9.98096263 L236.039528,2.80766949 C236.039528,2.24365802 236.347038,2.06949944 236.962058,2.28519375 C237.276127,2.40178527 237.592381,2.54242379 237.907907,2.7085667 C238.339296,2.90750098 238.786716,2.89948531 239.253082,2.683791 L239.253082,2.683791 Z M242.217421,9.00960954 C242.217421,8.5614609 242.000269,8.33702222 241.568881,8.33702222 C240.671855,8.32099089 239.775557,8.32973525 238.878531,8.36252662 C238.79546,8.41207801 238.755382,8.63651669 238.755382,9.03438524 C238.737164,10.6783256 238.65555,12.2224346 238.506167,13.6674407 C238.48795,14.0660379 238.679597,14.2649722 239.078194,14.2649722 L241.594385,14.2649722 C242.008285,14.2649722 242.217421,14.0660379 242.217421,13.6674407 L242.217421,9.00960954 L242.217421,9.00960954 Z M250.012293,2.45935233 C251.689753,1.84506077 253.241149,1.10689072 254.669395,0.242656097 C255.765355,0.7738762 256.662381,1.41294346 257.359744,2.16058657 C257.491638,2.69180667 257.267929,2.89948531 256.687886,2.78289379 C256.520285,2.75010243 256.354871,2.74208676 256.189457,2.75811809 C253.997536,3.14068401 251.905447,3.42268975 249.91319,3.60486399 C249.513864,3.65514408 249.322217,3.92913415 249.339705,4.42683419 L249.339705,8.01348076 C249.339705,8.5119095 249.53864,8.76039517 249.937237,8.76039517 L252.503708,8.76039517 C253.034199,8.96005815 253.499836,8.66129238 253.897705,7.86409788 C254.063119,7.69795497 254.204486,7.53254075 254.321078,7.36566914 C254.785987,6.91752049 255.267655,6.83517773 255.765355,7.11718347 C256.811764,7.88085791 257.459576,8.58623659 257.708061,9.23404821 C257.558679,9.43298249 257.218377,9.50002261 256.687886,9.43298249 L255.46659,9.43298249 C255.051232,9.43298249 254.845011,9.63264547 254.845011,10.0312427 L254.845011,23.2315886 C254.528757,24.0783345 253.781842,24.3275489 252.60281,23.978503 C252.287285,23.8786716 252.10511,23.6462172 252.05483,23.28114 L252.05483,10.0560184 C252.05483,9.64066113 251.855896,9.43298249 251.45657,9.43298249 L249.937237,9.43298249 C249.53864,9.43298249 249.322217,9.68219686 249.290154,10.1806256 C249.257363,12.7879034 248.866781,15.3609325 248.119138,17.9011702 C247.205352,20.5915194 245.429517,22.4839455 242.790177,23.5799058 C242.291748,23.7300174 242.000269,23.7795688 241.917198,23.7300174 C241.867646,23.6462172 241.858902,23.5631458 241.892422,23.480803 C243.237597,22.4671855 244.258501,21.1970666 244.955864,19.6697178 C245.554124,18.3748232 245.951993,17.0471373 246.151656,15.6844739 C246.383382,13.2608278 246.525478,10.0392584 246.575029,6.0212232 L246.575029,2.43457663 C246.575029,1.93614789 246.59106,1.65414216 246.625309,1.58783073 C246.690892,1.52151931 246.989658,1.5958464 247.521606,1.81154071 L248.517735,2.30996945 C248.999404,2.59270388 249.497833,2.64225527 250.012293,2.45935233 L250.012293,2.45935233 Z" id="Fill-153" sketch:type="MSShapeGroup"></path>
            <path d="M265.128383,2.95778107 C265.110894,2.443321 265.360109,2.19410663 265.875297,2.21013796 C266.474286,2.26041805 267.071818,2.34348951 267.669349,2.45935233 C268.000178,2.47611236 268.298943,2.59270388 268.565647,2.80766949 C268.76531,3.07437259 268.672765,3.28132253 268.291657,3.43070541 C268.042442,3.59684833 267.918564,3.87885406 267.918564,4.27745131 L267.918564,15.9089126 C267.918564,16.3075099 268.183081,16.3905813 268.715029,16.158127 C271.388619,15.0956868 274.069495,13.7089764 276.759844,11.9987246 C276.976267,12.1153161 276.925987,12.2974903 276.610461,12.5467047 C273.887321,15.037391 269.910093,17.7605317 264.680234,20.7161266 C264.381468,20.8480208 264.256861,21.0229081 264.306413,21.2386024 C264.339204,21.388714 264.214597,21.5125924 263.932591,21.6124239 C263.84952,21.5956639 263.641841,21.3464495 263.310284,20.8655095 C263.027549,20.3670808 262.771048,19.8693807 262.538594,19.370952 C262.271891,18.7406291 262.172059,18.3915832 262.239828,18.3245431 C263.002774,18.0592974 263.766448,17.8268431 264.53158,17.6271801 C264.92872,17.5113173 265.128383,17.2540872 265.128383,16.85549 L265.128383,2.95778107 L265.128383,2.95778107 Z M279.350362,2.23491366 C279.350362,1.70442225 279.598848,1.44646352 280.097276,1.46322355 C280.678048,1.49674361 281.260277,1.56232634 281.84032,1.66215783 C282.122325,1.64612649 282.413804,1.73721362 282.71257,1.93614789 C282.993847,2.20212229 282.877984,2.443321 282.364253,2.65828661 C282.16459,2.75811809 282.064758,3.00733246 282.064758,3.40592972 C282.13107,7.83932218 281.567058,11.7830303 280.371266,15.2363253 C280.205124,15.6516826 280.371266,15.9424327 280.868967,16.1078469 C282.364253,16.6062756 283.600123,17.4777972 284.58022,18.7231404 C284.996306,19.3046406 285.17848,19.9517235 285.1282,20.6658465 C285.045858,21.3136582 284.738348,21.7618068 284.207856,22.0110212 C283.360382,22.2602355 282.753377,22.0110212 282.3883,21.2641068 C282.072774,19.7695492 281.424962,18.4418633 280.445594,17.2788629 C279.980685,16.8474743 279.574801,16.8890101 279.226484,17.4034701 C278.163315,18.8980277 276.909227,20.068315 275.464221,20.9150609 C273.156438,22.326547 270.748823,23.1813085 268.241376,23.480803 C267.743676,23.5135944 267.477702,23.4968343 267.444911,23.4305229 C267.477702,23.3474515 267.750963,23.2068129 268.26761,23.00715 C269.22949,22.7083842 270.557904,22.0438125 272.251396,21.0148924 C274.992025,19.3381606 276.900483,17.1294801 277.98114,14.3895794 C278.429289,13.2273077 278.743357,11.8988931 278.926989,10.4043356 C279.192235,8.57822093 279.332873,5.85508029 279.350362,2.23491366 L279.350362,2.23491366 Z M269.935597,1.61260643 C269.952357,1.47998358 270.216874,1.44646352 270.732063,1.51277494 C272.22662,1.96092359 273.463219,2.67577533 274.443316,3.65514408 C275.65514,5.03311009 275.804522,6.2871976 274.892194,7.41594923 C274.742082,7.51578072 274.500884,7.60759654 274.169326,7.6899393 C273.289789,7.70669933 272.74108,7.32486211 272.525386,6.54369894 C272.408795,4.98355869 271.795232,3.59684833 270.682511,2.38429654 C270.201571,1.95363662 269.952357,1.69567789 269.935597,1.61260643 L269.935597,1.61260643 Z" id="Fill-154" sketch:type="MSShapeGroup"></path>
            <path d="M293.444819,0.86569202 C293.544651,0.284920522 293.851432,0.0269617885 294.366621,0.0932732143 C294.947392,0.209864732 295.553668,0.359247614 296.185448,0.541421861 C296.549797,0.590973256 296.790267,0.7738762 296.906858,1.08940199 C296.93965,1.27230494 296.808484,1.43043218 296.508261,1.56232634 C296.159944,1.62936646 295.943521,1.92886092 295.861178,2.45935233 C295.395541,3.821287 294.806025,5.18249297 294.093359,6.54369894 C293.876208,6.94229619 293.993528,7.26656635 294.440948,7.51578072 C294.956865,7.84733785 295.113535,8.13007228 294.914601,8.36252662 C294.648627,8.62850102 294.516004,8.96005815 294.516004,9.3586554 L294.516004,22.583777 C294.714938,23.480803 294.349861,24.0112944 293.420043,24.178166 C292.954406,24.2277174 292.531033,24.144646 292.150653,23.9289516 C291.851159,23.5631458 291.752056,23.1317571 291.851159,22.6333284 L291.851159,10.7031013 C291.851159,10.2884728 291.634736,10.3547842 291.203347,10.9027643 C290.422913,11.7662702 289.80935,12.3397548 289.360473,12.6210318 C289.260641,12.5714804 289.202345,12.5139134 289.186314,12.4468732 C291.194603,9.24279258 292.614833,5.38215594 293.444819,0.86569202 L293.444819,0.86569202 Z M296.409158,8.03825646 C296.375638,7.50776505 296.616837,7.25855068 297.131297,7.29134205 C297.695309,7.34089344 298.260049,7.4239649 298.824789,7.54055642 C299.207355,7.55731645 299.488632,7.67317927 299.671535,7.88887358 C299.853709,8.20512807 299.638015,8.4871338 299.025181,8.73561948 C298.958141,8.81869093 298.92462,9.05988963 298.92462,9.45775819 L298.92462,20.7161266 C298.92462,21.1307552 299.124283,21.3384339 299.522881,21.3384339 L308.0909,21.3384339 C308.670943,21.5045768 309.152611,21.2138267 309.535177,20.4669123 C309.883494,19.9852436 310.19902,19.6369264 310.481026,19.4205034 C311.411572,19.8191006 312.249574,20.5579994 312.996488,21.6371996 C312.930905,21.9862455 312.605906,22.1021083 312.025864,21.9862455 L299.546928,21.9862455 C299.13157,21.9862455 298.92462,22.143644 298.92462,22.4591698 C298.990932,23.3226758 298.559543,23.76208 297.628997,23.7795688 C296.616837,23.6964973 296.209495,23.1813085 296.409158,22.2354598 L296.409158,8.03825646 L296.409158,8.03825646 Z M304.429926,0.690804743 C304.5283,0.160313337 304.81905,-0.0889010324 305.300719,-0.056109668 C305.864731,0.0109304548 306.430199,0.102017578 306.99494,0.217880399 C307.225937,0.267431794 307.435073,0.359247614 307.617976,0.491870466 C307.832941,0.807396261 307.658054,1.05661063 307.094771,1.23878488 C306.960691,1.55503937 306.869604,2.14382653 306.820052,3.00733246 C306.802564,3.40592972 306.99494,3.60486399 307.392808,3.60486399 L307.965564,3.60486399 C308.496784,3.78776694 309.06954,3.31484259 309.68456,2.18536226 C310.082429,1.75397365 310.339659,1.53755064 310.45625,1.53755064 C311.070542,1.80425374 311.783936,2.36826521 312.597891,3.23177114 C312.946937,3.82930266 313.054784,4.16158849 312.922161,4.22789992 L312.075415,4.25267561 L307.292977,4.25267561 C306.894379,4.25267561 306.661925,4.50188998 306.596342,4.99959003 C306.529302,5.38215594 306.488495,5.78876886 306.471006,6.22015748 C306.421455,6.66830612 306.570838,6.8927448 306.919884,6.8927448 C307.335241,7.02609634 307.683558,6.8927448 307.965564,6.49414754 C308.496784,5.94616741 309.028733,5.76399316 309.559953,5.94616741 C310.705465,6.36152469 311.427603,6.88472913 311.726369,7.51578072 C311.676818,7.63237224 311.528164,7.77301076 311.278949,7.93842497 C311.012246,8.13808795 310.880352,8.43685371 310.880352,8.83545096 L310.880352,17.9514503 C310.979455,19.1967934 310.322899,19.7520605 308.912141,19.6201664 C308.413713,19.5043035 308.181987,19.1887777 308.214778,18.673589 C308.214778,18.4243746 308.015115,18.2997674 307.617976,18.2997674 L303.557676,18.2997674 C303.159079,18.2997674 302.950671,18.4243746 302.93464,18.673589 C302.785257,19.4707835 302.21323,19.8358607 301.216372,19.7695492 C300.916878,19.8023406 300.651632,19.6697178 300.419907,19.370952 L300.393674,18.5242061 L300.393674,6.64353043 C300.393674,6.11303902 300.651632,5.91337605 301.166092,6.0459989 C301.763624,6.24493318 302.328364,6.47811621 302.859584,6.74336191 C303.008967,6.8431934 303.166366,6.8927448 303.333237,6.8927448 C303.515411,6.8927448 303.648763,6.64353043 303.731834,6.14583039 L303.880489,4.92526293 C303.930769,4.47711429 303.772642,4.25267561 303.408293,4.25267561 L298.700182,4.25267561 L297.878212,4.3772828 C297.346991,4.46035426 297.032194,4.33574707 296.932363,4.00346124 C296.815043,3.60486399 297.056241,3.43070541 297.654502,3.48025681 C297.953267,3.49774554 298.277538,3.53855257 298.626583,3.60486399 L303.43234,3.60486399 C303.830937,3.60486399 304.071407,3.35564962 304.155936,2.85794958 C304.22079,2.14382653 304.311877,1.42168782 304.429926,0.690804743 L304.429926,0.690804743 Z M303.681554,7.54055642 C303.184583,7.60759654 302.93464,7.83932218 302.93464,8.23791943 L302.93464,9.85635544 C302.93464,10.2724414 303.133574,10.4793914 303.532171,10.4793914 L307.592471,10.4793914 C308.0071,10.4793914 308.214778,10.2797284 308.214778,9.88113114 L308.214778,8.21241504 C308.214778,7.76426639 308.0071,7.54055642 307.592471,7.54055642 L303.681554,7.54055642 L303.681554,7.54055642 Z M308.214778,11.7742859 C308.214778,11.3428973 308.02386,11.1264743 307.642023,11.1264743 L303.557676,11.1264743 C303.142319,11.1264743 302.93464,11.3261373 302.93464,11.7247345 L302.93464,13.4182263 C302.93464,13.8335836 303.133574,14.0412622 303.532171,14.0412622 L307.592471,14.0412622 C308.0071,14.0412622 308.214778,13.8415993 308.214778,13.443002 L308.214778,11.7742859 L308.214778,11.7742859 Z M308.214778,15.3609325 C308.214778,14.9295439 308.02386,14.7131209 307.642023,14.7131209 L303.557676,14.7131209 C303.142319,14.7131209 302.93464,14.9127838 302.93464,15.3113811 L302.93464,17.0296486 C302.93464,17.4450059 303.133574,17.6526845 303.532171,17.6526845 L307.592471,17.6526845 C308.0071,17.6526845 308.214778,17.4530215 308.214778,17.0544243 L308.214778,15.3609325 L308.214778,15.3609325 Z" id="Fill-155" sketch:type="MSShapeGroup"></path>
            <path d="M322.011198,6.49414754 C322.110301,5.97968747 322.40178,5.7552488 322.88272,5.82156023 C323.44746,5.92139171 324.036976,6.07951896 324.651268,6.29521327 C325.033105,6.37828472 325.282319,6.56920333 325.398182,6.8679691 C325.364662,7.11718347 325.23131,7.24106196 324.999585,7.24106196 C324.816682,7.27458202 324.567467,7.55731645 324.253399,8.08853655 C323.803793,8.91852242 323.314837,9.74923698 322.782888,10.5792229 C322.633506,10.7949172 322.55845,11.1016986 322.55845,11.5002958 L322.55845,22.360067 C322.774144,23.2563643 322.40178,23.7875844 321.437714,23.9537273 C320.972805,24.0032787 320.574208,23.9289516 320.242651,23.7300174 C319.959916,23.4633143 319.852069,23.0734614 319.919109,22.5590013 L319.919109,14.8625037 C319.919109,14.4646352 319.670624,14.4894109 319.171466,14.9375595 L317.926123,16.0087441 C317.444454,16.3410299 317.179937,16.4656371 317.129657,16.381837 C319.852069,12.7128476 321.47925,9.41695116 322.011198,6.49414754 L322.011198,6.49414754 Z M321.06535,0.217880399 C321.114172,0.151568973 321.379418,0.176344671 321.861087,0.292207492 C322.442587,0.508630497 323.023358,0.757844866 323.605587,1.0398506 C324.069767,1.2562736 324.235182,1.51277494 324.104016,1.81154071 C324.004185,1.9113722 323.878849,1.96092359 323.729466,1.96092359 C323.546563,1.96092359 323.263829,2.20212229 322.88272,2.683791 C321.372131,4.75912002 319.527799,6.3119733 317.353367,7.34089344 C317.270296,7.30810208 317.402919,7.04212768 317.751964,6.54369894 C319.412665,4.53541004 320.516641,2.42656097 321.06535,0.217880399 L321.06535,0.217880399 Z M337.079195,10.4793914 C337.527343,9.96493129 337.785302,9.69895689 337.852342,9.68219686 C338.481936,9.93141123 339.154524,10.4466 339.868647,11.2263058 C340.267244,11.7414945 340.458163,12.0322446 340.442131,12.0978274 C340.3423,12.3310104 340.01803,12.4053375 339.470049,12.322266 L336.406607,12.322266 C335.99125,12.322266 335.7843,12.521929 335.7843,12.9197976 L335.7843,14.5141866 C335.7843,14.9127838 335.825107,15.1292068 335.909636,15.1619982 C336.273985,15.2283096 336.738164,14.8049367 337.303633,13.8911507 C337.735751,13.4102106 338.207946,13.3358836 338.723135,13.6674407 C339.652224,14.3480437 340.226437,15.0045997 340.442131,15.6349225 C340.358331,15.7515141 340.059565,15.8090811 339.545834,15.8090811 L336.406607,15.8090811 C335.99125,15.8090811 335.7843,16.0087441 335.7843,16.4073414 L335.7843,21.6619753 C335.71726,22.4424098 335.318663,23.064717 334.588508,23.5303544 C333.824105,23.8954316 333.093951,24.0360701 332.396588,23.9537273 C332.329548,23.9041759 332.279996,23.7460487 332.247205,23.480803 C331.998719,22.7331599 331.482802,22.2179711 330.703096,21.9359654 C330.321988,21.869654 330.171876,21.703511 330.254947,21.4382653 C330.321988,21.3551939 330.603265,21.3136582 331.101693,21.3136582 L332.671307,21.2888825 C332.970072,21.1722909 333.077191,20.8567652 332.994848,20.3423051 L332.994848,16.432117 C332.994848,16.0167598 332.795185,15.8090811 332.396588,15.8090811 L325.647396,15.8090811 L324.850931,15.958464 C324.302222,16.0087441 323.97868,15.8841369 323.878849,15.5853711 C323.779017,15.1700139 324.019487,14.9871109 324.601716,15.037391 C324.899753,15.037391 325.224023,15.0709111 325.572341,15.1364938 L332.371812,15.1364938 C332.787169,15.1364938 332.994848,14.9375595 332.994848,14.5389623 L332.994848,12.945302 C332.994848,12.5299447 332.795185,12.322266 332.396588,12.322266 L325.946891,12.322266 L325.148968,12.4468732 C324.617748,12.5467047 324.277446,12.3557861 324.128063,11.8741174 L324.053007,11.5753516 C324.085799,11.5090402 324.352502,11.5002958 324.850931,11.5505759 C325.165728,11.567336 325.5053,11.6088717 325.871106,11.6744544 L335.485534,11.6744544 C335.983234,11.841326 336.514455,11.4427288 337.079195,10.4793914 L337.079195,10.4793914 Z M325.746499,16.9298171 C325.796779,16.7979229 326.078056,16.7644029 326.593974,16.8307143 C327.590103,17.0471373 328.4864,17.4369902 329.284323,18.0010017 C330.395586,18.9810991 330.553713,19.9939879 329.756519,21.0396681 C328.876981,21.7370311 328.138811,21.5789039 327.540551,20.5667437 C327.423231,20.2344579 327.340888,19.9014434 327.292065,19.5698863 C327.225025,18.9898435 326.967067,18.3828389 326.518918,17.7517873 C325.986969,17.2876073 325.729739,17.0136172 325.746499,16.9298171 L325.746499,16.9298171 Z M334.68834,-0.0808853655 C334.920065,-0.163956822 335.293887,-0.0728696987 335.809076,0.193104701 C337.054419,0.690804743 337.743038,1.22275354 337.876389,1.78676501 C337.8589,1.95363662 337.676726,2.09427514 337.328409,2.21013796 C336.979363,2.30996945 336.862772,2.60873521 336.979363,3.10716395 L336.979363,8.81067527 C337.096683,9.37541543 336.947301,9.84906847 336.531215,10.230177 C335.933683,10.5464315 335.335423,10.6287742 334.737891,10.4793914 C334.322534,10.3300085 334.148375,10.0232271 334.215416,9.55758968 C334.215416,9.27558394 334.015753,9.13421673 333.617155,9.13421673 L329.932135,9.13421673 C329.51532,9.13421673 329.30837,9.26756828 329.30837,9.53281398 C329.226027,10.3132485 328.751646,10.7366214 327.889597,10.8029328 C326.842459,10.9523157 326.394311,10.5376871 326.544422,9.55758968 L326.544422,0.86569202 C326.544422,0.334471917 326.800924,0.142824609 327.316112,0.292207492 C327.864093,0.441590374 328.436848,0.658013379 329.035109,0.940019113 C329.234772,1.05661063 329.533537,1.11417769 329.932135,1.11417769 L332.845465,1.11417769 C333.260822,1.23076921 333.617155,1.11417769 333.91665,0.765860533 C334.148375,0.450334738 334.406334,0.167600307 334.68834,-0.0808853655 L334.68834,-0.0808853655 Z M334.189911,1.8865965 C334.124328,1.80425374 333.899161,1.76198931 333.517324,1.76198931 L329.932135,1.76198931 C329.51532,1.76198931 329.30837,1.96092359 329.30837,2.35952084 L329.30837,4.3525071 C329.30837,4.76786438 329.508033,4.97481433 329.905902,4.97481433 L333.59238,4.97481433 C334.007737,4.97481433 334.215416,4.77588005 334.215416,4.3772828 L334.189911,1.8865965 L334.189911,1.8865965 Z M334.215416,6.29521327 C334.215416,5.86382465 334.023768,5.64740165 333.641931,5.64740165 L329.932135,5.64740165 C329.51532,5.64740165 329.30837,5.84633592 329.30837,6.24493318 L329.30837,7.86409788 C329.30837,8.27945516 329.508033,8.4871338 329.905902,8.4871338 L333.59238,8.4871338 C334.007737,8.4871338 334.215416,8.28747083 334.215416,7.88887358 L334.215416,6.29521327 L334.215416,6.29521327 Z" id="Fill-156" sketch:type="MSShapeGroup"></path>
            <path d="M356.081426,0.741084835 C356.081426,0.242656097 356.33064,0.00218609096 356.829069,0.0182174247 C357.825198,0.0852575474 358.687975,0.25140046 359.418858,0.516646164 C359.734384,0.799380594 359.652041,1.05661063 359.171101,1.28906497 C358.971438,1.37213643 358.871607,1.6213508 358.871607,2.03597938 L358.871607,2.75811809 C358.871607,3.17347538 359.070541,3.38115402 359.469867,3.38115402 L362.432749,3.38115402 C363.03028,3.54729693 363.495918,3.24853117 363.827475,2.48412803 L364.226072,1.98642799 C364.690981,1.53755064 365.17265,1.45520788 365.671078,1.73721362 C366.186267,2.1030195 366.675223,2.53367942 367.140131,3.03210816 C367.471689,3.56405696 367.60504,3.87156709 367.538729,3.95390985 C367.455657,4.02094997 367.164907,4.05301264 366.667207,4.05301264 L352.096911,4.05301264 C351.681554,4.05301264 351.473875,4.25267561 351.473875,4.65127287 L351.473875,9.40820679 C351.440355,12.2151476 351.050502,14.9543196 350.304316,17.6271801 C349.639016,19.9517235 348.212227,21.9439811 346.020307,23.6054102 C345.521878,23.9041759 345.230399,24.0448145 345.147328,24.0287831 C344.948393,23.8786716 345.056241,23.5966658 345.471598,23.1813085 C346.284824,22.086077 346.966155,20.7569337 347.514136,19.1967934 C347.944795,17.9849703 348.277081,16.174887 348.510264,13.7672722 C348.543056,13.3358836 348.327361,13.3271392 347.862453,13.7417678 C347.280952,14.2234365 346.724957,14.7306096 346.193737,15.261101 C346.077145,15.4104839 346.010834,15.5773555 345.994802,15.7595297 C345.962011,16.191647 345.761619,16.3242699 345.396542,16.158127 C345.297439,16.0582955 345.147328,15.8426012 344.948393,15.5103154 C344.699179,14.9127838 344.482756,14.3072366 344.300582,13.6922164 C344.18399,13.1442362 344.425918,12.8206948 345.024178,12.7208633 C345.687292,12.6210318 346.351135,12.4891377 347.015707,12.322266 C347.231401,12.322266 347.555671,12.2224346 347.98706,12.0235003 C348.435209,11.8741174 348.667663,11.5753516 348.684423,11.1264743 L348.733974,9.70697256 L348.733974,2.90750098 C348.733974,2.34348951 348.991933,2.1525709 349.506393,2.33474515 C350.070405,2.55116815 350.635145,2.80038252 351.199885,3.08165956 C351.598482,3.28132253 351.972304,3.38115402 352.320621,3.38115402 L355.459119,3.38115402 C355.874476,3.38115402 356.081426,3.18149104 356.081426,2.78289379 L356.081426,0.741084835 L356.081426,0.741084835 Z M344.973169,5.54757016 C344.707923,5.01707875 344.632139,4.71831299 344.750188,4.65127287 C345.081016,4.70082426 345.554669,4.99230306 346.168961,5.52279446 C347.546927,6.58596336 348.136443,7.72345936 347.937508,8.93528245 C347.45584,10.3970486 346.617838,10.7031013 345.421318,9.85635544 C345.172832,9.49127825 345.130568,8.92726678 345.297439,8.16286364 C345.512405,7.31611775 345.404558,6.44459615 344.973169,5.54757016 L344.973169,5.54757016 Z M355.683557,5.199253 C355.79942,4.63451283 356.10693,4.3772828 356.60463,4.42683419 C357.750142,4.60973714 358.572112,4.89247157 359.070541,5.27358009 C359.203164,5.50676313 359.103332,5.67217734 358.772504,5.77200883 C358.623121,5.82156023 358.430745,6.00446317 358.199019,6.31998896 C358.032148,6.63551476 358.148739,6.79291331 358.547337,6.79291331 L361.486172,6.79291331 C361.935778,6.92626486 362.291382,6.80165767 362.558085,6.41982045 C363.105336,6.0707746 363.604494,6.06275893 364.051914,6.39431606 C364.865139,7.05888771 365.322032,7.59885218 365.421864,8.01348076 C365.388344,8.27945516 365.163905,8.41207801 364.750005,8.41207801 C364.682965,8.44559807 364.532854,8.62850102 364.301128,8.96005815 C363.686836,9.8898755 362.947209,10.7949172 362.084432,11.6744544 C361.685835,12.0730517 361.726642,12.3973218 362.209039,12.6458075 C364.034425,13.443002 365.762165,13.8751193 367.389346,13.9414307 C367.887046,13.9414307 368.178525,13.9662064 368.260867,14.0157578 C368.293659,14.099558 368.06922,14.2984923 367.589009,14.6140181 C367.091309,14.9463039 366.699998,15.4104839 366.417993,16.0087441 C366.21833,16.655827 366.060931,16.9881128 365.94434,17.0048729 C363.869011,16.4736528 361.960553,15.5103154 360.216781,14.1155893 C359.850247,13.7840322 359.402827,13.7752878 358.871607,14.0908136 C356.247569,15.6021312 353.623531,16.5151885 351.001679,16.8307143 C350.934639,16.7644029 350.901848,16.6893471 350.901848,16.6062756 C350.984191,16.5239329 351.274941,16.381837 351.772641,16.1829027 C353.815178,15.3361568 355.857716,14.1578538 357.899525,12.6458075 C358.281362,12.3310104 358.306867,11.9236688 357.974581,11.4259688 C357.575984,10.7621258 357.210906,10.0975541 356.87862,9.43298249 C356.695718,9.03438524 356.412983,9.05187397 356.032603,9.48326258 C354.73698,10.9945801 353.474148,11.9819646 352.247022,12.4468732 C352.179982,12.4140819 352.33811,12.1313474 352.719218,11.6001273 C354.196287,9.72446129 355.185857,7.59010781 355.683557,5.199253 L355.683557,5.199253 Z M365.098323,19.1967934 C365.695854,19.0146192 366.094451,18.9643391 366.293386,19.0474105 C366.393217,19.3294163 366.193554,19.5451106 365.695854,19.6944935 C363.504662,20.5579994 359.850247,21.7202711 354.73698,23.1813085 C354.570108,23.26438 354.438214,23.3889872 354.339111,23.5551301 C354.22252,23.8538959 354.040346,23.9202073 353.790403,23.7547931 C353.507668,23.3722271 353.192142,22.6661198 352.844554,21.6371996 C352.727234,21.0892195 352.993937,20.8152294 353.64102,20.8152294 C357.426601,20.5332237 361.245702,19.9939879 365.098323,19.1967934 L365.098323,19.1967934 Z M358.274075,7.44072493 C357.857989,7.44072493 357.533719,7.55731645 357.301993,7.78904209 C357.119819,8.07177652 357.202162,8.47911814 357.551208,9.00960954 C357.932316,9.50803828 358.373907,10.0057383 358.871607,10.5041671 C359.386067,10.9523157 359.868464,10.9362844 360.316613,10.4546157 C361.013247,9.69094122 361.586003,8.89374672 362.034152,8.06303216 C362.250575,7.64840357 362.150743,7.44072493 361.735386,7.44072493 L358.274075,7.44072493 L358.274075,7.44072493 Z M357.252442,15.4855397 C358.231811,15.3033654 359.220653,15.4279726 360.216781,15.8593612 C360.996487,16.2747185 361.411844,16.8226986 361.462125,17.5025729 C361.543739,18.2997674 361.262462,18.8397319 360.61465,19.1217376 C359.718353,19.3381606 359.120821,18.9228033 358.821327,17.8763945 C358.687975,17.3459031 358.430745,16.8474743 358.049637,16.381837 C357.451376,15.8841369 357.185402,15.5853711 357.252442,15.4855397 L357.252442,15.4855397 Z" id="Fill-157" sketch:type="MSShapeGroup"></path>
            <path d="M373.638651,6.12032599 C373.65614,5.62262595 373.704963,5.33187585 373.788763,5.24880439 C373.871106,5.24880439 374.05328,5.50676313 374.336014,6.0212232 C374.900754,7.23377499 374.933546,8.61975665 374.435846,10.1806256 C374.003728,11.0944116 373.347901,11.5177846 372.468364,11.4507444 C372.136807,11.384433 371.836584,11.1191873 371.571338,10.6535499 C371.454746,10.3052328 371.546562,9.89861987 371.846057,9.43298249 C372.974808,8.35451095 373.571611,7.24980632 373.638651,6.12032599 L373.638651,6.12032599 Z M375.082929,0.715580441 C375.082929,0.201120368 375.340159,-0.0393496373 375.855347,-0.00655827288 C377.083931,0.0765131836 378.013748,0.300951855 378.644799,0.666029046 C378.777422,1.08138633 378.520192,1.40565649 377.873109,1.63738213 C377.823558,2.50161676 377.806069,3.36439399 377.823558,4.22789992 C377.823558,4.62649717 378.072772,4.92526293 378.571201,5.12419721 C380.180893,5.82156023 380.961327,6.85995343 380.912505,8.23791943 C380.744904,8.91852242 380.35578,9.23404821 379.74076,9.18376812 C378.910774,9.01835391 378.552984,8.51992517 378.670304,7.6899393 C378.603264,7.27458202 378.47137,6.85995343 378.270978,6.44459615 C377.972941,5.99571881 377.823558,6.0212232 377.823558,6.51892324 L377.823558,23.1813085 C377.773278,23.5631458 377.532079,23.8458802 377.100691,24.0287831 C376.503159,24.2277174 376.00473,24.2029417 375.606133,23.9537273 C375.125193,23.6877529 374.950306,23.2228443 375.082929,22.5590013 L375.082929,0.715580441 L375.082929,0.715580441 Z M383.028641,0.815411928 C383.028641,0.284920522 383.260366,0.0182174247 383.726004,0.0182174247 C384.472918,0.0852575474 385.162994,0.193104701 385.794046,0.342487584 C386.092083,0.441590374 386.266241,0.583686286 386.31725,0.765860533 C386.332553,0.915243415 386.18317,1.0646263 385.867644,1.21400918 C385.701501,1.2810493 385.619158,1.52151931 385.619158,1.93614789 L385.619158,3.97868555 C385.619158,4.39404283 385.818093,4.60172147 386.21669,4.60172147 L387.786303,4.60172147 C388.200203,4.60172147 388.40861,4.4020585 388.40861,4.00346124 L388.40861,0.96479481 C388.40861,0.467094768 388.657096,0.217880399 389.155525,0.217880399 C389.736296,0.25140046 390.318525,0.342487584 390.899297,0.491870466 C391.396997,0.708293471 391.654955,0.857676353 391.671716,0.940019113 C391.703778,1.15644212 391.571884,1.31384067 391.27239,1.41294346 C391.089487,1.53026367 390.998399,1.78676501 390.998399,2.18536226 L390.998399,3.43070541 C390.998399,3.86282273 391.174015,3.85407836 391.521604,3.40592972 C391.902712,2.99057243 392.127151,2.77560682 392.194191,2.75811809 C393.140769,3.25654683 393.929219,3.96192552 394.56027,4.87498284 C394.52675,5.2240287 394.203209,5.34863588 393.588917,5.24880439 L391.621435,5.24880439 C391.205349,5.24880439 390.998399,5.44846737 390.998399,5.84633592 L390.998399,9.60786977 C390.998399,10.0727784 391.189318,10.0727784 391.571884,9.60786977 L392.070313,8.96005815 C392.517733,8.46162941 393.048953,8.40406235 393.664702,8.78589957 C393.996259,9.05187397 394.319072,9.35063973 394.635326,9.68219686 C395.116266,10.3132485 395.291153,10.6710387 395.157802,10.7533814 C395.025179,10.8029328 394.709653,10.8277085 394.211225,10.8277085 L381.061887,10.8277085 L380.264693,10.9770914 C379.715984,11.0273715 379.392443,10.8947486 379.292611,10.5792229 C379.19278,10.1806256 379.441994,10.0057383 380.039526,10.0560184 C380.687337,10.1886413 381.475787,10.230177 382.405605,10.1806256 C382.820962,10.1806256 383.028641,9.98096263 383.028641,9.58236537 L383.028641,5.87184032 C383.028641,5.45648304 382.828978,5.24880439 382.431109,5.24880439 C382.048543,5.26629312 381.659419,5.31584452 381.260822,5.39818728 C380.712113,5.44846737 380.396587,5.32386018 380.314244,5.02436572 C380.196924,4.60973714 380.429378,4.42683419 381.011607,4.47711429 L382.405605,4.60172147 C382.820962,4.60172147 383.028641,4.4020585 383.028641,4.00346124 L383.028641,0.815411928 L383.028641,0.815411928 Z M380.961327,13.1442362 C380.961327,12.6137448 381.210542,12.3973218 381.708242,12.4964246 C382.272982,12.6960876 382.836993,12.9285419 383.402462,13.1937876 C383.584636,13.3111079 383.875386,13.3686749 384.273984,13.3686749 L389.304908,13.3686749 C389.703505,13.3686749 390.035062,13.219292 390.301036,12.9197976 C390.616562,12.6050005 391.023175,12.538689 391.521604,12.7208633 C391.92093,12.9037662 392.319527,13.1194605 392.717396,13.3686749 C393.330959,13.8335836 393.605677,14.1243337 393.539366,14.2401965 L392.817227,14.8129523 C392.784436,14.8960238 392.766947,15.1364938 392.766947,15.5350911 L392.766947,22.6588328 C392.999401,23.5718901 392.568742,24.0943659 391.472781,24.2277174 C390.625307,24.3771003 390.209221,24.0360701 390.227438,23.2068129 C390.227438,22.790727 390.027046,22.583777 389.629178,22.583777 L384.149377,22.583777 C383.750779,22.583777 383.518325,22.8329914 383.452742,23.3314201 C383.452742,23.5631458 383.260366,23.7708244 382.879258,23.9537273 C381.501292,24.4346674 380.861496,24.0943659 380.961327,22.9328229 L380.961327,13.1442362 L380.961327,13.1442362 Z M384.323535,14.0157578 C383.793044,14.0660379 383.526341,14.2737166 383.526341,14.6387938 L383.526341,17.0296486 C383.526341,17.4450059 383.726004,17.6526845 384.124601,17.6526845 L389.603673,17.6526845 C390.019759,17.6526845 390.227438,17.4530215 390.227438,17.0544243 L390.227438,14.6883452 C390.227438,14.2401965 390.011015,14.0157578 389.578898,14.0157578 L384.323535,14.0157578 L384.323535,14.0157578 Z M390.227438,18.9723547 C390.227438,18.5242061 390.043806,18.2997674 389.678729,18.2997674 L384.149377,18.2997674 C383.734748,18.2997674 383.526341,18.4994304 383.526341,18.8980277 L383.526341,21.2888825 C383.526341,21.703511 383.726004,21.9111897 384.124601,21.9111897 L389.603673,21.9111897 C390.019759,21.9111897 390.227438,21.7122554 390.227438,21.3136582 L390.227438,18.9723547 L390.227438,18.9723547 Z M388.40861,5.89661602 C388.40861,5.4652274 388.217692,5.24880439 387.835126,5.24880439 L386.241466,5.24880439 C385.826108,5.24880439 385.619158,5.44846737 385.619158,5.84633592 L385.619158,9.55758968 C385.619158,9.97294696 385.818093,10.1806256 386.21669,10.1806256 L387.786303,10.1806256 C388.200203,10.1806256 388.40861,9.98096263 388.40861,9.58236537 L388.40861,5.89661602 L388.40861,5.89661602 Z" id="Fill-158" sketch:type="MSShapeGroup"></path>
            <path d="M410.647714,8.96005815 C411.377868,8.81067527 412.04244,8.86897102 412.641429,9.13421673 C414.3014,10.1143142 414.898932,11.3261373 414.433295,12.7704147 C413.786212,14.3983238 412.681507,15.1700139 411.122095,15.0869424 C409.493458,14.7058339 408.571656,13.7672722 408.35669,12.2727146 C408.256859,10.7286057 409.021262,9.6246298 410.647714,8.96005815 L410.647714,8.96005815 Z M412.067215,9.85635544 C411.369852,9.64066113 410.673218,9.79878838 409.975126,10.3300085 C409.377595,10.92754 409.145141,11.5921117 409.277763,12.322266 C409.361564,13.0691805 409.817728,13.6506807 410.647714,14.0660379 C411.611051,14.4143551 412.441037,14.2074051 413.1384,13.443002 C414.201569,11.9484445 413.843779,10.7533814 412.067215,9.85635544 L412.067215,9.85635544 Z" id="Fill-159" sketch:type="MSShapeGroup"></path>
            <path d="M435.053962,2.93227667 C435.053962,2.40178527 435.286416,2.13581087 435.752054,2.13581087 L436.050819,2.13581087 C436.566008,2.13581087 436.82251,2.38429654 436.82251,2.88272528 L436.82251,22.1851798 C436.82251,22.6996398 436.573295,22.9575986 436.075595,22.9575986 L429.401459,22.9575986 C428.885542,22.9575986 428.629041,22.7083842 428.629041,22.2099555 L428.629041,21.9862455 C428.629041,21.4710567 428.878255,21.2138267 429.375955,21.2138267 L434.431655,21.2138267 C434.847012,21.2138267 435.053962,21.0148924 435.053962,20.6162951 L435.053962,2.93227667" id="Fill-160" sketch:type="MSShapeGroup"></path>
        </g>
    </g>
</svg>