<?xml version="1.0" encoding="UTF-8" standalone="no"?>
<svg width="222px" height="63px" viewBox="0 0 222 63" version="1.1" xmlns="http://www.w3.org/2000/svg" xmlns:xlink="http://www.w3.org/1999/xlink" xmlns:sketch="http://www.bohemiancoding.com/sketch/ns">
    <!-- Generator: Sketch 3.0.4 (8053) - http://www.bohemiancoding.com/sketch -->
    <title>h3_home-wrap</title>
    <desc>Created with Sketch.</desc>
    <defs></defs>
    <g id="Page-1" stroke="none" stroke-width="1" fill="none" fill-rule="evenodd" sketch:type="MSPage">
        <g id="h1_home-wrap" sketch:type="MSLayerGroup" transform="translate(0.473061, 1.337793)" fill="#000000">
            <path d="M0.291478795,1.46322355 C0.291478795,0.931274749 0.532677497,0.666029046 1.01434621,0.666029046 L7.7139863,0.666029046 C8.22844637,0.666029046 8.48640511,0.915243415 8.48640511,1.41294346 L8.48640511,1.63738213 C8.48640511,2.1518422 8.23719074,2.40980093 7.738762,2.40980093 L2.6830623,2.40980093 C2.26697633,2.40980093 2.06002638,2.60873521 2.06002638,3.00733246 L2.06002638,21.5628725 C2.06002638,22.0773326 1.81081201,22.3345626 1.31311197,22.3345626 L1.0391219,22.3345626 C0.540693164,22.3345626 0.291478795,22.086077 0.291478795,21.5876482 L0.291478795,1.46322355" id="Fill-127" sketch:type="MSShapeGroup"></path>
            <path d="M15.2836906,1.33861636 C15.2836906,0.806667564 15.5321763,0.590973256 16.030605,0.690804743 C16.7607594,0.890467718 17.5003868,1.18923348 18.2473012,1.58783073 C18.4790269,1.72045359 18.7952814,1.78676501 19.1938786,1.78676501 L32.3446731,1.78676501 C32.5100874,1.73721362 32.6682146,1.62863777 32.8175975,1.46322355 C33.2985375,0.632508984 33.7554305,0.367263281 34.1875478,0.666029046 C34.8849108,0.931274749 35.5487538,1.26356057 36.1798054,1.66215783 C37.0433113,2.30996945 36.9850156,2.76686246 36.0056468,3.03210816 C35.9225753,3.13193965 35.8810396,3.38115402 35.8810396,3.77902257 L35.8810396,22.2602355 C35.8810396,22.7579356 35.8642796,23.0574301 35.8314882,23.1565328 C35.6150652,23.5718901 35.3745952,23.7956001 35.1093495,23.8291202 C34.3449464,24.0783345 33.7802062,24.0695902 33.415129,23.8043445 C33.1491546,23.5879215 33.0500518,23.24762 33.1163633,22.78344 C33.1163633,22.3848427 32.917429,22.1851798 32.5188317,22.1851798 L18.6706742,22.1851798 C18.2553169,22.1851798 18.0396226,22.4343941 18.0228626,22.9328229 C17.8902397,23.6797373 17.4333467,24.0608458 16.6536409,24.0783345 C15.9227579,24.2109574 15.4658648,23.9537273 15.2836906,23.3059157 L15.2836906,1.33861636 L15.2836906,1.33861636 Z M33.1163633,3.13193965 C33.1163633,2.683791 32.8999402,2.45935233 32.4692803,2.45935233 L18.6706742,2.45935233 C18.2553169,2.45935233 18.048367,2.65828661 18.048367,3.05688386 L18.048367,20.8902852 C18.048367,21.3049138 18.2473012,21.5125924 18.6458985,21.5125924 L32.494056,21.5125924 C32.9086846,21.5125924 33.1163633,21.3136582 33.1163633,20.9150609 L33.1163633,3.13193965 L33.1163633,3.13193965 Z M23.8014297,3.92913415 C23.8014297,3.39718535 24.050644,3.14797098 24.5490728,3.18149104 C25.1130842,3.2150111 25.6770957,3.27257817 26.2425646,3.35564962 C26.8400961,3.60486399 27.0973261,3.80452697 27.0142547,3.95390985 C26.9479433,4.11932407 26.7570247,4.25267561 26.4414989,4.3525071 C26.3744587,4.45160989 26.3416674,4.70082426 26.3416674,5.09942151 L26.2673403,7.88887358 C26.2673403,8.28747083 26.4414989,8.48640511 26.7905447,8.48640511 C27.189142,8.58623659 27.5206991,8.45361374 27.7866735,8.08853655 C28.0183991,7.75625073 28.2763579,7.4239649 28.5583636,7.09167907 C28.7908179,6.69308182 29.0320166,6.49414754 29.281231,6.49414754 C30.2103197,7.00860762 31.0410342,7.76426639 31.7719173,8.76039517 C31.7879486,8.86022666 31.7631729,8.95131378 31.6968615,9.03438524 C31.59703,9.10069667 31.2982643,9.13421673 30.8005642,9.13421673 L26.9151519,9.13421673 C26.5165546,9.13421673 26.349683,9.3834311 26.4167232,9.88113114 C26.7818003,11.9236688 27.6125149,13.8328549 28.9074095,15.6101468 C29.6871152,16.655827 30.6336926,17.5113173 31.7464129,18.1751602 C32.4109846,18.473926 32.7505574,18.6648446 32.7680461,18.7479161 C32.7680461,18.8477476 32.5188317,18.9388347 32.020403,19.0219061 C31.5722543,19.1057063 31.0570656,19.4292478 30.4762941,19.9939879 C30.1104882,20.491688 29.8787625,20.732158 29.7789311,20.7161266 C27.670082,18.8229719 26.3919475,16.3410299 25.9437988,13.2688434 C25.8767587,12.7871747 25.7689115,12.8542148 25.6195287,13.4677777 C25.4205944,14.7794323 24.8973899,16.0582955 24.050644,17.3036386 C22.7557495,19.1129933 21.261192,20.2009379 19.5677002,20.5667437 C18.9023998,20.6986379 18.5708427,20.7161266 18.5708427,20.6162951 C18.5708427,20.549255 18.8615928,20.3000407 19.443093,19.8693807 C20.7540189,18.9060433 21.7341163,17.6191644 22.3819279,16.0087441 C23.1288424,13.9166551 23.5441996,11.824566 23.6272711,9.73174826 C23.6433024,9.3338797 23.4531125,9.13421673 23.0545153,9.13421673 L20.563829,9.13421673 L19.7666345,9.28359961 C19.2354144,9.3338797 18.9111442,9.20927252 18.7952814,8.90977806 C18.7122099,8.49514947 18.9526799,8.31224653 19.5174201,8.36252662 C19.8489772,8.37855795 20.181263,8.42082238 20.5135489,8.48640511 L23.079291,8.48640511 C23.4778882,8.48640511 23.6935825,8.28747083 23.7271026,7.88887358 C23.7926853,6.577219 23.8181897,5.25754876 23.8014297,3.92913415 L23.8014297,3.92913415 Z" id="Fill-128" sketch:type="MSShapeGroup"></path>
            <path d="M58.7679546,-0.131165458 C59.1497918,-0.429931222 59.5651491,-0.330099735 60.0132977,0.167600307 C60.6778694,0.666029046 61.2506252,1.16445778 61.7322939,1.66215783 C62.047091,2.02723502 61.9727639,2.26041805 61.5078552,2.35952084 C61.2258495,2.30996945 60.9350994,2.29320942 60.6363336,2.30996945 C58.2782702,2.65828661 56.061574,2.88272528 53.9862449,2.98255677 C53.5876477,3.03210816 53.6291834,3.24780247 54.1108521,3.62963969 C54.8410065,4.39331413 54.9488537,5.2240287 54.4343936,6.12032599 C54.2514907,6.43585179 53.9366936,6.59397903 53.4878162,6.59397903 C52.3750959,6.52766761 51.8941559,5.93742305 52.0435388,4.82543145 C51.9939874,4.49314562 51.9101872,4.16158849 51.7943244,3.82930266 C51.52835,3.33087393 51.1967929,3.08165956 50.7981956,3.08165956 L48.4073408,3.08165956 C48.0087436,3.08165956 47.634922,3.33087393 47.2866049,3.82930266 L45.9909816,5.49801876 C45.6251757,5.91264735 45.6922158,6.21141311 46.1906446,6.39431606 C47.2530848,6.90877613 47.9912548,7.1332148 48.4073408,7.06690338 L54.9823737,7.06690338 C55.380971,7.06690338 55.7547925,6.87598477 56.1031097,6.49414754 C56.5017069,6.14583039 56.742177,5.97094311 56.8252484,5.97094311 C57.2741258,6.13708602 57.8876886,6.56920333 58.6688518,7.26656635 C59.0834804,7.73074633 59.291159,8.01348076 59.291159,8.11331225 C59.2416076,8.32900656 59.0251846,8.48640511 58.6440761,8.58623659 C58.577036,8.65254802 58.5107245,8.88500236 58.4444131,9.28359961 L58.3445816,10.1551212 C58.3117903,10.5537185 58.3445816,10.7533814 58.4444131,10.7533814 C58.5442446,10.7366214 58.8262503,10.4793914 59.291159,9.98096263 C59.5899248,9.54884531 59.9965377,9.58236537 60.5117265,10.0807941 C61.3417123,10.6287742 61.9144682,11.1519787 62.229994,11.6496787 C62.2963054,11.8988931 62.1636825,12.081796 61.8321254,12.1976589 C61.6652538,12.2807303 61.5406466,12.5714804 61.4583039,13.0691805 L61.3584724,13.8918794 C61.308921,14.2737166 61.349728,14.4646352 61.4830795,14.4646352 C61.5989424,14.4478752 61.7322939,14.3735481 61.8816768,14.2401965 C62.4456883,13.642665 62.7859898,13.3431705 62.9025813,13.3431705 C63.3179386,13.4765221 63.8994388,13.8080792 64.6463532,14.340028 C65.1440532,14.7881766 65.3101961,15.1364938 65.1440532,15.3857082 C64.9451189,15.6349225 64.8372718,15.975224 64.8205117,16.4073414 C64.7534716,17.8676501 64.5632817,19.1967934 64.2477559,20.3918565 C63.8491587,22.2682512 62.6540956,23.48809 60.6611093,24.0535588 C60.1634093,24.0863502 59.8639148,23.8458802 59.7648121,23.3314201 C59.3159347,22.5167369 58.8094903,22.0357969 58.2454788,21.886414 C57.8133615,21.7865825 57.7470501,21.5628725 58.0458159,21.2138267 C58.377373,21.1803066 58.7351632,21.205811 59.1170004,21.2888825 C60.0132977,21.4382653 60.7186764,21.0972352 61.2338652,20.2672493 C61.7322939,19.1880491 61.9727639,17.6774602 61.9560039,15.734754 C61.9560039,15.3193967 61.7570696,15.1117181 61.3584724,15.1117181 L48.0830707,15.1117181 C47.618162,15.1117181 47.3609319,15.2946211 47.3113806,15.6596982 C46.7459117,19.2303135 45.0276442,21.8033425 42.1558494,23.3809715 C41.4912777,23.6301859 41.1844963,23.6709929 41.2340477,23.5055787 C42.7446365,21.8281182 43.7910454,19.851892 44.3725456,17.5776287 C44.8367256,14.4056107 45.0363886,11.0106115 44.9700771,7.39117354 C44.9533171,6.8927448 44.6960871,6.8679691 44.1976583,7.31611775 C43.1016981,8.21241504 42.1718807,8.78589957 41.4082063,9.03438524 C41.3251348,8.96880251 41.4832621,8.67732372 41.8818593,8.16286364 C43.5578624,6.05474326 44.6713114,3.95390985 45.2192915,1.8618208 C45.3511857,1.29708064 45.7169915,1.13895339 46.3152518,1.38816776 L47.3113806,1.93614789 C47.7595292,2.2013936 48.1829021,2.30996945 48.5814994,2.26041805 C51.1384971,1.99444365 53.7035105,1.50403058 56.277997,0.79063623 C57.1742943,0.541421861 58.0042801,0.233911733 58.7679546,-0.131165458 L58.7679546,-0.131165458 Z M48.3825651,18.8980277 C48.6310508,18.233456 48.8467451,18.233456 49.029648,18.8980277 C49.229311,20.5412394 48.9050409,21.9862455 48.058295,23.2315886 C47.2611005,24.1278859 46.439859,24.1941973 45.5923844,23.4305229 C45.0771956,22.4176341 45.35993,21.669991 46.439859,21.189051 C47.3857076,20.5915194 48.0335193,19.8271163 48.3825651,18.8980277 L48.3825651,18.8980277 Z M58.8182347,12.048276 C58.8677861,11.6336474 58.6936275,11.4259687 58.2950302,11.4259687 L48.2827336,11.4259687 C47.8673764,11.4259687 47.6429377,11.6831988 47.6101463,12.1976589 L47.4607634,13.8415993 C47.4272434,14.2562278 47.6101463,14.4646352 48.0087436,14.4646352 L57.8716573,14.4646352 C58.2702545,14.4646352 58.5107245,14.2154208 58.593796,13.7169921 L58.8182347,12.048276 L58.8182347,12.048276 Z M55.8291196,8.38730232 C55.8954311,7.955185 55.7300168,7.73949069 55.3314196,7.73949069 L48.332285,7.73949069 C47.9169277,7.73949069 47.7099778,7.93842497 47.7099778,8.33702222 L47.6852021,10.1303455 C47.6852021,10.5457028 47.8841364,10.7533814 48.2827336,10.7533814 L54.9080466,10.7533814 C55.3066439,10.7533814 55.5471139,10.5041671 55.6301854,10.0057383 L55.8291196,8.38730232 L55.8291196,8.38730232 Z M50.8980271,17.6024044 C50.9475785,17.5025729 51.28788,17.7109803 51.9189316,18.2254403 C52.682606,19.0219061 53.1147234,19.9517235 53.2138261,21.0148924 C53.346449,21.8441496 53.0148919,22.5422413 52.2176974,23.1069814 C51.985243,23.2891557 51.6529572,23.3139314 51.2215686,23.1813085 C50.5402369,22.8329914 50.2582312,22.3921297 50.3748227,21.8616383 C50.6240371,21.1970666 50.8397314,20.5332237 51.0226343,19.8693807 C51.1217371,19.6201664 51.1297528,19.1465133 51.04741,18.4491503 C50.9140585,17.9514503 50.8645071,17.6687158 50.8980271,17.6024044 L50.8980271,17.6024044 Z M53.8616378,17.0048729 C53.9111892,16.9050414 54.1931949,16.9465771 54.7083837,17.1294801 C56.4018755,18.0425374 57.2318613,19.1217376 57.19907,20.3670808 C56.9498556,21.6124239 56.335564,22.0933639 55.3561953,21.8120869 C54.940838,21.6619753 54.6916236,21.388714 54.6085522,20.9901167 C54.5757608,20.308785 54.5757608,19.628182 54.6085522,18.947579 C54.5590008,18.6152932 54.467185,18.2837361 54.3352908,17.9514503 C54.0022763,17.3867101 53.8448777,17.0711843 53.8616378,17.0048729 L53.8616378,17.0048729 Z M56.9250799,16.5312198 C56.9250799,16.398597 57.1903256,16.3410299 57.7222744,16.3570613 C58.9676176,16.4073414 59.9469863,16.9553215 60.6611093,18.0010017 C60.9598751,18.930819 60.7361651,19.6361977 59.988522,20.1178664 C58.9923932,20.3998721 58.3948617,19.9189321 58.1951987,18.673589 C58.1288873,17.9266746 57.7055144,17.2125515 56.9250799,16.5312198 L56.9250799,16.5312198 Z M59.0171689,3.45548111 C59.067449,3.32285826 59.3487261,3.30609823 59.8639148,3.40592972 C61.2258495,3.58883266 62.3961369,4.34376274 63.3762343,5.67217734 C63.7077914,6.20412614 63.7165358,6.8679691 63.40101,7.6651636 C62.9353726,8.32900656 62.3801055,8.5366852 61.7322939,8.28747083 C61.1668251,8.02222513 60.8768037,7.6651636 60.8607723,7.21628626 C60.7274208,6.0212232 60.3375679,5.02436572 59.6897563,4.22789992 C59.2416076,3.81254263 59.0171689,3.5553126 59.0171689,3.45548111 L59.0171689,3.45548111 Z" id="Fill-129" sketch:type="MSShapeGroup"></path>
            <path d="M73.013252,0.267431794 C73.0635321,0.201120368 73.3375221,0.184360338 73.8352222,0.217880399 C74.9311824,0.350503251 75.8282084,0.582957589 76.5255714,0.915243415 C77.0065115,1.31384067 76.9314557,1.6213508 76.3011328,1.83631641 C75.9528156,1.93614789 75.7699127,2.14382653 75.7531526,2.45935233 C75.4208668,3.60486399 75.0470453,4.75037566 74.6324167,5.89661602 C74.4655451,6.32873333 74.5493452,6.64353043 74.881631,6.8431934 C75.2467082,7.12519914 75.3130197,7.3744135 75.0805653,7.59010781 C74.848111,7.82256215 74.7322482,8.13808795 74.7322482,8.5366852 L74.7322482,22.583777 C74.881631,23.3474515 74.6324167,23.8538959 73.9846051,24.1031102 C73.0212676,24.385116 72.3909447,24.144646 72.092179,23.3809715 L72.092179,11.5753516 C72.092179,11.1599943 71.9005317,11.1927857 71.5194231,11.6744544 C71.0873058,12.2064032 70.5888771,12.762399 70.0248656,13.3431705 C69.4929168,13.7417678 69.2109111,13.866375 69.1781197,13.7169921 C69.1781197,13.6171606 69.3435339,13.3103792 69.6758198,12.7959191 C71.0537858,10.7031013 72.0003632,8.04700082 72.5155519,4.82543145 C72.7144862,3.56405696 72.8806291,2.04472374 73.013252,0.267431794 L73.013252,0.267431794 Z M79.6881164,0.0437218192 C80.4182707,0.0102017578 81.3896238,0.284191825 82.6021756,0.864963323 C83.1173644,1.18048912 83.3658501,1.41294346 83.3498187,1.56232634 C83.3002673,1.87785213 83.1173644,2.03597938 82.8018386,2.03597938 C82.4527927,1.98642799 82.2043071,2.21013796 82.0549242,2.7085667 L81.3320568,4.15284413 C81.0996024,4.58496144 81.1746582,4.80065575 81.5564954,4.80065575 L87.6338283,4.80065575 C88.0324256,4.80065575 88.4222784,4.60973714 88.8041157,4.22789992 C89.2194729,3.91237412 89.493463,3.75424687 89.6260859,3.75424687 C90.0079231,3.8701097 90.414536,4.05301264 90.8466533,4.30222701 C91.7932307,4.81668708 92.3820179,5.26556443 92.6152009,5.64740165 C92.5816808,5.91264735 92.4235536,6.05474326 92.1415479,6.0707746 C91.9090935,6.12032599 91.5768077,6.3360203 91.1454191,6.71858622 C90.3314646,7.53181205 89.2194729,8.47838944 87.8079869,9.55758968 C87.4093896,9.6239011 87.3758696,9.3338797 87.7081554,8.68606808 C88.0572013,7.90563361 88.3719984,7.02609634 88.6547328,6.0459989 C88.7370755,5.64740165 88.5804057,5.44846737 88.1818084,5.44846737 L86.1392708,5.44846737 C85.7239135,5.44846737 85.5169636,5.64740165 85.5169636,6.0459989 L85.5169636,21.6874797 C85.4331634,22.3848427 85.0848462,22.9575986 84.4705547,23.4057472 C83.5742574,23.8371358 82.8098543,23.978503 82.1788027,23.8291202 C82.1124912,23.7795688 81.9798684,23.480803 81.7809341,22.9328229 C81.4151282,22.3345626 80.9589639,21.9775011 80.4109838,21.8616383 C79.9621064,21.8120869 79.8455149,21.6036796 80.0619379,21.2386024 C80.6594694,21.2218423 81.2577297,21.2305867 81.8552612,21.2641068 C82.5854156,21.463041 82.9177014,21.1307552 82.85139,20.2672493 L82.85139,6.0707746 C82.85139,5.65614601 82.6524557,5.44846737 82.2538585,5.44846737 L81.3575612,5.44846737 C80.8591324,5.49801876 80.4437751,5.78075319 80.112218,6.29521327 C79.3150235,7.59010781 78.1607675,8.81869093 76.6501786,9.98096263 C76.1182298,10.3132485 75.8107197,10.4626313 75.7283769,10.42984 C75.6285455,10.3300085 75.8194641,9.97221826 76.3011328,9.3586554 C77.9275844,7.01735198 78.9907533,4.18636419 79.4891821,0.864963323 C79.5715248,0.367263281 79.638565,0.0932732143 79.6881164,0.0437218192 L79.6881164,0.0437218192 Z M78.6176605,10.4793914 C78.7000033,9.96493129 78.7670434,9.69094122 78.8165948,9.65742116 C79.6137893,9.75725265 80.5851424,9.99772266 81.730654,10.3795599 C82.0622111,10.4954227 82.2043071,10.6448056 82.154027,10.8277085 C82.0549242,11.0936829 81.8217411,11.2350501 81.456664,11.2510815 C80.4933265,14.2737166 79.1321206,16.8052099 77.3723173,18.8477476 C76.7412658,19.4452791 76.3922199,19.7112535 76.3259085,19.6449421 C76.3091484,19.5618706 76.4337556,19.2550892 76.69973,18.7231404 C77.7286502,16.2987655 78.3684461,13.5515779 78.6176605,10.4793914 L78.6176605,10.4793914 Z M86.8861852,10.2797284 C86.9364653,10.1303455 87.1769353,10.2549527 87.6090526,10.6535499 C89.2194729,12.1976589 90.5303988,13.7505121 91.5440163,15.3113811 C92.2741707,16.3905813 92.5066251,17.5025729 92.2413794,18.6488133 C91.9251249,19.6449421 91.3450821,20.0100193 90.4976075,19.7447735 C89.9000759,19.3126562 89.6093258,18.7231404 89.6260859,17.976226 C89.3433514,15.5350911 88.4310228,12.9700777 86.8861852,10.2797284 L86.8861852,10.2797284 Z" id="Fill-130" sketch:type="MSShapeGroup"></path>
            <path d="M106.710387,0.840187626 C106.710387,0.308967522 106.958872,0.0597531529 107.457301,0.0932732143 C108.619573,0.193104701 109.491094,0.358518917 110.072595,0.590973256 C110.487223,0.973539174 110.412896,1.28906497 109.848156,1.53755064 C109.449559,1.65341346 109.316936,1.94489226 109.449559,2.40980093 L109.449559,6.8679691 C109.449559,7.28259768 109.706789,7.39117354 110.221977,7.19151056 L112.264515,6.44459615 C112.662384,6.29521327 113.01143,5.96292744 113.310195,5.44846737 C113.741584,4.8837272 114.272804,4.67604856 114.904584,4.82543145 C115.70105,5.04112575 116.365622,5.29034012 116.896842,5.57234586 C117.328231,5.77200883 117.361751,6.03725453 116.996673,6.36954036 C116.79701,6.51892324 116.697908,6.77688198 116.697908,7.14195917 L116.722683,8.23791943 L116.722683,10.8029328 L116.622852,13.5676092 C116.589332,14.4311151 116.498245,15.0956868 116.348862,15.5598668 C116.116407,16.7396272 115.360749,17.519333 114.082614,17.9011702 C113.467594,17.9849703 113.102517,17.7605317 112.986654,17.2293116 C112.654368,16.6645714 112.255771,16.2987655 111.790862,16.1333513 C111.193331,15.8338568 110.919341,15.6349225 110.968892,15.5350911 C111.035203,15.4359883 111.317938,15.3769638 111.815638,15.3609325 C112.529761,15.3609325 113.01143,15.2946211 113.260644,15.1619982 C113.392538,15.0621667 113.501114,14.7634009 113.584185,14.2649722 C113.8334,12.3557861 113.915743,9.98970699 113.8334,7.16673486 C113.815911,6.75210628 113.550665,6.63478606 113.036205,6.81768901 L110.047819,7.93842497 C109.649222,8.10456789 109.449559,8.38730232 109.449559,8.78589957 L109.449559,17.5776287 C109.53263,18.8564919 108.951859,19.4124877 107.706515,19.2463448 C106.875801,19.0969619 106.543515,18.6240376 106.710387,17.8268431 L106.710387,9.80680405 C106.710387,9.39217546 106.452428,9.27485525 105.937968,9.45775819 C105.207085,9.70697256 104.468186,9.98970699 103.721272,10.3052328 C103.189323,10.5201984 102.924077,10.8277085 102.924077,11.2263058 L102.924077,19.7447735 C103.023909,20.491688 103.430522,20.8815408 104.144645,20.9150609 L109.126017,20.9150609 C111.881949,20.8655095 113.949263,20.7817094 115.327957,20.6658465 C115.9918,20.7984694 116.564556,20.3750964 117.046225,19.3957277 C117.245888,19.0634419 117.402558,18.7318847 117.519149,18.3995989 C117.785124,17.735756 117.975313,17.3867101 118.092634,17.35319 C118.208496,17.3699501 118.299584,17.4195015 118.366624,17.5025729 C118.416175,18.0505531 118.432206,18.6240376 118.416175,19.2215691 C118.482487,19.6536864 118.615109,19.9852436 118.814772,20.2176979 C119.063987,20.3838408 119.312472,20.5827751 119.561687,20.8152294 C120.042627,21.6787354 119.76135,22.3513227 118.714941,22.8329914 C117.585461,23.2979001 116.199479,23.5718901 114.555538,23.6549616 L110.894565,23.7795688 L107.033928,23.7795688 C104.643073,23.7795688 102.890557,23.5135944 101.778566,22.9823743 C100.533222,22.1021083 99.9932579,20.965341 100.159401,19.5698863 L100.159401,12.247939 C100.159401,11.8325817 99.9021708,11.7247345 99.3877107,11.9236688 C98.8725219,12.1233318 98.3580619,12.3470417 97.8436018,12.5962561 C97.311653,12.8454705 96.9298158,12.8367261 96.6973614,12.5714804 C96.4809384,12.2559546 96.3985957,12.0730517 96.4481471,12.0235003 L98.3660775,11.5250715 C98.6976347,11.4420001 99.0299205,11.3261373 99.3622063,11.1767544 C99.8934264,10.9770914 100.159401,10.6783256 100.159401,10.2797284 L100.159401,4.55144138 C100.209681,4.48512995 100.483671,4.46836992 100.981371,4.50188998 C101.629183,4.51792132 102.309057,4.60973714 103.023909,4.77588005 C103.58792,4.87498284 103.754063,5.14897291 103.522337,5.59785025 C102.990389,5.71371307 102.791454,6.0707746 102.924077,6.66830612 L102.924077,9.25882391 C102.924077,9.6734525 103.181307,9.78202835 103.696496,9.58236537 L105.913192,8.78589957 C106.443684,8.57020526 106.710387,8.26269513 106.710387,7.86409788 L106.710387,0.840187626" id="Fill-131" sketch:type="MSShapeGroup"></path>
            <path d="M143.769001,9.88113114 C144.034246,9.49929392 144.266701,9.25007955 144.466364,9.13421673 C145.196518,9.3834311 145.960921,9.94015559 146.758116,10.8029328 C147.155984,11.3348816 147.346903,11.6416631 147.330872,11.7247345 C147.297351,11.8573574 147.014617,11.9236688 146.484126,11.9236688 L138.015209,11.9236688 C137.599852,11.9236688 137.392902,12.1233318 137.392902,12.521929 L137.392902,15.2363253 C137.392902,15.6509539 137.591836,15.8593612 137.990434,15.8593612 L139.634374,15.8593612 C140.032971,15.8593612 140.398048,15.6596982 140.730334,15.261101 C141.061891,14.7634009 141.452473,14.2897479 141.900622,13.8415993 C141.983693,13.8080792 142.274443,13.9166551 142.772872,14.1658694 C143.851343,14.9127838 144.507899,15.6261782 144.740354,16.3075099 C144.607002,16.5064441 144.274716,16.5727556 143.744225,16.5064441 L138.015209,16.5064441 C137.599852,16.5064441 137.392902,16.7061071 137.392902,17.1047044 L137.392902,20.4173609 C137.392902,20.8319895 137.642116,21.0476838 138.139816,21.0644438 C140.48112,21.1642753 142.996582,21.006148 145.686931,20.5915194 C146.484126,20.4246478 147.023361,20.3583364 147.305367,20.3918565 C147.405199,20.4581679 147.455479,20.5244793 147.455479,20.5915194 C147.421959,20.6738622 147.155984,20.9063165 146.658284,21.2888825 C146.292478,21.6539597 146.035248,22.1516597 145.885865,22.78344 C145.902625,23.4137629 145.662155,23.76208 145.163727,23.8291202 C142.041989,24.178166 139.152705,24.0695902 136.495876,23.5055787 C133.938878,22.9575986 131.921116,21.2888825 130.444048,18.4994304 C130.244385,18.1008331 129.995899,18.1671446 129.696404,18.6983647 C128.152296,21.0724595 126.275901,22.583777 124.067949,23.2315886 C124.034429,23.1485172 124.266883,22.8993028 124.765312,22.4839455 C126.192829,21.3712252 127.197702,19.9939879 127.779203,18.3500475 C128.227351,17.1207357 128.451061,15.6932183 128.451061,14.0660379 C128.451061,13.5180578 128.766587,13.2600991 129.397639,13.2936191 C130.061482,13.3599306 130.726053,13.4517464 131.390625,13.5676092 C132.020948,13.7009607 132.128795,13.9749508 131.714166,14.3895794 C131.614335,14.4230995 131.531263,14.5054422 131.464952,14.6387938 C131.232498,15.1364938 131.032835,15.6349225 130.867421,16.1333513 C130.667758,16.6478114 130.726053,17.1455114 131.041579,17.6271801 C131.905085,18.9060433 132.909958,19.7943249 134.05547,20.2927537 C134.454067,20.4086165 134.653001,20.2672493 134.653001,19.8693807 L134.653001,12.5467047 C134.653001,12.1313474 134.454067,11.9236688 134.05547,11.9236688 L126.184814,11.9236688 L125.362843,12.0730517 C124.831623,12.1568518 124.516098,12.048276 124.416266,11.7495102 L124.291659,11.1767544 C124.32445,11.110443 124.591153,11.1016986 125.088853,11.1519787 C125.404379,11.16801 125.744681,11.2102744 126.110487,11.2765859 L141.975677,11.2765859 C142.407066,11.4092087 142.748096,11.2765859 142.996582,10.8779886 C143.229036,10.5457028 143.486266,10.2141457 143.769001,9.88113114 L143.769001,9.88113114 Z M128.874434,0.864963323 C128.874434,0.316983189 129.123649,0.118048912 129.622077,0.267431794 C130.368992,0.483126102 130.949763,0.707564774 131.365121,0.940019113 C131.780478,1.17247345 132.162315,1.28906497 132.511361,1.28906497 L138.488862,1.28906497 C138.969802,1.37213643 139.318848,1.25554491 139.534542,0.940019113 C139.850068,0.15958464 140.264697,-0.114405427 140.779886,0.118048912 C141.676912,0.499886133 142.340755,0.848931989 142.772872,1.16445778 C143.419955,1.62863777 143.411939,2.00245932 142.748096,2.28519375 C142.514913,2.43457663 142.39905,2.7085667 142.39905,3.10716395 L142.39905,8.38730232 C142.581225,9.0679053 142.33201,9.59110974 141.652136,9.95618693 C141.153707,10.1886413 140.655278,10.230177 140.157578,10.0807941 C139.808533,9.94744256 139.634374,9.68219686 139.634374,9.28359961 C139.617614,9.05114527 139.410664,8.93528245 139.012067,8.93528245 L132.237371,8.93528245 C131.838774,8.93528245 131.631095,9.01835391 131.614335,9.18376812 C131.515232,9.96493129 131.09113,10.3547842 130.344216,10.3547842 C129.248256,10.5537185 128.757843,10.1551212 128.874434,9.15899242 L128.874434,0.864963323 L128.874434,0.864963323 Z M139.634374,2.63351091 C139.634374,2.1518422 139.377144,1.92740353 138.862684,1.96092359 L132.237371,1.96092359 C131.821285,1.96092359 131.614335,2.16058657 131.614335,2.55918382 L131.614335,4.27745131 C131.614335,4.6920799 131.813998,4.90048723 132.211866,4.90048723 L139.012067,4.90048723 C139.426695,4.90048723 139.634374,4.70082426 139.634374,4.30222701 L139.634374,2.63351091 L139.634374,2.63351091 Z M139.634374,6.17060608 C139.634374,5.7552488 139.43544,5.54757016 139.036842,5.54757016 L132.237371,5.54757016 C131.821285,5.54757016 131.614335,5.74723313 131.614335,6.14583039 L131.614335,7.63965921 C131.614335,8.05501649 131.813998,8.26269513 132.211866,8.26269513 L139.012067,8.26269513 C139.426695,8.26269513 139.634374,8.06303216 139.634374,7.6651636 L139.634374,6.17060608 L139.634374,6.17060608 Z" id="Fill-132" sketch:type="MSShapeGroup"></path>
            <path d="M160.628863,0.316983189 C160.678414,0.233911733 160.952404,0.225896066 161.450104,0.292207492 C161.998813,0.392038979 162.571569,0.516646164 163.169101,0.666029046 C163.550209,0.732340472 163.841688,0.864963323 164.040622,1.0646263 C164.206765,1.38015209 164.048638,1.60386207 163.567698,1.73721362 C163.251443,1.82028507 163.069269,2.01120368 163.019718,2.30996945 L161.724823,6.74336191 C161.607503,7.17547923 161.740854,7.39117354 162.122692,7.39117354 L169.719358,7.39117354 C170.250578,7.59010781 170.723502,7.29134205 171.138859,6.49414754 C171.371314,6.16186172 171.628544,5.83030459 171.911278,5.49801876 C172.260324,5.01635006 172.741264,5.09942151 173.355556,5.74723313 C174.385205,6.51090758 175.025001,7.21628626 175.273486,7.86409788 C175.174383,7.9799607 174.858129,8.03825646 174.326909,8.03825646 L170.042899,8.03825646 C169.645031,8.03825646 169.403832,8.28747083 169.320761,8.78589957 C169.088306,11.0769229 168.299856,13.4765221 166.954681,15.9839684 C166.688707,16.415357 166.747003,16.7221384 167.129569,16.9050414 C168.457255,17.5025729 169.727373,18.3332875 170.939925,19.3957277 C172.185268,20.6243108 172.534314,21.7865825 171.986334,22.8825428 C171.255451,23.6629772 170.458257,23.52161 169.594751,22.4591698 C168.083433,20.765678 166.83809,19.5363662 165.858721,18.7734205 C165.460853,18.4411346 165.019991,18.5329505 164.539051,19.0474105 C162.479753,20.9398366 159.922755,22.2354598 156.868058,22.9328229 C155.772097,23.1645485 154.442954,23.3634828 152.882814,23.5303544 C152.384385,23.5463857 152.101651,23.5135944 152.036068,23.4305229 C152.068859,23.2140999 152.235002,23.0982371 152.533768,23.0822057 C155.32322,22.4176341 157.980049,21.2305867 160.504256,19.5203349 C161.665799,18.673589 162.596345,17.793323 163.293708,16.8802657 C162.34713,16.1661426 161.208906,15.4520196 159.88122,14.7386253 C159.35,14.4558908 158.951402,14.563738 158.686157,15.0621667 L158.486494,15.5103154 C158.353871,15.8426012 158.254039,16.0495511 158.187728,16.1333513 C157.739579,16.4816684 157.158079,16.5399642 156.443956,16.3075099 C156.012567,16.158127 155.746593,15.9424327 155.64749,15.6596982 C155.630002,15.460764 155.746593,15.1037024 155.995807,14.5885137 C156.892833,12.6130161 157.656508,10.6448056 158.287559,8.68606808 C158.436942,8.25395077 158.320351,8.03825646 157.938514,8.03825646 L153.604953,8.03825646 L152.807758,8.18763934 C152.276538,8.23791943 151.952268,8.11331225 151.836405,7.81454648 C151.753334,7.3991892 151.993804,7.21628626 152.558544,7.26656635 C152.89083,7.28259768 153.223115,7.32486211 153.555401,7.39117354 L158.087896,7.39117354 C158.486494,7.39117354 158.777244,7.14195917 158.960147,6.64353043 C159.839684,3.8701097 160.39568,1.76198931 160.628863,0.316983189 L160.628863,0.316983189 Z M166.556084,8.66129238 C166.572844,8.2459351 166.381926,8.03825646 165.983328,8.03825646 L161.948533,8.03825646 C161.549936,8.03825646 161.259186,8.28747083 161.077011,8.78589957 L159.508127,13.1194605 C159.341255,13.5180578 159.524158,13.8080792 160.056107,13.9909821 C161.76563,14.5724823 162.977453,15.0286467 163.692305,15.3609325 C164.090902,15.5270754 164.447235,15.3609325 164.762761,14.8632324 C165.726098,13.0196291 166.32363,10.9523157 166.556084,8.66129238 L166.556084,8.66129238 Z" id="Fill-133" sketch:type="MSShapeGroup"></path>
            <path d="M187.027369,0.666029046 C187.558589,0.102017578 188.065033,-0.0313339704 188.546702,0.267431794 C189.459759,0.832171959 190.041259,1.29708064 190.290474,1.66215783 C190.455888,1.96092359 190.323265,2.1270665 189.891876,2.16058657 C189.675453,2.1270665 189.468503,2.1518422 189.268841,2.23491366 C188.140089,2.76686246 186.778154,3.14068401 185.184494,3.35564962 C184.785897,3.42196105 184.586962,3.65514408 184.586962,4.05301264 L184.586962,6.76813761 C184.586962,7.1827662 184.694081,7.39117354 184.910504,7.39117354 C185.126198,7.39117354 185.400188,7.19151056 185.732474,6.79291331 L186.380286,5.97094311 C186.778154,5.20726867 187.251807,5.11545285 187.799787,5.69695304 C188.214416,5.96292744 188.7041,6.40306042 189.268841,7.01735198 C189.617886,7.61488351 189.725005,7.93842497 189.593111,7.98870506 C189.526071,8.02222513 189.244065,8.03825646 188.746365,8.03825646 L185.20927,8.03825646 C184.793912,8.03825646 184.586962,8.23791943 184.586962,8.63651669 L184.586962,11.6496787 C184.586962,12.065036 184.785897,12.2727146 185.184494,12.2727146 L196.367807,12.2727146 C196.782435,12.2727146 196.990114,12.0730517 196.990114,11.6744544 L196.990114,8.5614609 C196.990114,8.14683231 196.79118,7.93842497 196.392582,7.93842497 L193.951447,7.93842497 L193.179757,8.03825646 C192.664568,8.08853655 192.365074,7.96392937 192.282731,7.6651636 C192.1829,7.31611775 192.390578,7.15070353 192.905767,7.16673486 C193.585641,7.30008641 194.739897,7.34089344 196.367807,7.29134205 C196.782435,7.29134205 196.990114,7.09167907 196.990114,6.69308182 L196.990114,3.70469548 C196.990114,3.30609823 196.973354,3.08165956 196.940562,3.03210816 C196.873522,2.98255677 196.641797,2.95778107 196.243199,2.95778107 C195.263102,2.94102104 194.283004,2.95778107 193.303636,3.00733246 C193.220564,3.04085253 193.137493,3.04886819 193.05515,3.03210816 C192.556721,3.09841959 192.257956,2.98255677 192.158124,2.683791 C192.059021,2.33474515 192.273987,2.16933093 192.805936,2.18536226 C193.453747,2.30122508 194.63205,2.32600078 196.342302,2.26041805 C196.608277,2.04472374 196.873522,1.76198931 197.139497,1.41294346 C197.355191,1.03110624 197.670717,0.948763477 198.086074,1.16445778 C198.716397,1.42970349 199.322673,1.72846925 199.904173,2.06075508 C200.767679,2.55918382 200.866782,2.99057243 200.202939,3.35564962 C199.75479,3.50503251 199.605407,3.8205583 199.75479,4.30222701 L199.75479,12.8702462 C199.970484,13.9501751 199.46404,14.5389623 198.235457,14.6387938 C197.321671,14.7546566 196.907042,14.3735481 196.990114,13.4932821 C196.990114,13.1107162 196.79118,12.9197976 196.392582,12.9197976 L195.271846,12.9197976 C194.85576,12.9197976 194.64881,13.1194605 194.64881,13.5180578 L194.64881,19.5451106 C194.532219,20.491688 194.955592,20.9398366 195.918929,20.8902852 C197.047681,20.972628 198.285008,20.9230766 199.630183,20.7409023 C200.01202,20.6738622 200.260506,20.4173609 200.377826,19.9684835 C200.609552,19.3374319 200.801199,18.707109 200.950582,18.0760574 C201.132756,17.9099145 201.282139,17.8763945 201.398731,17.976226 C201.448282,18.0425374 201.473058,18.3245431 201.473058,18.8229719 C201.290155,19.6697178 201.548113,20.3175294 202.245476,20.765678 C202.561002,20.9974037 202.743905,21.2968981 202.793457,21.6619753 C202.826248,22.4424098 202.370084,22.9328229 201.423506,23.1317571 C200.128612,23.480803 198.335288,23.6301859 196.043536,23.5799058 C194.715122,23.4968343 193.718993,23.3139314 193.05515,23.0319257 C192.390578,22.5502569 191.999997,21.9366941 191.884134,21.189051 L191.884134,13.5428335 C191.884134,13.1282049 191.6852,12.9197976 191.286602,12.9197976 L190.340025,12.9197976 C189.941428,12.9197976 189.717718,13.1690119 189.667438,13.6674407 C189.600398,15.7099783 189.036386,17.6191644 187.973946,19.3957277 C186.661563,21.1555309 184.727601,22.4511542 182.170603,23.28114 L180.65127,23.704513 C180.15357,23.7875844 179.87958,23.7956001 179.8293,23.7300174 C179.895611,23.5135944 180.06977,23.3722271 180.352504,23.3059157 C181.813542,22.6748641 183.141956,21.8120869 184.337748,20.7161266 C186.064031,18.6568289 186.902761,16.2659741 186.85321,13.5428335 C186.85321,13.1282049 186.654276,12.9197976 186.255678,12.9197976 L185.20927,12.9197976 C184.793912,12.9197976 184.586962,13.0531491 184.586962,13.3183948 C184.636514,14.2314521 184.162861,14.7218652 183.166732,14.7881766 C182.121052,14.9215282 181.68019,14.4894109 181.847062,13.4932821 L181.847062,2.33474515 C181.847062,1.82028507 182.112307,1.62863777 182.644256,1.76198931 C183.009333,1.84506077 183.399186,1.98642799 183.814544,2.18536226 C184.262692,2.4178166 184.661289,2.42583227 185.010335,2.21013796 C185.640658,1.82830074 186.313246,1.31384067 187.027369,0.666029046" id="Fill-134" sketch:type="MSShapeGroup"></path>
            <path d="M217.262464,8.33702222 C218.558087,7.70597063 219.761166,7.97194503 220.873886,9.13421673 C221.355555,9.88113114 221.546474,10.7286057 221.447371,11.6744544 C221.297988,13.3519149 220.293115,14.8297124 218.43348,16.1078469 C217.951811,16.4401327 217.594021,16.5151885 217.362295,16.3322856 C217.129841,16.1493826 217.27048,15.8841369 217.785668,15.5350911 C218.582863,14.9710796 219.155619,14.2489409 219.504665,13.3686749 C219.603767,12.8870062 219.520696,12.704832 219.25545,12.8206948 C218.275353,13.0859405 217.428607,12.8542148 216.714484,12.1233318 C215.934049,11.2430658 215.826202,10.2636971 216.390942,9.18376812 C216.640157,8.76913954 216.930178,8.48640511 217.262464,8.33702222" id="Fill-135" sketch:type="MSShapeGroup"></path>
            <path d="M18.8951129,39.1186403 C20.3896704,38.4045173 21.6175248,37.6576029 22.5808622,36.8764397 C22.6639337,36.844377 22.9546838,36.9434798 23.4531125,37.1759342 C24.3661698,37.6736342 25.0132528,38.1057515 25.3958187,38.4708287 C25.6443044,38.7695945 25.6362887,39.0020488 25.3703143,39.1681917 C25.2872428,39.2017118 24.9469413,39.2177431 24.3494098,39.2177431 C22.6063666,39.6498604 20.837819,39.9573706 19.0444957,40.1395448 C18.6458985,40.2065849 18.4469642,40.4383106 18.4469642,40.8369078 L18.4469642,43.476977 C18.4469642,43.8923343 18.6458985,44.1000129 19.0444957,44.1000129 L20.837819,44.1000129 C21.2189276,44.2989472 21.7669077,43.9754057 22.4817594,43.1279312 C24.0083796,43.6759113 24.9797327,44.2326358 25.3958187,44.7973759 C25.4453701,44.9299988 25.3535543,45.0961417 25.1218286,45.295076 C24.6729513,45.4779789 24.4987927,45.8270248 24.5986242,46.3414849 L24.5986242,51.2973531 C24.8303498,52.2278991 24.3989612,52.7591192 23.3037296,52.8917421 C22.3236322,53.0906764 21.8419635,52.7671349 21.8587235,51.920389 C21.8587235,51.5385518 21.6597892,51.3476332 21.261192,51.3476332 L18.6458985,51.3476332 C18.2473012,51.3476332 18.0061025,51.5968475 17.9237598,52.0945476 C17.5579539,54.9175197 16.5618251,57.3411659 14.9346447,59.3676722 C14.452976,59.8486122 14.1374502,60.1145866 13.9880674,60.164138 C13.8554445,60.164138 13.8714758,59.8981636 14.0383474,59.3676722 C15.0840276,56.047 15.6320078,51.7294704 15.6822878,46.415812 L15.6822878,39.2432475 C15.6822878,38.6785074 15.9883406,38.5043488 16.6033608,38.7200431 C16.9188866,38.8366346 17.2336837,38.9772731 17.5499382,39.143416 C17.9813268,39.3423503 18.4294755,39.3343346 18.8951129,39.1186403 L18.8951129,39.1186403 Z M21.8587235,45.4444589 C21.8587235,44.9963102 21.6423005,44.7718716 21.2109119,44.7718716 C20.3146146,44.7558402 19.4183173,44.7645846 18.5212913,44.7973759 C18.4382199,44.8469273 18.3966841,45.071366 18.3966841,45.4692346 C18.3799241,47.113175 18.2968526,48.6572839 18.1474698,50.10229 C18.1307097,50.5008873 18.322357,50.6998215 18.7202256,50.6998215 L21.2364163,50.6998215 C21.6510449,50.6998215 21.8587235,50.5008873 21.8587235,50.10229 L21.8587235,45.4444589 L21.8587235,45.4444589 Z M29.6543239,38.8942017 C31.3310556,38.2799101 32.8839089,37.5417401 34.312155,36.6775054 C35.4081153,37.2094542 36.3044126,37.8477928 37.0017756,38.5954359 C37.1343984,39.126656 36.9099598,39.3343346 36.329917,39.2177431 C36.1630454,39.1849518 35.9969024,39.1769361 35.8314882,39.1929674 C33.6395677,39.5755333 31.5474786,39.8575391 29.5552211,40.0397133 C29.1566238,40.0899934 28.9649765,40.3639835 28.9824652,40.8616835 L28.9824652,44.4483301 C28.9824652,44.9467588 29.1813995,45.1959732 29.5799968,45.1959732 L32.1450102,45.1959732 C32.6762303,45.3949075 33.1418676,45.0961417 33.5397362,44.2989472 C33.7058791,44.1328043 33.8465176,43.9673901 33.9631092,43.8005185 C34.4280178,43.3523698 34.9096865,43.2700271 35.4081153,43.5520328 C36.4537955,44.3157072 37.1016071,45.0210859 37.3508214,45.6688975 C37.2014386,45.8678318 36.8604084,45.9348719 36.329917,45.8678318 L35.1093495,45.8678318 C34.6932635,45.8678318 34.4863136,46.0674948 34.4863136,46.466092 L34.4863136,59.666438 C34.1707878,60.5131839 33.4231447,60.7623982 32.2448417,60.4133524 C31.9285872,60.3135209 31.7464129,60.0810665 31.6968615,59.7159894 L31.6968615,46.4908677 C31.6968615,46.0755105 31.4979272,45.8678318 31.09933,45.8678318 L29.5799968,45.8678318 C29.1813995,45.8678318 28.9649765,46.1170462 28.9321852,46.6154749 C28.8986651,49.2227527 28.5088122,51.7957818 27.7618978,54.3360195 C26.8481118,57.0263688 25.0715485,58.9187949 22.4314793,60.0147551 C21.9337793,60.164138 21.6423005,60.2144181 21.5599577,60.164138 C21.5104063,60.0810665 21.501662,59.9979951 21.535182,59.9156523 C22.879628,58.9020348 23.9012612,57.631916 24.5986242,56.1045671 C25.1961557,54.8096725 25.594753,53.4819866 25.7944159,52.1193233 C26.0261416,49.6956771 26.1675088,46.4741077 26.2177889,42.4560725 L26.2177889,38.869426 C26.2177889,38.3709972 26.2338202,38.0889915 26.2673403,38.0226801 C26.3336517,37.9563686 26.6324175,38.0306957 27.1636376,38.24639 L28.160495,38.7448188 C28.6414351,39.0275532 29.1391351,39.0771046 29.6543239,38.8942017 L29.6543239,38.8942017 Z" id="Fill-136" sketch:type="MSShapeGroup"></path>
            <path d="M44.7711429,39.3926304 C44.7536541,38.8774416 45.0028685,38.628956 45.5180573,38.6449873 C46.1155888,38.6952674 46.713849,38.7783388 47.3113806,38.8942017 C47.6429377,38.9109617 47.9417034,39.0275532 48.2076778,39.2432475 C48.4073408,39.5092219 48.315525,39.7161719 47.9336878,39.8655547 C47.6852021,40.0316977 47.5605949,40.3137034 47.5605949,40.7123006 L47.5605949,52.3437619 C47.5605949,52.7423592 47.8258406,52.8254307 48.3570607,52.5929763 C51.0299213,51.5305361 53.7122549,50.1438257 56.4018755,48.4335739 C56.6175698,48.5501654 56.5680184,48.7323397 56.2524926,48.981554 C53.5293519,51.4722403 49.5528525,54.195381 44.3222655,57.150976 C44.0234997,57.2828701 43.8988926,57.4577574 43.9491727,57.6734517 C43.9812353,57.8235633 43.8573568,57.9474418 43.5753511,58.0472733 C43.4922796,58.0305132 43.2838723,57.7812989 42.9523152,57.3003588 C42.6703094,56.8019301 42.4123507,56.3042301 42.1806251,55.8058013 C41.9146507,55.1754784 41.8148192,54.8264326 41.8818593,54.7601211 C42.6455337,54.4941467 43.4084795,54.2616924 44.1728826,54.0620294 C44.5714799,53.9461666 44.7711429,53.6889366 44.7711429,53.2903393 L44.7711429,39.3926304 L44.7711429,39.3926304 Z M58.9923932,38.669763 C58.9923932,38.1392716 59.2416076,37.8813128 59.7393077,37.8980729 C60.3200792,37.9315929 60.9015794,37.9971757 61.4830795,38.0970072 C61.7650853,38.0809758 62.0558354,38.1720629 62.3546011,38.3709972 C62.6366069,38.6377003 62.5207441,38.8774416 62.006284,39.0931359 C61.806621,39.1929674 61.7075182,39.4421818 61.7075182,39.840779 C61.7738296,44.2741715 61.2090895,48.2178796 60.0132977,51.6711746 C59.8471548,52.0865319 60.0132977,52.377282 60.5117265,52.5426962 C62.006284,53.041125 63.2428828,53.9126466 64.2229802,55.1579897 C64.6376088,55.7394899 64.8205117,56.3865728 64.7709604,57.1006959 C64.6878889,57.7485075 64.3803788,58.1966561 63.8491587,58.4458705 C63.0024128,58.6950849 62.3961369,58.4458705 62.0310597,57.6989561 C61.7148052,56.2043986 61.0677223,54.8767127 60.0883535,53.7137123 C59.6227161,53.2823237 59.2168319,53.3238594 58.8677861,53.8383195 C57.8046172,55.332877 56.5512583,56.5031643 55.1069809,57.3499102 C52.7984689,58.7613963 50.390854,59.6168866 47.8841364,59.9156523 C47.3857076,59.9484437 47.1197332,59.9316837 47.0869419,59.8653722 C47.1197332,59.7823008 47.3937233,59.6416623 47.9089121,59.4419993 C48.8715208,59.1432335 50.2006641,58.4786619 51.8941559,57.4497417 C54.6340566,55.77301 56.5432427,53.5643294 57.6224429,50.8244287 C58.0705916,49.662157 58.3861174,48.3337424 58.5690203,46.8391849 C58.834266,45.0130703 58.9756332,42.2899296 58.9923932,38.669763 L58.9923932,38.669763 Z M49.5776282,38.0474558 C49.5943882,37.9148329 49.8596339,37.8813128 50.3748227,37.9476243 C51.8693802,38.3957729 53.105979,39.1106247 54.0860764,40.0899934 C55.2978995,41.4679594 55.4472824,42.7220469 54.5342251,43.8507986 C54.3848422,43.9499014 54.1436435,44.0417172 53.8120864,44.1247886 C52.9318204,44.1415487 52.3838403,43.7597114 52.168146,42.9785483 C52.0515545,41.418408 51.4372629,40.0316977 50.3252713,38.8191459 C49.8428739,38.388486 49.5943882,38.1305272 49.5776282,38.0474558 L49.5776282,38.0474558 Z" id="Fill-137" sketch:type="MSShapeGroup"></path>
            <path d="M73.0883078,37.2998127 C73.1881392,36.7197699 73.494192,36.4618111 74.0101094,36.5281225 C74.5901522,36.6447141 75.1964281,36.7940969 75.8282084,36.9762712 C76.1932856,37.0258226 76.4337556,37.2094542 76.5503471,37.5242513 C76.5831385,37.7071543 76.4505157,37.8652815 76.1517499,37.9971757 C75.802704,38.0642158 75.5870097,38.3629816 75.5039383,38.8942017 C75.0390296,40.2561363 74.4495137,41.6173423 73.7361194,42.9785483 C73.5196964,43.3771455 73.6362879,43.7014157 74.0844365,43.9499014 C74.5988966,44.2821872 74.7570239,44.5649216 74.5573609,44.7973759 C74.2913865,45.0633503 74.1594923,45.3949075 74.1594923,45.7935047 L74.1594923,59.0186263 C74.3584266,59.9156523 73.9926207,60.4461437 73.0635321,60.6130153 C72.5978947,60.6625667 72.1745217,60.5794953 71.7934132,60.363801 C71.4939188,59.9979951 71.394816,59.5666065 71.4939188,59.0681777 L71.4939188,47.1379507 C71.4939188,46.7233221 71.2774957,46.7896335 70.8468358,47.3376136 C70.0656727,48.2018483 69.4521098,48.7746041 69.0032324,49.0558811 C68.9041297,49.0063297 68.8458339,48.9487627 68.8290739,48.8817226 C70.8380915,45.6776419 72.2575932,41.8170053 73.0883078,37.2998127 L73.0883078,37.2998127 Z M76.0519184,44.4731058 C76.0183983,43.9426144 76.2588683,43.6934 76.7740571,43.7261914 C77.3387973,43.7757428 77.9028087,43.8588142 78.4682776,43.9754057 C78.8493861,43.9921658 79.1321206,44.1080286 79.3150235,44.3237229 C79.4971978,44.6399774 79.2815034,44.9212544 78.6672119,45.1704688 C78.6001718,45.2535403 78.5673804,45.494739 78.5673804,45.8926075 L78.5673804,57.150976 C78.5673804,57.5656045 78.7670434,57.7732832 79.1656406,57.7732832 L87.7336598,57.7732832 C88.3137026,57.9394261 88.7961,57.648676 89.1779372,56.9017616 C89.5262544,56.4200929 89.8417802,56.0717757 90.1245146,55.8553527 C91.0536033,56.25395 91.8930622,56.9928487 92.6399766,58.072049 C92.5729365,58.4210948 92.249395,58.5369576 91.6686235,58.4210948 L79.1904163,58.4210948 C78.775059,58.4210948 78.5673804,58.5784934 78.5673804,58.8940192 C78.6336918,59.7575251 78.2015745,60.1969294 77.2724859,60.2144181 C76.2588683,60.1313466 75.8529841,59.6168866 76.0519184,58.6703092 L76.0519184,44.4731058 L76.0519184,44.4731058 Z M84.0719574,37.1256541 C84.1717889,36.5951627 84.4618103,36.3459483 84.943479,36.3787397 C85.5082192,36.4457798 86.0722307,36.5368669 86.6376995,36.6527297 C86.8694252,36.7022811 87.0771038,36.7940969 87.2600068,36.9267198 C87.4757011,37.2422456 87.3015425,37.49146 86.7368023,37.6736342 C86.6041795,37.9898887 86.5130923,38.5786759 86.4628122,39.4421818 C86.4460522,39.840779 86.6376995,40.0397133 87.0355681,40.0397133 L87.6090526,40.0397133 C88.139544,40.2226163 88.7122998,39.7496919 89.3273201,38.6202116 C89.7259174,38.188823 89.9824187,37.9724 90.0997389,37.9724 C90.7133018,38.2391031 91.4274248,38.8031145 92.2413794,39.6666205 C92.5904252,40.264152 92.6975437,40.5964378 92.5649208,40.6627492 L91.7181749,40.6875249 L86.9364653,40.6875249 C86.537868,40.6875249 86.3054137,40.9367393 86.2391023,41.4344394 C86.1720622,41.8170053 86.1305264,42.2236182 86.1144951,42.6550068 C86.064215,43.1031555 86.2143266,43.3275941 86.5626437,43.3275941 C86.9772723,43.4609457 87.3263182,43.3275941 87.6090526,42.9289969 C88.139544,42.3810167 88.6714928,42.1988425 89.2027129,42.3810167 C90.3482246,42.796374 91.071092,43.3195785 91.3698578,43.9499014 C91.3195777,44.0672216 91.1701948,44.2078601 90.9217091,44.3732743 C90.655006,44.5729373 90.5231119,44.871703 90.5231119,45.2703003 L90.5231119,54.3862996 C90.6222146,55.6316427 89.9663874,56.1869098 88.5549013,56.0550157 C88.0572013,55.9391529 87.8247469,55.6236271 87.8575383,55.1084383 C87.8575383,54.8592239 87.658604,54.7346168 87.2600068,54.7346168 L83.2004358,54.7346168 C82.8018386,54.7346168 82.5941599,54.8592239 82.5773999,55.1084383 C82.428017,55.9056328 81.8552612,56.27071 80.8591324,56.2043986 C80.5603667,56.2371899 80.2943923,56.1045671 80.0619379,55.8058013 L80.0371622,54.9590554 L80.0371622,43.0783798 C80.0371622,42.5478884 80.2943923,42.3482254 80.809581,42.4808482 C81.4071126,42.6797825 81.971124,42.9129655 82.5030728,43.1782112 C82.6524557,43.2780427 82.8098543,43.3275941 82.9759972,43.3275941 C83.1581714,43.3275941 83.291523,43.0783798 83.3745944,42.5806797 L83.5239773,41.3601123 C83.5742574,40.9119636 83.4161301,40.6875249 83.051053,40.6875249 L78.3436704,40.6875249 L77.5217002,40.8121321 C76.9897514,40.8952036 76.6749543,40.7705964 76.5751228,40.4383106 C76.4585313,40.0397133 76.69973,39.8655547 77.2972616,39.9151061 C77.5960273,39.9325949 77.9202975,39.9734019 78.2686146,40.0397133 L83.0758287,40.0397133 C83.4744259,40.0397133 83.7148959,39.790499 83.7979674,39.2927989 C83.8642788,38.5786759 83.9553659,37.8565372 84.0719574,37.1256541 L84.0719574,37.1256541 Z M83.325043,43.9754057 C82.8266143,44.0417172 82.5773999,44.2741715 82.5773999,44.6727688 L82.5773999,46.2912048 C82.5773999,46.7072908 82.7770629,46.9142407 83.1756601,46.9142407 L87.2352311,46.9142407 C87.6498596,46.9142407 87.8575383,46.7145777 87.8575383,46.3159805 L87.8575383,44.6472644 C87.8575383,44.1991157 87.6498596,43.9754057 87.2352311,43.9754057 L83.325043,43.9754057 L83.325043,43.9754057 Z M87.8575383,48.2091352 C87.8575383,47.7777466 87.6666197,47.5613236 87.2847824,47.5613236 L83.2004358,47.5613236 C82.7843499,47.5613236 82.5773999,47.7609866 82.5773999,48.1595838 L82.5773999,49.8530756 C82.5773999,50.2684329 82.7770629,50.4761116 83.1756601,50.4761116 L87.2352311,50.4761116 C87.6498596,50.4761116 87.8575383,50.2764486 87.8575383,49.8778513 L87.8575383,48.2091352 L87.8575383,48.2091352 Z M87.8575383,51.7957818 C87.8575383,51.3643932 87.6666197,51.1479702 87.2847824,51.1479702 L83.2004358,51.1479702 C82.7843499,51.1479702 82.5773999,51.3476332 82.5773999,51.7462304 L82.5773999,53.4644979 C82.5773999,53.8798552 82.7770629,54.0875338 83.1756601,54.0875338 L87.2352311,54.0875338 C87.6498596,54.0875338 87.8575383,53.8878709 87.8575383,53.4892736 L87.8575383,51.7957818 L87.8575383,51.7957818 Z" id="Fill-138" sketch:type="MSShapeGroup"></path>
            <path d="M101.653958,42.9289969 C101.75379,42.4145368 102.043811,42.1900981 102.52548,42.2564096 C103.09022,42.356241 103.679007,42.5143683 104.294028,42.7300626 C104.675865,42.8131341 104.92435,43.0040527 105.040942,43.3028184 C105.008151,43.5520328 104.874799,43.6759113 104.643073,43.6759113 C104.46017,43.7094313 104.210956,43.9921658 103.89543,44.5233859 C103.447282,45.3533717 102.956869,46.1840863 102.426377,47.0140722 C102.276994,47.2304952 102.201938,47.5365479 102.201938,47.9351452 L102.201938,58.7949164 C102.417633,59.6912137 102.043811,60.2224338 101.081202,60.3885767 C100.615565,60.4381281 100.216968,60.363801 99.8854107,60.164138 C99.603405,59.8981636 99.4948292,59.5083107 99.5618693,58.9938506 L99.5618693,51.2973531 C99.5618693,50.8994845 99.3126549,50.9242602 98.8149549,51.3724089 L97.5696117,52.4435934 C97.0872143,52.7758793 96.8219686,52.9004864 96.7724172,52.8166863 C99.4948292,49.147697 101.122738,45.8518005 101.653958,42.9289969 L101.653958,42.9289969 Z M100.707381,36.6527297 C100.757661,36.5864183 101.022907,36.611194 101.504575,36.7270568 C102.085347,36.9434798 102.666847,37.1926942 103.248347,37.4746999 C103.712527,37.6911229 103.87867,37.9476243 103.746047,38.24639 C103.646216,38.3462215 103.522337,38.3957729 103.372226,38.3957729 C103.189323,38.3957729 102.907317,38.6377003 102.52548,39.1186403 C101.014162,41.1939693 99.1712877,42.7468226 96.9961272,43.7757428 C96.9130557,43.7429514 97.0464073,43.476977 97.3947244,42.9785483 C99.0554249,40.9702594 100.159401,38.8614103 100.707381,36.6527297 L100.707381,36.6527297 Z M116.722683,46.9142407 C117.170832,46.3997806 117.428062,46.1338062 117.494373,46.1170462 C118.125425,46.3662606 118.797284,46.8814493 119.512135,47.6611551 C119.910733,48.1763439 120.100923,48.467094 120.084891,48.5326767 C119.98506,48.7658597 119.661518,48.8401868 119.113538,48.7571154 L116.050096,48.7571154 C115.634739,48.7571154 115.42706,48.9567783 115.42706,49.3546469 L115.42706,50.9490359 C115.42706,51.3476332 115.468596,51.5640562 115.551667,51.5968475 C115.916744,51.663159 116.381653,51.239786 116.946393,50.326 C117.377782,49.84506 117.851435,49.7707329 118.366624,50.10229 C119.295712,50.782893 119.868468,51.439449 120.084891,52.0697719 C120.00182,52.1863634 119.703054,52.2439305 119.188594,52.2439305 L116.050096,52.2439305 C115.634739,52.2439305 115.42706,52.4435934 115.42706,52.8421907 L115.42706,58.0968247 C115.360749,58.8772591 114.962151,59.4995664 114.231997,59.9652037 C113.467594,60.3302809 112.737439,60.4709194 112.040076,60.3885767 C111.973036,60.3390253 111.923485,60.180898 111.890694,59.9156523 C111.641479,59.1680092 111.12629,58.6528205 110.346585,58.3715434 C109.964019,58.3045033 109.814636,58.1383604 109.898436,57.8731147 C109.964019,57.7900432 110.246753,57.7485075 110.745182,57.7485075 L112.314067,57.7237318 C112.612832,57.6071403 112.720679,57.2916145 112.637608,56.7771544 L112.637608,52.8669664 C112.637608,52.4523378 112.438674,52.2439305 112.040076,52.2439305 L105.290156,52.2439305 L104.49369,52.3933133 C103.94571,52.4435934 103.62144,52.3189862 103.522337,52.0202205 C103.422506,51.6048632 103.662976,51.4219603 104.244476,51.4722403 C104.543242,51.4722403 104.866783,51.5057604 105.215829,51.5713431 L112.015301,51.5713431 C112.429929,51.5713431 112.637608,51.3724089 112.637608,50.9738116 L112.637608,49.3801513 C112.637608,48.964794 112.438674,48.7571154 112.040076,48.7571154 L105.588922,48.7571154 L104.792456,48.8817226 C104.260507,48.981554 103.920206,48.7906354 103.770823,48.3089667 L103.696496,48.010201 C103.729287,47.9438895 103.995262,47.9351452 104.49369,47.9854253 C104.808488,48.0021853 105.148789,48.043721 105.514595,48.1093038 L115.128294,48.1093038 C115.626723,48.2761754 116.157214,47.8775781 116.722683,46.9142407 L116.722683,46.9142407 Z M105.389988,53.3646664 C105.439539,53.2327723 105.721545,53.1992522 106.236734,53.2655636 C107.232862,53.4819866 108.129888,53.8718395 108.926354,54.435851 C110.039075,55.4159484 110.197202,56.4281086 109.400007,57.4745174 C108.519741,58.1718804 107.780843,58.0137532 107.183311,57.0015931 C107.06672,56.6693073 106.983648,56.3370214 106.934097,56.0047356 C106.867057,55.4246928 106.610555,54.8176882 106.162407,54.1866366 C105.630458,53.7224566 105.373228,53.4484666 105.389988,53.3646664 L105.389988,53.3646664 Z M114.3311,36.353964 C114.563554,36.2708925 114.937376,36.3619796 115.452564,36.627954 C116.697908,37.1256541 117.386526,37.6576029 117.519149,38.2216143 C117.502389,38.388486 117.320215,38.5291245 116.971898,38.6449873 C116.622852,38.7448188 116.50626,39.0435845 116.622852,39.5420133 L116.622852,45.2455246 C116.738715,45.8102648 116.589332,46.2839178 116.174703,46.6650263 C115.576443,46.9812808 114.978911,47.0636236 114.38138,46.9142407 C113.966023,46.7648578 113.791135,46.4580764 113.858175,45.992439 C113.858175,45.7104333 113.659241,45.5690661 113.260644,45.5690661 L109.574166,45.5690661 C109.158809,45.5690661 108.951859,45.7024176 108.951859,45.9676633 C108.868058,46.7480978 108.395134,47.1714707 107.531628,47.2377822 C106.485948,47.387165 106.037799,46.9725365 106.187182,45.992439 L106.187182,37.2998127 C106.187182,36.7693212 106.443684,36.5776739 106.958872,36.7270568 C107.506853,36.8764397 108.079608,37.0928627 108.677869,37.3748684 C108.876803,37.49146 109.175569,37.549027 109.574166,37.549027 L112.488225,37.549027 C112.903582,37.6663472 113.260644,37.549027 113.55941,37.2007099 C113.791135,36.8851841 114.049094,36.6031783 114.3311,36.353964 L114.3311,36.353964 Z M113.8334,38.3214458 C113.76636,38.2391031 113.541921,38.1968386 113.160812,38.1968386 L109.574166,38.1968386 C109.158809,38.1968386 108.951859,38.3957729 108.951859,38.7943702 L108.951859,40.7873564 C108.951859,41.2027137 109.150793,41.4096637 109.54939,41.4096637 L113.235868,41.4096637 C113.650497,41.4096637 113.858175,41.2107294 113.858175,40.8121321 L113.8334,38.3214458 L113.8334,38.3214458 Z M113.858175,42.7300626 C113.858175,42.298674 113.666528,42.082251 113.28542,42.082251 L109.574166,42.082251 C109.158809,42.082251 108.951859,42.2811853 108.951859,42.6797825 L108.951859,44.2989472 C108.951859,44.7143045 109.150793,44.9212544 109.54939,44.9212544 L113.235868,44.9212544 C113.650497,44.9212544 113.858175,44.7223202 113.858175,44.3237229 L113.858175,42.7300626 L113.858175,42.7300626 Z" id="Fill-139" sketch:type="MSShapeGroup"></path>
            <path d="M135.724186,37.1759342 C135.724186,36.6775054 135.9734,36.4370354 136.4711,36.4530668 C137.467229,36.5201069 138.330735,36.6862498 139.061618,36.9514955 C139.377144,37.2342299 139.293344,37.49146 138.812404,37.7239143 C138.613469,37.8069858 138.513638,38.0562001 138.513638,38.4708287 L138.513638,39.1929674 C138.513638,39.6090534 138.712572,39.8160033 139.11117,39.8160033 L142.075509,39.8160033 C142.67304,39.9821463 143.137949,39.6833805 143.470235,38.9189774 L143.868832,38.4212773 C144.333012,37.9724 144.814681,37.8900572 145.31311,38.1720629 C145.82757,38.5378688 146.317254,38.9685288 146.782891,39.4669575 C147.114449,39.9989063 147.247071,40.3056877 147.181489,40.3887592 C147.097689,40.4557993 146.807667,40.487862 146.309238,40.487862 L131.738942,40.487862 C131.323585,40.487862 131.116635,40.6875249 131.116635,41.0861222 L131.116635,45.8430561 C131.083115,48.6499969 130.693262,51.3891689 129.945619,54.0620294 C129.281047,56.3865728 127.85353,58.3788304 125.661609,60.0402595 C125.163909,60.3390253 124.87243,60.4796638 124.790088,60.4636325 C124.591153,60.3135209 124.698272,60.0315152 125.113629,59.6168866 C125.927584,58.5209263 126.608187,57.191783 127.156167,55.6316427 C127.587555,54.4198197 127.919841,52.6097363 128.152296,50.2021215 C128.185087,49.7707329 127.969393,49.7619885 127.505213,50.1766171 C126.923712,50.6582858 126.366988,51.1654589 125.836497,51.6959503 C125.719176,51.8453332 125.653594,52.0122048 125.636834,52.1943791 C125.603313,52.6264964 125.404379,52.7591192 125.039302,52.5929763 C124.939471,52.4931448 124.790088,52.2774505 124.591153,51.9451647 C124.341939,51.3476332 124.125516,50.742086 123.943342,50.1270657 C123.82675,49.5790856 124.067949,49.2555441 124.66548,49.1557126 C125.329323,49.0558811 125.993166,48.923987 126.658467,48.7571154 C126.873432,48.7571154 127.197702,48.6572839 127.62982,48.4583496 C128.077968,48.3089667 128.309694,48.010201 128.327183,47.5613236 L128.376734,46.1418219 L128.376734,39.3423503 C128.376734,38.7783388 128.633236,38.5874202 129.148424,38.7695945 C129.713164,38.9860175 130.277176,39.2352318 130.842645,39.5165089 C131.240513,39.7161719 131.614335,39.8160033 131.963381,39.8160033 L135.10115,39.8160033 C135.516507,39.8160033 135.724186,39.6163404 135.724186,39.2177431 L135.724186,37.1759342 L135.724186,37.1759342 Z M124.615929,41.9824195 C124.349955,41.4519281 124.274899,41.1531623 124.39149,41.0861222 C124.723048,41.1356736 125.196701,41.4271524 125.810992,41.9576438 C127.188958,43.0208127 127.779203,44.1583087 127.57954,45.3701318 C127.097871,46.8318979 126.259869,47.1379507 125.064078,46.2912048 C124.814863,45.9261276 124.773328,45.3621161 124.939471,44.597713 C125.155165,43.7509671 125.047318,42.8794455 124.615929,41.9824195 L124.615929,41.9824195 Z M135.325589,41.6341023 C135.441452,41.0693622 135.748962,40.8121321 136.24739,40.8616835 C137.392902,41.0445865 138.214872,41.3273209 138.712572,41.7084294 C138.845195,41.9416125 138.745364,42.1070267 138.413807,42.2068582 C138.264424,42.2564096 138.073505,42.4393125 137.841051,42.7548383 C137.674908,43.0703641 137.791499,43.2277626 138.190097,43.2277626 L141.128931,43.2277626 C141.57708,43.3611142 141.933413,43.236507 142.200116,42.8546698 C142.748096,42.5056239 143.245796,42.4976083 143.693945,42.8291654 C144.507899,43.493737 144.964792,44.0337015 145.063895,44.4483301 C145.030375,44.7143045 144.806665,44.8469273 144.391308,44.8469273 C144.324996,44.8804474 144.175614,45.0633503 143.943159,45.3949075 C143.328139,46.3247248 142.589969,47.2304952 141.726463,48.1093038 C141.327866,48.507901 141.369401,48.8321712 141.85107,49.0806568 C143.677185,49.8778513 145.404197,50.3099687 147.031377,50.3762801 C147.529806,50.3762801 147.820556,50.4010558 147.903627,50.4506072 C147.936419,50.5344073 147.71198,50.7333416 147.23104,51.0488674 C146.732611,51.3811532 146.34203,51.8453332 146.060024,52.4435934 C145.86109,53.0906764 145.702962,53.4229622 145.5871,53.4397222 C143.511042,52.9085021 141.601856,51.9451647 139.858813,50.5504387 C139.493007,50.2188815 139.044858,50.2101372 138.513638,50.525663 C135.8896,52.0369805 133.266291,52.9500378 130.642982,53.2655636 C130.575942,53.1992522 130.543879,53.1241964 130.543879,53.041125 C130.626222,52.9587822 130.916972,52.8166863 131.415401,52.617752 C133.457938,51.7710061 135.499747,50.5927031 137.542285,49.0806568 C137.923393,48.7658597 137.948898,48.3585181 137.617341,47.8608181 C137.218743,47.1969751 136.852938,46.5324035 136.52138,45.8678318 C136.338477,45.4692346 136.055743,45.4867233 135.673906,45.9181119 C134.379011,47.4294295 133.116908,48.4168139 131.888325,48.8817226 C131.821285,48.8489312 131.979412,48.5661968 132.361978,48.0349767 C133.839047,46.1593106 134.82716,44.0249571 135.325589,41.6341023 L135.325589,41.6341023 Z M144.740354,55.6316427 C145.337885,55.4494685 145.736483,55.3991884 145.936146,55.4822599 C146.035248,55.7642656 145.836314,55.9799599 145.337885,56.1293428 C143.145965,56.9928487 139.493007,58.1551204 134.379011,59.6168866 C134.212868,59.6992293 134.080246,59.8238365 133.980414,59.9899794 C133.863823,60.2887452 133.681648,60.3550566 133.432434,60.1896424 C133.150428,59.8070765 132.834902,59.1016978 132.486585,58.072049 C132.369265,57.5240688 132.635968,57.2500788 133.283051,57.2500788 C137.069361,56.968073 140.887733,56.4281086 144.740354,55.6316427 L144.740354,55.6316427 Z M137.916106,43.8755743 C137.50002,43.8755743 137.176479,43.9921658 136.944753,44.2246201 C136.76185,44.5066259 136.844922,44.9139675 137.193968,45.4444589 C137.575076,45.9428876 138.015209,46.4405877 138.513638,46.9390164 C139.028098,47.387165 139.509767,47.3711337 139.957915,46.889465 C140.655278,46.1257906 141.228763,45.3285961 141.676912,44.4978815 C141.892606,44.0832529 141.792774,43.8755743 141.378146,43.8755743 L137.916106,43.8755743 L137.916106,43.8755743 Z M136.894473,51.920389 C137.873842,51.7382147 138.862684,51.8628219 139.858813,52.2942105 C140.638518,52.7095678 141.053876,53.257548 141.104156,53.9374223 C141.186499,54.7346168 140.904493,55.2745812 140.25741,55.556587 C139.360384,55.77301 138.762852,55.3576527 138.464087,54.3112438 C138.330735,53.7807524 138.073505,53.2823237 137.691668,52.8166863 C137.094136,52.3189862 136.828162,52.0202205 136.894473,51.920389 L136.894473,51.920389 Z" id="Fill-140" sketch:type="MSShapeGroup"></path>
            <path d="M153.281411,42.5551753 C153.297442,42.0574753 153.346994,41.7667252 153.430794,41.6836537 C153.513137,41.6836537 153.69604,41.9416125 153.978774,42.4560725 C154.542786,43.6686243 154.576306,45.054606 154.077877,46.6154749 C153.646488,47.529261 152.989932,47.9526339 152.110395,47.8855938 C151.778109,47.8192824 151.479343,47.5540366 151.214098,47.0883993 C151.097506,46.7400821 151.189322,46.3334692 151.488088,45.8678318 C152.616111,44.7893603 153.214371,43.6846557 153.281411,42.5551753 L153.281411,42.5551753 Z M154.725689,37.1504298 C154.725689,36.6359697 154.982919,36.3954997 155.498107,36.4282911 C156.725962,36.5113625 157.656508,36.7358012 158.287559,37.1008784 C158.419454,37.5162357 158.162952,37.8405058 157.515141,38.0722315 C157.465589,38.9364661 157.448101,39.7992433 157.465589,40.6627492 C157.465589,41.0613465 157.714804,41.3601123 158.212504,41.5590465 C159.822924,42.2564096 160.603358,43.2948028 160.553807,44.6727688 C160.387664,45.3533717 159.997083,45.6688975 159.38352,45.6186175 C158.552805,45.4532032 158.195744,44.9547745 158.312335,44.1247886 C158.245295,43.7094313 158.113401,43.2948028 157.913738,42.8794455 C157.614972,42.4312968 157.465589,42.4560725 157.465589,42.9537726 L157.465589,59.6168866 C157.415309,59.9979951 157.17411,60.2807295 156.743451,60.4636325 C156.14519,60.6625667 155.64749,60.637791 155.248893,60.3885767 C154.767224,60.1226023 154.592337,59.6576936 154.725689,58.9938506 L154.725689,37.1504298 L154.725689,37.1504298 Z M162.670672,37.2502613 C162.670672,36.7197699 162.903126,36.4530668 163.368035,36.4530668 C164.115678,36.5201069 164.804297,36.627954 165.435348,36.7773369 C165.734843,36.8764397 165.909001,37.0185356 165.958553,37.2007099 C165.975313,37.3500927 165.82593,37.4994756 165.510404,37.6488585 C165.343532,37.7158986 165.26119,37.9563686 165.26119,38.3709972 L165.26119,40.4135349 C165.26119,40.8288922 165.460853,41.0358421 165.858721,41.0358421 L167.428334,41.0358421 C167.842963,41.0358421 168.050642,40.8369078 168.050642,40.4383106 L168.050642,37.3996441 C168.050642,36.9019441 168.299856,36.6527297 168.798285,36.6527297 C169.378328,36.6862498 169.959828,36.7773369 170.541328,36.9267198 C171.039757,37.1431428 171.296258,37.2925257 171.313747,37.3748684 C171.346538,37.5912914 171.213915,37.74869 170.91515,37.8477928 C170.732247,37.965113 170.641159,38.2216143 170.641159,38.6202116 L170.641159,39.8655547 C170.641159,40.2976721 170.815318,40.2889277 171.164364,39.840779 C171.545472,39.4254218 171.769911,39.2104562 171.836223,39.1929674 C172.7828,39.6913962 173.57125,40.3967748 174.20303,41.3098322 C174.16951,41.658878 173.84524,41.7834852 173.231677,41.6836537 L171.263467,41.6836537 C170.848109,41.6836537 170.641159,41.8833167 170.641159,42.2811853 L170.641159,46.0427191 C170.641159,46.5076278 170.832078,46.5076278 171.213915,46.0427191 L171.712344,45.3949075 C172.160493,44.8964787 172.690984,44.8389117 173.306004,45.2207489 C173.637561,45.4867233 173.961832,45.7854891 174.277357,46.1170462 C174.758297,46.7480978 174.933185,47.105888 174.800562,47.1882308 C174.66721,47.2377822 174.352413,47.2625579 173.853984,47.2625579 L160.70319,47.2625579 L159.905995,47.4119407 C159.358744,47.4622208 159.034474,47.329598 158.934642,47.0140722 C158.83554,46.6154749 159.084754,46.4405877 159.682285,46.4908677 C160.330097,46.6234906 161.118547,46.6650263 162.048365,46.6154749 C162.462993,46.6154749 162.670672,46.415812 162.670672,46.0172147 L162.670672,42.3066896 C162.670672,41.8913324 162.471738,41.6836537 162.07314,41.6836537 C161.691303,41.7011425 161.30145,41.7506938 160.902853,41.8330366 C160.354873,41.8833167 160.038618,41.7587095 159.956276,41.4599437 C159.839684,41.0445865 160.072138,40.8616835 160.653639,40.9119636 L162.048365,41.0358421 C162.462993,41.0358421 162.670672,40.8369078 162.670672,40.4383106 L162.670672,37.2502613 L162.670672,37.2502613 Z M160.603358,49.5790856 C160.603358,49.0485942 160.852573,48.8321712 161.351002,48.931274 C161.915013,49.1309369 162.479753,49.3633913 163.044493,49.628637 C163.226668,49.7459572 163.518146,49.8035242 163.916015,49.8035242 L168.947668,49.8035242 C169.346265,49.8035242 169.677822,49.6541414 169.943796,49.3546469 C170.258594,49.0398498 170.665935,48.9735384 171.164364,49.1557126 C171.562961,49.3386156 171.96083,49.5543099 172.359427,49.8035242 C172.973718,50.2684329 173.247709,50.559183 173.181397,50.6750458 L172.459258,51.2478017 C172.425738,51.3308731 172.409707,51.5713431 172.409707,51.9699404 L172.409707,59.0936821 C172.641433,60.0067395 172.210044,60.5292152 171.114084,60.6625667 C170.267338,60.8119496 169.851981,60.4709194 169.868741,59.6416623 C169.868741,59.2255763 169.669806,59.0186263 169.271209,59.0186263 L163.791408,59.0186263 C163.393539,59.0186263 163.160356,59.2678407 163.094045,59.7662694 C163.094045,59.9979951 162.903126,60.2056737 162.521289,60.3885767 C161.143323,60.8695167 160.504256,60.5292152 160.603358,59.3676722 L160.603358,49.5790856 L160.603358,49.5790856 Z M163.966295,50.4506072 C163.434346,50.5008873 163.169101,50.7085659 163.169101,51.0736431 L163.169101,53.4644979 C163.169101,53.8798552 163.368035,54.0875338 163.766632,54.0875338 L169.246433,54.0875338 C169.661062,54.0875338 169.868741,53.8878709 169.868741,53.4892736 L169.868741,51.1231945 C169.868741,50.6750458 169.652318,50.4506072 169.221658,50.4506072 L163.966295,50.4506072 L163.966295,50.4506072 Z M169.868741,55.4072041 C169.868741,54.9590554 169.685838,54.7346168 169.320761,54.7346168 L163.791408,54.7346168 C163.37605,54.7346168 163.169101,54.9342797 163.169101,55.332877 L163.169101,57.7237318 C163.169101,58.1383604 163.368035,58.346039 163.766632,58.346039 L169.246433,58.346039 C169.661062,58.346039 169.868741,58.1471047 169.868741,57.7485075 L169.868741,55.4072041 L169.868741,55.4072041 Z M168.050642,42.3314653 C168.050642,41.9000767 167.859723,41.6836537 167.477886,41.6836537 L165.884226,41.6836537 C165.46814,41.6836537 165.26119,41.8833167 165.26119,42.2811853 L165.26119,45.992439 C165.26119,46.408525 165.460853,46.6154749 165.858721,46.6154749 L167.428334,46.6154749 C167.842963,46.6154749 168.050642,46.415812 168.050642,46.0172147 L168.050642,42.3314653 L168.050642,42.3314653 Z" id="Fill-141" sketch:type="MSShapeGroup"></path>
            <path d="M190.290474,45.3949075 C191.020628,45.2455246 191.6852,45.3038204 192.282731,45.5690661 C193.942703,46.5491635 194.540963,47.7609866 194.076055,49.205264 C193.428243,50.8331731 192.324267,51.6048632 190.763398,51.5217917 C189.136218,51.1406832 188.214416,50.2021215 187.998722,48.707564 C187.89889,47.1634551 188.662565,46.0594791 190.290474,45.3949075 L190.290474,45.3949075 Z M191.709975,46.2912048 C191.012612,46.0755105 190.315249,46.2336377 189.617886,46.7648578 C189.019626,47.3623893 188.787172,48.026961 188.920523,48.7571154 C189.002866,49.5040298 189.459759,50.08553 190.290474,50.5008873 C191.253082,50.8492044 192.083797,50.6422545 192.78116,49.8778513 C193.8436,48.3832938 193.48581,47.1882308 191.709975,46.2912048 L191.709975,46.2912048 Z" id="Fill-142" sketch:type="MSShapeGroup"></path>
            <path d="M214.697451,39.367126 C214.697451,38.8366346 214.929176,38.5706602 215.394814,38.5706602 L215.693579,38.5706602 C216.208039,38.5706602 216.465998,38.8191459 216.465998,39.3175746 L216.465998,58.6200291 C216.465998,59.1344892 216.216784,59.3924479 215.718355,59.3924479 L209.043491,59.3924479 C208.528302,59.3924479 208.271801,59.1432335 208.271801,58.6448048 L208.271801,58.4210948 C208.271801,57.905906 208.520286,57.648676 209.018715,57.648676 L214.074415,57.648676 C214.489772,57.648676 214.697451,57.4497417 214.697451,57.0511445 L214.697451,39.367126" id="Fill-143" sketch:type="MSShapeGroup"></path>
        </g>
    </g>
</svg>