<?xml version="1.0" encoding="UTF-8" standalone="no"?>
<svg width="196px" height="47px" viewBox="0 0 196 47" version="1.1" xmlns="http://www.w3.org/2000/svg" xmlns:xlink="http://www.w3.org/1999/xlink" xmlns:sketch="http://www.bohemiancoding.com/sketch/ns">
    <!-- Generator: Sketch 3.0.4 (8053) - http://www.bohemiancoding.com/sketch -->
    <title>h3_mask_blue_white</title>
    <desc>Created with Sketch.</desc>
    <defs></defs>
    <g id="Page-1" stroke="none" stroke-width="1" fill="none" fill-rule="evenodd" sketch:type="MSPage">
        <g id="h1_mask_blue-white" sketch:type="MSLayerGroup" transform="translate(0.000000, 2.099726)" fill="#FFFFFF">
            <path d="M8.01512579,0.93786949 C7.98452863,-0.031927472 8.47009226,-0.517491109 9.47048639,-0.517491109 C10.6824,-0.395102466 11.8956439,-0.214180125 13.1088879,0.027936538 C13.865835,0.11972802 14.3208015,0.453636165 14.472457,1.02833066 C14.3208015,1.54449146 13.9270294,1.8783996 13.2898102,2.02872478 C13.1687519,2.18171059 13.1088879,2.62071333 13.1088879,3.34839363 L13.1088879,8.94102248 C13.1088879,9.66870278 13.2286159,10.0478415 13.4720629,10.0771084 C13.7753739,10.0771084 14.3048378,9.65273904 15.0631152,8.80400041 L16.3362232,7.30340922 C16.8217868,6.39480658 17.3818479,6.21255393 18.019067,6.75798158 C19.1099223,7.39520071 20.2766054,8.45545884 21.5204464,9.9414166 C22.0658741,10.4562471 22.1417018,10.865983 21.7479297,11.169294 C21.5949439,11.229158 21.06548,11.2597551 20.155547,11.2597551 L12.5168993,11.2597551 C11.789219,11.2597551 11.3954469,11.7147216 11.3355829,12.6233242 L11.1533302,17.4882728 C11.1533302,18.2159531 11.592333,18.5804584 12.4716688,18.5804584 C13.5013297,18.7613807 14.2449738,18.5804584 14.6999402,18.0350308 L15.1549067,17.4430422 C15.8519899,15.8679536 17.0945006,15.822723 18.8824391,17.3073505 C19.7019109,17.8221809 20.3683968,17.6864892 20.8832273,16.8976146 C23.3988461,11.532469 24.7637455,5.86401236 24.975265,-0.107755218 C25.1269205,-0.290007871 25.6577147,-0.349871881 26.5676477,-0.290007871 C28.9316109,0.105094595 30.6290882,0.681119403 31.6600794,1.43806655 C31.8423321,1.74137754 31.7811378,2.05932194 31.4778268,2.39323009 L30.2047188,2.89342715 C29.9014079,3.25660215 29.6592912,3.81799353 29.4770385,4.57494068 C28.8105526,6.69811757 28.1427363,8.45545884 27.4762503,9.84962512 C27.1130753,10.6079026 27.295328,10.9870413 28.0230082,10.9870413 L33.9335815,10.9870413 C34.7823201,11.229158 35.4035755,10.9870413 35.7973477,10.259361 L37.2074777,8.44082541 C37.8739637,7.01606198 38.7373357,6.8191759 39.7989242,7.84883687 C40.67826,8.39426452 41.5722292,9.18313914 42.4821621,10.2141304 C43.1486481,11.1533302 43.4665925,11.6841244 43.4359954,11.8051828 C43.1020872,12.1683578 42.4661984,12.2907464 41.5269986,12.1683578 L40.6622962,12.1683578 C39.9359462,12.1683578 39.5102466,12.6233242 39.3891883,13.5332572 C38.9954161,19.9892581 37.2819751,25.9011617 34.2515259,31.2663073 C33.6449039,32.2055071 33.7060983,33.0396123 34.4337786,33.7672926 C37.3431695,36.465164 40.2685241,38.1919081 43.2098424,38.9501855 C43.3003036,39.101841 42.8905677,39.5115769 41.9819651,40.1780629 C41.3753431,40.6928934 40.6622962,41.5881929 39.8441548,42.8613009 C39.5408438,43.4665925 39.3133605,43.8310978 39.1630354,43.9521562 C39.0100496,43.981423 38.4805856,43.7393063 37.5706527,43.2244759 C34.7823201,41.4964014 32.5394152,39.6020381 30.841938,37.5413858 C30.29518,36.7525112 29.5834634,36.7378778 28.7041277,37.4948249 C25.8240036,39.9505797 22.3532213,41.6932875 18.2917808,42.7242788 C17.1091341,42.8759343 16.5025121,42.8613009 16.4732452,42.6790482 C16.5025121,42.5579899 17.0333063,42.208118 18.0642976,41.6334235 C21.3075966,39.8747519 24.2635484,37.4655581 26.9308226,34.4031814 C27.5973086,33.5850399 27.7795613,32.8121291 27.4762503,32.0844488 C25.5965204,27.295328 24.3846068,22.3997822 23.8391791,17.3978116 C23.7779848,16.5796702 23.3230183,16.6408645 22.47561,17.5800643 C21.3528272,18.4594001 20.9590551,19.0952889 21.2929632,19.489061 C21.202502,19.7617749 20.8991911,20.095683 20.3830303,20.4894552 C19.8681998,20.8233633 19.5795222,21.4752159 19.5196582,22.4450128 C19.2469444,28.5990331 18.625689,33.9641787 17.655892,38.54178 C16.6554979,41.6028263 14.5788819,43.1034175 11.426044,43.0422232 C11.3049857,42.9823592 11.1679636,42.4967956 11.0163082,41.5881929 C10.622536,40.2844878 9.38002522,38.9954161 7.2887758,37.7223082 C7.13579,37.4495944 7.65195079,37.3139026 8.83459757,37.3139026 L10.6531332,37.5413858 C11.7439885,37.6611139 12.6086908,37.2527083 13.2445796,36.3135085 C13.9722599,32.978418 14.4564933,28.1281028 14.6999402,21.7625631 C14.8515957,20.8233633 14.7598043,20.1874745 14.4272264,19.8535663 C13.668949,19.792372 12.9106715,19.7777386 12.1537243,19.8083358 C11.426044,19.8083358 11.0016747,20.2619719 10.8806164,21.1719049 C10.4855139,26.1126812 9.24300315,30.8113408 7.15175373,35.2678838 C6.06089844,37.691711 4.43791861,39.9505797 2.28680518,42.0431594 C1.37687223,42.8307037 0.846078008,43.2244759 0.695752828,43.2244759 C0.452305854,43.0422232 0.513500175,42.6790482 0.876675169,42.1336206 C3.30183273,37.2833054 4.81705734,32.4329903 5.42367931,27.5826752 C6.09016529,22.4609766 6.4081097,17.3978116 6.37884285,12.395841 C6.37884285,11.6388939 6.01566785,11.2597551 5.28798755,11.2597551 C4.25699627,11.1985608 3.24196872,11.2757189 2.2415746,11.4872384 C1.27044732,11.6388939 0.679789092,11.426044 0.46826959,10.8500192 C0.286016937,10.0930721 0.740983413,9.75916395 1.83183871,9.84962512 C3.01448548,10.0930721 4.69599901,10.1688998 6.87903991,10.0771084 C7.63598706,10.0771084 8.01512579,9.71393336 8.01512579,8.98625306 L8.01512579,0.93786949 L8.01512579,0.93786949 Z M34.5242397,13.3962351 C34.5854341,12.5780937 34.2821231,12.1683578 33.6156371,12.1683578 L27.4762503,12.1683578 C26.74857,12.1683578 26.082084,12.6233242 25.475462,13.5332572 C24.9300344,14.4418598 24.7331483,15.3517928 24.8848038,16.2617257 C25.5220229,20.1715108 27.1423421,24.0972595 29.7497524,28.0376417 C30.2659132,28.765322 30.7501465,28.6748608 31.205113,27.7649279 C32.9624542,23.582429 34.0692733,18.7919779 34.5242397,13.3962351 L34.5242397,13.3962351 Z" id="Fill-30" sketch:type="MSShapeGroup"></path>
            <path d="M69.0325157,1.6203192 C69.6684046,0.619925082 70.0781405,0.0891308594 70.2603931,0.027936538 C70.5025098,0.027936538 71.0479374,0.301980673 71.896676,0.84740832 C72.503298,1.24118047 73.1085897,1.69614695 73.7152116,2.21097744 C74.9271253,2.9692549 75.3674583,3.60514372 75.0335502,4.12130451 L71.033304,4.1665351 C70.2138322,4.1665351 70.3056237,4.50044324 71.3060178,5.16692922 C72.2758148,5.89460952 73.0181285,6.62095951 73.532959,7.34863981 C73.5635561,7.47102845 73.5183256,7.59208678 73.3972672,7.71314511 C72.3064119,7.80360628 71.1995929,7.83420345 70.0781405,7.80360628 C69.259999,7.80360628 69.3504602,8.13751443 70.3508543,8.80400041 C71.4723067,9.62214188 72.2292539,10.3351888 72.6243563,10.9418107 C72.6536232,11.1227331 72.6083926,11.2597551 72.4873343,11.3502163 C72.4567371,11.4712746 72.8970702,11.8504134 73.8070031,12.4876325 L74.3976614,12.9878296 C75.1852057,13.746107 76.0339443,13.8817988 76.9438772,13.3962351 C79.7322098,12.0020689 82.2784257,9.8948557 84.5825249,7.07592599 C85.2796081,6.10612902 86.0671524,5.80281804 86.9464882,6.16732334 C87.825824,6.50123149 88.7503903,6.94023423 89.7201873,7.48566188 C90.2057509,7.81957002 90.3268093,8.16811159 90.0846926,8.53128658 C89.7201873,8.62174776 89.3570123,8.75876982 88.9938373,8.94102248 C84.2938474,12.0632632 79.8386347,14.0480877 75.6255387,14.8968263 L64.3937201,14.8968263 C63.6660398,14.8968263 62.9396898,15.2613316 62.2120095,15.9890119 C61.3925378,16.8377506 60.5597629,17.6106614 59.7110242,18.3077446 C59.7110242,18.3982057 60.1659907,18.4141695 61.0745933,18.3529752 L66.8494748,17.7623169 C67.6370192,17.6705254 67.6982135,17.2461561 67.0317275,16.4878787 C66.27345,15.9131842 65.8943113,15.5646426 65.8943113,15.442254 C66.0153696,15.3225259 66.5315304,15.275965 67.4401331,15.3065622 C69.4715185,15.579276 71.1383986,16.3521869 72.4421037,17.6252949 C73.4119007,18.7161502 73.5489227,19.9293941 72.8518396,21.2623661 C71.2754207,22.6272655 70.0621767,22.1882627 69.2134381,19.9440275 C68.9101271,19.2163472 68.3048354,18.9742306 67.3949025,19.2163472 L63.3028648,20.4442246 C62.1508152,20.7169384 62.0896209,20.9297882 63.1206122,21.0814437 C64.3937201,21.1120409 65.3036531,21.4605824 65.8490807,22.1270684 C65.9395419,22.6432292 65.4859057,23.0968654 64.4855116,23.4906375 C64.4243173,23.6116959 64.3937201,24.1118929 64.3937201,24.9912287 C64.3937201,25.9317588 64.5906062,26.4013587 64.9857087,26.4013587 C65.3794808,26.4013587 65.9861028,25.9916228 66.8042443,25.1734814 C67.8950996,23.0516348 69.1828409,23.4307735 70.6687987,26.3095673 C71.033304,26.6434754 71.0479374,27.0532113 70.7140293,27.5374446 C68.9859548,27.6292361 67.2592107,27.6598333 65.5311363,27.6292361 C64.7728589,27.6292361 64.3937201,27.9019499 64.3937201,28.4473776 C64.3937201,28.9928052 64.8486866,29.4930023 65.7586195,29.9479687 C66.7882805,30.3417409 67.7740412,31.1000184 68.713241,32.2214708 C69.319863,32.918554 70.0169461,32.8121291 70.8058207,31.9021961 C72.7760118,29.508966 74.199445,26.7499003 75.0801111,23.6276596 C75.3222277,22.6578626 75.8982525,22.2787239 76.8068552,22.4902434 C77.8378465,22.8241516 78.8688377,23.2631543 79.899829,23.8085819 C80.3534652,24.0520289 80.5197541,24.3699733 80.4000261,24.7637455 C80.2776374,24.8848038 80.0501542,24.9912287 79.7175764,25.0816899 C79.3836682,25.1428842 78.8382406,25.6430813 78.0799631,26.5822811 C75.8982525,29.5235994 73.5489227,31.7359072 71.033304,33.2218649 C70.2750265,33.6462343 69.9557518,33.9947758 70.0781405,34.2674897 C70.3508543,35.2372866 70.3348905,36.0248309 70.0329099,36.6314529 C69.6684046,37.3884 69.1229769,37.7382719 68.3952966,37.6770776 C66.939936,37.5866164 66.1670251,36.7072806 66.076564,35.0404005 C65.773253,33.6755011 65.2876893,32.5700124 64.6212034,31.7212738 C64.4695479,31.6294823 64.3937201,31.948757 64.3937201,32.6764373 L64.3937201,42.2240817 C63.8788896,43.7087092 62.6510123,44.1184451 60.7114183,43.4519591 C60.0130049,42.9663955 59.7562548,42.1788512 59.9385075,41.0879959 L59.9385075,34.085237 C59.9385075,33.3282898 59.543405,33.4493482 58.7558607,34.448412 C56.2389116,37.2979389 53.8456816,38.9501855 51.5721795,39.405152 C51.4497908,39.2840937 51.3899268,39.161705 51.3899268,39.041977 C54.4815704,36.0101975 56.7244753,32.615243 58.1199719,28.8557831 C58.4219525,28.0376417 58.2396999,27.6292361 57.5732139,27.6292361 C55.7240812,27.5081778 53.8150844,27.6438695 51.8448933,28.0376417 C51.7225047,27.9471805 51.6174101,27.6438695 51.5256186,27.129039 C51.4045603,26.4625531 51.8448933,26.1592421 52.8452874,26.2191061 C54.0266039,26.4013587 56.0127587,26.4625531 58.8010913,26.4013587 C59.5593687,26.4013587 59.9385075,26.0368534 59.9385075,25.3091731 L59.9385075,22.5820349 C59.9385075,21.8543546 59.483541,21.5816408 58.573608,21.7625631 C57.5120196,22.0352769 56.4517615,22.3545517 55.3915033,22.7177266 C55.2092507,22.8095181 54.9511703,23.0210376 54.6185924,23.3549458 C54.2846843,23.6888539 53.9654096,23.6582568 53.6634289,23.2631543 C53.2084624,22.3851488 52.8146903,21.3381938 52.4807821,20.1262802 C52.3291266,19.125886 52.7228988,18.625689 53.6634289,18.625689 L56.0273921,18.625689 C56.7550724,18.625689 57.2858667,18.1707225 57.6197748,17.2621199 L58.0281804,16.0342425 C58.3008942,15.275965 58.0587775,14.8968263 57.3005001,14.8968263 C55.2691147,14.8369623 53.7392566,14.8968263 52.7082654,15.079079 C51.7690656,15.1695401 51.2076742,14.9127901 51.0254215,14.3061681 C50.9043632,13.6396821 51.2835019,13.3510045 52.1628377,13.4414657 C52.9197849,13.4720629 53.6780623,13.5492209 54.4363398,13.668949 C55.1932869,13.668949 55.5724257,13.305774 55.5724257,12.5780937 L55.5724257,2.39323009 C55.5724257,1.48329714 55.6189866,0.968466651 55.7094477,0.84740832 C56.9825557,1.21058331 58.4379163,1.83183871 60.0741992,2.7111745 C60.346913,2.86282999 60.8471101,2.93865774 61.5747904,2.93865774 L66.9864969,2.93865774 C67.7128469,2.93865774 68.1531799,2.89342715 68.3048354,2.80163567 C68.5469521,2.65131049 68.7890688,2.25620802 69.0325157,1.6203192 L69.0325157,1.6203192 Z M67.7594078,5.30262098 C68.1824468,4.54567383 68.0161579,4.1665351 67.2592107,4.1665351 L61.2116154,4.1665351 C60.4533379,4.1665351 60.0741992,4.56030725 60.0741992,5.34918187 C60.0741992,6.1979205 60.4387045,6.62095951 61.1663848,6.62095951 C63.0141873,6.65155667 64.9098809,6.62095951 66.8494748,6.53049834 C67.1527858,6.40944001 67.4560968,6.00103443 67.7594078,5.30262098 L67.7594078,5.30262098 Z M66.8042443,8.94102248 C67.2884776,8.18274502 67.1527858,7.80360628 66.3945084,7.80360628 L61.2116154,7.80360628 C60.4533379,7.80360628 60.0741992,8.19870875 60.0741992,8.98625306 C60.0741992,9.83499169 60.4387045,10.259361 61.1663848,10.259361 C62.7122066,10.2899582 64.3032589,10.259361 65.9395419,10.1688998 C66.213586,10.1077055 66.5009333,9.69796962 66.8042443,8.94102248 L66.8042443,8.94102248 Z M69.3504602,12.8960381 C69.926485,11.9262411 69.8346935,11.4420078 69.0777463,11.4420078 L61.2116154,11.4420078 C60.4533379,11.4420078 60.0741992,11.8051828 60.0741992,12.5328631 C60.0741992,13.2911405 60.4387045,13.668949 61.1663848,13.668949 L67.5771551,13.668949 C68.4564909,13.9416628 69.0471492,13.6849127 69.3504602,12.8960381 L69.3504602,12.8960381 Z M78.5349296,29.3107496 C78.7770463,28.3409527 79.0497601,27.8407556 79.3530711,27.8101584 C80.1113485,28.0230082 80.869626,28.2957221 81.6265731,28.6296302 C82.8398171,29.2362522 83.6273614,29.7963133 83.9918667,30.3111437 C84.112925,30.675649 83.869478,30.9177657 83.2641864,31.038824 C82.7480256,30.8565714 82.2331951,31.282271 81.7183646,32.311932 C80.7778345,33.8284869 79.596518,35.3437115 78.1717546,36.8589361 C77.3536131,37.7382719 77.3988437,38.1466775 78.3074464,38.0868135 C80.4904873,37.8739637 82.7187587,37.6012499 84.9922608,37.268672 C85.7199411,37.1462834 85.7798051,36.6314529 85.1731832,35.7215199 L83.9466361,34.3579508 C83.0367032,33.781926 82.5963701,33.418751 82.6269673,33.2670955 C82.7480256,33.055576 83.2641864,32.9943817 84.172789,33.0848429 C86.8400633,33.6914648 89.1601262,35.0257671 91.1303173,37.0864194 C92.0402503,38.1160803 92.3581947,39.3293243 92.0854808,40.7234906 C91.812767,41.9354042 91.1143536,42.5579899 89.9929011,42.588587 C88.9632401,42.7083151 88.1743655,42.1628874 87.6289379,40.9509738 L87.1739714,39.405152 C86.8706604,38.6468746 86.2653688,38.3887942 85.3554358,38.6322411 C81.536112,39.8747519 77.7167881,41.0573987 73.8974643,42.1788512 C73.2908423,42.3903707 72.866473,42.6338176 72.6243563,42.9065315 C72.4115065,43.2085121 72.2452176,43.3761314 72.1241593,43.4067285 C71.9725038,43.4067285 71.6239622,42.951762 71.0785346,42.0431594 L70.4413154,40.2232935 C70.1991988,39.1324382 70.5623738,38.5564134 71.533501,38.4965494 C72.1081955,38.4353551 72.7294509,38.4193913 73.3972672,38.4499885 C74.1249475,38.4193913 74.7914335,37.9497914 75.3980555,37.0411888 C76.7922218,34.5854341 77.8378465,32.008621 78.5349296,29.3107496 L78.5349296,29.3107496 Z M82.7639893,1.21058331 C83.4610725,0.271383512 84.2486168,-0.031927472 85.1279526,0.301980673 C86.1589439,0.605291657 87.2657629,1.1507193 88.4470793,1.93826361 C88.8408515,2.48369126 88.629332,2.84819657 87.8111905,3.02911891 C87.5677436,2.99985206 87.2045686,3.13554381 86.7203352,3.4388548 C83.1125309,6.16732334 79.0191629,8.06168668 74.4428919,9.12194482 C73.532959,9.27493062 73.0181285,9.28956405 72.8970702,9.16850571 C72.9569342,8.71353924 73.2150146,8.50201974 73.6699811,8.53128658 C77.2458579,6.80321216 80.2776374,4.36342118 82.7639893,1.21058331 L82.7639893,1.21058331 Z M86.9012576,12.2601493 C87.5983407,11.4114106 88.4018488,11.1985608 89.3117817,11.6229301 C90.2815787,12.0486298 91.2513756,12.5780937 92.2211726,13.2153128 C92.8277946,13.9722599 92.6601753,14.3819958 91.7209755,14.4418598 C91.509456,14.4418598 91.0997201,14.5948456 90.4930982,14.8968263 C86.0671524,17.959203 81.2181676,20.0504524 75.9434831,21.1719049 C74.6703752,21.3541575 74.139581,21.3089269 74.3524308,21.0348828 C74.5333531,20.8539605 74.8220307,20.6876716 75.2158028,20.5346858 C79.6417486,18.869136 83.5369002,16.1100703 86.9012576,12.2601493 L86.9012576,12.2601493 Z M84.2193499,21.4898493 C84.8246416,21.06548 85.4764941,20.9750188 86.1735773,21.2171355 C87.0835102,21.7931603 87.5531101,22.172299 87.5837073,22.3545517 C87.462649,22.9904405 86.9930491,23.4454069 86.1735773,23.7181208 C86.112383,23.8697763 86.2946356,24.4005705 86.7203352,25.3091731 C88.2355598,27.2500974 89.9929011,28.3555861 91.9936894,28.6296302 C92.5404473,28.6588971 93.085875,28.7959191 93.6313026,29.0380358 C93.6911666,29.1590941 93.2973945,29.6446578 92.4486558,30.4933964 C92.0548837,31.1000184 91.7209755,31.7518709 91.4482617,32.4489541 C91.2367422,33.4493482 90.5542925,33.6462343 89.4022429,33.0396123 C86.856027,30.97896 85.2942415,28.0083748 84.719547,24.1278567 C84.6583527,23.7939485 84.5825249,23.5518319 84.4920638,23.4001764 C84.3696751,23.1886569 83.8854418,23.1274625 83.0367032,23.2179237 C82.946242,23.279118 82.8092199,23.2937515 82.6269673,23.2631543 C81.5055148,23.4454069 80.8536623,23.2032903 80.6727399,22.535474 C80.5503513,21.9301823 81.0053177,21.6428351 82.036309,21.6721019 C82.2185617,21.7332963 82.399484,21.7479297 82.5817367,21.7173325 C83.3998781,21.809124 83.9466361,21.7332963 84.2193499,21.4898493 L84.2193499,21.4898493 Z" id="Fill-31" sketch:type="MSShapeGroup"></path>
            <path d="M135.460282,2.48369126 C136.52054,1.08952498 137.278817,0.195555766 137.733784,-0.198216389 C138.279212,-0.25941071 139.12795,0.226152927 140.28,1.2558139 C141.73536,2.43846068 142.582769,3.50004912 142.826216,4.43924892 C142.705157,4.62150157 142.158399,4.71196274 141.188602,4.71196274 L125.683824,4.71196274 C124.956144,4.71196274 124.320255,5.16692922 123.774827,6.07553186 C122.834297,7.80360628 121.667614,9.4718167 120.273448,11.0775025 C119.545767,11.9874354 119.545767,12.4410716 120.273448,12.4410716 L133.367702,12.4410716 C134.277635,12.8055769 135.187568,12.2601493 136.096171,10.8047887 C136.52054,10.199497 137.127162,10.1383027 137.914706,10.622536 C140.128344,11.3209495 141.553108,12.3213436 142.188997,13.6237184 C142.037341,14.0188208 141.582375,14.3673624 140.825428,14.6693431 C140.673772,14.8223289 140.597944,15.2453679 140.597944,15.942451 L140.597944,39.7230964 C140.597944,40.6330294 140.552714,41.2236876 140.460922,41.4964014 C139.491125,42.6484511 138.218017,43.0129564 136.641598,42.588587 C135.854054,42.2852761 135.565376,41.6174598 135.778226,40.5877988 C135.778226,39.708463 135.415051,39.2694603 134.687371,39.2694603 L109.906331,39.2694603 C109.148054,39.2694603 108.768915,39.6326353 108.768915,40.3603156 C109.041629,42.08839 108.36051,43.0887841 106.722896,43.3614979 C104.691511,43.7858672 103.766945,42.9357983 103.949197,40.815282 L103.949197,12.1683578 C103.949197,11.2597551 104.010392,10.7901552 104.13145,10.7595581 C104.676878,10.7901552 105.222305,10.925847 105.767733,11.169294 L107.587599,11.8956439 C108.40574,12.2601493 109.102823,12.4410716 109.678848,12.4410716 L116.772068,12.4410716 C117.499749,12.4410716 117.954715,11.9874354 118.135637,11.0775025 C118.408351,9.32016121 118.621201,7.56148962 118.772857,5.80281804 C118.832721,5.07513774 118.500143,4.71196274 117.772462,4.71196274 L104.949591,4.71196274 L103.449,4.98467657 C102.448606,5.1057349 101.872581,4.90884882 101.720926,4.39401834 L101.494773,3.34839363 C101.554637,3.2273353 102.040201,3.21137156 102.948803,3.30183273 C103.524828,3.33242989 104.146083,3.40958795 104.8139,3.52931597 L133.459494,3.52931597 C134.216441,3.52931597 134.884257,3.18210471 135.460282,2.48369126 L135.460282,2.48369126 Z M114.408105,14.8063651 C114.408105,14.0188208 114.058233,13.6237184 113.36115,13.6237184 C111.90712,13.5944515 110.435795,13.6090849 108.951168,13.668949 C108.83011,13.7607404 108.768915,14.169146 108.768915,14.8968263 L108.768915,36.9041667 C108.768915,37.6611139 109.133421,38.0415829 109.861101,38.0415829 L113.270689,38.0415829 C114.027636,38.0415829 114.408105,37.6770776 114.408105,36.9493973 L114.408105,14.8063651 L114.408105,14.8063651 Z M125.501571,14.8063651 C125.501571,14.0188208 125.15303,13.6237184 124.455947,13.6237184 L120.181656,13.6237184 C119.424709,13.6237184 119.04557,13.9882237 119.04557,14.7145737 L119.04557,19.4438305 C119.04557,20.2021079 119.408745,20.5812466 120.136426,20.5812466 L124.365485,20.5812466 C125.122433,20.5812466 125.501571,20.2167413 125.501571,19.489061 L125.501571,14.8063651 L125.501571,14.8063651 Z M125.501571,22.9904405 C125.501571,22.2028962 125.15303,21.809124 124.455947,21.809124 L120.181656,21.809124 C119.424709,21.809124 119.04557,22.172299 119.04557,22.8999793 L119.04557,28.1746637 C119.04557,28.9316109 119.408745,29.3107496 120.136426,29.3107496 L124.365485,29.3107496 C125.122433,29.3107496 125.501571,28.9475746 125.501571,28.2198943 L125.501571,22.9904405 L125.501571,22.9904405 Z M125.501571,31.6747129 C125.501571,30.9177657 125.138396,30.538627 124.410716,30.538627 L120.181656,30.538627 C119.424709,30.538627 119.04557,30.901802 119.04557,31.6294823 L119.04557,36.9041667 C119.04557,37.6611139 119.408745,38.0415829 120.136426,38.0415829 L124.365485,38.0415829 C125.122433,38.0415829 125.501571,37.6770776 125.501571,36.9493973 L125.501571,31.6747129 L125.501571,31.6747129 Z M135.687765,13.805971 C135.565376,13.6849127 135.171604,13.6237184 134.505118,13.6237184 L131.276453,13.6237184 C130.518175,13.6237184 130.140367,13.9882237 130.140367,14.7145737 L130.140367,36.9041667 C130.140367,37.6611139 130.503542,38.0415829 131.231222,38.0415829 L134.64081,38.0415829 C135.399088,38.0415829 135.778226,37.6770776 135.778226,36.9493973 L135.778226,14.9886178 C135.778226,14.2609375 135.747629,13.8671653 135.687765,13.805971 L135.687765,13.805971 Z" id="Fill-32" sketch:type="MSShapeGroup"></path>
            <path d="M160.510044,1.2558139 C161.297589,0.347211258 161.783152,-0.107755218 161.965405,-0.107755218 C164.056654,0.650522242 165.738168,1.72674411 167.012606,3.12091039 C167.224126,3.60514372 166.951412,4.02951303 166.193134,4.39401834 C165.131546,4.81838765 164.739104,5.50083737 165.011818,6.44003717 L165.011818,39.3599214 C164.920026,41.4511709 163.616321,42.8160703 161.100703,43.4519591 C159.948653,43.5424203 159.357995,43.1034175 159.327398,42.1336206 C159.236936,41.1624933 158.433428,40.2698544 156.918204,39.4503826 L156.781182,39.0872076 C156.781182,38.964819 157.236148,38.7985301 158.144751,38.5870106 C159.964617,38.5258162 160.70693,37.7382719 160.373022,36.221717 L160.373022,27.129039 C160.373022,26.3707616 160.009847,25.9916228 159.282167,25.9916228 L158.009059,25.9916228 C157.281379,25.9916228 156.871643,26.4465893 156.781182,27.355192 C156.477871,32.9025902 154.917415,37.9045608 152.098486,42.3611038 C151.400072,43.3003036 150.991667,43.7858672 150.870608,43.8151341 C150.717623,43.7552701 150.688356,43.2697064 150.778817,42.3611038 C151.840405,36.0554281 152.3712,28.6588971 152.3712,20.1715108 L152.3712,1.48329714 C152.3712,0.482903014 152.961858,0.210189191 154.144505,0.665155667 C154.749796,0.93786949 155.356418,1.2558139 155.96304,1.6203192 C156.629526,2.22694117 157.796209,2.40786351 159.46442,2.16574685 C159.737133,2.16574685 160.084345,1.86243587 160.510044,1.2558139 L160.510044,1.2558139 Z M160.373022,16.1247037 C160.373022,15.3065622 160.039114,14.8968263 159.372628,14.8968263 L158.144751,14.8968263 C157.387804,14.8968263 157.008665,15.2613316 157.008665,15.9890119 L157.008665,21.1266743 L156.963434,23.4001764 C156.932837,24.3393762 157.281379,24.8089761 158.009059,24.8089761 L159.236936,24.8089761 C159.993884,24.8089761 160.373022,24.4458011 160.373022,23.7181208 L160.373022,16.1247037 L160.373022,16.1247037 Z M160.23733,3.57587687 C160.114942,3.48408538 159.691903,3.4388548 158.964223,3.4388548 L158.09952,3.4388548 C157.37184,3.59051029 157.008665,4.02951303 157.008665,4.75719333 L157.008665,12.5328631 C157.008665,13.2911405 157.37184,13.668949 158.09952,13.668949 L159.236936,13.668949 C159.993884,13.668949 160.373022,13.305774 160.373022,12.5780937 L160.373022,4.8476545 C160.373022,4.12130451 160.327792,3.6969352 160.23733,3.57587687 L160.23733,3.57587687 Z M176.379328,27.3099614 C176.379328,26.3401644 176.863562,25.8705645 177.833359,25.9011617 C179.772952,26.02222 181.107255,26.2044727 181.834935,26.4465893 C182.653076,26.7804975 182.683674,27.2354639 181.925396,27.8101584 C181.47176,28.0828723 181.199046,28.5830693 181.107255,29.3107496 C181.016794,30.0690271 181.334738,30.4481658 182.062418,30.4481658 L184.563404,30.4481658 C185.291084,30.4481658 185.95757,30.0836605 186.564192,29.3559802 C186.89677,28.8717469 187.291872,28.3715498 187.745508,27.855389 C188.473189,26.4625531 189.337891,26.2949338 190.338285,27.355192 C191.095232,27.8407556 191.989201,28.6442636 193.020193,29.7657161 C193.657412,30.8565714 193.854298,31.4485599 193.612181,31.5390211 C193.489793,31.6002154 192.974962,31.6294823 192.066359,31.6294823 L182.152879,31.6294823 C181.395932,31.6294823 181.304141,32.1004125 181.880166,33.0396123 C185.154062,37.0704556 189.170272,38.7532995 193.930126,38.0868135 C194.475553,38.0562163 194.793498,38.2225052 194.885289,38.5870106 C194.854692,38.738666 194.385092,39.0113799 193.475159,39.405152 C192.292512,39.8601185 191.232254,40.875146 190.293054,42.451565 C189.897952,43.3614979 189.625238,43.8310978 189.473583,43.861695 C185.260487,42.3757372 182.335132,39.4503826 180.698849,35.0856311 C180.485999,34.2062953 180.334344,33.7978898 180.243883,33.8577538 C180.121494,33.9788121 179.985802,34.2674897 179.834147,34.7224561 C178.954811,37.3884 177.060448,39.5714409 174.151057,41.2689182 C171.543647,42.6338176 168.815178,43.4519591 165.965651,43.7246729 C164.784335,43.8151341 164.161749,43.7699035 164.101885,43.5889812 C164.101885,43.4359954 164.602082,43.1792453 165.602476,42.8160703 C168.452003,41.9660013 170.937025,40.4507767 173.058871,38.2690661 C174.301382,36.6913169 175.196681,34.888745 175.742109,32.8573596 C175.953629,32.0392182 175.711512,31.6294823 175.014429,31.6294823 L169.467031,31.6294823 L168.01167,31.8569655 C167.041873,32.008621 166.451215,31.7971015 166.238365,31.2210767 C166.057443,30.4627992 166.512409,30.1288911 167.603264,30.2206826 C168.148692,30.2512797 168.73935,30.3271075 169.376569,30.4481658 L175.059659,30.4481658 C175.78734,30.4481658 176.211709,29.9931993 176.332767,29.0832664 L176.379328,27.3099614 L176.379328,27.3099614 Z M172.195499,0.983100076 C172.195499,0.0133031133 172.665099,-0.441663363 173.605629,-0.380469042 C174.606023,-0.25941071 175.651648,-0.091791482 176.742503,0.11972802 C177.015217,0.180922341 177.302564,0.286016937 177.605875,0.437672429 C177.878589,0.710386252 177.849322,1.08952498 177.515414,1.57508862 C177.060448,2.15111343 176.832964,2.83223283 176.832964,3.62110745 C176.832964,4.50044324 177.19747,4.93944598 177.92515,4.93944598 L180.106861,4.93944598 C180.865138,4.93944598 181.244277,4.57494068 181.244277,3.84859069 L181.244277,1.12012214 C181.244277,0.150325181 181.713877,-0.290007871 182.653076,-0.198216389 C184.774923,-0.0172940473 186.230284,0.361844683 187.019158,0.93786949 C187.048425,1.08952498 186.866172,1.39283597 186.4724,1.84780244 C186.078628,2.36263293 185.881742,2.98388832 185.881742,3.71156862 C185.881742,4.52971009 186.109225,4.93944598 186.564192,4.93944598 C187.138886,5.1522958 187.609816,4.8942154 187.972991,4.1665351 C188.3069,3.55991313 188.700672,2.95462147 189.155638,2.3479995 C189.580008,1.86243587 189.867355,1.58972204 190.01901,1.52852772 C191.535565,2.40786351 192.747479,3.71156862 193.657412,5.43964304 C193.475159,6.16732334 192.868537,6.40944001 191.838876,6.16732334 L187.019158,6.16732334 C186.260881,6.16732334 185.881742,6.62095951 185.881742,7.53089246 C186.154456,9.8948557 185.092867,10.8207524 182.698307,10.3045916 C181.425199,10.0318778 180.940966,9.15254198 181.244277,7.66791453 C181.244277,6.66752041 180.879771,6.16732334 180.152091,6.16732334 L177.970381,6.16732334 C177.212103,6.16732334 176.832964,6.62095951 176.832964,7.53089246 C177.105678,9.8948557 176.04542,10.8207524 173.65086,10.3045916 C172.377752,10.0318778 171.892188,9.16850571 172.195499,7.71314511 C172.195499,6.68215383 171.832324,6.16732334 171.104644,6.16732334 C170.376963,6.16732334 169.042661,6.3030151 167.103067,6.57572892 C166.982009,6.48526775 166.875584,6.18195677 166.785123,5.66712628 C166.662734,5.0006403 167.103067,4.69732932 168.103461,4.75719333 L171.058083,4.93944598 C171.81636,4.93944598 172.195499,4.57494068 172.195499,3.84859069 L172.195499,0.983100076 L172.195499,0.983100076 Z M168.558428,11.7147216 C168.558428,10.6837303 169.012064,10.2899582 169.921997,10.5320748 C170.678944,10.7449246 171.437222,11.0176385 172.195499,11.3502163 C172.861985,11.6841244 173.544435,11.8504134 174.241518,11.8504134 L184.063206,11.8504134 C184.790887,11.8504134 185.442739,11.5936633 186.018764,11.0775025 C186.564192,10.5014777 187.291872,10.3804193 188.200475,10.7143275 C190.170666,11.5630661 191.413177,12.4118047 191.929337,13.2605434 C191.868143,13.6237184 191.443774,14.0028571 190.656229,14.3966293 C190.565768,14.5788819 190.519207,15.0338484 190.519207,15.7615287 L190.519207,23.4001764 C190.822518,24.855537 190.338285,25.7641396 189.065177,26.1286449 C187.548622,26.6128782 186.518961,26.385395 185.972203,25.4461952 C185.881742,25.2040785 185.472006,25.0816899 184.745656,25.0816899 L174.331979,25.0816899 C173.605629,25.0816899 173.210527,25.2493091 173.150663,25.581887 C172.907216,26.4918199 172.301924,26.992017 171.332127,27.0824781 C169.4218,27.5680418 168.497234,27.0372476 168.558428,25.4914258 L168.558428,11.7147216 L168.558428,11.7147216 Z M185.836511,14.2609375 C185.836511,13.4720629 185.442739,13.0782907 184.653865,13.0782907 L174.741715,13.0782907 C173.43801,12.7749797 172.923179,13.1993491 173.195893,14.3513987 L173.195893,16.9428451 C173.195893,17.7011226 173.559068,18.0802613 174.286748,18.0802613 L184.699095,18.0802613 C185.457373,18.0802613 185.836511,17.715756 185.836511,16.9880757 L185.836511,14.2609375 L185.836511,14.2609375 Z M185.836511,20.4442246 C185.836511,19.6566803 185.48797,19.2615778 184.790887,19.2615778 L174.331979,19.2615778 C173.575032,19.2615778 173.195893,19.6260831 173.195893,20.3537634 L173.195893,22.7629572 C173.195893,23.5212347 173.559068,23.9003734 174.286748,23.9003734 L184.699095,23.9003734 C185.457373,23.9003734 185.836511,23.5358681 185.836511,22.8095181 L185.836511,20.4442246 L185.836511,20.4442246 Z" id="Fill-33" sketch:type="MSShapeGroup"></path>
        </g>
    </g>
</svg>