<?xml version="1.0" encoding="UTF-8" standalone="no"?>
<svg width="196px" height="47px" viewBox="0 0 196 47" version="1.1" xmlns="http://www.w3.org/2000/svg" xmlns:xlink="http://www.w3.org/1999/xlink" xmlns:sketch="http://www.bohemiancoding.com/sketch/ns">
    <!-- Generator: Sketch 3.0.4 (8053) - http://www.bohemiancoding.com/sketch -->
    <title>h3_mask_red_white</title>
    <desc>Created with Sketch.</desc>
    <defs></defs>
    <g id="Page-1" stroke="none" stroke-width="1" fill="none" fill-rule="evenodd" sketch:type="MSPage">
        <g id="h1_mask_red-white" sketch:type="MSLayerGroup" transform="translate(0.330311, 0.253848)" fill="#FFFFFF">
            <path d="M12.4264382,8.72551204 C12.759016,7.69452076 13.3816017,7.37657635 14.2902043,7.7703485 C16.4426481,8.80133979 17.8674115,9.72457585 18.5644947,10.5440476 C18.5950918,10.9990141 18.3370114,11.2105336 17.7915838,11.1799365 C17.4284088,11.0588781 17.0186729,11.3621891 16.5637064,12.0898694 C15.2600013,14.1811188 13.1833853,16.6368735 10.3351888,19.4558033 C9.4252558,20.3045419 9.45452265,20.6996444 10.4256499,20.63845 L14.472457,20.3191753 C15.2294042,20.2593113 15.4276205,19.7737477 15.0631152,18.865145 C14.7598043,18.198659 14.3819958,17.5162093 13.9270294,16.8191262 C14.0786848,16.5158152 14.4112627,16.4705846 14.9274235,16.6821041 C16.2005314,17.1370706 17.3672145,17.7889232 18.4288029,18.6376618 C20.9444216,20.9723582 21.4752159,23.1234716 20.0198553,25.0936627 C19.6859471,25.5792263 19.2469444,25.8373067 18.7015167,25.8665736 C17.0639035,26.1100206 16.1699343,25.2160513 16.0182788,23.1846659 L15.9278176,22.4569856 C15.805429,21.7293053 15.3358291,21.5177858 14.5176876,21.8197665 C13.668949,22.1536746 13.2445796,22.6844689 13.2445796,23.4121492 L13.2445796,42.0990325 C13.5784878,43.3428736 13.1235213,44.2820734 11.8810105,44.9192925 C10.9098832,45.2212732 10.0012806,45.1760426 9.15254198,44.7822704 C8.27320619,44.2661096 7.95526178,43.3881042 8.19737844,42.1455934 L8.19737844,31.3235107 C8.19737844,30.5958304 8.13618412,30.2166916 8.01512579,30.1860945 C7.5002953,30.2472888 7.18102058,30.6862915 7.06129256,31.5057633 C5.90791263,34.8395235 4.22639911,37.8713031 2.01409136,40.5997716 C0.770250262,41.7810881 0.286016937,41.8422824 0.55873076,40.7806939 C1.61898889,37.7489144 2.31607203,33.8856903 2.64998018,29.1857004 C2.83223283,28.2770977 3.37766048,27.8673618 4.28759343,27.9591533 C5.22679323,28.1108088 6.16599303,28.3223283 7.10652315,28.5950421 C7.83420345,28.7772948 8.19737844,28.504581 8.19737844,27.7769007 L8.19737844,25.0936627 C8.19737844,24.3659824 7.74241196,24.1092323 6.83380932,24.3207518 C6.07553186,24.4724073 5.01527373,24.8209489 3.6503743,25.3663765 C3.31646616,25.6098235 3.11958008,25.7920761 3.05971607,25.9118042 C2.93865774,26.3375038 2.69521076,26.4731955 2.33203577,26.3215401 C1.66554979,25.7468456 1.05892782,24.4577739 0.513500175,22.4569856 C0.361844683,21.5470527 0.361844683,21.0175888 0.513500175,20.8659333 L5.24142666,20.8659333 C6.03030128,20.8659333 6.66619009,20.5320251 7.15175373,19.8655391 C9.27360031,16.6222401 11.0322719,12.9080109 12.4264382,8.72551204 L12.4264382,8.72551204 Z M7.46969814,2.63268613 C7.77300912,1.41944219 8.37963109,0.904611707 9.28823373,1.08553405 C10.319225,1.41944219 11.3502163,1.81321435 12.3812076,2.26818082 C13.4414657,2.75374446 13.5319269,3.29917211 12.6539214,3.90446377 C12.1377606,3.84459976 11.6987579,4.20910506 11.3355829,4.99664937 C10.3351888,6.39081565 9.27360031,7.61869301 8.15214785,8.67895114 C7.36327323,9.34676743 7.34863981,10.1050449 8.10691727,10.9524532 C9.10731139,12.2867555 9.33479463,13.6356912 8.78803667,14.9992603 C8.24260903,16.3947569 7.33400638,16.954818 6.06089844,16.6821041 C4.78779049,16.288332 4.1199742,15.4089962 4.06011019,14.0454271 C3.99891587,11.9235805 3.45348822,10.1050449 2.42249694,8.58848997 C1.75601096,7.67855702 1.45269998,7.14909311 1.5138943,6.99743762 C2.2415746,6.84578212 3.28719931,7.17835996 4.65076842,7.99783174 C5.37844872,8.42220106 5.92387637,8.14948723 6.28838168,7.17835996 C6.74201784,5.845388 7.13579,4.33016339 7.46969814,2.63268613 L7.46969814,2.63268613 Z M14.1997432,28.0043839 C14.3513987,27.8221312 14.8821929,27.9285561 15.7907955,28.3223283 C18.5192641,29.8388832 20.2925691,31.6574188 21.1107106,33.7792654 C21.5044827,34.8395235 21.4140215,35.9157454 20.8379967,37.0066007 C20.0491221,38.2185143 19.0194611,38.5989834 17.7463532,38.1440169 C16.8670174,37.7489144 16.3668203,36.9919673 16.245762,35.8705148 C16.3974175,33.7180711 16.0635094,31.74788 15.2453679,29.9599416 C14.4272264,28.8384891 14.0786848,28.1866365 14.1997432,28.0043839 L14.1997432,28.0043839 Z M35.9796003,5.13234113 C36.828339,4.07208299 37.3737666,3.54128877 37.6158833,3.54128877 C37.8885971,3.60248309 38.3289302,3.84459976 38.9355521,4.26896907 C40.3283881,5.26936319 41.4964014,6.34558506 42.4356012,7.49763468 C42.9823592,8.01246516 43.0568566,8.40623732 42.6630845,8.67895114 C42.5420261,8.74014546 42.0271957,8.77074262 41.1172627,8.77074262 L33.3429233,8.77074262 C32.5846458,8.77074262 32.2055071,9.13391762 32.2055071,9.86159792 L32.2055071,39.7350692 C32.2055071,40.4920164 32.615243,40.8724854 33.4333844,40.8724854 L34.888745,40.8259245 C35.3729784,40.4920164 35.8119811,39.9771859 36.2070836,39.2801028 C36.6314529,38.6734808 37.1010528,38.0681891 37.6158833,37.4615672 C38.2225052,36.5223674 38.964819,36.5529645 39.8441548,37.5533586 C40.9057432,38.3103058 41.9207708,39.204275 42.8905677,40.2352663 C43.5277868,41.1744661 43.8005007,41.7198937 43.7087092,41.8728795 C43.5277868,41.9926076 42.9823592,42.0538019 42.0724262,42.0538019 L17.882045,42.0538019 L16.4280147,42.3265157 C15.4276205,42.4183072 14.835632,42.190824 14.6547097,41.6453963 C14.472457,40.8871188 14.9274235,40.5532107 16.0182788,40.6450022 C16.5943036,40.674269 17.1703284,40.7500968 17.7463532,40.8724854 L26.02222,40.8724854 C26.7791672,40.8724854 27.1583059,40.5079801 27.1583059,39.7802998 L27.1583059,9.9068285 C27.1583059,9.14988135 26.7951309,8.77074262 26.0674506,8.77074262 C23.5810987,8.67895114 21.8224271,8.77074262 20.7927661,9.04345645 C19.8216389,9.16451478 19.2309806,8.93703154 19.0194611,8.36100673 C18.8372085,7.60405958 19.2615778,7.27015144 20.2925691,7.36061261 C20.8685939,7.39120977 21.4898493,7.46703752 22.1563353,7.58809585 L32.6604736,7.58809585 C33.7513289,7.92200399 34.6160312,7.4058432 35.25192,6.04227408 L35.9796003,5.13234113 L35.9796003,5.13234113 Z" id="Fill-26" sketch:type="MSShapeGroup"></path>
            <path d="M67.7594078,14.9992603 C68.0613885,14.3633715 68.4258938,14.151852 68.8502631,14.3633715 C69.9717155,15.2719741 70.729993,16.0608487 71.1237652,16.7273347 C71.6691928,17.2727624 71.9259429,17.81819 71.896676,18.364948 C71.8062149,18.6376618 71.2900541,18.7733535 70.3508543,18.7733535 L57.1648083,18.7733535 C56.4663949,18.7733535 56.1191836,19.1830894 56.1191836,20.0012309 C56.2096448,26.4585621 55.8917004,31.5363605 55.1640201,35.2332957 C54.6784564,38.3262695 53.5264068,41.0534078 51.7078712,43.4187013 C50.6170159,44.3579011 50.0556246,44.7210761 50.0263577,44.5095566 C50.7527077,40.0530136 51.177077,33.4147601 51.2994657,24.5934656 L51.2994657,16.9095874 C51.3287325,15.9091932 51.8448933,15.5912488 52.8452874,15.9544238 C53.9055456,16.3495263 55.0123646,16.8031625 56.1644142,17.3193233 C56.5581864,17.5002456 57.1195777,17.5920371 57.8459277,17.5920371 L64.7129948,17.5920371 C65.469942,17.5920371 66.1829889,17.1530343 66.8494748,16.2723682 L67.7594078,14.9992603 L67.7594078,14.9992603 Z M58.9833439,1.995467 C58.9833439,0.965806028 59.3930798,0.465608967 60.2112213,0.494875816 C62.6057817,0.585336987 64.2872952,0.935208868 65.2584225,1.54050052 C65.6215975,2.17771965 65.2584225,2.69255014 64.1662369,3.08632229 C64.0757757,3.84459976 64.0451786,4.60287722 64.0757757,5.35982436 C64.0757757,6.11810182 64.2872952,6.49724056 64.7129948,6.49724056 C65.2876893,6.70876006 65.7426558,6.43604623 66.076564,5.67909908 C66.5607973,4.8596273 67.1527858,4.02685241 67.849869,3.17811378 C68.0919856,3.05705545 68.6520467,3.32976927 69.5327128,3.99625525 C70.4413154,4.87559104 71.1689957,5.83075458 71.7144234,6.86041555 C71.7144234,7.67855702 71.1237652,7.95127084 69.9411184,7.67855702 L54.4363398,7.67855702 C53.9507761,7.70915418 53.4505791,7.78498193 52.9357486,7.90604026 C51.9353545,8.0284289 51.3593297,7.81557909 51.2076742,7.27015144 C51.0560187,6.54247114 51.4963517,6.208563 52.5260127,6.26975732 C53.7392566,6.51320429 55.5125617,6.58770173 57.8459277,6.49724056 C58.6042052,6.49724056 58.9833439,6.13273525 58.9833439,5.40505495 L58.9833439,1.995467 L58.9833439,1.995467 Z M63.4851175,9.54365351 C64.3937201,8.54325939 65.2730559,8.27054556 66.1217945,8.72551204 C67.6370192,9.51305635 68.6068161,10.1795423 69.0325157,10.7263003 C69.1229769,11.0588781 68.9260908,11.2863614 68.4405272,11.4074197 C68.1372162,11.3781528 67.7594078,11.468614 67.3044413,11.6801335 L66.7124528,11.9980779 C66.0153696,12.3625832 65.8796779,12.8175497 66.3040472,13.3629773 C66.7882805,13.908405 66.9705332,14.4538326 66.8494748,14.9992603 C66.1523917,17.1224372 64.7276283,17.1982649 62.5751845,15.2267435 C61.8169071,14.6214519 60.9987656,14.4538326 60.1194298,14.7265465 C58.7864578,15.0910518 57.4521556,15.3943628 56.1191836,15.6364794 C54.8460757,15.7881349 54.2687206,15.7575378 54.3911092,15.5446879 C54.5121675,15.3637656 55.0575952,15.075088 56.0273921,14.6813159 C56.8455336,14.3181409 57.6650054,13.8937716 58.4831469,13.4082079 C59.18023,12.9838386 59.0285745,12.4836416 58.0281804,11.9076168 C56.8761308,11.2717279 55.7094477,10.5746448 54.526801,9.81636733 C54.4962038,9.66471184 54.9365368,9.5888841 55.8464698,9.5888841 C57.5732139,9.86159792 59.3012883,10.1955061 61.0293628,10.5892782 C61.6958487,10.802128 62.5139902,10.4522562 63.4851175,9.54365351 L63.4851175,9.54365351 Z M66.076564,34.2794625 C66.6219916,33.4001267 67.486694,33.2631046 68.6680104,33.8697266 C70.3654877,34.7490624 71.4723067,35.5672038 71.9871372,36.3254813 C72.0789287,36.9613701 71.5787316,37.2487174 70.486546,37.1888533 C70.183235,37.2487174 69.8799241,37.4163366 69.5779434,37.6890504 C65.8490807,40.5385773 61.4537321,42.4928046 56.3918974,43.5543931 C55.4819645,43.7366457 54.9511703,43.7965097 54.7995148,43.7366457 C54.7689176,43.5849902 55.2092507,43.2657155 56.1191836,42.7814822 C60.150027,40.7194996 63.4691537,37.8859365 66.076564,34.2794625 L66.076564,34.2794625 Z M65.3941142,27.231473 C65.8184836,26.2922732 66.6060279,26.0488262 67.7594078,26.5037927 C69.3052296,27.2008758 70.3801211,27.897959 70.9867431,28.5950421 C71.0173403,29.2322613 70.6993958,29.5196085 70.0329099,29.4584142 C69.6072102,29.4291473 69.0777463,29.7018612 68.4405272,30.277886 C65.713389,32.4303297 62.3929319,33.9907849 58.4831469,34.9605819 C57.5732139,35.1734317 57.0583834,35.2040288 56.9373251,35.0523733 C57.0277863,34.8701207 57.5279833,34.5215791 58.4379163,34.0067486 C60.9229378,32.6418492 63.2416705,30.3843109 65.3941142,27.231473 L65.3941142,27.231473 Z M63.8935231,20.8659333 C64.3790867,19.9254032 65.1825947,19.6832865 66.3040472,20.138253 C68.0613885,20.8952001 69.1522438,21.5922833 69.5779434,22.2295024 C69.5779434,22.8653912 69.2746324,23.1394353 68.6680104,23.0476439 C68.2436411,23.1088382 67.7288106,23.381552 67.1221887,23.8657853 C64.6970311,25.5938598 61.9685626,26.7924703 58.9381133,27.4589562 C57.7860637,27.7316701 57.1940752,27.8074978 57.1648083,27.6851092 C57.1342112,27.5653812 57.6650054,27.1250481 58.7558607,26.3667706 C60.8165129,25.0032015 62.5299539,23.1700325 63.8935231,20.8659333 L63.8935231,20.8659333 Z M76.8534161,37.9165336 C77.5199021,37.0066007 78.4138713,36.8855424 79.5353237,37.5533586 C80.566315,38.1586503 81.4749176,38.8251363 82.2637923,39.5528166 C83.0513366,40.3722884 82.8704142,40.8259245 81.7183646,40.917716 C80.9906843,40.8871188 80.1419457,41.2356604 79.1721487,41.9633407 C76.2308304,43.5690265 73.169784,44.52419 69.986349,44.827501 C69.0777463,44.9192925 68.5469521,44.9033288 68.3952966,44.7822704 C68.3341023,44.6000178 68.9260908,44.2208791 70.1686016,43.6461846 C72.503298,42.5845961 74.7302392,40.674269 76.8534161,37.9165336 L76.8534161,37.9165336 Z M86.6737743,3.40559701 C87.2497991,2.55685838 88.02271,1.66288917 88.9938373,0.722359054 C90.7205814,1.2677867 92.4034253,2.73911104 94.0397082,5.13234113 C93.7975915,5.67909908 93.1909696,5.86002143 92.2211726,5.67909908 L86.9930491,5.67909908 C86.2653688,5.67909908 85.5975525,6.13273525 84.9922608,7.0426682 C84.0517307,8.46743164 83.0513366,9.65007842 81.9910784,10.5892782 C81.172937,11.2557642 81.1423398,11.5896723 81.9006173,11.5896723 C83.2029921,11.6202695 84.5066972,11.5896723 85.8104023,11.4992112 C85.9620578,11.468614 86.189541,11.2863614 86.492852,10.9524532 C87.4320518,9.86159792 87.9774794,9.31617027 88.1291349,9.31617027 C89.3716457,9.61948126 90.5689259,10.1050449 91.7209755,10.7715309 C93.0552778,11.5298083 93.7217638,12.2255612 93.7217638,12.8627803 C93.6007055,13.1062273 93.3426251,13.3177468 92.9488529,13.4986691 C92.1599783,13.6516549 91.872631,14.2263494 92.0854808,15.2267435 L92.0854808,33.4599907 C92.2970003,34.490982 92.0242865,35.3556843 91.2673394,36.0527675 C90.1751538,36.6287923 89.0842985,36.7791174 87.9934432,36.5064036 C87.2351657,36.2336898 86.915891,35.6736287 87.0382796,34.8248901 C87.0382796,34.3087293 86.6737743,34.0519792 85.946094,34.0519792 L79.399632,34.0519792 C78.6719517,34.0519792 78.186388,34.5056154 77.9442714,35.4155483 C77.3682466,36.4771368 76.3824859,36.9307729 74.9883196,36.7791174 C73.532959,36.6593894 72.9423008,35.7494565 73.2150146,34.0519792 L73.2150146,11.1347059 C73.2150146,10.1955061 73.8216365,9.89219508 75.0335502,10.2247729 C75.6401721,10.4070256 76.2467941,10.6345088 76.8534161,10.9072226 C77.7314216,11.4233834 78.3832741,11.6508667 78.8076434,11.5896723 C79.2320127,11.5896723 79.5499571,11.1347059 79.762807,10.2247729 C79.9743265,9.07405361 80.1113485,7.92200399 80.1725429,6.76995438 C80.1725429,6.04227408 79.8080375,5.67909908 79.0803572,5.67909908 C76.6857968,5.5873076 74.9723558,5.67909908 73.9426949,5.95181291 C72.9423008,6.04227408 72.3516425,5.81479084 72.1693899,5.26936319 C71.9871372,4.51241604 72.42614,4.1785079 73.4877284,4.26896907 C74.033156,4.26896907 74.6251446,4.33016339 75.2610334,4.45122172 L84.6729861,4.45122172 C85.4312636,4.45122172 86.0977495,4.10268015 86.6737743,3.40559701 L86.6737743,3.40559701 Z M79.762807,12.7723191 L78.489699,12.8175497 C78.3380435,12.9080109 78.2622158,13.3177468 78.2622158,14.0454271 L78.2622158,17.5454762 C78.2622158,18.3037536 78.6267211,18.6828924 79.3530711,18.6828924 L85.9008635,18.6828924 C86.6591409,18.6828924 87.0382796,18.3197174 87.0382796,17.5920371 C87.0675465,16.044885 87.0382796,14.4844298 86.9464882,12.9080109 C86.8254298,12.8175497 86.4010605,12.7723191 85.6733802,12.7723191 L79.762807,12.7723191 L79.762807,12.7723191 Z M87.0382796,21.0920862 C87.0382796,20.2739447 86.7043715,19.8655391 86.0378855,19.8655391 L79.399632,19.8655391 C78.6413545,19.8655391 78.2622158,20.2287141 78.2622158,20.9563944 L78.2622158,24.5934656 C78.2622158,25.3517431 78.6267211,25.7308818 79.3530711,25.7308818 L85.9008635,25.7308818 C86.6591409,25.7308818 87.0382796,25.3663765 87.0382796,24.6386962 L87.0382796,21.0920862 L87.0382796,21.0920862 Z M87.0382796,28.1400756 C87.0382796,27.3525313 86.6897381,26.9587592 85.9926549,26.9587592 L79.399632,26.9587592 C78.6413545,26.9587592 78.2622158,27.3219342 78.2622158,28.0496145 L78.2622158,31.7332466 C78.2622158,32.4901937 78.6267211,32.8693324 79.3530711,32.8693324 L85.9008635,32.8693324 C86.6591409,32.8693324 87.0382796,32.5061574 87.0382796,31.7784771 L87.0382796,28.1400756 L87.0382796,28.1400756 Z M85.7651717,37.3258754 L86.6737743,37.2793145 C89.6749567,37.371106 92.0096531,38.5683862 93.6765332,40.8724854 C94.4042135,42.5699627 94.2977886,43.8577041 93.3585888,44.7370398 C91.812767,45.797298 90.5090619,45.4647201 89.4474735,43.7366457 C88.7503903,41.7664546 87.4466852,40.0995745 85.5376885,38.7346751 C84.5971583,38.2491115 84.112925,37.9311671 84.0823279,37.7795116 C84.112925,37.5679921 84.6729861,37.4163366 85.7651717,37.3258754 L85.7651717,37.3258754 Z" id="Fill-27" sketch:type="MSShapeGroup"></path>
            <path d="M135.460282,3.81400259 C136.52054,2.41983632 137.278817,1.5258671 137.733784,1.13209495 C138.279212,1.07090062 139.12795,1.55646426 140.28,2.58612523 C141.73536,3.76877201 142.582769,4.83036045 142.826216,5.76956026 C142.705157,5.95181291 142.158399,6.04227408 141.188602,6.04227408 L125.683824,6.04227408 C124.956144,6.04227408 124.320255,6.49724056 123.774827,7.4058432 C122.834297,9.13391762 121.667614,10.802128 120.273448,12.4078138 C119.545767,13.3177468 119.545767,13.7713829 120.273448,13.7713829 L133.367702,13.7713829 C134.277635,14.1358882 135.187568,13.5904606 136.096171,12.1351 C136.52054,11.5298083 137.127162,11.468614 137.914706,11.9528473 C140.128344,12.6512608 141.553108,13.6516549 142.188997,14.9540297 C142.037341,15.3491322 141.582375,15.6976737 140.825428,15.9996544 C140.673772,16.1526402 140.597944,16.5756792 140.597944,17.2727624 L140.597944,41.0534078 C140.597944,41.9633407 140.552714,42.553999 140.460922,42.8267128 C139.491125,43.9787624 138.218017,44.3419374 136.641598,43.9188984 C135.854054,43.6155874 135.565376,42.9477711 135.778226,41.9181101 C135.778226,41.0387743 135.415051,40.5997716 134.687371,40.5997716 L109.906331,40.5997716 C109.148054,40.5997716 108.768915,40.9629466 108.768915,41.6906269 C109.041629,43.4187013 108.36051,44.4190954 106.722896,44.6918093 C104.691511,45.1161786 103.766945,44.2661096 103.949197,42.1455934 L103.949197,13.4986691 C103.949197,12.5900665 104.010392,12.1204666 104.13145,12.0898694 C104.676878,12.1204666 105.222305,12.2561583 105.767733,12.4996053 L107.587599,13.2259553 C108.40574,13.5904606 109.102823,13.7713829 109.678848,13.7713829 L116.772068,13.7713829 C117.499749,13.7713829 117.954715,13.3177468 118.135637,12.4078138 C118.408351,10.6504725 118.621201,8.89180096 118.772857,7.13312937 C118.832721,6.40544907 118.500143,6.04227408 117.772462,6.04227408 L104.949591,6.04227408 L103.449,6.3149879 C102.448606,6.43604623 101.872581,6.23916016 101.720926,5.72432967 L101.494773,4.67870496 C101.554637,4.55764663 102.040201,4.54168289 102.948803,4.63214406 C103.524828,4.66274123 104.146083,4.73989928 104.8139,4.8596273 L133.459494,4.8596273 C134.216441,4.8596273 134.884257,4.51241604 135.460282,3.81400259 L135.460282,3.81400259 Z M114.408105,16.1366765 C114.408105,15.3491322 114.058233,14.9540297 113.36115,14.9540297 C111.90712,14.9247629 110.435795,14.9393963 108.951168,14.9992603 C108.83011,15.0910518 108.768915,15.4994574 108.768915,16.2271377 L108.768915,38.234478 C108.768915,38.9914252 109.133421,39.3718942 109.861101,39.3718942 L113.270689,39.3718942 C114.027636,39.3718942 114.408105,39.0073889 114.408105,38.2797086 L114.408105,16.1366765 L114.408105,16.1366765 Z M125.501571,16.1366765 C125.501571,15.3491322 125.15303,14.9540297 124.455947,14.9540297 L120.181656,14.9540297 C119.424709,14.9540297 119.04557,15.318535 119.04557,16.044885 L119.04557,20.7741418 C119.04557,21.5324193 119.408745,21.911558 120.136426,21.911558 L124.365485,21.911558 C125.122433,21.911558 125.501571,21.5470527 125.501571,20.8193724 L125.501571,16.1366765 L125.501571,16.1366765 Z M125.501571,24.3207518 C125.501571,23.5332075 125.15303,23.1394353 124.455947,23.1394353 L120.181656,23.1394353 C119.424709,23.1394353 119.04557,23.5026103 119.04557,24.2302906 L119.04557,29.5049751 C119.04557,30.2619222 119.408745,30.641061 120.136426,30.641061 L124.365485,30.641061 C125.122433,30.641061 125.501571,30.277886 125.501571,29.5502057 L125.501571,24.3207518 L125.501571,24.3207518 Z M125.501571,33.0050242 C125.501571,32.248077 125.138396,31.8689383 124.410716,31.8689383 L120.181656,31.8689383 C119.424709,31.8689383 119.04557,32.2321133 119.04557,32.9597936 L119.04557,38.234478 C119.04557,38.9914252 119.408745,39.3718942 120.136426,39.3718942 L124.365485,39.3718942 C125.122433,39.3718942 125.501571,39.0073889 125.501571,38.2797086 L125.501571,33.0050242 L125.501571,33.0050242 Z M135.687765,15.1362824 C135.565376,15.015224 135.171604,14.9540297 134.505118,14.9540297 L131.276453,14.9540297 C130.518175,14.9540297 130.140367,15.318535 130.140367,16.044885 L130.140367,38.234478 C130.140367,38.9914252 130.503542,39.3718942 131.231222,39.3718942 L134.64081,39.3718942 C135.399088,39.3718942 135.778226,39.0073889 135.778226,38.2797086 L135.778226,16.3189291 C135.778226,15.5912488 135.747629,15.1974767 135.687765,15.1362824 L135.687765,15.1362824 Z" id="Fill-28" sketch:type="MSShapeGroup"></path>
            <path d="M160.510044,2.58612523 C161.297589,1.67752259 161.783152,1.22255612 161.965405,1.22255612 C164.056654,1.98083358 165.738168,3.05705545 167.012606,4.45122172 C167.224126,4.93545505 166.951412,5.35982436 166.193134,5.72432967 C165.131546,6.14869899 164.739104,6.8311487 165.011818,7.7703485 L165.011818,40.6902328 C164.920026,42.7814822 163.616321,44.1463816 161.100703,44.7822704 C159.948653,44.8727316 159.357995,44.4337289 159.327398,43.4639319 C159.236936,42.4928046 158.433428,41.6001657 156.918204,40.7806939 L156.781182,40.4175189 C156.781182,40.2951303 157.236148,40.1288414 158.144751,39.9173219 C159.964617,39.8561276 160.70693,39.0685833 160.373022,37.5533586 L160.373022,28.4593504 C160.373022,27.7010729 160.009847,27.3219342 159.282167,27.3219342 L158.009059,27.3219342 C157.281379,27.3219342 156.871643,27.7769007 156.781182,28.6855033 C156.477871,34.2329016 154.917415,39.2348722 152.098486,43.6914151 C151.400072,44.6306149 150.991667,45.1161786 150.870608,45.1454454 C150.717623,45.0855814 150.688356,44.6000178 150.778817,43.6914151 C151.840405,37.3857394 152.3712,29.9892084 152.3712,21.5018221 L152.3712,2.81360847 C152.3712,1.81321435 152.961858,1.54050052 154.144505,1.995467 C154.749796,2.26818082 155.356418,2.58612523 155.96304,2.95063054 C156.629526,3.55725251 157.796209,3.73817485 159.46442,3.49605819 C159.737133,3.49605819 160.084345,3.1927472 160.510044,2.58612523 L160.510044,2.58612523 Z M160.373022,17.455015 C160.373022,16.6368735 160.039114,16.2271377 159.372628,16.2271377 L158.144751,16.2271377 C157.387804,16.2271377 157.008665,16.591643 157.008665,17.3193233 L157.008665,22.4569856 L156.963434,24.7304877 C156.932837,25.6696875 157.281379,26.1392874 158.009059,26.1392874 L159.236936,26.1392874 C159.993884,26.1392874 160.373022,25.7761124 160.373022,25.0484321 L160.373022,17.455015 L160.373022,17.455015 Z M160.23733,4.9061882 C160.114942,4.81439672 159.691903,4.76916613 158.964223,4.76916613 L158.09952,4.76916613 C157.37184,4.92082162 157.008665,5.35982436 157.008665,6.08750466 L157.008665,13.8631744 C157.008665,14.6214519 157.37184,14.9992603 158.09952,14.9992603 L159.236936,14.9992603 C159.993884,14.9992603 160.373022,14.6360853 160.373022,13.908405 L160.373022,6.17929615 C160.373022,5.45161585 160.327792,5.02724653 160.23733,4.9061882 L160.23733,4.9061882 Z M176.379328,28.6402727 C176.379328,27.6704757 176.863562,27.2008758 177.833359,27.231473 C179.772952,27.3525313 181.107255,27.534784 181.834935,27.7769007 C182.653076,28.1108088 182.683674,28.5657753 181.925396,29.1404698 C181.47176,29.4131836 181.199046,29.9133807 181.107255,30.641061 C181.016794,31.3993384 181.334738,31.7784771 182.062418,31.7784771 L184.563404,31.7784771 C185.291084,31.7784771 185.95757,31.4139718 186.564192,30.6862915 C186.89677,30.2020582 187.291872,29.7018612 187.745508,29.1857004 C188.473189,27.7928644 189.337891,27.6252452 190.338285,28.6855033 C191.095232,29.1710669 191.989201,29.974575 193.020193,31.0960274 C193.657412,32.1868827 193.854298,32.7788713 193.612181,32.8693324 C193.489793,32.9305268 192.974962,32.9597936 192.066359,32.9597936 L182.152879,32.9597936 C181.395932,32.9597936 181.304141,33.4307238 181.880166,34.3699236 C185.154062,38.400767 189.170272,40.0836108 193.930126,39.4171248 C194.475553,39.3865277 194.793498,39.5528166 194.885289,39.9173219 C194.854692,40.0689774 194.385092,40.3416912 193.475159,40.7354634 C192.292512,41.1904298 191.232254,42.2054574 190.293054,43.7818763 C189.897952,44.6918093 189.625238,45.1614092 189.473583,45.1920063 C185.260487,43.7060486 182.335132,40.7806939 180.698849,36.4159425 C180.485999,35.5366067 180.334344,35.1282011 180.243883,35.1880651 C180.121494,35.3091234 179.985802,35.597801 179.834147,36.0527675 C178.954811,38.7187114 177.060448,40.9017523 174.151057,42.5992295 C171.543647,43.964129 168.815178,44.7822704 165.965651,45.0549843 C164.784335,45.1454454 164.161749,45.1002148 164.101885,44.9192925 C164.101885,44.7663067 164.602082,44.5095566 165.602476,44.1463816 C168.452003,43.2963127 170.937025,41.7810881 173.058871,39.5993775 C174.301382,38.0216282 175.196681,36.2190564 175.742109,34.187671 C175.953629,33.3695295 175.711512,32.9597936 175.014429,32.9597936 L169.467031,32.9597936 L168.01167,33.1872768 C167.041873,33.3402627 166.451215,33.1274128 166.238365,32.551388 C166.057443,31.7931106 166.512409,31.4592024 167.603264,31.5509939 C168.148692,31.5815911 168.73935,31.6574188 169.376569,31.7784771 L175.059659,31.7784771 C175.78734,31.7784771 176.211709,31.3235107 176.332767,30.4135777 L176.379328,28.6402727 L176.379328,28.6402727 Z M172.195499,2.31341141 C172.195499,1.34361445 172.665099,0.888647971 173.605629,0.949842292 C174.606023,1.07090062 175.651648,1.23851985 176.742503,1.45003935 C177.015217,1.51123368 177.302564,1.61632827 177.605875,1.76798376 C177.878589,2.04069759 177.849322,2.41983632 177.515414,2.90539995 C177.060448,3.48142476 176.832964,4.16254416 176.832964,4.95141878 C176.832964,5.83075458 177.19747,6.26975732 177.92515,6.26975732 L180.106861,6.26975732 C180.865138,6.26975732 181.244277,5.90525201 181.244277,5.17890202 L181.244277,2.45043348 C181.244277,1.48063651 181.713877,1.04030346 182.653076,1.13209495 C184.774923,1.31301729 186.230284,1.69215602 187.019158,2.26818082 C187.048425,2.41983632 186.866172,2.7231473 186.4724,3.17811378 C186.078628,3.69294426 185.881742,4.31419966 185.881742,5.04187996 C185.881742,5.86002143 186.109225,6.26975732 186.564192,6.26975732 C187.138886,6.48260713 187.609816,6.22452673 187.972991,5.49684643 C188.3069,4.89022446 188.700672,4.28493281 189.155638,3.67831084 C189.580008,3.1927472 189.867355,2.92003338 190.01901,2.85883906 C191.535565,3.73817485 192.747479,5.04187996 193.657412,6.76995438 C193.475159,7.49763468 192.868537,7.73975134 191.838876,7.49763468 L187.019158,7.49763468 C186.260881,7.49763468 185.881742,7.95127084 185.881742,8.8612038 C186.154456,11.225167 185.092867,12.1510637 182.698307,11.6349029 C181.425199,11.3621891 180.940966,10.4828533 181.244277,8.99822586 C181.244277,7.99783174 180.879771,7.49763468 180.152091,7.49763468 L177.970381,7.49763468 C177.212103,7.49763468 176.832964,7.95127084 176.832964,8.8612038 C177.105678,11.225167 176.04542,12.1510637 173.65086,11.6349029 C172.377752,11.3621891 171.892188,10.498817 172.195499,9.04345645 C172.195499,8.01246516 171.832324,7.49763468 171.104644,7.49763468 C170.376963,7.49763468 169.042661,7.63332643 167.103067,7.90604026 C166.982009,7.81557909 166.875584,7.5122681 166.785123,6.99743762 C166.662734,6.33095164 167.103067,6.02764065 168.103461,6.08750466 L171.058083,6.26975732 C171.81636,6.26975732 172.195499,5.90525201 172.195499,5.17890202 L172.195499,2.31341141 L172.195499,2.31341141 Z M168.558428,13.0450329 C168.558428,12.0140417 169.012064,11.6202695 169.921997,11.8623862 C170.678944,12.075236 171.437222,12.3479498 172.195499,12.6805276 C172.861985,13.0144358 173.544435,13.1807247 174.241518,13.1807247 L184.063206,13.1807247 C184.790887,13.1807247 185.442739,12.9239746 186.018764,12.4078138 C186.564192,11.831789 187.291872,11.7107307 188.200475,12.0446388 C190.170666,12.8933774 191.413177,13.7421161 191.929337,14.5908547 C191.868143,14.9540297 191.443774,15.3331684 190.656229,15.7269406 C190.565768,15.9091932 190.519207,16.3641597 190.519207,17.09184 L190.519207,24.7304877 C190.822518,26.1858483 190.338285,27.0944509 189.065177,27.4589562 C187.548622,27.9431896 186.518961,27.7157063 185.972203,26.7765065 C185.881742,26.5343899 185.472006,26.4120012 184.745656,26.4120012 L174.331979,26.4120012 C173.605629,26.4120012 173.210527,26.5796205 173.150663,26.9121983 C172.907216,27.8221312 172.301924,28.3223283 171.332127,28.4127895 C169.4218,28.8983531 168.497234,28.3675589 168.558428,26.8217371 L168.558428,13.0450329 L168.558428,13.0450329 Z M185.836511,15.5912488 C185.836511,14.8023742 185.442739,14.4086021 184.653865,14.4086021 L174.741715,14.4086021 C173.43801,14.1066214 172.923179,14.5296604 173.195893,15.68171 L173.195893,18.2731565 C173.195893,19.0314339 173.559068,19.4105727 174.286748,19.4105727 L184.699095,19.4105727 C185.457373,19.4105727 185.836511,19.0460674 185.836511,18.3197174 L185.836511,15.5912488 L185.836511,15.5912488 Z M185.836511,21.7745359 C185.836511,20.9869916 185.48797,20.5918891 184.790887,20.5918891 L174.331979,20.5918891 C173.575032,20.5918891 173.195893,20.9563944 173.195893,21.6840747 L173.195893,24.0932686 C173.195893,24.851546 173.559068,25.2306848 174.286748,25.2306848 L184.699095,25.2306848 C185.457373,25.2306848 185.836511,24.8661795 185.836511,24.1398295 L185.836511,21.7745359 L185.836511,21.7745359 Z" id="Fill-29" sketch:type="MSShapeGroup"></path>
        </g>
    </g>
</svg>