<?xml version="1.0" encoding="UTF-8" standalone="no"?>
<svg width="195px" height="46px" viewBox="0 0 195 46" version="1.1" xmlns="http://www.w3.org/2000/svg" xmlns:xlink="http://www.w3.org/1999/xlink" xmlns:sketch="http://www.bohemiancoding.com/sketch/ns">
    <!-- Generator: Sketch 3.0.4 (8053) - http://www.bohemiancoding.com/sketch -->
    <title>h3_mask_green_white</title>
    <desc>Created with Sketch.</desc>
    <defs></defs>
    <g id="Page-1" stroke="none" stroke-width="1" fill="none" fill-rule="evenodd" sketch:type="MSPage">
        <g id="h1_mask_green-white" sketch:type="MSLayerGroup" transform="translate(0.660623, 2.068593)" fill="#FFFFFF">
            <path d="M18.1441163,1.02833066 C18.1441163,0.11972802 18.5990828,-0.31927472 19.5076854,-0.290007871 C21.7811875,-0.25941071 23.4480676,0.135691756 24.509656,0.892638905 C24.7211755,1.4087997 24.3420368,1.86243587 23.3722398,2.25620802 C23.2817787,2.3479995 23.2365481,2.77236882 23.2365481,3.52931597 C23.2365481,4.34878775 23.5997231,4.75719333 24.3274034,4.75719333 L30.9656569,4.75719333 C31.7239344,4.75719333 32.3904204,4.40865176 32.9664452,3.71156862 L34.1038614,2.21097744 C34.8315417,0.726349988 35.6949137,0.46826959 36.6953078,1.43806655 C38.0894741,2.43846068 39.2415237,3.51468254 40.1514567,4.66673216 C40.6968843,5.12169864 40.7713818,5.53010422 40.3789399,5.89460952 C40.2259541,5.95580384 39.6964902,5.98507069 38.7865573,5.98507069 L24.3726339,5.98507069 C23.6156868,5.98507069 23.2365481,6.34824569 23.2365481,7.07592599 L23.2365481,9.62214188 C23.2365481,10.3804193 23.5997231,10.7595581 24.3274034,10.7595581 C26.2071333,10.7901552 28.1320938,10.7595581 30.1022849,10.6677666 C30.4055958,10.4562471 30.8299652,9.9414166 31.3753928,9.12194482 L32.1030731,8.21334218 C32.9518117,7.39520071 33.8311475,7.22891179 34.7397502,7.71314511 C36.5888829,9.10731139 37.7861631,10.3950528 38.3329211,11.5776995 C37.9990129,12.0020689 37.3617938,12.1390909 36.422594,11.9874354 L24.3726339,11.9874354 C23.6156868,11.9874354 23.2365481,12.3506104 23.2365481,13.0782907 L23.2365481,15.6697372 C23.2365481,16.4280147 23.5997231,16.8071534 24.3274034,16.8071534 L32.4210175,16.8071534 C33.1779647,16.8071534 33.8311475,16.4586118 34.3765752,15.7615287 C35.255911,14.4272264 36.1339165,13.4720629 37.0132522,12.8960381 C38.1347047,13.2911405 39.5142376,14.3513987 41.1518508,16.0794731 C41.7877396,16.9588089 42.105684,17.4882728 42.105684,17.6705254 C41.9247617,17.8833753 41.3633703,17.9884699 40.4241705,17.9884699 L3.2752265,17.9884699 L1.8198659,18.2159531 C0.850068942,18.3689389 0.274044135,18.1560891 0.091791482,17.5800643 C-0.11972802,16.8231171 0.31927472,16.489209 1.41146033,16.5796702 C1.98615482,16.6102673 2.56217963,16.6860951 3.13820444,16.8071534 L17.0067001,16.8071534 C17.7649776,16.8071534 18.1441163,16.4426481 18.1441163,15.7149678 L18.1441163,13.1235213 C18.1441163,12.3665742 17.779611,11.9874354 17.0519307,11.9874354 L6.5491227,11.9874354 L5.0937621,12.2601493 C4.12396514,12.4118047 3.53197659,12.1843215 3.32045709,11.5776995 C3.13820444,10.8207524 3.59317091,10.4868442 4.68535652,10.5773054 L6.41210063,10.7595581 L17.0067001,10.7595581 C17.7649776,10.7595581 18.1441163,10.3950528 18.1441163,9.66870278 L18.1441163,7.12248688 C18.1441163,6.36420942 17.779611,5.98507069 17.0519307,5.98507069 L4.18515946,5.98507069 L2.72979886,6.21255393 C1.75867158,6.36420942 1.16801335,6.15268992 0.956493849,5.5753348 C0.774241196,4.81838765 1.21324394,4.48447951 2.27483238,4.57494068 L4.0029068,4.75719333 L17.0067001,4.75719333 C17.7649776,4.75719333 18.1441163,4.39401834 18.1441163,3.66633804 L18.1441163,1.02833066 L18.1441163,1.02833066 Z M30.4654599,20.3085328 C31.0122178,19.2469444 31.6175095,18.929 32.2853258,19.3533693 C33.2551227,19.7777386 34.4670364,20.4601883 35.922397,21.3993881 C36.4984218,21.7332963 36.8921939,22.1417018 37.1050437,22.6272655 C37.3471604,23.2338874 36.8615968,23.7793151 35.6496831,24.2635484 C35.1335223,24.6586509 34.9366363,25.2945397 35.0590249,26.1738755 L35.0590249,39.4956132 C34.6333253,41.9819651 33.1327341,43.3761314 30.5572513,43.6794423 C29.6167212,43.7087092 28.9808324,43.2697064 28.6469243,42.3611038 C28.0110354,40.9656072 27.0705053,40.1328323 25.8279945,39.8601185 C24.8887947,39.8601185 24.509656,39.5115769 24.6919087,38.8144938 C24.8422339,38.6921051 25.3730281,38.6322411 26.282961,38.6322411 C27.8886468,38.6322411 28.9502352,38.4659522 29.4650657,38.1320441 C29.9506294,37.7076748 30.1315517,37.0411888 30.0118237,36.1312558 L30.0118237,33.6755011 C30.0118237,32.918554 29.6473184,32.5394152 28.9196381,32.5394152 L12.5514874,32.5394152 C11.79321,32.5394152 11.4140712,32.9025902 11.4140712,33.6302705 L11.4140712,41.4059403 C11.0801631,43.1632815 9.83765231,43.8909618 7.68520858,43.5889812 C6.56375612,43.314937 6.12475338,42.4356012 6.36687004,40.9509738 L6.36687004,21.2171355 C6.36687004,20.3085328 6.44269779,19.8229692 6.59435328,19.7617749 C7.9579224,20.0650859 9.39864957,20.5652829 10.9138742,21.2623661 C11.4593018,21.565677 12.096521,21.7173325 12.8242013,21.7173325 L27.7835522,21.7173325 C28.9648687,21.9607795 29.8588379,21.4898493 30.4654599,20.3085328 L30.4654599,20.3085328 Z M12.8242013,22.8999793 C11.8836711,23.0516348 11.4140712,23.4760041 11.4140712,24.1730872 L11.4140712,25.4914258 C11.4140712,26.2497032 11.7785766,26.628842 12.5049265,26.628842 L28.8744075,26.628842 C29.6313547,26.628842 30.0118237,26.2643367 30.0118237,25.5366564 C30.0410905,24.7185149 30.0118237,23.9003734 29.9200322,23.082232 C29.7989739,22.9611736 29.3746046,22.8999793 28.6469243,22.8999793 L12.8242013,22.8999793 L12.8242013,22.8999793 Z M30.0118237,28.9475746 C30.0118237,28.1892972 29.6473184,27.8101584 28.9196381,27.8101584 L12.5514874,27.8101584 C11.79321,27.8101584 11.4140712,28.1746637 11.4140712,28.902344 L11.4140712,30.2206826 C11.4140712,30.97896 11.7785766,31.3567685 12.5049265,31.3567685 L28.8744075,31.3567685 C29.6313547,31.3567685 30.0118237,30.9935935 30.0118237,30.2659132 L30.0118237,28.9475746 L30.0118237,28.9475746 Z" id="Fill-22" sketch:type="MSShapeGroup"></path>
            <path d="M65.4739329,1.16535273 C65.6255884,0.195555766 66.1710161,-0.183582964 67.1102159,0.027936538 C68.4445181,0.271383512 69.7774901,0.55873076 71.1117924,0.892638905 C71.7184143,1.07489156 72.0815893,1.22654705 72.2026477,1.34760538 C72.627017,1.80124155 72.4460946,2.21097744 71.65722,2.57415243 C71.1729867,2.87879373 70.8390785,3.42422137 70.6568259,4.21176568 C70.4453064,5.09110148 70.6727896,5.53010422 71.3392756,5.53010422 L81.7516224,5.53010422 C82.4793027,5.53010422 83.1311553,5.16692922 83.7071801,4.43924892 C84.0397579,3.9550156 84.4348604,3.45481853 84.8898268,2.93865774 C85.646774,2.15111343 86.4955126,1.9834942 87.4360427,2.43846068 C88.3140482,2.98388832 89.2093477,3.77276294 90.1179504,4.80242392 C90.7551695,5.71235687 91.0571502,6.25778451 91.0278833,6.44003717 C90.8762278,6.62095951 90.3294699,6.71275099 89.3902701,6.71275099 L71.1570229,6.71275099 C70.4293426,6.71275099 69.883915,7.16771747 69.52074,8.07632011 L68.8835209,10.0318778 C68.610807,10.7901552 68.8529237,11.169294 69.6112012,11.169294 L77.2964097,11.169294 C78.2356095,11.532469 79.1149453,10.9870413 79.9330868,9.53168071 C80.7512283,8.37963109 81.4030808,7.71314511 81.8886445,7.53089246 C83.4943303,8.31976708 85.040152,9.71393336 86.5261098,11.7147216 C86.5261098,11.8956439 86.4649155,12.0632632 86.3438571,12.2149187 C86.1323376,12.3053798 85.6015434,12.3506104 84.7528048,12.3506104 L75.6587965,12.3506104 C74.9311162,12.3506104 74.7501939,12.8055769 75.1133688,13.7155099 L76.3864768,15.942451 C76.9013073,16.7619228 77.4932958,17.1703284 78.1597818,17.1703284 L82.5697639,17.1703284 C83.3280413,17.1703284 84.0703551,16.7313256 84.7980354,15.8519899 C85.0707492,15.4276205 85.3900239,15.0032512 85.7531989,14.5788819 C86.510146,13.1541185 87.4054456,13.002463 88.4364369,14.1239154 C89.8904671,15.1243096 91.0571502,16.3069563 91.936486,17.6705254 C91.9058888,18.3689389 91.329864,18.5964221 90.2097419,18.3529752 L79.2958677,18.3529752 C78.5695177,18.3529752 78.5083234,18.7161502 79.1149453,19.4438305 C83.0553275,23.5358681 86.8892848,26.0674506 90.6181474,27.0372476 C91.5879444,27.4017529 92.073508,27.6438695 92.073508,27.7649279 C92.0123137,27.8859862 91.5280804,28.1281028 90.6181474,28.4926082 C89.2838452,29.0380358 88.3140482,29.8415438 87.7087566,30.901802 C87.1925958,31.8117349 86.8600179,32.2667014 86.7083624,32.2667014 C85.0095549,31.6294823 83.2522136,30.4481658 81.433678,28.7200914 C80.7059977,28.1134694 80.3428227,28.1746637 80.3428227,28.902344 L80.3428227,41.6334235 C80.0993757,42.7242788 79.2666008,43.3455342 77.8418374,43.4971897 C77.1141571,43.4971897 76.5979963,43.4519591 76.2960156,43.3614979 C75.4765438,43.0581869 75.1585994,42.511429 75.3408521,41.7238847 C75.3408521,41.178457 74.9763468,40.9057432 74.2499968,40.9057432 L65.8823385,40.9057432 C65.1559885,40.9057432 64.7755195,41.0720321 64.7462526,41.4059403 C64.7462526,42.3451401 64.3218833,42.9969926 63.4731447,43.3614979 C60.7446761,44.3312949 59.4862016,43.6634786 59.6990514,41.3607097 L59.6990514,27.1742696 C59.6990514,26.4465893 59.2440849,26.4918199 58.3354823,27.3099614 C55.5152223,29.7657161 52.5752342,31.4937905 49.5141878,32.4941846 C49.3625324,32.4023932 49.2867046,32.2826651 49.2867046,32.1296793 C53.9241699,28.3715498 57.4707799,24.2036844 59.9265347,19.6260831 C60.3815011,18.7773445 60.2897097,18.3529752 59.6538208,18.3529752 L52.651062,18.3529752 L51.1957014,18.5804584 C50.2259044,18.7613807 49.5886853,18.4141695 49.2867046,17.5348337 L49.1496825,16.989406 C49.2108769,16.8683477 49.6951102,16.852384 50.6050431,16.9428451 C51.2422623,16.9734423 51.8781511,17.0492701 52.5153702,17.1703284 L60.0169958,17.1703284 C60.7446761,17.1703284 61.3207009,16.7153619 61.7450703,15.8067593 L62.6097726,13.5784878 C62.8824864,12.7603463 62.6842701,12.3506104 62.0177841,12.3506104 L55.7427055,12.3506104 L54.2886752,12.5780937 C53.317548,12.7297492 52.7268897,12.5182297 52.5153702,11.9422048 C52.3025204,11.1839274 52.7428535,10.8500192 53.8337088,10.9418107 C54.3791364,10.9724079 54.9697946,11.0482356 55.6070138,11.169294 L62.2452673,11.169294 C62.9729476,11.169294 63.5024115,10.7143275 63.8363197,9.80439453 L64.3830776,7.80360628 C64.5028056,7.07592599 64.200825,6.71275099 63.4731447,6.71275099 L53.3335117,6.71275099 L51.8781511,6.98546481 C50.877757,7.07592599 50.2870987,6.84844275 50.1048461,6.3030151 C49.9225934,5.54606795 50.3775599,5.21215981 51.4697455,5.30262098 C52.04444,5.33321814 52.6204648,5.40904588 53.1964896,5.53010422 L63.7458585,5.53010422 C64.4735388,5.53010422 64.9125415,5.07513774 65.064197,4.1665351 L65.4739329,1.16535273 L65.4739329,1.16535273 Z M75.5231047,19.5356219 C75.2490606,18.7467473 74.7501939,18.3529752 74.0225136,18.3529752 L66.5195576,18.3529752 C65.7918773,18.3529752 65.1559885,18.8079416 64.6092306,19.7165443 C64.0332057,20.6264772 63.3826835,21.5816408 62.6550032,22.5820349 C62.1694396,23.2485209 62.4421534,23.7487179 63.4731447,24.0812958 C64.5334028,24.8089761 65.4127386,25.1122871 66.1098217,24.9912287 L72.8398668,24.9912287 C73.7192026,25.1734814 74.3697248,24.9459981 74.7954244,24.308779 C75.2197938,23.7340845 75.7040271,23.2179237 76.2494547,22.7629572 L76.6591906,22.7177266 C76.8414433,22.7483238 76.7350184,22.3079908 76.3412462,21.3993881 L75.5231047,19.5356219 L75.5231047,19.5356219 Z M75.3408521,27.4469834 C75.3408521,26.5982448 74.9617134,26.1738755 74.2034359,26.1738755 L65.8823385,26.1738755 C65.1253914,26.1738755 64.7462526,26.5370505 64.7462526,27.2647308 L64.7462526,31.0840546 C64.7462526,31.8423321 65.1094276,32.2214708 65.8371079,32.2214708 L74.2034359,32.2214708 C74.9617134,32.2214708 75.3408521,31.8569655 75.3408521,31.1292852 L75.3408521,27.4469834 L75.3408521,27.4469834 Z M75.3408521,34.5854341 C75.3408521,33.8284869 74.9763468,33.4493482 74.2499968,33.4493482 L65.8823385,33.4493482 C65.1253914,33.4493482 64.7462526,33.8125232 64.7462526,34.5402035 L64.7462526,38.54178 C64.7462526,39.2987271 65.1094276,39.6778658 65.8371079,39.6778658 L74.2034359,39.6778658 C74.9617134,39.6778658 75.3408521,39.3146909 75.3408521,38.5870106 L75.3408521,34.5854341 L75.3408521,34.5854341 Z M73.7032388,13.6237184 C73.5515833,12.7749797 73.1578112,12.3506104 72.5219224,12.3506104 L69.2932568,12.3506104 C68.5655765,12.3506104 68.0041851,12.8055769 67.6104129,13.7155099 L66.6565797,15.942451 C66.2920744,16.7619228 66.4437299,17.1703284 67.1102159,17.1703284 L73.5223165,17.1703284 C74.2499968,17.1703284 74.4921135,16.7153619 74.2499968,15.8067593 C74.0065498,15.079079 73.8242972,14.3513987 73.7032388,13.6237184 L73.7032388,13.6237184 Z" id="Fill-23" sketch:type="MSShapeGroup"></path>
            <path d="M134.129971,2.48369126 C135.190229,1.08952498 135.948506,0.195555766 136.403473,-0.198216389 C136.9489,-0.25941071 137.797639,0.226152927 138.949689,1.2558139 C140.405049,2.43846068 141.252457,3.50004912 141.495904,4.43924892 C141.374846,4.62150157 140.828088,4.71196274 139.858291,4.71196274 L124.353513,4.71196274 C123.625832,4.71196274 122.989943,5.16692922 122.444516,6.07553186 C121.503986,7.80360628 120.337303,9.4718167 118.943136,11.0775025 C118.215456,11.9874354 118.215456,12.4410716 118.943136,12.4410716 L132.037391,12.4410716 C132.947324,12.8055769 133.857257,12.2601493 134.765859,10.8047887 C135.190229,10.199497 135.796851,10.1383027 136.584395,10.622536 C138.798033,11.3209495 140.222796,12.3213436 140.858685,13.6237184 C140.70703,14.0188208 140.252063,14.3673624 139.495116,14.6693431 C139.343461,14.8223289 139.267633,15.2453679 139.267633,15.942451 L139.267633,39.7230964 C139.267633,40.6330294 139.222402,41.2236876 139.130611,41.4964014 C138.160814,42.6484511 136.887706,43.0129564 135.311287,42.588587 C134.523743,42.2852761 134.235065,41.6174598 134.447915,40.5877988 C134.447915,39.708463 134.08474,39.2694603 133.35706,39.2694603 L108.57602,39.2694603 C107.817743,39.2694603 107.438604,39.6326353 107.438604,40.3603156 C107.711318,42.08839 107.030198,43.0887841 105.392585,43.3614979 C103.3612,43.7858672 102.436633,42.9357983 102.618886,40.815282 L102.618886,12.1683578 C102.618886,11.2597551 102.68008,10.7901552 102.801139,10.7595581 C103.346566,10.7901552 103.891994,10.925847 104.437422,11.169294 L106.257287,11.8956439 C107.075429,12.2601493 107.772512,12.4410716 108.348537,12.4410716 L115.441757,12.4410716 C116.169437,12.4410716 116.624404,11.9874354 116.805326,11.0775025 C117.07804,9.32016121 117.29089,7.56148962 117.442545,5.80281804 C117.502409,5.07513774 117.169831,4.71196274 116.442151,4.71196274 L103.61928,4.71196274 L102.118689,4.98467657 C101.118295,5.1057349 100.54227,4.90884882 100.390615,4.39401834 L100.164462,3.34839363 C100.224326,3.2273353 100.709889,3.21137156 101.618492,3.30183273 C102.194517,3.33242989 102.815772,3.40958795 103.483588,3.52931597 L132.129182,3.52931597 C132.886129,3.52931597 133.553946,3.18210471 134.129971,2.48369126 L134.129971,2.48369126 Z M113.077794,14.8063651 C113.077794,14.0188208 112.727922,13.6237184 112.030839,13.6237184 C110.576808,13.5944515 109.105484,13.6090849 107.620857,13.668949 C107.499798,13.7607404 107.438604,14.169146 107.438604,14.8968263 L107.438604,36.9041667 C107.438604,37.6611139 107.803109,38.0415829 108.53079,38.0415829 L111.940378,38.0415829 C112.697325,38.0415829 113.077794,37.6770776 113.077794,36.9493973 L113.077794,14.8063651 L113.077794,14.8063651 Z M124.17126,14.8063651 C124.17126,14.0188208 123.822718,13.6237184 123.125635,13.6237184 L118.851345,13.6237184 C118.094398,13.6237184 117.715259,13.9882237 117.715259,14.715904 L117.715259,19.4438305 C117.715259,20.2021079 118.078434,20.5812466 118.806114,20.5812466 L123.035174,20.5812466 C123.792121,20.5812466 124.17126,20.2167413 124.17126,19.489061 L124.17126,14.8063651 L124.17126,14.8063651 Z M124.17126,22.9904405 C124.17126,22.2028962 123.822718,21.809124 123.125635,21.809124 L118.851345,21.809124 C118.094398,21.809124 117.715259,22.172299 117.715259,22.8999793 L117.715259,28.1746637 C117.715259,28.9316109 118.078434,29.3107496 118.806114,29.3107496 L123.035174,29.3107496 C123.792121,29.3107496 124.17126,28.9475746 124.17126,28.2198943 L124.17126,22.9904405 L124.17126,22.9904405 Z M124.17126,31.6747129 C124.17126,30.9177657 123.808085,30.538627 123.080405,30.538627 L118.851345,30.538627 C118.094398,30.538627 117.715259,30.901802 117.715259,31.6294823 L117.715259,36.9041667 C117.715259,37.6611139 118.078434,38.0415829 118.806114,38.0415829 L123.035174,38.0415829 C123.792121,38.0415829 124.17126,37.6770776 124.17126,36.9493973 L124.17126,31.6747129 L124.17126,31.6747129 Z M134.357454,13.805971 C134.235065,13.6849127 133.841293,13.6237184 133.174807,13.6237184 L129.946141,13.6237184 C129.187864,13.6237184 128.810056,13.9882237 128.810056,14.715904 L128.810056,36.9041667 C128.810056,37.6611139 129.173231,38.0415829 129.900911,38.0415829 L133.310499,38.0415829 C134.068776,38.0415829 134.447915,37.6770776 134.447915,36.9493973 L134.447915,14.9886178 C134.447915,14.2609375 134.417318,13.8671653 134.357454,13.805971 L134.357454,13.805971 Z" id="Fill-24" sketch:type="MSShapeGroup"></path>
            <path d="M159.179733,1.2558139 C159.967277,0.347211258 160.452841,-0.107755218 160.635094,-0.107755218 C162.726343,0.650522242 164.407857,1.72674411 165.682295,3.12091039 C165.893814,3.60514372 165.6211,4.02951303 164.862823,4.39401834 C163.801235,4.81838765 163.408793,5.50083737 163.681507,6.44003717 L163.681507,39.3599214 C163.589715,41.4511709 162.28601,42.8160703 159.770391,43.4519591 C158.618342,43.5424203 158.027683,43.1034175 157.997086,42.1336206 C157.906625,41.1624933 157.103117,40.2698544 155.587892,39.4503826 L155.45087,39.0872076 C155.45087,38.964819 155.905837,38.7985301 156.814439,38.5870106 C158.634305,38.5258162 159.376619,37.7382719 159.042711,36.221717 L159.042711,27.129039 C159.042711,26.3707616 158.679536,25.9916228 157.951856,25.9916228 L156.678748,25.9916228 C155.951067,25.9916228 155.541331,26.4465893 155.45087,27.355192 C155.147559,32.9025902 153.587104,37.9045608 150.768174,42.3611038 C150.069761,43.3003036 149.661355,43.7858672 149.540297,43.8151341 C149.387311,43.7552701 149.358044,43.2697064 149.448506,42.3611038 C150.510094,36.0554281 151.040888,28.6588971 151.040888,20.1715108 L151.040888,1.48329714 C151.040888,0.482903014 151.631546,0.210189191 152.814193,0.665155667 C153.419485,0.93786949 154.026107,1.2558139 154.632729,1.6203192 C155.299215,2.22694117 156.465898,2.40786351 158.134108,2.16574685 C158.406822,2.16574685 158.754033,1.86243587 159.179733,1.2558139 L159.179733,1.2558139 Z M159.042711,16.1247037 C159.042711,15.3065622 158.708803,14.8968263 158.042317,14.8968263 L156.814439,14.8968263 C156.057492,14.8968263 155.678354,15.2613316 155.678354,15.9890119 L155.678354,21.1266743 L155.633123,23.4001764 C155.602526,24.3393762 155.951067,24.8089761 156.678748,24.8089761 L157.906625,24.8089761 C158.663572,24.8089761 159.042711,24.4458011 159.042711,23.7181208 L159.042711,16.1247037 L159.042711,16.1247037 Z M158.907019,3.57587687 C158.784631,3.48408538 158.361592,3.4388548 157.633911,3.4388548 L156.769209,3.4388548 C156.041529,3.59051029 155.678354,4.02951303 155.678354,4.75719333 L155.678354,12.5328631 C155.678354,13.2911405 156.041529,13.668949 156.769209,13.668949 L157.906625,13.668949 C158.663572,13.668949 159.042711,13.305774 159.042711,12.5780937 L159.042711,4.8476545 C159.042711,4.12130451 158.99748,3.6969352 158.907019,3.57587687 L158.907019,3.57587687 Z M175.049017,27.3099614 C175.049017,26.3401644 175.53325,25.8705645 176.503047,25.9011617 C178.442641,26.02222 179.776943,26.2044727 180.504624,26.4465893 C181.322765,26.7804975 181.353362,27.2354639 180.595085,27.8101584 C180.141449,28.0828723 179.868735,28.5830693 179.776943,29.3107496 C179.686482,30.0690271 180.004427,30.4481658 180.732107,30.4481658 L183.233092,30.4481658 C183.960773,30.4481658 184.627258,30.0836605 185.23388,29.3559802 C185.566458,28.8717469 185.961561,28.3715498 186.415197,27.855389 C187.142877,26.4625531 188.00758,26.2949338 189.007974,27.355192 C189.764921,27.8407556 190.65889,28.6442636 191.689881,29.7657161 C192.3271,30.8565714 192.523987,31.4485599 192.28187,31.5390211 C192.159481,31.6002154 191.644651,31.6294823 190.736048,31.6294823 L180.822568,31.6294823 C180.065621,31.6294823 179.973829,32.1004125 180.549854,33.0396123 C183.82375,37.0704556 187.83996,38.7532995 192.599814,38.0868135 C193.145242,38.0562163 193.463186,38.2225052 193.554978,38.5870106 C193.524381,38.738666 193.054781,39.0113799 192.144848,39.405152 C190.962201,39.8601185 189.901943,40.875146 188.962743,42.451565 C188.567641,43.3614979 188.294927,43.8310978 188.143271,43.861695 C183.930175,42.3757372 181.004821,39.4503826 179.368538,35.0856311 C179.155688,34.2062953 179.004032,33.7978898 178.913571,33.8577538 C178.791183,33.9788121 178.655491,34.2674897 178.503835,34.7224561 C177.6245,37.3884 175.730136,39.5714409 172.820745,41.2689182 C170.213335,42.6338176 167.484867,43.4519591 164.63534,43.7246729 C163.454023,43.8151341 162.831438,43.7699035 162.771574,43.5889812 C162.771574,43.4359954 163.271771,43.1792453 164.272165,42.8160703 C167.121692,41.9660013 169.606713,40.4507767 171.72856,38.2690661 C172.971071,36.6913169 173.86637,34.888745 174.411798,32.8573596 C174.623317,32.0392182 174.381201,31.6294823 173.684117,31.6294823 L168.136719,31.6294823 L166.681359,31.8569655 C165.711562,32.008621 165.120903,31.7971015 164.908054,31.2210767 C164.727131,30.4627992 165.182098,30.1288911 166.272953,30.2206826 C166.818381,30.2512797 167.409039,30.3271075 168.046258,30.4481658 L173.729348,30.4481658 C174.457028,30.4481658 174.881398,29.9931993 175.002456,29.0832664 L175.049017,27.3099614 L175.049017,27.3099614 Z M170.865188,0.983100076 C170.865188,0.0133031133 171.334788,-0.441663363 172.275318,-0.380469042 C173.275712,-0.25941071 174.321337,-0.091791482 175.412192,0.11972802 C175.684906,0.180922341 175.972253,0.286016937 176.275564,0.437672429 C176.548278,0.710386252 176.519011,1.08952498 176.185103,1.57508862 C175.730136,2.15111343 175.502653,2.83223283 175.502653,3.62110745 C175.502653,4.50044324 175.867158,4.93944598 176.594839,4.93944598 L178.776549,4.93944598 C179.534827,4.93944598 179.913965,4.57494068 179.913965,3.84859069 L179.913965,1.12012214 C179.913965,0.150325181 180.383565,-0.290007871 181.322765,-0.198216389 C183.444612,-0.0172940473 184.899972,0.361844683 185.688847,0.93786949 C185.718114,1.08952498 185.535861,1.39283597 185.142089,1.84780244 C184.748317,2.36263293 184.551431,2.98388832 184.551431,3.71156862 C184.551431,4.52971009 184.778914,4.93944598 185.23388,4.93944598 C185.808575,5.1522958 186.279505,4.8942154 186.64268,4.1665351 C186.976588,3.55991313 187.37036,2.95462147 187.825327,2.3479995 C188.249696,1.86243587 188.537043,1.58972204 188.688699,1.52852772 C190.205254,2.40786351 191.417168,3.71156862 192.3271,5.43964304 C192.144848,6.16732334 191.538226,6.40944001 190.508565,6.16732334 L185.688847,6.16732334 C184.930569,6.16732334 184.551431,6.62095951 184.551431,7.53089246 C184.824145,9.8948557 183.762556,10.8207524 181.367996,10.3045916 C180.094888,10.0318778 179.610654,9.15254198 179.913965,7.66791453 C179.913965,6.66752041 179.54946,6.16732334 178.82178,6.16732334 L176.640069,6.16732334 C175.881792,6.16732334 175.502653,6.62095951 175.502653,7.53089246 C175.775367,9.8948557 174.715109,10.8207524 172.320548,10.3045916 C171.04744,10.0318778 170.561877,9.16850571 170.865188,7.71314511 C170.865188,6.68215383 170.502013,6.16732334 169.774332,6.16732334 C169.046652,6.16732334 167.71235,6.3030151 165.772756,6.57572892 C165.651698,6.48526775 165.545273,6.18195677 165.454812,5.66712628 C165.332423,5.0006403 165.772756,4.69732932 166.77315,4.75719333 L169.727772,4.93944598 C170.486049,4.93944598 170.865188,4.57494068 170.865188,3.84859069 L170.865188,0.983100076 L170.865188,0.983100076 Z M167.228117,11.7147216 C167.228117,10.6837303 167.681753,10.2899582 168.591686,10.5320748 C169.348633,10.7449246 170.10691,11.0176385 170.865188,11.3502163 C171.531674,11.6841244 172.214123,11.8504134 172.911207,11.8504134 L182.732895,11.8504134 C183.460575,11.8504134 184.112428,11.5936633 184.688453,11.0775025 C185.23388,10.502808 185.961561,10.3804193 186.870163,10.7143275 C188.840354,11.5630661 190.082865,12.4118047 190.599026,13.2605434 C190.537832,13.6237184 190.113462,14.0028571 189.325918,14.3966293 C189.235457,14.5788819 189.188896,15.0338484 189.188896,15.7615287 L189.188896,23.4001764 C189.492207,24.855537 189.007974,25.7641396 187.734866,26.1286449 C186.218311,26.6128782 185.18865,26.385395 184.641892,25.4461952 C184.551431,25.2040785 184.141695,25.0816899 183.415345,25.0816899 L173.001668,25.0816899 C172.275318,25.0816899 171.880215,25.2493091 171.820351,25.581887 C171.576904,26.4918199 170.971613,26.992017 170.001816,27.0824781 C168.091489,27.5680418 167.166922,27.0372476 167.228117,25.4914258 L167.228117,11.7147216 L167.228117,11.7147216 Z M184.5062,14.2609375 C184.5062,13.4720629 184.112428,13.0782907 183.323553,13.0782907 L173.411404,13.0782907 C172.107699,12.7749797 171.592868,13.1993491 171.865582,14.3513987 L171.865582,16.9428451 C171.865582,17.7011226 172.228757,18.0802613 172.956437,18.0802613 L183.368784,18.0802613 C184.127061,18.0802613 184.5062,17.715756 184.5062,16.989406 L184.5062,14.2609375 L184.5062,14.2609375 Z M184.5062,20.4442246 C184.5062,19.6566803 184.157659,19.2615778 183.460575,19.2615778 L173.001668,19.2615778 C172.244721,19.2615778 171.865582,19.6260831 171.865582,20.3537634 L171.865582,22.7629572 C171.865582,23.5212347 172.228757,23.9003734 172.956437,23.9003734 L183.368784,23.9003734 C184.127061,23.9003734 184.5062,23.5358681 184.5062,22.8095181 L184.5062,20.4442246 L184.5062,20.4442246 Z" id="Fill-25" sketch:type="MSShapeGroup"></path>
        </g>
    </g>
</svg>