<?xml version="1.0" encoding="UTF-8" standalone="no"?>
<svg width="190px" height="26px" viewBox="0 0 190 26" version="1.1" xmlns="http://www.w3.org/2000/svg" xmlns:xlink="http://www.w3.org/1999/xlink" xmlns:sketch="http://www.bohemiancoding.com/sketch/ns">
    <!-- Generator: Sketch 3.0.4 (8053) - http://www.bohemiancoding.com/sketch -->
    <title>h3_product_mask</title>
    <desc>Created with Sketch.</desc>
    <defs></defs>
    <g id="Page-1" stroke="none" stroke-width="1" fill="none" fill-rule="evenodd" sketch:type="MSPage">
        <g id="h1_product_mask" sketch:type="MSLayerGroup" transform="translate(0.473061, 1.163546)" fill="#000000">
            <path d="M0.291478795,1.46322355 C0.291478795,0.932003446 0.532677497,0.666029046 1.01434621,0.666029046 L7.7139863,0.666029046 C8.22844637,0.666029046 8.48640511,0.915243415 8.48640511,1.41294346 L8.48640511,1.63738213 C8.48640511,2.1525709 8.23719074,2.40980093 7.738762,2.40980093 L2.6830623,2.40980093 C2.26697633,2.40980093 2.06002638,2.60873521 2.06002638,3.00733246 L2.06002638,21.5628725 C2.06002638,22.0773326 1.81081201,22.3345626 1.31311197,22.3345626 L1.0391219,22.3345626 C0.540693164,22.3345626 0.291478795,22.086077 0.291478795,21.5876482 L0.291478795,1.46322355" id="Fill-181" sketch:type="MSShapeGroup"></path>
            <path d="M22.9051324,0.316983189 C22.9546838,0.23464043 23.2286738,0.225896066 23.7271026,0.292207492 C24.2750827,0.392038979 24.8478385,0.516646164 25.4453701,0.666029046 C25.8264786,0.732340472 26.1179574,0.86569202 26.3168917,1.0646263 C26.4830346,1.38015209 26.3249073,1.60459076 25.8439673,1.73721362 C25.5277128,1.82028507 25.3455386,2.01120368 25.2959872,2.30996945 L24.0010926,6.74336191 C23.8837724,7.17547923 24.017124,7.39117354 24.3989612,7.39117354 L31.9956273,7.39117354 C32.5268474,7.59010781 32.9997717,7.29134205 33.415129,6.49414754 C33.6475834,6.16186172 33.9048134,5.83030459 34.1875478,5.49801876 C34.5365937,5.01635006 35.0175337,5.09942151 35.6318253,5.74723313 C36.6614741,6.51090758 37.30127,7.21628626 37.5497557,7.86409788 C37.4506529,7.9806894 37.1343984,8.03825646 36.6031783,8.03825646 L32.3198974,8.03825646 C31.9213002,8.03825646 31.6801015,8.28747083 31.59703,8.78589957 C31.3645757,11.0769229 30.5761256,13.4765221 29.2309509,15.9839684 C28.9649765,16.415357 29.0232723,16.7228671 29.4058382,16.9050414 C30.7335241,17.5025729 32.003643,18.3332875 33.2161947,19.3957277 C34.4615379,20.6243108 34.8105837,21.7865825 34.2626036,22.8825428 C33.5317205,23.6629772 32.734526,23.52161 31.8710201,22.4591698 C30.3597026,20.765678 29.1143594,19.5370949 28.1349907,18.7734205 C27.7371221,18.4411346 27.2962604,18.5329505 26.8153204,19.0474105 C24.7560227,20.9398366 22.199025,22.2354598 19.1443272,22.9328229 C18.048367,23.1645485 16.7192237,23.3634828 15.1590834,23.5303544 C14.6606547,23.5463857 14.3779202,23.5135944 14.3123375,23.4305229 C14.3451289,23.2140999 14.5112718,23.0982371 14.8100376,23.0822057 C17.5994896,22.4176341 20.2563188,21.2305867 22.7805252,19.5203349 C23.9420682,18.673589 24.8726142,17.793323 25.5699773,16.8802657 C24.6233999,16.1661426 23.4859039,15.4527483 22.1574893,14.7386253 C21.6262692,14.4558908 21.2276719,14.563738 20.9624262,15.0621667 L20.7627632,15.5103154 C20.6301404,15.8426012 20.5303089,16.0502798 20.4639975,16.1333513 C20.0158488,16.4816684 19.4343486,16.5399642 18.7202256,16.3075099 C18.288837,16.158127 18.0228626,15.9424327 17.9237598,15.6596982 C17.9062711,15.460764 18.0228626,15.1037024 18.2720769,14.5885137 C19.1691029,12.6130161 19.9327774,10.6455343 20.563829,8.68606808 C20.7132118,8.25467946 20.5966203,8.03825646 20.2147831,8.03825646 L15.8812221,8.03825646 L15.0840276,8.18763934 C14.5528075,8.23791943 14.2285374,8.11331225 14.1126745,7.81454648 C14.0296031,7.3991892 14.2700731,7.21628626 14.8348133,7.26656635 C15.1670991,7.28332638 15.4993849,7.32486211 15.8316707,7.39117354 L20.364166,7.39117354 C20.7627632,7.39117354 21.0535133,7.14195917 21.2364163,6.64353043 C22.1159535,3.87083839 22.6719493,1.76198931 22.9051324,0.316983189 L22.9051324,0.316983189 Z M28.8323537,8.66129238 C28.8491137,8.2459351 28.6581951,8.03825646 28.2595978,8.03825646 L24.2248026,8.03825646 C23.8262054,8.03825646 23.5354553,8.28747083 23.353281,8.78589957 L21.7843964,13.1194605 C21.6175248,13.5180578 21.8004277,13.8088079 22.3323765,13.9909821 C24.0418997,14.5724823 25.2537228,15.0286467 25.9685745,15.3609325 C26.3671718,15.5270754 26.7235046,15.3609325 27.0390304,14.8625037 C28.0023678,13.0196291 28.5998993,10.9523157 28.8323537,8.66129238 L28.8323537,8.66129238 Z" id="Fill-182" sketch:type="MSShapeGroup"></path>
            <path d="M49.3036381,0.666029046 C49.8348582,0.102017578 50.3413026,-0.0313339704 50.8229713,0.267431794 C51.7360287,0.832171959 52.3175289,1.29708064 52.5667432,1.66215783 C52.7321574,1.96092359 52.5995346,2.1270665 52.168146,2.16058657 C51.951723,2.1270665 51.744773,2.1525709 51.54511,2.23491366 C50.4163584,2.76686246 49.0544237,3.14068401 47.4607634,3.35564962 C47.0621662,3.42268975 46.8632319,3.65514408 46.8632319,4.05301264 L46.8632319,6.76813761 C46.8632319,7.18349489 46.9703504,7.39117354 47.1867734,7.39117354 C47.4024677,7.39117354 47.6764577,7.19151056 48.0087436,6.79291331 L48.6565552,5.97094311 C49.0544237,5.20726867 49.5280768,5.11618154 50.0760569,5.69695304 C50.4906855,5.96292744 50.9803699,6.40306042 51.54511,7.01735198 C51.8941559,7.61488351 52.0012744,7.93842497 51.8693802,7.98870506 C51.8023401,8.02222513 51.5203343,8.03825646 51.0226343,8.03825646 L47.4855391,8.03825646 C47.0701818,8.03825646 46.8632319,8.23791943 46.8632319,8.63651669 L46.8632319,11.6496787 C46.8632319,12.065036 47.0621662,12.2727146 47.4607634,12.2727146 L58.6440761,12.2727146 C59.0587047,12.2727146 59.2663833,12.0730517 59.2663833,11.6744544 L59.2663833,8.5614609 C59.2663833,8.14683231 59.067449,7.93842497 58.6688518,7.93842497 L56.2277169,7.93842497 L55.4560268,8.03825646 C54.940838,8.08853655 54.6413435,7.96392937 54.5590008,7.6651636 C54.4591693,7.31611775 54.6668479,7.14997483 55.1820367,7.16673486 C55.861911,7.30008641 57.016167,7.34089344 58.6440761,7.29134205 C59.0587047,7.29134205 59.2663833,7.09167907 59.2663833,6.69308182 L59.2663833,3.70469548 C59.2663833,3.30609823 59.2496233,3.08165956 59.2168319,3.03210816 C59.1497918,2.98255677 58.9180662,2.95778107 58.5194689,2.95778107 C57.5393715,2.94102104 56.559274,2.95778107 55.5799053,3.00733246 C55.4968338,3.04085253 55.4137623,3.04886819 55.3314196,3.03210816 C54.8329908,3.09841959 54.5342251,2.98255677 54.4343936,2.683791 C54.3352908,2.33474515 54.5502564,2.16933093 55.0822052,2.18536226 C55.7300168,2.30195378 56.9083199,2.32672948 58.6185717,2.26041805 C58.8845461,2.04472374 59.1497918,1.76198931 59.4157662,1.41294346 C59.6314605,1.03110624 59.9469863,0.948763477 60.3623436,1.16445778 C60.9926665,1.42970349 61.5989424,1.72919795 62.1804426,2.06075508 C63.0439485,2.55918382 63.1430513,2.99057243 62.4792083,3.35564962 C62.0310597,3.50503251 61.8816768,3.821287 62.0310597,4.30222701 L62.0310597,12.8702462 C62.246754,13.9501751 61.7403096,14.5389623 60.5117265,14.6387938 C59.5979404,14.7546566 59.1833119,14.3735481 59.2663833,13.4932821 C59.2663833,13.1114449 59.067449,12.9197976 58.6688518,12.9197976 L57.5481158,12.9197976 C57.1320298,12.9197976 56.9250799,13.1194605 56.9250799,13.5180578 L56.9250799,19.5451106 C56.8084884,20.491688 57.2318613,20.9398366 58.1951987,20.8902852 C59.3239504,20.972628 60.5612779,20.9230766 61.9064525,20.7409023 C62.2882897,20.6738622 62.5367754,20.4173609 62.6540956,19.9684835 C62.8858212,19.3381606 63.0774686,18.707109 63.2268514,18.0760574 C63.4090257,17.9099145 63.5584086,17.8763945 63.6750001,17.976226 C63.7245515,18.0425374 63.7493272,18.3245431 63.7493272,18.8229719 C63.5664242,19.6697178 63.824383,20.3175294 64.521746,20.765678 C64.8372718,20.9974037 65.0201747,21.2968981 65.0697261,21.6619753 C65.1025175,22.4424098 64.6463532,22.9328229 63.6997758,23.1317571 C62.4048812,23.480803 60.611558,23.6301859 58.3198059,23.5799058 C56.9913913,23.4968343 55.9952625,23.3139314 55.3314196,23.0319257 C54.6668479,22.5502569 54.2762664,21.9359654 54.1604035,21.189051 L54.1604035,13.5428335 C54.1604035,13.1282049 53.9614693,12.9197976 53.562872,12.9197976 L52.6162946,12.9197976 C52.2176974,12.9197976 51.9939874,13.1690119 51.9437073,13.6674407 C51.8766672,15.7099783 51.3126557,17.6191644 50.2502155,19.3957277 C48.9378322,21.1555309 47.0038704,22.4511542 44.4468727,23.28114 L42.9275395,23.704513 C42.4298394,23.7875844 42.1558494,23.7956001 42.1055693,23.7292887 C42.1718807,23.5135944 42.3460393,23.3722271 42.6287737,23.3059157 C44.0898112,22.6748641 45.4182258,21.8120869 46.6140175,20.7161266 C48.3403007,18.6568289 49.1790309,16.2659741 49.1294795,13.5428335 C49.1294795,13.1282049 48.9305453,12.9197976 48.531948,12.9197976 L47.4855391,12.9197976 C47.0701818,12.9197976 46.8632319,13.0531491 46.8632319,13.3183948 C46.9127833,14.2321808 46.439859,14.7218652 45.4430015,14.7881766 C44.3973213,14.9215282 43.9564596,14.4894109 44.1233312,13.4932821 L44.1233312,2.33474515 C44.1233312,1.82028507 44.3885769,1.62936646 44.9205257,1.76198931 C45.2856029,1.84506077 45.6754558,1.98642799 46.0908131,2.18536226 C46.5389617,2.4178166 46.937559,2.42656097 47.2866049,2.21013796 C47.9169277,1.82830074 48.5895151,1.31384067 49.3036381,0.666029046" id="Fill-183" sketch:type="MSShapeGroup"></path>
            <path d="M79.5387335,8.33702222 C80.8343567,7.70669933 82.0374354,7.97194503 83.1501557,9.13421673 C83.6318245,9.88113114 83.8227431,10.7286057 83.7236403,11.6744544 C83.5742574,13.3519149 82.5693842,14.8297124 80.7097495,16.1078469 C80.2280808,16.4401327 79.8702906,16.5151885 79.638565,16.3322856 C79.4061106,16.1501113 79.5467491,15.8841369 80.0619379,15.5350911 C80.8591324,14.9710796 81.4318883,14.2489409 81.7809341,13.3686749 C81.8800369,12.8870062 81.7969654,12.704832 81.5317197,12.8206948 C80.5516223,13.0859405 79.7048764,12.8542148 78.9907533,12.1233318 C78.2103189,11.2430658 78.1024717,10.2636971 78.6672119,9.18376812 C78.9164263,8.76913954 79.2064477,8.48640511 79.5387335,8.33702222" id="Fill-184" sketch:type="MSShapeGroup"></path>
            <path d="M115.42706,1.53755064 C116.007832,0.7738762 116.423918,0.284191825 116.672403,0.0684975167 C116.971898,0.0349774554 117.436806,0.300951855 118.067858,0.86569202 C118.865052,1.51277494 119.329232,2.09427514 119.462584,2.60873521 C119.395544,2.7085667 119.096778,2.75811809 118.566287,2.75811809 L110.072595,2.75811809 C109.673997,2.75811809 109.324952,3.00733246 109.026186,3.50503251 C108.510997,4.45160989 107.87193,5.36539591 107.108255,6.24493318 C106.710387,6.74336191 106.710387,6.99257628 107.108255,6.99257628 L114.281548,6.99257628 C114.779977,7.19151056 115.277677,6.8927448 115.776106,6.09555029 C116.007832,5.76399316 116.340117,5.7304731 116.772235,5.99571881 C117.984786,6.37828472 118.765221,6.92626486 119.113538,7.63965921 C119.030467,7.85608221 118.781252,8.04700082 118.366624,8.21241504 C118.283552,8.29621519 118.242017,8.52866953 118.242017,8.90977806 L118.242017,21.9359654 C118.242017,22.4343941 118.217241,22.7579356 118.167689,22.9073185 C117.635741,23.5383701 116.938378,23.7373043 116.074872,23.5055787 C115.642754,23.3387071 115.484627,22.9736299 115.601947,22.4096184 C115.601947,21.9279497 115.402284,21.6874797 115.003687,21.6874797 L101.42952,21.6874797 C101.014162,21.6874797 100.807212,21.886414 100.807212,22.2850112 C100.956595,23.2315886 100.582774,23.7795688 99.6864765,23.9289516 C98.5730275,24.1606773 98.0673118,23.6964973 98.1671432,22.5342256 L98.1671432,6.8431934 C98.1671432,6.34476466 98.1999346,6.08753463 98.2669747,6.0707746 C98.5657405,6.08753463 98.8645063,6.16186172 99.163272,6.29521327 L100.159401,6.69308182 C100.607549,6.8927448 100.989387,6.99257628 101.305641,6.99257628 L105.191054,6.99257628 C105.588922,6.99257628 105.838136,6.74336191 105.937968,6.24493318 C106.087351,5.28232446 106.203214,4.31898704 106.286285,3.35564962 C106.319076,2.95778107 106.136902,2.75811809 105.738305,2.75811809 L98.7151234,2.75811809 L97.8931532,2.90750098 C97.345173,2.9738124 97.0289186,2.86669395 96.9465758,2.58395951 L96.8219686,2.01120368 C96.85476,1.94489226 97.1207344,1.93614789 97.6191631,1.98642799 C97.9346889,2.00245932 98.2742617,2.04472374 98.6400676,2.11030647 L114.3311,2.11030647 C114.746457,2.11030647 115.111534,1.92011656 115.42706,1.53755064 L115.42706,1.53755064 Z M103.89543,8.28747083 C103.89543,7.85608221 103.704512,7.63965921 103.322674,7.63965921 C102.52548,7.62362787 101.72027,7.63164354 100.907044,7.6651636 C100.840004,7.714715 100.807212,7.93842497 100.807212,8.33702222 L100.807212,20.3918565 C100.807212,20.8072138 101.006147,21.0148924 101.404744,21.0148924 L103.273123,21.0148924 C103.687752,21.0148924 103.89543,20.8152294 103.89543,20.4173609 L103.89543,8.28747083 L103.89543,8.28747083 Z M109.972763,8.28747083 C109.972763,7.85608221 109.781116,7.63965921 109.400007,7.63965921 L107.058704,7.63965921 C106.643347,7.63965921 106.436397,7.83932218 106.436397,8.23791943 L106.436397,10.8277085 C106.436397,11.2430658 106.635331,11.4507444 107.033928,11.4507444 L109.350456,11.4507444 C109.765084,11.4507444 109.972763,11.2510815 109.972763,10.8532129 L109.972763,8.28747083 L109.972763,8.28747083 Z M109.972763,12.7704147 C109.972763,12.3390261 109.781116,12.1233318 109.400007,12.1233318 L107.058704,12.1233318 C106.643347,12.1233318 106.436397,12.322266 106.436397,12.7208633 L106.436397,15.6101468 C106.436397,16.0255041 106.635331,16.2324541 107.033928,16.2324541 L109.350456,16.2324541 C109.765084,16.2324541 109.972763,16.0335198 109.972763,15.6349225 L109.972763,12.7704147 L109.972763,12.7704147 Z M109.972763,17.5280773 C109.972763,17.11272 109.773829,16.9050414 109.375232,16.9050414 L107.058704,16.9050414 C106.643347,16.9050414 106.436397,17.1047044 106.436397,17.5025729 L106.436397,20.3918565 C106.436397,20.8072138 106.635331,21.0148924 107.033928,21.0148924 L109.350456,21.0148924 C109.765084,21.0148924 109.972763,20.8152294 109.972763,20.4173609 L109.972763,17.5280773 L109.972763,17.5280773 Z M115.551667,7.73949069 C115.484627,7.67317927 115.269662,7.63965921 114.904584,7.63965921 L113.136037,7.63965921 C112.720679,7.63965921 112.513001,7.83932218 112.513001,8.23791943 L112.513001,20.3918565 C112.513001,20.8072138 112.712664,21.0148924 113.111261,21.0148924 L114.978911,21.0148924 C115.39354,21.0148924 115.601947,20.8152294 115.601947,20.4173609 L115.601947,8.38730232 C115.601947,7.98870506 115.584459,7.77301076 115.551667,7.73949069 L115.551667,7.73949069 Z" id="Fill-185" sketch:type="MSShapeGroup"></path>
            <path d="M129.148424,0.86569202 C129.579813,0.367263281 129.846516,0.118048912 129.945619,0.118048912 C131.09113,0.533406194 132.013661,1.12292206 132.710295,1.8865965 C132.826158,2.1525709 132.676775,2.38429654 132.262875,2.58395951 C131.680646,2.81641385 131.464952,3.19023541 131.615064,3.70469548 L131.615064,21.7370311 C131.564784,22.8825428 130.85066,23.6301859 129.472694,23.978503 C128.841643,24.0287831 128.518101,23.7875844 128.501341,23.2563643 C128.451061,22.7244155 128.011657,22.2354598 127.180942,21.7865825 L127.106615,21.5876482 C127.106615,21.5206081 127.356558,21.429521 127.854258,21.3136582 C128.849659,21.2801381 129.257,20.8480208 129.074826,20.0187636 L129.074826,15.037391 C129.074826,14.6220337 128.874434,14.4143551 128.476566,14.4143551 L127.779931,14.4143551 C127.380605,14.4143551 127.156167,14.6635695 127.106615,15.1619982 C126.939744,18.2006646 126.084982,20.9398366 124.541602,23.3809715 C124.159036,23.8954316 123.934597,24.1606773 123.868286,24.178166 C123.785215,24.144646 123.769183,23.8786716 123.818735,23.3809715 C124.399506,19.9269478 124.690256,15.8761212 124.690256,11.2263058 L124.690256,0.989570508 C124.690256,0.441590374 125.014526,0.292207492 125.661609,0.541421861 C125.993166,0.690804743 126.326181,0.86569202 126.658467,1.0646263 C127.022815,1.39691212 127.662611,1.49674361 128.576397,1.36339206 C128.725051,1.36339206 128.916699,1.19797785 129.148424,0.86569202 L129.148424,0.86569202 Z M129.074826,9.00960954 C129.074826,8.5614609 128.891194,8.33702222 128.526117,8.33702222 L127.854258,8.33702222 C127.438173,8.33702222 127.231951,8.5366852 127.231951,8.93528245 L127.231951,11.7495102 L127.205718,12.9948534 C127.188958,13.5100421 127.380605,13.7672722 127.779931,13.7672722 L128.451061,13.7672722 C128.866419,13.7672722 129.074826,13.5676092 129.074826,13.1690119 L129.074826,9.00960954 L129.074826,9.00960954 Z M128.999041,2.13581087 C128.93273,2.08553078 128.700276,2.06075508 128.301678,2.06075508 L127.829483,2.06075508 C127.430157,2.14382653 127.231951,2.38429654 127.231951,2.78289379 L127.231951,7.04212768 C127.231951,7.45748496 127.430157,7.6651636 127.829483,7.6651636 L128.451061,7.6651636 C128.866419,7.6651636 129.074826,7.46550063 129.074826,7.06690338 L129.074826,2.83317388 C129.074826,2.43457663 129.049322,2.20212229 128.999041,2.13581087 L128.999041,2.13581087 Z M137.841051,15.1364938 C137.841051,14.6052737 138.106296,14.3480437 138.638974,14.3648037 C139.700685,14.4311151 140.431568,14.5309466 140.830894,14.6635695 C141.278314,14.8464724 141.294346,15.0956868 140.879717,15.4104839 C140.630503,15.5598668 140.481849,15.8338568 140.431568,16.2324541 C140.382017,16.6478114 140.556176,16.85549 140.954773,16.85549 L142.325452,16.85549 C142.722592,16.85549 143.087669,16.655827 143.420684,16.2572298 C143.602858,15.9919841 143.818552,15.717994 144.067766,15.4359883 C144.466364,14.6723138 144.939288,14.580498 145.487268,15.1619982 C145.902625,15.4272439 146.393039,15.8673769 146.957779,16.4816684 C147.306096,17.0792 147.413214,17.4034701 147.280591,17.4530215 C147.213551,17.4865416 146.932274,17.5025729 146.433846,17.5025729 L141.004324,17.5025729 C140.588967,17.5025729 140.539416,17.7605317 140.854941,18.2749917 C142.648265,20.4829436 144.847472,21.4047453 147.456207,21.0396681 C147.754244,21.0229081 147.928403,21.1147239 147.977954,21.3136582 C147.961194,21.3960009 147.704693,21.5453838 147.206993,21.7618068 C146.559181,22.0110212 145.976953,22.567017 145.463221,23.4305229 C145.246069,23.9289516 145.096687,24.185453 145.015073,24.2029417 C142.70656,23.3889872 141.104156,21.7865825 140.20713,19.3957277 C140.090538,18.914059 140.008196,18.690349 139.957915,18.7231404 C139.891604,18.7901805 139.816548,18.947579 139.734934,19.1967934 C139.252537,20.6578309 138.214872,21.8528939 136.620483,22.78344 C135.192237,23.5303544 133.699137,23.978503 132.137539,24.1278859 C131.489728,24.178166 131.150155,24.1533903 131.116635,24.0535588 C131.116635,23.9697587 131.390625,23.8291202 131.938605,23.6301859 C133.498745,23.1645485 134.859951,22.3345626 136.022952,21.1394996 C136.703555,20.275265 137.193968,19.2878805 137.492734,18.1751602 C137.608596,17.7270116 137.475973,17.5025729 137.094136,17.5025729 L134.05547,17.5025729 L133.258275,17.6271801 C132.727784,17.7109803 132.402785,17.5943887 132.286922,17.2788629 C132.187091,16.8642344 132.436305,16.6813314 133.034565,16.7308828 C133.333331,16.7476428 133.656873,16.7891786 134.005918,16.85549 L137.118912,16.85549 C137.517509,16.85549 137.749235,16.6062756 137.816275,16.1078469 L137.841051,15.1364938 L137.841051,15.1364938 Z M135.550756,0.715580441 C135.550756,0.184360338 135.806529,-0.0641253348 136.321717,-0.0313339704 C136.869698,0.0349774554 137.442453,0.126793276 138.040714,0.242656097 C138.190097,0.276176158 138.347495,0.33374322 138.513638,0.416814676 C138.663021,0.566197559 138.646261,0.7738762 138.464087,1.0398506 C138.214872,1.3553764 138.090265,1.72919795 138.090265,2.16058657 C138.090265,2.64225527 138.289199,2.88272528 138.687797,2.88272528 L139.883588,2.88272528 C140.298217,2.88272528 140.505896,2.683791 140.505896,2.28519375 L140.505896,0.79063623 C140.505896,0.259416127 140.763854,0.0182174247 141.278314,0.0684975167 C142.440586,0.167600307 143.237052,0.376007645 143.669898,0.690804743 C143.685929,0.7738762 143.586098,0.940019113 143.370403,1.18923348 C143.15398,1.47123922 143.046862,1.81154071 143.046862,2.21013796 C143.046862,2.65828661 143.172198,2.88272528 143.420684,2.88272528 C143.735481,2.9993168 143.993439,2.85794958 144.192374,2.45935233 C144.374548,2.1270665 144.590971,1.79550937 144.840185,1.46322355 C145.071911,1.19797785 145.230038,1.04786627 145.31311,1.0150749 C146.143824,1.49674361 146.808396,2.21013796 147.306096,3.15671535 C147.206993,3.5553126 146.873979,3.68793545 146.309967,3.5553126 L143.669898,3.5553126 C143.253812,3.5553126 143.046862,3.80452697 143.046862,4.30222701 C143.196245,5.59785025 142.615473,6.10429466 141.30309,5.82156023 C140.606456,5.67217734 140.339753,5.19050864 140.505896,4.3772828 C140.505896,3.82930266 140.306961,3.5553126 139.908364,3.5553126 L138.712572,3.5553126 C138.297215,3.5553126 138.090265,3.80452697 138.090265,4.30222701 C138.240377,5.59785025 137.658148,6.10429466 136.346493,5.82156023 C135.64913,5.67217734 135.383884,5.199253 135.550756,4.4020585 C135.550756,3.83804703 135.350364,3.5553126 134.952496,3.5553126 C134.553899,3.5553126 133.823744,3.62963969 132.761304,3.77902257 C132.694264,3.72947118 132.636697,3.56405696 132.585688,3.28132253 C132.518648,2.91624534 132.761304,2.75010243 133.307827,2.78289379 L134.926991,2.88272528 C135.34162,2.88272528 135.550756,2.683791 135.550756,2.28519375 L135.550756,0.715580441 L135.550756,0.715580441 Z M133.557041,6.59397903 C133.557041,6.02923887 133.806255,5.81354456 134.304684,5.94616741 C134.719313,6.06275893 135.13467,6.21214181 135.550756,6.39431606 C135.915833,6.577219 136.288197,6.66830612 136.670763,6.66830612 L142.051462,6.66830612 C142.448602,6.66830612 142.805663,6.52766761 143.121189,6.24493318 C143.420684,5.93013608 143.818552,5.86309595 144.316981,6.0459989 C145.396181,6.51090758 146.076784,6.97581625 146.360247,7.44072493 C146.325998,7.63965921 146.092815,7.84733785 145.662884,8.06303216 C145.612604,8.16286364 145.5871,8.41207801 145.5871,8.81067527 L145.5871,12.9948534 C145.753971,13.7920479 145.487268,14.2897479 144.789905,14.4894109 C143.959919,14.7546566 143.395179,14.6307781 143.096413,14.1155893 C143.046862,13.9829665 142.822423,13.9166551 142.424555,13.9166551 L136.720315,13.9166551 C136.321717,13.9166551 136.105294,14.0077422 136.072503,14.1906451 C135.93988,14.6883452 135.607594,14.9623352 135.076374,15.0126153 C134.030694,15.277861 133.523521,14.9871109 133.557041,14.140365 L133.557041,6.59397903 L133.557041,6.59397903 Z M143.022815,7.98870506 C143.022815,7.55731645 142.805663,7.34089344 142.374275,7.34089344 L136.944753,7.34089344 C136.23063,7.17547923 135.949353,7.40720487 136.098007,8.03825646 L136.098007,9.45775819 C136.098007,9.87311547 136.29767,10.0807941 136.695539,10.0807941 L142.39905,10.0807941 C142.813679,10.0807941 143.022815,9.88113114 143.022815,9.48326258 L143.022815,7.98870506 L143.022815,7.98870506 Z M143.022815,11.3756887 C143.022815,10.9443 142.830439,10.7286057 142.448602,10.7286057 L136.720315,10.7286057 C136.304957,10.7286057 136.098007,10.92754 136.098007,11.3261373 L136.098007,12.6458075 C136.098007,13.0611648 136.29767,13.2688434 136.695539,13.2688434 L142.39905,13.2688434 C142.813679,13.2688434 143.022815,13.0691805 143.022815,12.6713119 L143.022815,11.3756887 L143.022815,11.3756887 Z" id="Fill-186" sketch:type="MSShapeGroup"></path>
            <path d="M162.745728,8.96005815 C163.475882,8.81067527 164.140454,8.86897102 164.737985,9.13421673 C166.399414,10.1143142 166.996946,11.3261373 166.531308,12.7704147 C165.884226,14.3983238 164.779521,15.1700139 163.219381,15.0869424 C161.591472,14.7051052 160.66967,13.7672722 160.453976,12.2727146 C160.354873,10.7286057 161.119276,9.6239011 162.745728,8.96005815 L162.745728,8.96005815 Z M164.165229,9.85635544 C163.468595,9.64066113 162.770503,9.79878838 162.07314,10.3300085 C161.476337,10.92754 161.242426,11.5921117 161.376506,12.322266 C161.458849,13.0691805 161.915013,13.6506807 162.745728,14.0660379 C163.709065,14.4143551 164.539051,14.2074051 165.236414,13.443002 C166.298854,11.9484445 165.941793,10.7533814 164.165229,9.85635544 L164.165229,9.85635544 Z" id="Fill-187" sketch:type="MSShapeGroup"></path>
            <path d="M187.151976,2.93227667 C187.151976,2.40105657 187.38443,2.13581087 187.850067,2.13581087 L188.148105,2.13581087 C188.662565,2.13581087 188.920523,2.38429654 188.920523,2.88272528 L188.920523,22.1851798 C188.920523,22.6996398 188.671309,22.9575986 188.17288,22.9575986 L181.498016,22.9575986 C180.982827,22.9575986 180.727054,22.7083842 180.727054,22.2099555 L180.727054,21.9862455 C180.727054,21.4710567 180.976269,21.2138267 181.473969,21.2138267 L186.529669,21.2138267 C186.945026,21.2138267 187.151976,21.0148924 187.151976,20.6162951 L187.151976,2.93227667" id="Fill-188" sketch:type="MSShapeGroup"></path>
        </g>
    </g>
</svg>