<?xml version="1.0" encoding="utf-8"?>
<!-- Generator: Adobe Illustrator 17.0.2, SVG Export Plug-In . SVG Version: 6.00 Build 0)  -->
<!DOCTYPE svg PUBLIC "-//W3C//DTD SVG 1.1//EN" "http://www.w3.org/Graphics/SVG/1.1/DTD/svg11.dtd">
<svg version="1.1" id="Layer_1" xmlns="http://www.w3.org/2000/svg" xmlns:xlink="http://www.w3.org/1999/xlink" x="0px" y="0px"
	 width="200px" height="150px" viewBox="0 0 200 150" enable-background="new 0 0 200 150" xml:space="preserve">
<rect fill="#F8E3D0" width="200" height="150"/>
<g>
	<path fill="#B3A08F" d="M109.601,46.455c-0.783,0-1.418,0.242-1.911,0.727c-0.493,0.484-0.742,1.114-0.742,1.882v3.986
		c0,0.857,0.228,1.528,0.676,2.014c0.449,0.489,1.066,0.731,1.847,0.731c0.869,0,1.523-0.228,1.958-0.687
		c0.44-0.463,0.657-1.148,0.657-2.059v-0.456h-1.795v0.405c0,0.524-0.061,0.86-0.175,1.013c-0.115,0.153-0.317,0.229-0.606,0.229
		c-0.279,0-0.474-0.088-0.592-0.269c-0.113-0.182-0.17-0.506-0.17-0.974v-1.669v-0.003v0.003h3.338v-2.264
		c0-0.842-0.213-1.487-0.642-1.935C111.014,46.68,110.4,46.455,109.601,46.455z M110.29,49.943h-1.543v-0.896
		c0-0.372,0.059-0.64,0.18-0.796c0.122-0.166,0.322-0.244,0.6-0.244c0.265,0,0.462,0.078,0.578,0.244
		c0.123,0.156,0.185,0.424,0.185,0.796V49.943z"/>
	<path fill="#B3A08F" d="M104.331,46.566c-0.271,0-0.538,0.069-0.805,0.211c-0.263,0.139-0.511,0.347-0.748,0.617v-3.875h-1.764
		v12.032h1.764V54.87c0.227,0.274,0.479,0.472,0.746,0.601c0.266,0.13,0.569,0.192,0.912,0.192c0.518,0,0.916-0.165,1.187-0.501
		c0.274-0.336,0.411-0.817,0.411-1.445v-4.926c0-0.727-0.144-1.281-0.438-1.66C105.306,46.755,104.885,46.566,104.331,46.566z
		 M104.238,53.472c0,0.286-0.053,0.487-0.153,0.611c-0.1,0.127-0.256,0.189-0.47,0.189c-0.148,0-0.287-0.033-0.421-0.096
		c-0.135-0.062-0.274-0.171-0.415-0.313v-5.531c0.119-0.122,0.239-0.213,0.36-0.271c0.121-0.059,0.244-0.085,0.37-0.085
		c0.234,0,0.417,0.076,0.544,0.23c0.123,0.154,0.185,0.383,0.185,0.682C104.238,48.888,104.238,53.472,104.238,53.472z"/>
	<path fill="#B3A08F" d="M97.956,53.416c-0.167,0.192-0.345,0.35-0.542,0.475c-0.196,0.126-0.36,0.188-0.488,0.188
		c-0.162,0-0.281-0.046-0.358-0.141c-0.07-0.095-0.107-0.246-0.107-0.457v-6.809h-1.744v7.422c0,0.531,0.104,0.923,0.305,1.189
		c0.208,0.267,0.508,0.396,0.913,0.396c0.328,0,0.665-0.091,1.014-0.282c0.351-0.186,0.684-0.461,1.009-0.822v0.975H99.7v-8.878
		h-1.744C97.956,46.672,97.956,53.416,97.956,53.416z"/>
	<polygon fill="#B3A08F" points="87.914,45.267 89.948,45.267 89.948,55.551 91.916,55.551 91.916,45.267 93.95,45.267 
		93.95,43.519 87.914,43.519 	"/>
	<g>
		<path fill="#B3A08F" d="M99.447,34.474c0.266,0,0.476-0.075,0.634-0.223c0.157-0.152,0.235-0.358,0.235-0.618v-5.327
			c0-0.214-0.08-0.387-0.241-0.519c-0.16-0.131-0.37-0.196-0.628-0.196c-0.241,0-0.435,0.065-0.586,0.196
			c-0.148,0.132-0.225,0.305-0.225,0.519v5.327c0,0.267,0.072,0.473,0.211,0.622C98.986,34.402,99.186,34.474,99.447,34.474z"/>
		<path fill="#B3A08F" d="M100,10.667c-16.568,0-30,13.431-30,30c0,16.568,13.432,30,30,30s30-13.432,30-30
			C130,24.098,116.568,10.667,100,10.667z M103.912,26.143h1.962v7.497c0,0.231,0.045,0.399,0.127,0.502
			c0.08,0.104,0.216,0.156,0.399,0.156c0.143,0,0.327-0.069,0.548-0.206c0.22-0.137,0.423-0.312,0.605-0.527v-7.422h1.966v9.779
			h-1.965v-1.08c-0.358,0.397-0.736,0.703-1.13,0.909c-0.392,0.208-0.771,0.312-1.14,0.312c-0.458,0-0.797-0.146-1.027-0.437
			c-0.229-0.291-0.345-0.727-0.345-1.311V26.143z M96.614,28.38c-0.001-0.759,0.263-1.362,0.794-1.81
			c0.528-0.449,1.241-0.674,2.132-0.674c0.812,0,1.48,0.237,2.001,0.711c0.517,0.473,0.777,1.083,0.777,1.828v5.051
			c0,0.836-0.255,1.491-0.762,1.968c-0.513,0.476-1.212,0.714-2.106,0.714c-0.858,0-1.547-0.246-2.064-0.736
			c-0.513-0.492-0.772-1.153-0.772-1.984V28.38z M91.262,22.667l1.437,5.298h0.139l1.366-5.298h2.25l-2.574,7.755v5.5h-2.213V30.67
			l-2.634-8.003H91.262z M113.508,58.206c-1.434,1.43-13.514,1.461-13.514,1.461s-12.079-0.031-13.516-1.462
			c-1.438-1.435-1.441-8.502-1.441-8.556c0-0.041,0.004-7.12,1.441-8.555c1.079-1.073,8.142-1.352,11.606-1.424
			c1.155-0.024,1.91-0.025,1.91-0.025c0,0,0.295,0,0.798,0.006c0.101,0.001,0.21,0.003,0.326,0.004
			c0.233,0.003,0.497,0.008,0.786,0.014c0.144,0.003,0.295,0.006,0.451,0.01c0.312,0.008,0.647,0.017,0.998,0.028
			c0.878,0.028,1.86,0.068,2.86,0.125c0.4,0.023,0.803,0.049,1.203,0.078c0.2,0.014,0.399,0.03,0.597,0.046
			c0.396,0.032,0.786,0.068,1.165,0.107c2.086,0.215,3.837,0.54,4.33,1.032c0.09,0.09,0.174,0.201,0.253,0.332
			c0.158,0.261,0.296,0.599,0.415,0.987c0.119,0.388,0.221,0.827,0.306,1.293s0.156,0.957,0.214,1.451
			c0.261,2.22,0.266,4.47,0.266,4.493C114.963,49.65,114.951,56.767,113.508,58.206z"/>
	</g>
</g>
<path fill="#B3A08F" d="M29.848,56.987h6.744V40.665h4.499l0.596-5.624h-5.095l0.007-2.816c0-1.466,0.14-2.253,2.244-2.253h2.812
	v-5.625h-4.5c-5.405,0-7.307,2.729-7.307,7.317v3.377h-3.369v5.625h3.369V56.987z M34.083,70.667c-16.568,0-30-13.432-30-30
	c0-16.569,13.432-30,30-30s30,13.431,30,30C64.083,57.235,50.651,70.667,34.083,70.667z"/>
<path fill="#B3A08F" d="M175.188,33.245v-0.006c0.502,0,1.005,0.01,1.508-0.002c0.646-0.016,1.172-0.57,1.172-1.217
	c0-0.963,0-1.927,0-2.89c0-0.691-0.547-1.24-1.236-1.241c-0.961,0-1.922-0.001-2.883,0c-0.688,0.001-1.236,0.552-1.236,1.243
	c-0.001,0.955-0.004,1.91,0.003,2.865c0.001,0.143,0.028,0.291,0.073,0.426c0.173,0.508,0.639,0.82,1.209,0.823
	C174.261,33.246,174.725,33.245,175.188,33.245z M165.917,34.484c-3.384-0.002-6.135,2.721-6.182,6.089
	c-0.049,3.46,2.72,6.201,6.04,6.272c3.454,0.074,6.248-2.686,6.321-6.043C172.171,37.342,169.379,34.482,165.917,34.484z
	 M153.963,37.783v0.082c0,4.515-0.001,9.03,0,13.545c0,0.649,0.562,1.208,1.212,1.208c7.16,0.001,14.319,0.001,21.479,0
	c0.656,0,1.215-0.557,1.215-1.212c0.001-4.509,0-9.02,0-13.528v-0.094h-2.912c0.411,1.314,0.537,2.651,0.376,4.014
	c-0.161,1.363-0.601,2.631-1.316,3.803s-1.644,2.145-2.779,2.918c-2.944,2.006-6.821,2.182-9.946,0.428
	c-1.579-0.885-2.819-2.12-3.685-3.713c-1.289-2.373-1.495-4.865-0.739-7.451C155.9,37.783,154.938,37.783,153.963,37.783z
	 M178.122,55.922c0.159-0.026,0.318-0.049,0.475-0.083c1.246-0.265,2.264-1.304,2.508-2.557c0.025-0.137,0.045-0.273,0.067-0.409
	V28.461c-0.021-0.133-0.04-0.268-0.065-0.401c-0.268-1.367-1.396-2.428-2.78-2.618c-0.058-0.007-0.113-0.02-0.17-0.03h-24.479
	c-0.147,0.027-0.296,0.047-0.441,0.08c-1.352,0.308-2.352,1.396-2.545,2.766c-0.008,0.057-0.02,0.114-0.029,0.171v24.478
	c0.028,0.154,0.05,0.311,0.085,0.465c0.299,1.322,1.427,2.347,2.77,2.52c0.064,0.008,0.13,0.021,0.195,0.03H178.122z
	 M165.917,70.667c-16.568,0-30-13.432-30-30c0-16.569,13.432-30,30-30s30,13.431,30,30
	C195.917,57.235,182.485,70.667,165.917,70.667z"/>
<g>
	<path fill="#CF3427" d="M109.601,115.121c-0.783,0-1.418,0.242-1.911,0.727c-0.493,0.484-0.742,1.114-0.742,1.882v3.986
		c0,0.857,0.228,1.528,0.676,2.014c0.449,0.489,1.066,0.731,1.847,0.731c0.869,0,1.523-0.228,1.958-0.687
		c0.44-0.463,0.657-1.148,0.657-2.059v-0.456h-1.795v0.405c0,0.524-0.061,0.86-0.175,1.013c-0.115,0.153-0.317,0.229-0.606,0.229
		c-0.279,0-0.474-0.088-0.592-0.269c-0.113-0.182-0.17-0.506-0.17-0.974v-1.669v-0.003v0.003h3.338v-2.264
		c0-0.842-0.213-1.487-0.642-1.935C111.014,115.346,110.4,115.121,109.601,115.121z M110.29,118.609h-1.543v-0.896
		c0-0.372,0.059-0.64,0.18-0.796c0.122-0.166,0.322-0.244,0.6-0.244c0.265,0,0.462,0.078,0.578,0.244
		c0.123,0.156,0.185,0.424,0.185,0.796V118.609z"/>
	<path fill="#CF3427" d="M104.331,115.232c-0.271,0-0.538,0.069-0.805,0.211c-0.263,0.139-0.511,0.347-0.748,0.617v-3.875h-1.764
		v12.032h1.764v-0.681c0.227,0.274,0.479,0.472,0.746,0.601c0.266,0.13,0.569,0.192,0.912,0.192c0.518,0,0.916-0.165,1.187-0.501
		c0.274-0.336,0.411-0.817,0.411-1.445v-4.926c0-0.727-0.144-1.281-0.438-1.66C105.306,115.421,104.885,115.232,104.331,115.232z
		 M104.238,122.138c0,0.286-0.053,0.487-0.153,0.611c-0.1,0.127-0.256,0.189-0.47,0.189c-0.148,0-0.287-0.033-0.421-0.096
		c-0.135-0.062-0.274-0.171-0.415-0.313v-5.531c0.119-0.122,0.239-0.213,0.36-0.271c0.121-0.059,0.244-0.085,0.37-0.085
		c0.234,0,0.417,0.076,0.544,0.23c0.123,0.154,0.185,0.383,0.185,0.682C104.238,117.554,104.238,122.138,104.238,122.138z"/>
	<path fill="#CF3427" d="M97.956,122.082c-0.167,0.192-0.345,0.35-0.542,0.475c-0.196,0.126-0.36,0.188-0.488,0.188
		c-0.162,0-0.281-0.046-0.358-0.141c-0.07-0.095-0.107-0.246-0.107-0.457v-6.809h-1.744v7.422c0,0.531,0.104,0.923,0.305,1.189
		c0.208,0.267,0.508,0.396,0.913,0.396c0.328,0,0.665-0.091,1.014-0.282c0.351-0.186,0.684-0.461,1.009-0.822v0.975H99.7v-8.878
		h-1.744C97.956,115.338,97.956,122.082,97.956,122.082z"/>
	<polygon fill="#CF3427" points="87.914,113.933 89.948,113.933 89.948,124.217 91.916,124.217 91.916,113.933 93.95,113.933 
		93.95,112.185 87.914,112.185 	"/>
	<g>
		<path fill="#CF3427" d="M99.447,103.14c0.266,0,0.476-0.075,0.634-0.223c0.157-0.152,0.235-0.358,0.235-0.618v-5.327
			c0-0.214-0.08-0.387-0.241-0.519c-0.16-0.131-0.37-0.196-0.628-0.196c-0.241,0-0.435,0.065-0.586,0.196
			c-0.148,0.132-0.225,0.305-0.225,0.519v5.327c0,0.267,0.072,0.473,0.211,0.622C98.986,103.068,99.186,103.14,99.447,103.14z"/>
		<path fill="#CF3427" d="M100,79.333c-16.568,0-30,13.431-30,30c0,16.568,13.432,30,30,30s30-13.432,30-30
			C130,92.764,116.568,79.333,100,79.333z M103.912,94.809h1.962v7.497c0,0.231,0.045,0.399,0.127,0.502
			c0.08,0.104,0.216,0.156,0.399,0.156c0.143,0,0.327-0.069,0.548-0.206c0.22-0.137,0.423-0.312,0.605-0.527v-7.422h1.966v9.779
			h-1.965v-1.08c-0.358,0.397-0.736,0.703-1.13,0.909c-0.392,0.208-0.771,0.312-1.14,0.312c-0.458,0-0.797-0.146-1.027-0.437
			c-0.229-0.291-0.345-0.727-0.345-1.311V94.809z M96.614,97.046c-0.001-0.759,0.263-1.362,0.794-1.81
			c0.528-0.449,1.241-0.674,2.132-0.674c0.812,0,1.48,0.237,2.001,0.711c0.517,0.473,0.777,1.083,0.777,1.828v5.051
			c0,0.836-0.255,1.491-0.762,1.968c-0.513,0.476-1.212,0.714-2.106,0.714c-0.858,0-1.547-0.246-2.064-0.736
			c-0.513-0.492-0.772-1.153-0.772-1.984V97.046z M91.262,91.333l1.437,5.298h0.139l1.366-5.298h2.25l-2.574,7.755v5.5h-2.213
			v-5.252l-2.634-8.003H91.262z M113.508,126.872c-1.434,1.43-13.514,1.461-13.514,1.461s-12.079-0.031-13.516-1.462
			c-1.438-1.435-1.441-8.502-1.441-8.556c0-0.041,0.004-7.12,1.441-8.555c1.079-1.073,8.142-1.352,11.606-1.424
			c1.155-0.024,1.91-0.025,1.91-0.025c0,0,0.295,0,0.798,0.006c0.101,0.001,0.21,0.003,0.326,0.004
			c0.233,0.003,0.497,0.008,0.786,0.014c0.144,0.003,0.295,0.006,0.451,0.01c0.312,0.008,0.647,0.017,0.998,0.028
			c0.878,0.028,1.86,0.068,2.86,0.125c0.4,0.023,0.803,0.049,1.203,0.078c0.2,0.014,0.399,0.03,0.597,0.046
			c0.396,0.032,0.786,0.068,1.165,0.107c2.086,0.215,3.837,0.54,4.33,1.032c0.09,0.09,0.174,0.201,0.253,0.332
			c0.158,0.261,0.296,0.599,0.415,0.987c0.119,0.388,0.221,0.827,0.306,1.293s0.156,0.957,0.214,1.451
			c0.261,2.22,0.266,4.47,0.266,4.493C114.963,118.316,114.951,125.433,113.508,126.872z"/>
	</g>
</g>
<path fill="#3A589B" d="M29.848,125.653h6.744v-16.322h4.499l0.596-5.624h-5.095l0.007-2.816c0-1.466,0.14-2.253,2.244-2.253h2.812
	v-5.625h-4.5c-5.405,0-7.307,2.729-7.307,7.317v3.377h-3.369v5.625h3.369V125.653z M34.083,139.333c-16.568,0-30-13.432-30-30
	c0-16.569,13.432-30,30-30s30,13.431,30,30C64.083,125.901,50.651,139.333,34.083,139.333z"/>
<path fill="#517FA6" d="M175.188,101.911v-0.006c0.502,0,1.005,0.01,1.508-0.002c0.646-0.016,1.172-0.57,1.172-1.217
	c0-0.963,0-1.927,0-2.89c0-0.691-0.547-1.24-1.236-1.241c-0.961,0-1.922-0.001-2.883,0c-0.688,0.001-1.236,0.552-1.236,1.243
	c-0.001,0.955-0.004,1.91,0.003,2.865c0.001,0.143,0.028,0.291,0.073,0.426c0.173,0.508,0.639,0.82,1.209,0.823
	C174.261,101.912,174.725,101.911,175.188,101.911z M165.917,103.15c-3.384-0.002-6.135,2.721-6.182,6.089
	c-0.049,3.46,2.72,6.201,6.04,6.272c3.454,0.074,6.248-2.686,6.321-6.043C172.171,106.008,169.379,103.148,165.917,103.15z
	 M153.963,106.449v0.082c0,4.515-0.001,9.03,0,13.545c0,0.649,0.562,1.208,1.212,1.208c7.16,0.001,14.319,0.001,21.479,0
	c0.656,0,1.215-0.557,1.215-1.212c0.001-4.509,0-9.02,0-13.528v-0.094h-2.912c0.411,1.314,0.537,2.651,0.376,4.014
	c-0.161,1.363-0.601,2.631-1.316,3.803c-0.715,1.172-1.644,2.145-2.779,2.918c-2.944,2.006-6.821,2.182-9.946,0.428
	c-1.579-0.885-2.819-2.12-3.685-3.713c-1.289-2.373-1.495-4.865-0.739-7.451C155.9,106.449,154.938,106.449,153.963,106.449z
	 M178.122,124.588c0.159-0.026,0.318-0.049,0.475-0.083c1.246-0.265,2.264-1.304,2.508-2.557c0.025-0.137,0.045-0.273,0.067-0.409
	V97.127c-0.021-0.133-0.04-0.268-0.065-0.401c-0.268-1.367-1.396-2.428-2.78-2.618c-0.058-0.007-0.113-0.02-0.17-0.03h-24.479
	c-0.147,0.027-0.296,0.047-0.441,0.08c-1.352,0.308-2.352,1.396-2.545,2.766c-0.008,0.057-0.02,0.114-0.029,0.171v24.478
	c0.028,0.154,0.05,0.311,0.085,0.465c0.299,1.322,1.427,2.347,2.77,2.52c0.064,0.008,0.13,0.021,0.195,0.03H178.122z
	 M165.917,139.333c-16.568,0-30-13.432-30-30c0-16.569,13.432-30,30-30s30,13.431,30,30
	C195.917,125.901,182.485,139.333,165.917,139.333z"/>
</svg>
