<?xml version="1.0" encoding="utf-8"?>
<!-- Generator: Adobe Illustrator 17.0.2, SVG Export Plug-In . SVG Version: 6.00 Build 0)  -->
<!DOCTYPE svg PUBLIC "-//W3C//DTD SVG 1.1//EN" "http://www.w3.org/Graphics/SVG/1.1/DTD/svg11.dtd">
<svg version="1.1" id="Layer_1" xmlns="http://www.w3.org/2000/svg" xmlns:xlink="http://www.w3.org/1999/xlink" x="0px" y="0px"
	 width="67px" height="67px" viewBox="0 0 67 67" enable-background="new 0 0 67 67" xml:space="preserve">
<g>
	<path fill="#CF3427" d="M43.101,39.288c-0.783,0-1.418,0.242-1.911,0.727c-0.493,0.484-0.742,1.114-0.742,1.882v3.986
		c0,0.857,0.228,1.528,0.676,2.014c0.449,0.489,1.066,0.731,1.847,0.731c0.869,0,1.523-0.228,1.958-0.687
		c0.44-0.463,0.657-1.148,0.657-2.059v-0.456h-1.795v0.405c0,0.524-0.061,0.86-0.175,1.013c-0.115,0.153-0.317,0.229-0.606,0.229
		c-0.279,0-0.474-0.088-0.592-0.269c-0.113-0.182-0.17-0.506-0.17-0.974v-1.669v-0.003v0.003h3.338v-2.264
		c0-0.842-0.213-1.487-0.642-1.935C44.514,39.513,43.9,39.288,43.101,39.288z M43.79,42.776h-1.543V41.88
		c0-0.372,0.059-0.64,0.18-0.796c0.122-0.166,0.322-0.244,0.6-0.244c0.265,0,0.462,0.078,0.578,0.244
		c0.123,0.156,0.185,0.424,0.185,0.796V42.776z"/>
	<path fill="#CF3427" d="M37.831,39.399c-0.271,0-0.538,0.069-0.805,0.211c-0.263,0.139-0.511,0.347-0.748,0.617v-3.875h-1.764
		v12.032h1.764v-0.681c0.227,0.274,0.479,0.472,0.746,0.601c0.266,0.13,0.569,0.192,0.912,0.192c0.518,0,0.916-0.165,1.187-0.501
		c0.274-0.336,0.411-0.817,0.411-1.445v-4.926c0-0.727-0.144-1.281-0.438-1.66C38.806,39.588,38.385,39.399,37.831,39.399z
		 M37.738,46.305c0,0.286-0.053,0.487-0.153,0.611c-0.1,0.127-0.256,0.189-0.47,0.189c-0.148,0-0.287-0.033-0.421-0.096
		c-0.135-0.062-0.274-0.171-0.415-0.313v-5.531c0.119-0.122,0.239-0.213,0.36-0.271c0.121-0.059,0.244-0.085,0.37-0.085
		c0.234,0,0.417,0.076,0.544,0.23c0.123,0.154,0.185,0.383,0.185,0.682C37.738,41.721,37.738,46.305,37.738,46.305z"/>
	<path fill="#CF3427" d="M31.456,46.249c-0.167,0.192-0.345,0.35-0.542,0.475c-0.196,0.126-0.36,0.188-0.488,0.188
		c-0.162,0-0.281-0.046-0.358-0.141c-0.07-0.095-0.107-0.246-0.107-0.457v-6.809h-1.744v7.422c0,0.531,0.104,0.923,0.305,1.189
		c0.208,0.267,0.508,0.396,0.913,0.396c0.328,0,0.665-0.091,1.014-0.282c0.351-0.186,0.684-0.461,1.009-0.822v0.975H33.2v-8.878
		h-1.744C31.456,39.505,31.456,46.249,31.456,46.249z"/>
	<polygon fill="#CF3427" points="21.414,38.1 23.448,38.1 23.448,48.384 25.416,48.384 25.416,38.1 27.45,38.1 27.45,36.352 
		21.414,36.352 	"/>
	<g>
		<path fill="#CF3427" d="M32.947,27.307c0.266,0,0.476-0.075,0.634-0.223c0.157-0.152,0.235-0.358,0.235-0.618v-5.327
			c0-0.214-0.08-0.387-0.241-0.519c-0.16-0.131-0.37-0.196-0.628-0.196c-0.241,0-0.435,0.065-0.586,0.196
			c-0.148,0.132-0.225,0.305-0.225,0.519v5.327c0,0.267,0.072,0.473,0.211,0.622C32.486,27.235,32.686,27.307,32.947,27.307z"/>
		<path fill="#CF3427" d="M33.5,3.5c-16.568,0-30,13.431-30,30c0,16.568,13.432,30,30,30s30-13.432,30-30
			C63.5,16.931,50.068,3.5,33.5,3.5z M37.412,18.976h1.962v7.497c0,0.231,0.045,0.399,0.127,0.502
			c0.08,0.104,0.216,0.156,0.399,0.156c0.143,0,0.327-0.069,0.548-0.206c0.22-0.137,0.423-0.312,0.605-0.527v-7.422h1.966v9.779
			h-1.965v-1.08c-0.358,0.397-0.736,0.703-1.13,0.909c-0.392,0.208-0.771,0.312-1.14,0.312c-0.458,0-0.797-0.146-1.027-0.437
			c-0.229-0.291-0.345-0.727-0.345-1.311V18.976z M30.114,21.213c-0.001-0.759,0.263-1.362,0.794-1.81
			c0.528-0.449,1.241-0.674,2.132-0.674c0.812,0,1.48,0.237,2.001,0.711c0.517,0.473,0.777,1.083,0.777,1.828v5.051
			c0,0.836-0.255,1.491-0.762,1.968c-0.513,0.476-1.212,0.714-2.106,0.714c-0.858,0-1.547-0.246-2.064-0.736
			c-0.513-0.492-0.772-1.153-0.772-1.984V21.213z M24.762,15.5l1.437,5.298h0.139l1.366-5.298h2.25l-2.574,7.755v5.5h-2.213v-5.252
			L22.533,15.5H24.762z M47.008,51.039c-1.434,1.43-13.514,1.461-13.514,1.461s-12.079-0.031-13.516-1.462
			c-1.438-1.435-1.441-8.502-1.441-8.556c0-0.041,0.004-7.12,1.441-8.555c1.079-1.073,8.142-1.352,11.606-1.424
			c1.155-0.024,1.91-0.025,1.91-0.025c0,0,0.295,0,0.798,0.006c0.101,0.001,0.21,0.003,0.326,0.004
			c0.233,0.003,0.497,0.008,0.786,0.014c0.144,0.003,0.295,0.006,0.451,0.01c0.312,0.008,0.647,0.017,0.998,0.028
			c0.878,0.028,1.86,0.068,2.86,0.125c0.4,0.023,0.803,0.049,1.203,0.078c0.2,0.014,0.399,0.03,0.597,0.046
			c0.396,0.032,0.786,0.068,1.165,0.107c2.086,0.215,3.837,0.54,4.33,1.032c0.09,0.09,0.174,0.201,0.253,0.332
			c0.158,0.261,0.296,0.599,0.415,0.987c0.119,0.388,0.221,0.827,0.306,1.293s0.156,0.957,0.214,1.451
			c0.261,2.22,0.266,4.47,0.266,4.493C48.463,42.483,48.451,49.6,47.008,51.039z"/>
	</g>
</g>
</svg>
